<?xml version="1.0" encoding="UTF-8" standalone="no"?>
<!-- Generator: Adobe Illustrator 27.5.0, SVG Export Plug-In . SVG Version: 6.00 Build 0)  -->

<svg
   version="1.1"
   x="0px"
   y="0px"
   viewBox="0 0 500 500"
   style="enable-background:new 0 0 500 500;"
   xml:space="preserve"
   id="svg127"
   sodipodi:docname="about.svg"
   inkscape:version="1.3 (0e150ed6c4, 2023-07-21)"
   xmlns:inkscape="http://www.inkscape.org/namespaces/inkscape"
   xmlns:sodipodi="http://sodipodi.sourceforge.net/DTD/sodipodi-0.dtd"
   xmlns:xlink="http://www.w3.org/1999/xlink"
   xmlns="http://www.w3.org/2000/svg"
   xmlns:svg="http://www.w3.org/2000/svg"><defs
   id="defs127">&#10;	&#10;	&#10;	&#10;	&#10;	&#10;	&#10;	&#10;	&#10;	&#10;	&#10;		&#10;	&#10;		&#10;	&#10;		&#10;&#10;		&#10;		&#10;		&#10;		&#10;		&#10;		&#10;		&#10;		&#10;		&#10;	&#10;			&#10;			&#10;				&#10;			&#10;			&#10;		&#10;				<defs
   id="defs59">&#10;					&#10;						<rect
   id="XMLID_1_"
   x="101.227"
   y="134.653"
   transform="matrix(0.5857,-0.8106,0.8106,0.5857,-73.3754,176.015)"
   width="68.5"
   height="50.25" />&#10;				</defs>&#10;				&#10;				<clipPath
   id="XMLID_00000132056802841888472260000015453380485484529583_">&#10;					<use
   xlink:href="#XMLID_1_"
   style="overflow:visible"
   id="use61" />&#10;				</clipPath>&#10;				&#10;					&#10;				&#10;					&#10;			&#10;		&#10;		&#10;		&#10;		&#10;		&#10;		&#10;		&#10;	&#10;			&#10;			&#10;			&#10;			&#10;			&#10;		&#10;				&#10;				&#10;				&#10;				&#10;				&#10;			&#10;					<defs
   id="defs27">&#10;						<path
   id="XMLID_8_"
   d="m 365.46,181.02 c 0,0 -15.43,11.65 -18.7,11.54 -3.28,-0.1 -7.76,-0.19 -12.07,-5.94 -3.33,-4.45 -2.84,-8.29 -1.88,-11 0.27,-0.8 0.59,-1.49 0.86,-2.08 0.67,-1.46 13.43,-14.31 13.43,-14.31 l 3.17,0.84 c 0,0 2.06,11.53 14.62,19.53 z" />&#10;					</defs>&#10;					&#10;					<clipPath
   id="XMLID_00000033357560254337160310000013015127240030252937_">&#10;						<use
   xlink:href="#XMLID_8_"
   style="overflow:visible"
   id="use28" />&#10;					</clipPath>&#10;					&#10;					&#10;						&#10;				&#10;		&#10;		&#10;		&#10;		&#10;		&#10;		&#10;		&#10;		&#10;		&#10;	&#10;		&#10;		&#10;		&#10;		&#10;		&#10;		&#10;		&#10;		&#10;		&#10;		&#10;		&#10;		&#10;		&#10;		&#10;	&#10;		&#10;		&#10;		&#10;		&#10;		&#10;		&#10;		&#10;		&#10;		&#10;		&#10;		&#10;		&#10;		&#10;	</defs><sodipodi:namedview
   id="namedview127"
   pagecolor="#ffffff"
   bordercolor="#000000"
   borderopacity="0.25"
   inkscape:showpageshadow="2"
   inkscape:pageopacity="0.0"
   inkscape:pagecheckerboard="0"
   inkscape:deskcolor="#d1d1d1"
   inkscape:zoom="0.66609459"
   inkscape:cx="138.86917"
   inkscape:cy="374.57143"
   inkscape:window-width="1366"
   inkscape:window-height="705"
   inkscape:window-x="-8"
   inkscape:window-y="-8"
   inkscape:window-maximized="1"
   inkscape:current-layer="svg127" />&#10;<g
   id="Background_Simple_1_">&#10;	<g
   id="g2">&#10;		<path
   style="fill:#13bfa1;fill-opacity:1"
   d="M205.166,59c113.645-29.476,151.084,48.5,197.959,124.25s95.72,170.149,14.844,229.417H81.031    c0,0-49.2-12.485-50.031-78.759c-0.611-48.753,48.106-55.363,64.053-130.136C111,129,147.333,74,205.166,59z"
   id="path1" />&#10;		<path
   style="display:inline;opacity:0.7;fill:#ffffff"
   d="M 205.166,59 C 318.811,29.524 356.25,107.5 403.125,183.25 450,259 498.845,353.399 417.969,412.667 H 81.031 c 0,0 -49.2,-12.485 -50.031,-78.759 C 30.389,285.155 79.106,278.545 95.053,203.772 111,129 147.333,74 205.166,59 Z"
   id="path2" />&#10;	</g>&#10;</g>&#10;<g
   id="Graphics">&#10;	<path
   style="fill:none;stroke:#263238;stroke-linecap:round;stroke-linejoin:round;stroke-miterlimit:10;"
   d="M413.311,295.934   h-26.115c-0.693,0-1.255,0.561-1.255,1.255v7.999c0,0.693,0.562,1.255,1.255,1.255h1.703c-0.625,1.111-1.594,2.901-1.351,2.901   c0.271,0,2.997-1.975,4.262-2.901h21.501c0.692,0,1.255-0.562,1.255-1.255v-7.999C414.566,296.495,414.004,295.934,413.311,295.934   z"
   id="path3" />&#10;	<path
   style="fill:none;stroke:#263238;stroke-linecap:round;stroke-linejoin:round;stroke-miterlimit:10;"
   d="M406.589,311.15   h26.114c0.693,0,1.255,0.562,1.255,1.255v7.999c0,0.693-0.562,1.255-1.255,1.255H431c0.625,1.111,1.594,2.901,1.351,2.901   c-0.271,0-2.997-1.975-4.262-2.901h-21.5c-0.693,0-1.256-0.562-1.256-1.255v-7.999C405.333,311.712,405.895,311.15,406.589,311.15z   "
   id="path4" />&#10;	<path
   style="fill:none;stroke:#263238;stroke-linecap:round;stroke-linejoin:round;stroke-miterlimit:10;"
   d="M406.589,279.492   h26.114c0.693,0,1.255,0.562,1.255,1.255v7.999c0,0.693-0.562,1.255-1.255,1.255H431c0.625,1.111,1.594,2.901,1.351,2.901   c-0.271,0-2.997-1.975-4.262-2.901h-21.5c-0.693,0-1.256-0.561-1.256-1.255v-7.999   C405.333,280.054,405.895,279.492,406.589,279.492z"
   id="path5" />&#10;	<path
   style="fill:none;stroke:#263238;stroke-linecap:round;stroke-linejoin:round;stroke-miterlimit:10;"
   d="M95.053,232.643   c0.709-4.208-2.428-7.247-6.097-7.218c-3.575,0.028-6.733,5.953-6.733,5.953s-4.246-4.244-7.974-4.616   c-3.874-0.386-7.144,3.68-5.394,8.989C71.384,243.42,83,248.443,83,248.443S93.625,241.125,95.053,232.643z"
   id="path6" />&#10;	<path
   style="fill:none;stroke:#263238;stroke-linecap:round;stroke-linejoin:round;stroke-miterlimit:10;"
   d="M69.847,247.51   c-0.517-2.202-2.673-3.044-4.46-2.278c-1.742,0.747-2.071,4.29-2.071,4.29s-2.946-1.204-4.844-0.621   c-1.972,0.605-2.737,3.263-0.793,5.499c2.809,3.23,9.517,3.305,9.517,3.305S70.888,251.949,69.847,247.51z"
   id="path7" />&#10;	<path
   style="fill:none;stroke:#263238;stroke-linecap:round;stroke-linejoin:round;stroke-miterlimit:10;"
   d="M76.256,252.461   c-10.036,10.307-3.454,24.665,7.081,24.492c11.931-0.195,10.965-19.569,5.358-10.649c-5.607,8.92,8.441,24.016,15.805,15.311"
   id="path8" />&#10;</g>&#10;<g
   id="Bubble">&#10;	<path
   style="fill:#FFFFFF;stroke:#263238;stroke-linecap:round;stroke-linejoin:round;stroke-miterlimit:10;"
   d="M307.953,158.71   c0-24.191-26.059-43.801-58.205-43.801c-32.146,0-58.205,19.61-58.205,43.801c0,22.802,23.158,41.527,52.739,43.602l5.466,14.269   l5.466-14.269C284.796,200.236,307.953,181.511,307.953,158.71z"
   id="path9" />&#10;	<g
   id="g16">&#10;		<path
   style="fill:#13bfa1;stroke:#263238;stroke-linecap:round;stroke-linejoin:round;stroke-miterlimit:10;fill-opacity:1"
   d="M253.858,151.939    v-6.964l-3.819-0.302c-0.373-1.48-0.955-2.872-1.719-4.149l2.486-2.914l-4.924-4.925l-2.914,2.487    c-1.277-0.764-2.67-1.347-4.15-1.718l-0.303-3.82h-6.964l-0.303,3.82c-1.48,0.371-2.872,0.954-4.148,1.718l-2.914-2.487    l-4.926,4.925l2.487,2.914c-0.764,1.276-1.346,2.669-1.719,4.148l-3.819,0.303v6.964l3.819,0.303    c0.372,1.479,0.955,2.872,1.719,4.148l-2.487,2.915l4.926,4.924l2.914-2.486c1.276,0.764,2.669,1.346,4.148,1.718l0.303,3.819    h6.964l0.303-3.819c1.48-0.372,2.872-0.955,4.15-1.718l2.914,2.486l4.924-4.924l-2.486-2.915c0.764-1.276,1.346-2.669,1.719-4.149    L253.858,151.939z M235.034,155.159c-3.7,0-6.701-3-6.701-6.701s3.001-6.701,6.701-6.701c3.701,0,6.701,3,6.701,6.701    S238.735,155.159,235.034,155.159z"
   id="path10" />&#10;		<g
   id="g12">&#10;			<defs
   id="defs10">&#10;				<path
   id="XMLID_3_"
   d="M283.284,160.489v-5.386l-2.955-0.233c-0.287-1.145-0.736-2.221-1.328-3.208l1.924-2.253l-3.809-3.809      l-2.254,1.923c-0.988-0.59-2.063-1.041-3.207-1.329l-0.236-2.954h-5.385l-0.232,2.954c-1.146,0.288-2.223,0.738-3.209,1.329      l-2.254-1.923l-3.809,3.809l1.924,2.253c-0.592,0.987-1.043,2.063-1.33,3.208l-2.953,0.233v5.386l2.953,0.234      c0.287,1.144,0.738,2.222,1.33,3.208l-1.924,2.253l3.809,3.809l2.254-1.923c0.986,0.591,2.063,1.042,3.209,1.329l0.232,2.954      h5.385l0.236-2.954c1.145-0.287,2.219-0.737,3.207-1.329l2.254,1.923l3.809-3.809l-1.924-2.253      c0.592-0.988,1.041-2.064,1.328-3.209L283.284,160.489z M268.727,162.98c-2.863,0-5.182-2.32-5.182-5.183      c0-2.862,2.318-5.182,5.182-5.182c2.861,0,5.182,2.319,5.182,5.182C273.909,160.659,271.589,162.98,268.727,162.98z" />&#10;			</defs>&#10;			<use
   xlink:href="#XMLID_3_"
   style="overflow:visible;fill:#13bfa1;fill-opacity:1"
   id="use10" />&#10;			<clipPath
   id="XMLID_00000109003916220331883040000013029631024661508017_">&#10;				<use
   xlink:href="#XMLID_3_"
   style="overflow:visible;"
   id="use11" />&#10;			</clipPath>&#10;			<path
   style="opacity:0.5;clip-path:url(#XMLID_00000109003916220331883040000013029631024661508017_);fill:#FFFFFF;"
   d="     M283.284,160.489v-5.386l-2.955-0.233c-0.287-1.145-0.736-2.221-1.328-3.208l1.924-2.253l-3.809-3.809l-2.254,1.923     c-0.988-0.59-2.063-1.041-3.207-1.329l-0.236-2.954h-5.385l-0.232,2.954c-1.146,0.288-2.223,0.738-3.209,1.329l-2.254-1.923     l-3.809,3.809l1.924,2.253c-0.592,0.987-1.043,2.063-1.33,3.208l-2.953,0.233v5.386l2.953,0.234     c0.287,1.144,0.738,2.222,1.33,3.208l-1.924,2.253l3.809,3.809l2.254-1.923c0.986,0.591,2.063,1.042,3.209,1.329l0.232,2.954     h5.385l0.236-2.954c1.145-0.287,2.219-0.737,3.207-1.329l2.254,1.923l3.809-3.809l-1.924-2.253     c0.592-0.988,1.041-2.064,1.328-3.209L283.284,160.489z M268.727,162.98c-2.863,0-5.182-2.32-5.182-5.183     c0-2.862,2.318-5.182,5.182-5.182c2.861,0,5.182,2.319,5.182,5.182C273.909,160.659,271.589,162.98,268.727,162.98z"
   clip-path="url(#XMLID_00000109003916220331883040000013029631024661508017_)"
   id="path11" />&#10;			&#10;				<use
   xlink:href="#XMLID_3_"
   style="overflow:visible;fill:none;stroke:#263238;stroke-linecap:round;stroke-linejoin:round;stroke-miterlimit:10;"
   id="use12" />&#10;		</g>&#10;		<g
   id="g15">&#10;			<defs
   id="defs12">&#10;				<path
   id="XMLID_2_"
   d="M257.899,179.254v-3.873l-2.121-0.167c-0.209-0.823-0.531-1.597-0.957-2.307l1.383-1.621l-2.738-2.738      l-1.619,1.382c-0.711-0.424-1.484-0.749-2.307-0.956l-0.168-2.123h-3.873l-0.168,2.123c-0.822,0.207-1.597,0.531-2.308,0.956      l-1.619-1.383l-2.738,2.738l1.382,1.62c-0.424,0.71-0.748,1.484-0.955,2.307l-2.123,0.168v3.873l2.123,0.168      c0.207,0.822,0.531,1.597,0.955,2.306l-1.382,1.621l2.738,2.738l1.619-1.383c0.711,0.425,1.485,0.749,2.308,0.956l0.168,2.124      h3.873l0.168-2.124c0.822-0.207,1.596-0.531,2.307-0.956l1.619,1.383l2.738-2.738l-1.383-1.621      c0.426-0.71,0.75-1.484,0.957-2.307L257.899,179.254z M247.436,181.044c-2.058,0-3.727-1.667-3.727-3.726      s1.669-3.726,3.727-3.726c2.058,0,3.726,1.667,3.726,3.726S249.493,181.044,247.436,181.044z" />&#10;			</defs>&#10;			<use
   xlink:href="#XMLID_2_"
   style="overflow:visible;fill:#92E3A9;"
   id="use13" />&#10;			<clipPath
   id="XMLID_00000007416012626696307840000017484057962395136420_">&#10;				<use
   xlink:href="#XMLID_2_"
   style="overflow:visible;"
   id="use14" />&#10;			</clipPath>&#10;			<path
   style="opacity:0.7;clip-path:url(#XMLID_00000007416012626696307840000017484057962395136420_);fill:#FFFFFF;"
   d="     M257.899,179.254v-3.873l-2.121-0.167c-0.209-0.823-0.531-1.597-0.957-2.307l1.383-1.621l-2.738-2.738l-1.619,1.382     c-0.711-0.424-1.484-0.749-2.307-0.956l-0.168-2.123h-3.873l-0.168,2.123c-0.822,0.207-1.597,0.531-2.308,0.956l-1.619-1.383     l-2.738,2.738l1.382,1.62c-0.424,0.71-0.748,1.484-0.955,2.307l-2.123,0.168v3.873l2.123,0.168     c0.207,0.822,0.531,1.597,0.955,2.306l-1.382,1.621l2.738,2.738l1.619-1.383c0.711,0.425,1.485,0.749,2.308,0.956l0.168,2.124     h3.873l0.168-2.124c0.822-0.207,1.596-0.531,2.307-0.956l1.619,1.383l2.738-2.738l-1.383-1.621     c0.426-0.71,0.75-1.484,0.957-2.307L257.899,179.254z M247.436,181.044c-2.058,0-3.727-1.667-3.727-3.726     s1.669-3.726,3.727-3.726c2.058,0,3.726,1.667,3.726,3.726S249.493,181.044,247.436,181.044z"
   clip-path="url(#XMLID_00000007416012626696307840000017484057962395136420_)"
   id="path14" />&#10;			&#10;				<use
   xlink:href="#XMLID_2_"
   style="overflow:visible;fill:none;stroke:#263238;stroke-linecap:round;stroke-linejoin:round;stroke-miterlimit:10;"
   id="use15" />&#10;		</g>&#10;	</g>&#10;</g>&#10;<path
   style="fill:#13bfa1;fill-opacity:1"
   d="m 342.53,304.59 -7.1,5.41 c -11.06,-4.26 -10.35,-5.22 -20.93,-6.75 -5.48,-0.79 -16.83,-0.46 -26.37,0.04 -8.62,0.44 -15.77,1.02 -15.77,1.02 0,0 21.09,-20.96 26.89,-24.07 5.71,-3.05 31.27,-14.02 32.07,-14.36 0.01,0 0.02,-0.01 0.02,-0.01 0,0 19.19,21.38 11.19,38.72 z"
   id="path16" /><path
   style="opacity:0.2"
   d="m 342.53,304.59 -7.1,5.41 c -11.06,-4.26 -10.35,-5.22 -20.93,-6.75 -5.48,-0.79 -16.83,-0.46 -26.37,0.04 11.87,-8.21 43.97,-1.48 43.97,-1.48 0,0 -4.97,-6.33 -5.36,-19.16 -0.38,-12.35 4.23,-16.47 4.58,-16.77 0.01,0 0.02,-0.01 0.02,-0.01 0,0 19.19,21.38 11.19,38.72 z"
   id="path17" /><path
   style="fill:none;stroke:#263238;stroke-linecap:round;stroke-linejoin:round;stroke-miterlimit:10"
   d="m 272.359,304.314 c 0,0 21.095,-20.965 26.891,-24.069 5.796,-3.105 32.092,-14.375 32.092,-14.375 0,0 19.184,21.381 11.189,38.72 l -7.102,5.408"
   id="path18" /><g
   id="g20">&#10;			<defs
   id="defs18">&#10;				<path
   id="XMLID_17_"
   d="m 373.72,271.64 -32.22,29.25 c -15.12,-12.87 -10.25,-32.25 -10.25,-32.25 l 11.58,-8.13 13.98,-9.82 c 0,0 7.58,3.48 12.81,8.56 3.65,3.56 6.15,7.9 4.1,12.39 z" />&#10;			</defs>&#10;			<use
   xlink:href="#XMLID_17_"
   style="overflow:visible;fill:#ffffff"
   id="use18" />&#10;			<clipPath
   id="XMLID_00000017514229551449031560000001202291490832489398_">&#10;				<use
   xlink:href="#XMLID_17_"
   style="overflow:visible"
   id="use19" />&#10;			</clipPath>&#10;			<path
   style="opacity:0.2;fill:#92e3a9"
   d="m 369.62,259.25 c -0.46,1.48 -1.51,2.98 -3.33,4.48 -10.42,8.63 -18.94,2.1 -23.46,-3.22 l 13.98,-9.82 c 0,0 7.58,3.48 12.81,8.56 z"
   clip-path="url(#XMLID_00000017514229551449031560000001202291490832489398_)"
   id="path19" />&#10;			&#10;				<use
   xlink:href="#XMLID_17_"
   style="overflow:visible;fill:none;stroke:#263238;stroke-linecap:round;stroke-linejoin:round;stroke-miterlimit:10"
   id="use20" />&#10;		</g><g
   id="g23">&#10;			<defs
   id="defs20">&#10;				<path
   id="XMLID_19_"
   d="m 360.72,268.38 c 0,0 -5.3,-1.2 -9.18,-8.7 -3.88,-7.51 -3.43,-42.82 -2.56,-49.82 0.87,-7 14.28,-10.85 14.91,-3.81 0.1,1.07 0.51,3.17 1.12,6 0.8,3.63 1.92,8.46 3.12,13.8 4.04,17.89 9.01,41.58 5.59,45.79" />&#10;			</defs>&#10;			<use
   xlink:href="#XMLID_19_"
   style="overflow:visible;fill:#ffffff"
   id="use21" />&#10;			<clipPath
   id="XMLID_00000147924780288715041980000003214071027022917810_">&#10;				<use
   xlink:href="#XMLID_19_"
   style="overflow:visible"
   id="use22" />&#10;			</clipPath>&#10;			<path
   style="opacity:0.2;fill:#92e3a9"
   d="M 368.13,225.85 C 362.2,221.46 358,213.2 358,213.2 l 7.01,-1.15 c 0.8,3.63 1.92,8.46 3.12,13.8 z"
   clip-path="url(#XMLID_00000147924780288715041980000003214071027022917810_)"
   id="path22" />&#10;			&#10;				<use
   xlink:href="#XMLID_19_"
   style="overflow:visible;fill:none;stroke:#263238;stroke-linecap:round;stroke-linejoin:round;stroke-miterlimit:10"
   id="use23" />&#10;		</g><g
   id="g26">&#10;					<defs
   id="defs23">&#10;						<path
   id="XMLID_10_"
   d="m 402.37,162.98 c 0,0 -0.008,0.078 -0.027,0.193 -0.519,5.669 -7.461,4.596 -16.613,6.178 -6.97,1.2 -16.08,6.84 -22.77,11.6 -5.27,3.74 -9.03,6.93 -9.03,6.93 0,0 -7.68,-5.11 -14.62,-19.32 0,0 25.12,-15.77 28.05,-35.28 2.31,-15.3 24.48,-0.31 32.82,20.61 1.66,4.149 2.33,7.049 2.19,9.089 z" />&#10;					</defs>&#10;					<use
   xlink:href="#XMLID_10_"
   style="overflow:visible;fill:#ffffff"
   id="use24" />&#10;					<clipPath
   id="XMLID_00000155844558491533714170000017148693645751862920_">&#10;						<use
   xlink:href="#XMLID_10_"
   style="overflow:visible"
   id="use25" />&#10;					</clipPath>&#10;					<path
   style="opacity:0.15"
   d="m 402.343,163.173 c -0.519,5.669 -7.461,4.596 -16.613,6.178 -6.97,1.2 -16.08,6.84 -22.77,11.6 -3.05,-1.8 -4.73,-3.54 -4.05,-5.05 3.09,-6.85 14.71,-9.05 14.71,-9.05 0,0 -0.99,-4.49 0.82,-6.66 1.81,-2.18 8.47,2.17 17.97,5.55 8.526,3.038 9.766,-1.578 9.933,-2.568 z"
   clip-path="url(#XMLID_00000155844558491533714170000017148693645751862920_)"
   id="path25" />&#10;					&#10;						<use
   xlink:href="#XMLID_10_"
   style="overflow:visible;fill:none;stroke:#263238;stroke-linecap:round;stroke-linejoin:round;stroke-miterlimit:10"
   id="use26" />&#10;				</g><path
   style="fill:none;stroke:#263238;stroke-linecap:round;stroke-linejoin:round;stroke-miterlimit:10"
   d="m 376.2,145.951 c 6.146,-2.325 8.521,-6.505 9.704,-5.563 1.185,0.942 5.453,4.046 4.761,5.858 -0.691,1.812 -6.217,8.227 -6.769,9.371"
   id="path26" /><path
   style="fill:none;stroke:#263238;stroke-linecap:round;stroke-linejoin:round;stroke-miterlimit:10"
   d="m 373.337,129.642 c -3.311,0.31 -2.867,9.022 5.24,19.729 8.108,10.707 16.119,15.604 19.674,14.378 3.555,-1.226 1.086,-5.888 1.086,-5.888"
   id="path27" /><use
   xlink:href="#XMLID_8_"
   style="overflow:visible;fill:#13bfa1;fill-opacity:1"
   id="use27" /><path
   style="opacity:0.2"
   d="m 365.46,181.02 c 0,0 -15.43,11.65 -18.7,11.54 -3.28,-0.1 -7.76,-0.19 -12.07,-5.94 -3.33,-4.45 -2.84,-8.29 -1.88,-11 0.8,3.13 2.34,7.62 4.81,9.4 3.95,2.86 20.38,-6.33 20.38,-6.33 0,0 -9.12,-11.23 -7.73,-18.62 0,0 2.06,11.53 14.62,19.53 z"
   clip-path="url(#XMLID_00000033357560254337160310000013015127240030252937_)"
   id="path28" /><use
   xlink:href="#XMLID_8_"
   style="overflow:visible;fill:none;stroke:#263238;stroke-linecap:round;stroke-linejoin:round;stroke-miterlimit:10"
   id="use29" /><path
   style="opacity:0.15"
   d="m 373.337,129.642 c -3.311,0.31 -2.867,9.022 5.24,19.729 8.108,10.707 16.119,15.604 19.674,14.378 3.555,-1.226 1.086,-5.888 1.086,-5.888 0,0 -2.191,-9.178 -10.087,-17.609 -9.25,-9.877 -15.913,-10.61 -15.913,-10.61 z"
   id="path29" /><path
   style="fill:#ffffff;stroke:#263238;stroke-linecap:round;stroke-linejoin:round;stroke-miterlimit:10"
   d="M 377.859,199.061 C 377.5,203.5 365.653,219.674 358,216.167"
   id="path30" /><g
   id="g32">&#10;				<defs
   id="defs30">&#10;					<path
   id="XMLID_9_"
   d="m 349.125,191.25 c 0,0 6.091,16.968 10.496,20.083 4.404,3.117 15.776,-6.354 14.754,-7.958 -1.023,-1.605 -12.021,-11.815 -13.756,-20.125 0,0 -5.181,0.722 -11.494,8 z" />&#10;				</defs>&#10;				<use
   xlink:href="#XMLID_9_"
   style="overflow:visible;fill:#13bfa1;fill-opacity:1"
   id="use30" />&#10;				<clipPath
   id="XMLID_00000182489175310290156150000002423767912905081226_">&#10;					<use
   xlink:href="#XMLID_9_"
   style="overflow:visible"
   id="use31" />&#10;				</clipPath>&#10;				<path
   style="opacity:0.2"
   d="m 349.125,191.25 c 0,0 6.091,16.968 10.496,20.083 4.404,3.117 15.776,-6.354 14.754,-7.958 -1.023,-1.605 -12.021,-11.815 -13.756,-20.125 0,0 -5.181,0.722 -11.494,8 z"
   clip-path="url(#XMLID_00000182489175310290156150000002423767912905081226_)"
   id="path31" />&#10;				&#10;					<use
   xlink:href="#XMLID_9_"
   style="overflow:visible;fill:none;stroke:#263238;stroke-linecap:round;stroke-linejoin:round;stroke-miterlimit:10"
   id="use32" />&#10;			</g><g
   id="g35">&#10;				<path
   style="fill:#ffffff;stroke:#263238;stroke-linecap:round;stroke-linejoin:round;stroke-miterlimit:10"
   d="m 377.609,200.477 c 1.038,-3.5 -1.497,-2.552 -1.09,-5.84 0.408,-3.288 -1.706,-3.279 -2.375,-6.674 -0.668,-3.393 -2.76,-3.064 -3.979,-5.861 -1.22,-2.797 -4.276,-1.678 -7.236,-0.314 -2.96,1.364 -6.935,7.866 -6.935,7.866 -0.586,4.182 2.914,3.313 2.914,3.313 -2.323,4.298 1.548,5.242 1.548,5.242 -0.205,4.619 2.586,4.046 2.586,4.046 0,0 -0.142,2.155 1.954,2.505 1.342,0.225 11.576,-0.784 12.613,-4.283 z"
   id="path32" />&#10;				<path
   style="fill:none;stroke:#263238;stroke-linecap:round;stroke-linejoin:round;stroke-miterlimit:10"
   d="m 358.908,192.966 c 0,0 5.654,-5.97 7.385,-6.646"
   id="path33" />&#10;				<path
   style="fill:none;stroke:#263238;stroke-linecap:round;stroke-linejoin:round;stroke-miterlimit:10"
   d="m 360.456,198.208 c 0,0 3.414,-3.818 9.077,-5.742"
   id="path34" />&#10;				<path
   style="fill:none;stroke:#263238;stroke-linecap:round;stroke-linejoin:round;stroke-miterlimit:10"
   d="m 363.042,202.254 c 0,0 7.501,-3.697 8.603,-4.039"
   id="path35" />&#10;			</g><path
   style="fill:#ffffff;stroke:#263238;stroke-linecap:round;stroke-linejoin:round;stroke-miterlimit:10"
   d="m 353.125,215.375 c 0,0 -5.5,-5.087 -6.5,-7.25 -1,-2.163 -2.928,-11.464 -1.553,-13.964 1.375,-2.5 5.42,-6.661 6.049,-8.661 0.629,-2 4.125,2.384 0.129,10.375 0,0 4.779,5.789 3.996,12.125"
   id="path36" /><path
   style="opacity:0.15"
   d="m 402.37,162.98 c 0,0 -0.008,0.078 -0.027,0.193 0.006,-0.068 0.023,-0.124 0.027,-0.193 z"
   id="path37" /><path
   style="fill:#13bfa1;fill-opacity:1"
   d="m 349.85,363.4 c 0,0 -2.2,0.89 -5.37,-3.07 -6.03,-7.54 -15.05,-25.65 -20.98,-34.33 -2.54,-3.72 -9.56,-7.38 -17.15,-10.45 -11.74,-4.74 -24.84,-8.09 -24.84,-8.09 0,0 31.94,-1.97 40.05,0.47 7.02,2.1 31.88,16.32 38.97,20.41 1.21,0.7 1.9,1.1 1.9,1.1 0,0 1.07,15.06 -12.58,33.96 z"
   id="path38" /><path
   style="opacity:0.2"
   d="m 349.85,363.4 c 0,0 -2.2,0.89 -5.37,-3.07 -6.03,-7.54 -15.05,-25.65 -20.98,-34.33 -2.54,-3.72 -9.56,-7.38 -17.15,-10.45 28.97,6.62 39.24,35.7 39.24,35.7 0,0 1.54,-16.51 14.94,-22.91 1.21,0.7 1.9,1.1 1.9,1.1 0,0 1.07,15.06 -12.58,33.96 z"
   id="path39" /><path
   style="fill:none;stroke:#263238;stroke-linecap:round;stroke-linejoin:round;stroke-miterlimit:10"
   d="m 281.508,307.461 c 0,0 31.943,-1.968 40.05,0.467 8.209,2.467 40.876,21.512 40.876,21.512 0,0 1.063,15.06 -12.582,33.962"
   id="path40" /><g
   id="g42">&#10;			<defs
   id="defs40">&#10;				<path
   id="XMLID_16_"
   d="m 403.12,376.38 c -1.65,1.12 -4.81,1.11 -8.82,0.37 -3.68,-0.68 -8.07,-1.97 -12.65,-3.56 -15.35,-5.32 -32.82,-13.96 -32.82,-13.96 0,0 0.05,-20.52 12.11,-28.47 0,0 15.64,10.71 25.71,13.36 8.44,2.23 16.47,32.26 16.47,32.26 z" />&#10;			</defs>&#10;			<use
   xlink:href="#XMLID_16_"
   style="overflow:visible;fill:#ffffff"
   id="use40" />&#10;			<clipPath
   id="XMLID_00000121261403098161891830000004830370465287470271_">&#10;				<use
   xlink:href="#XMLID_16_"
   style="overflow:visible"
   id="use41" />&#10;			</clipPath>&#10;			<path
   style="opacity:0.2;fill:#92e3a9"
   d="m 394.3,376.75 c -3.68,-0.68 -8.07,-1.97 -12.65,-3.56 -2.25,-10.39 4.29,-21.94 4.29,-21.94 0.25,11.07 4.54,19.84 8.36,25.5 z"
   clip-path="url(#XMLID_00000121261403098161891830000004830370465287470271_)"
   id="path41" />&#10;			&#10;				<use
   xlink:href="#XMLID_16_"
   style="overflow:visible;fill:none;stroke:#263238;stroke-linecap:round;stroke-linejoin:round;stroke-miterlimit:10"
   id="use42" />&#10;		</g><path
   style="fill:#ffffff;stroke:#263238;stroke-linecap:round;stroke-linejoin:round;stroke-miterlimit:10"
   d="m 388.724,370.461 c -0.905,-2.141 -1.595,-4.814 -2.077,-8.088"
   id="path42" /><path
   style="fill:#ffffff;stroke:#263238;stroke-linecap:round;stroke-linejoin:round;stroke-miterlimit:10"
   d="m 388.729,335.802 c 4.436,0.699 8.521,10.257 11.271,13.662 0,0 7.832,3.65 9.166,7.094 1.334,3.443 6.676,17.233 -3.916,20.067 -6.092,1.63 -10.64,1.344 -13.802,-1.881"
   id="path43" /><g
   id="g46">&#10;			<g
   id="g45">&#10;				<defs
   id="defs43">&#10;					<path
   id="XMLID_4_"
   d="m 389.73,322.21 v 0.32 c -0.05,2.94 -0.88,8.77 -2.75,19.1 -1.75,9.66 -2.08,10.41 -3.25,10.9 -1.43,0.59 -11.68,2.87 -16.05,3.81 -0.36,0.07 -0.68,0.14 -0.95,0.2 -0.63,0.14 -2.29,-0.73 -2.18,-1.36 0.52,-3.19 4.08,-32.03 5.51,-32.97 2.17,-1.42 16.2,-2.76 17.76,-2.33 0.73,0.2 1.91,1.58 1.91,2.33 z" />&#10;				</defs>&#10;				<use
   xlink:href="#XMLID_4_"
   style="overflow:visible;fill:#999999"
   id="use43" />&#10;				<clipPath
   id="XMLID_00000002366492365075390470000014282519926785302206_">&#10;					<use
   xlink:href="#XMLID_4_"
   style="overflow:visible"
   id="use44" />&#10;				</clipPath>&#10;				<path
   style="opacity:0.2"
   d="m 389.73,322.53 c -0.05,2.94 -0.88,8.77 -2.75,19.1 -1.75,9.66 -2.08,10.41 -3.25,10.9 -1.43,0.59 -11.68,2.87 -16.05,3.81 0.53,-4.17 2.13,-15.82 5.43,-31.78 z"
   clip-path="url(#XMLID_00000002366492365075390470000014282519926785302206_)"
   id="path44" />&#10;				&#10;					<use
   xlink:href="#XMLID_4_"
   style="overflow:visible;fill:none;stroke:#263238;stroke-linecap:round;stroke-linejoin:round;stroke-miterlimit:10"
   id="use45" />&#10;			</g>&#10;			<path
   style="fill:none;stroke:#263238;stroke-linecap:round;stroke-linejoin:round;stroke-miterlimit:10"
   d="m 367.478,354.294 c 0,0 4.666,-27.166 5.083,-28.833 0.417,-1.667 0.834,-1.001 14.834,-2.834"
   id="path45" />&#10;		</g><g
   id="g50">&#10;			<path
   style="fill:#ffffff;stroke:#263238;stroke-linecap:round;stroke-linejoin:round;stroke-miterlimit:10"
   d="m 386.645,362.373 c 0,0 -7.249,2.587 -6.75,-1.83 0,0 -1.666,-1.166 -1.666,-2.999 0,-1.833 1.167,-3.833 1.167,-3.833 0,0 -2.751,4.749 -5.084,1.999 -0.612,-0.722 1.873,-5.885 1.873,-5.885 0,0 -2.29,1.385 -3.373,-1.198 -0.33,-0.787 3.489,-7.892 4.323,-8.417 2.801,-1.765 10.092,-5.518 12.593,-4.092 2.501,1.426 3.334,5.926 4.834,7.593 1.5,1.667 0.666,7.333 0,11.333"
   id="path46" />&#10;			<path
   style="fill:#ffffff;stroke:#263238;stroke-linecap:round;stroke-linejoin:round;stroke-miterlimit:10"
   d="m 376.185,349.825 c 0,0 2.627,-4.532 3.377,-5.115 0.75,-0.583 7.083,-2.417 7.083,-2.417"
   id="path47" />&#10;			<path
   style="fill:#ffffff;stroke:#263238;stroke-linecap:round;stroke-linejoin:round;stroke-miterlimit:10"
   d="m 379.396,353.711 c 1.583,-1.751 2.499,-3.771 3.166,-3.886 0.667,-0.115 5.751,-0.866 6.167,-1.032"
   id="path48" />&#10;			<path
   style="fill:#ffffff;stroke:#263238;stroke-linecap:round;stroke-linejoin:round;stroke-miterlimit:10"
   d="m 379.629,360.327 c 1.767,-2.034 4.518,-4.117 5.101,-4.117 0.583,0 3.834,-0.417 4,-0.5"
   id="path49" />&#10;			<path
   style="fill:#ffffff;stroke:#263238;stroke-linecap:round;stroke-linejoin:round;stroke-miterlimit:10"
   d="m 387.82,361.377 c 0,0 -1.508,1.332 -3.758,0.916"
   id="path50" />&#10;		</g><path
   style="fill:#ffffff;stroke:#263238;stroke-linecap:round;stroke-linejoin:round;stroke-miterlimit:10"
   d="m 386.645,362.373 c 0,0 6.605,5.506 9.605,-0.996"
   id="path51" /><path
   style="fill:#13bfa1;fill-opacity:1"
   d="m 225,303.85 c 0,0 -2.92,-0.08 -7.15,-0.19 -9.74,-0.24 -26.45,-0.6 -30.41,-0.35 -7.32,0.47 -14.44,3.85 -14.44,3.85 l -16.13,-22 c 2.46,-30.49 21.9,-33.83 21.9,-33.83 0,0 13.73,15.67 18.73,19.94 5,4.27 27.5,32.58 27.5,32.58 z"
   id="path52" /><path
   style="opacity:0.2"
   d="m 217.85,303.66 c -9.74,-0.24 -26.45,-0.6 -30.41,-0.35 -7.32,0.47 -14.44,3.85 -14.44,3.85 l -16.13,-22 c 2.46,-30.49 21.9,-33.83 21.9,-33.83 0,0 1.14,18.62 -13.73,31.39 0,0 4.6,12.92 14.64,15.48 10.05,2.56 29.64,0.46 38.17,5.46 z"
   id="path53" /><path
   style="fill:none;stroke:#263238;stroke-linecap:round;stroke-linejoin:round;stroke-miterlimit:10"
   d="m 225,303.851 c 0,0 -22.5,-28.311 -27.5,-32.581 -5,-4.27 -18.727,-19.939 -18.727,-19.939 0,0 -19.44,3.337 -21.908,33.825 L 173,307.158"
   id="path54" /><g
   id="g56">&#10;			<defs
   id="defs54">&#10;				<path
   id="XMLID_11_"
   d="m 177.49,255 c 0,0 -0.35,16.36 -18.16,25.16 L 128.5,236.53 c -2.17,-11.8 21.5,-16.2 21.5,-16.2 l 0.01,0.02 11.16,14.07 z" />&#10;			</defs>&#10;			<use
   xlink:href="#XMLID_11_"
   style="overflow:visible;fill:#ffffff"
   id="use54" />&#10;			<clipPath
   id="XMLID_00000037694774316488650950000008149899301732741525_">&#10;				<use
   xlink:href="#XMLID_11_"
   style="overflow:visible"
   id="use55" />&#10;			</clipPath>&#10;			<path
   style="opacity:0.2;fill:#92e3a9"
   d="m 161.17,234.42 c -10.41,8.23 -21.96,-0.65 -21.96,-0.65 l 10.8,-13.42 z"
   clip-path="url(#XMLID_00000037694774316488650950000008149899301732741525_)"
   id="path55" />&#10;			&#10;				<use
   xlink:href="#XMLID_11_"
   style="overflow:visible;fill:none;stroke:#263238;stroke-linecap:round;stroke-linejoin:round;stroke-miterlimit:10"
   id="use56" />&#10;		</g><g
   id="g59">&#10;			<defs
   id="defs56">&#10;				<path
   id="XMLID_7_"
   d="m 128.5,236.53 c -1.26,-2.7 0,-9.25 2.24,-16.84 2.57,-8.71 6.42,-18.81 9.25,-26.03 1.56,-4.01 2.81,-7.13 3.34,-8.66 2.34,-6.67 14.4,0.33 13.54,7.33 -0.87,7 1.65,31.67 -3.94,38 -5.6,6.34 -11.03,6.2 -11.03,6.2" />&#10;			</defs>&#10;			<use
   xlink:href="#XMLID_7_"
   style="overflow:visible;fill:#ffffff"
   id="use57" />&#10;			<clipPath
   id="XMLID_00000033330987535932798060000018113691966420660404_">&#10;				<use
   xlink:href="#XMLID_7_"
   style="overflow:visible"
   id="use58" />&#10;			</clipPath>&#10;			<path
   style="opacity:0.2;fill:#92e3a9"
   d="m 148.07,189.64 c 0,0 -4.52,26.99 -8.86,28.57 -1.82,0.66 -5.18,1.14 -8.47,1.48 2.57,-8.71 6.42,-18.81 9.25,-26.03 z"
   clip-path="url(#XMLID_00000033330987535932798060000018113691966420660404_)"
   id="path58" />&#10;			&#10;				<use
   xlink:href="#XMLID_7_"
   style="overflow:visible;fill:none;stroke:#263238;stroke-linecap:round;stroke-linejoin:round;stroke-miterlimit:10"
   id="use59" />&#10;		</g><path
   style="fill:#bfbfbf;stroke:#263238;stroke-miterlimit:10"
   d="m 138.21,205.164 c -0.907,1.255 -2.661,1.537 -3.916,0.63 L 92.16,175.352 c -1.255,-0.907 -1.538,-2.661 -0.631,-3.916 l 41.216,-57.043 c 0.907,-1.255 2.66,-1.538 3.916,-0.631 l 42.135,30.443 c 1.255,0.907 1.538,2.661 0.63,3.916 z"
   id="path59" /><rect
   x="-17.412708"
   y="189.88338"
   transform="rotate(-54.149962)"
   style="fill:#13bfa1;stroke:#263238;stroke-width:1.00006;stroke-linecap:round;stroke-linejoin:round;stroke-miterlimit:10;fill-opacity:1"
   width="6.2503653"
   height="27.022579"
   id="rect59" /><use
   xlink:href="#XMLID_1_"
   style="overflow:visible;fill:#13bfa1;fill-opacity:1"
   id="use60" /><rect
   x="101.227"
   y="134.653"
   transform="matrix(0.5857,-0.8106,0.8106,0.5857,-73.3754,176.015)"
   style="opacity:0.7;fill:#ffffff"
   width="68.5"
   height="50.25"
   clip-path="url(#XMLID_00000132056802841888472260000015453380485484529583_)"
   id="rect61" /><use
   xlink:href="#XMLID_1_"
   style="overflow:visible;fill:none;stroke:#263238;stroke-linecap:round;stroke-linejoin:round;stroke-miterlimit:10"
   id="use62" /><path
   style="fill:none;stroke:#263238;stroke-linecap:round;stroke-linejoin:round;stroke-miterlimit:10"
   d="m 164.767,136.354 -2.22,3.072 c -0.345,0.479 -1.001,0.584 -1.48,0.238 l -5.544,-4.005 c 0.32,-0.904 0.032,-1.939 -0.787,-2.53 -0.818,-0.591 -1.892,-0.54 -2.649,0.047 l -5.552,-4.011 c -0.47,-0.34 -0.585,-1.002 -0.238,-1.48 l 2.219,-3.071 c 0.34,-0.471 1.01,-0.578 1.48,-0.238 l 14.534,10.5 c 0.477,0.344 0.577,1.008 0.237,1.478 z"
   id="path62" /><path
   style="fill:#ffffff;stroke:#263238;stroke-linecap:round;stroke-linejoin:round;stroke-miterlimit:10"
   d="m 152.997,196.111 c 0,0 6.36,-3.959 7.75,-5.895 1.39,-1.936 5.036,-10.707 4.157,-13.421 -0.879,-2.714 -4.067,-7.564 -4.308,-9.646 -0.241,-2.082 -4.501,1.564 -2.083,10.165 0,0 -5.784,4.784 -6.21,11.154"
   id="path63" /><path
   style="fill:#ffffff;stroke:#263238;stroke-linecap:round;stroke-linejoin:round;stroke-miterlimit:10"
   d="m 149.61,159.235 c 0,7.553 -6.123,13.676 -13.677,13.676 -7.553,0 -13.676,-6.123 -13.676,-13.676 0,-7.554 6.123,-13.677 13.676,-13.677 7.554,0.001 13.677,6.124 13.677,13.677 z"
   id="path64" /><polyline
   style="fill:#ffffff;stroke:#263238;stroke-linecap:round;stroke-linejoin:round;stroke-miterlimit:10"
   points="    129.125,154.333 130.803,163.933 146.095,159.778   "
   id="polyline64" /><path
   style="fill:#13bfa1;fill-opacity:1"
   d="m 220.15,308.46 c 0,0 -19.63,3.13 -34.4,11.12 -3.03,1.63 -5.85,3.48 -8.26,5.54 -6.87,5.89 -12.87,18.09 -17.99,27.76 -4.38,8.24 -7.69,11.52 -7.69,11.52 -13.64,-18.9 -12.58,-33.96 -12.58,-33.96 0,0 0.05,-0.03 0.13,-0.07 2.22,-1.3 32.84,-19.07 40.74,-21.44 8.11,-2.44 40.05,-0.47 40.05,-0.47 z"
   id="path65" /><path
   style="opacity:0.2"
   d="m 185.75,319.58 c -3.03,1.63 -5.85,3.48 -8.26,5.54 -6.87,5.89 -12.87,18.09 -17.99,27.76 -4.38,8.24 -7.69,11.52 -7.69,11.52 -13.64,-18.9 -12.58,-33.96 -12.58,-33.96 0,0 0.05,-0.03 0.13,-0.07 1.05,-0.47 8.12,-2.82 17.51,15.2 0,0 6.49,-21.19 28.88,-25.99 z"
   id="path66" /><path
   style="fill:#ffffff;stroke:#263238;stroke-linecap:round;stroke-linejoin:round;stroke-miterlimit:10"
   d="m 119.81,286.844 c 0,0 -8.582,-2.227 -6.016,5.813 2.567,8.04 11.764,7.783 11.764,7.783"
   id="path67" /><path
   style="fill:none;stroke:#263238;stroke-linecap:round;stroke-linejoin:round;stroke-miterlimit:10"
   d="m 220.154,308.461 c 0,0 -31.943,-1.968 -40.05,0.467 -8.209,2.467 -40.876,21.512 -40.876,21.512 0,0 -1.061,15.06 12.583,33.962"
   id="path68" /><g
   id="g70">&#10;			<defs
   id="defs68">&#10;				<path
   id="XMLID_12_"
   d="m 152.84,360.23 c 0,0 -47.51,17.21 -55.27,7.86 0,0 3.52,-9.89 8.3,-17.44 2.57,-4.06 5.52,-7.45 8.48,-8.23 3.8,-1.01 8.5,-2.78 12.87,-4.58 7.2,-2.98 13.51,-6.08 13.51,-6.08 12.05,7.95 12.11,28.47 12.11,28.47 z" />&#10;			</defs>&#10;			<use
   xlink:href="#XMLID_12_"
   style="overflow:visible;fill:#ffffff"
   id="use68" />&#10;			<clipPath
   id="XMLID_00000108290662921983280440000006201578126697147062_">&#10;				<use
   xlink:href="#XMLID_12_"
   style="overflow:visible"
   id="use69" />&#10;			</clipPath>&#10;			<path
   style="opacity:0.2;fill:#92e3a9"
   d="m 127.22,337.84 c -1.36,6.43 -5.18,18.42 -14.77,17.64 -3.72,-0.3 -5.68,-2.22 -6.58,-4.83 2.57,-4.06 5.52,-7.45 8.48,-8.23 3.8,-1.01 8.5,-2.78 12.87,-4.58 z"
   clip-path="url(#XMLID_00000108290662921983280440000006201578126697147062_)"
   id="path69" />&#10;			&#10;				<use
   xlink:href="#XMLID_12_"
   style="overflow:visible;fill:none;stroke:#263238;stroke-linecap:round;stroke-linejoin:round;stroke-miterlimit:10"
   id="use70" />&#10;		</g><g
   id="g73">&#10;			<defs
   id="defs70">&#10;				<path
   id="XMLID_13_"
   d="m 101.22,370.15 c -11.18,0.5 -11.89,-25.82 -6.27,-64.91 0,0 8.62,-17.11 12.6,-17.34 1.07,-0.06 2.55,-0.09 4.13,-0.09 4.29,-0.03 9.37,0.09 9.37,0.09 0,0 2.3,9.91 2.32,13.28 0.03,5.05 -2.19,5.62 -2.19,5.62 0.12,4.76 -3.73,5.24 -7.86,4.59 0,0 -0.07,0.24 -0.29,0.6 -0.55,0.92 -2.04,2.63 -5.64,3.09 -0.06,15.25 14.75,38.34 6.91,43.38" />&#10;			</defs>&#10;			<use
   xlink:href="#XMLID_13_"
   style="overflow:visible;fill:#ffffff"
   id="use71" />&#10;			<clipPath
   id="XMLID_00000164508307035584026340000017157828925532899249_">&#10;				<use
   xlink:href="#XMLID_13_"
   style="overflow:visible"
   id="use72" />&#10;			</clipPath>&#10;			<path
   style="opacity:0.2;fill:#92e3a9"
   d="m 123.37,301.18 c 0.03,5.05 -2.19,5.62 -2.19,5.62 0.12,4.76 -3.73,5.24 -7.86,4.59 0,0 -0.07,0.24 -0.29,0.6 l 1.27,-3.83 c 0,0 1.33,0.56 2.13,0.17 2.5,-1.23 1.19,-5.54 1.19,-5.54 0,0 1.42,-0.38 1.82,-2.35 0.39,-1.97 -3.97,-3.3 -3.97,-3.3 1.37,-2.29 -1.68,-4.48 -1.68,-4.48 1.09,-1.64 -0.33,-3.44 -2.11,-4.85 4.29,-0.03 9.37,0.09 9.37,0.09 0,0 2.3,9.91 2.32,13.28 z"
   clip-path="url(#XMLID_00000164508307035584026340000017157828925532899249_)"
   id="path72" />&#10;			&#10;				<use
   xlink:href="#XMLID_13_"
   style="overflow:visible;fill:none;stroke:#263238;stroke-linecap:round;stroke-linejoin:round;stroke-miterlimit:10"
   id="use73" />&#10;		</g><path
   style="fill:none;stroke:#263238;stroke-linecap:round;stroke-linejoin:round;stroke-miterlimit:10"
   d="m 121.101,299.718 c -1.381,-2.538 -2.712,-1.072 -9.347,-2.675 0,0 4.289,0.427 7.564,-0.361"
   id="path73" /><path
   style="fill:none;stroke:#263238;stroke-linecap:round;stroke-linejoin:round;stroke-miterlimit:10"
   d="m 110.984,292.107 c 0.898,0.402 4.805,0.11 6.635,0"
   id="path74" /><path
   style="fill:none;stroke:#263238;stroke-linecap:round;stroke-linejoin:round;stroke-miterlimit:10"
   d="m 113.315,302.834 c -0.023,-0.19 5.59,0.276 6.503,0.94 0.913,0.664 1.484,3.136 1.484,3.136"
   id="path75" /><path
   style="fill:none;stroke:#263238;stroke-linecap:round;stroke-linejoin:round;stroke-miterlimit:10"
   d="m 117.619,308.158 c -0.419,0.385 -3.317,0 -3.317,0 0,0 -0.189,1.939 -0.986,3.236"
   id="path76" /><g
   id="g81">&#10;			<g
   id="g78">&#10;				<defs
   id="defs76">&#10;					<path
   id="XMLID_5_"
   d="m 148.07,283.66 c 0,8.2 -3.35,15.34 -8.29,19.09 h -15.85 c -4.95,-3.75 -8.3,-10.89 -8.3,-19.09 0,-0.34 0.03,-0.67 0.04,-1.01 h 32.36 c 0.02,0.34 0.04,0.67 0.04,1.01 z" />&#10;				</defs>&#10;				<use
   xlink:href="#XMLID_5_"
   style="overflow:visible;fill:#757575"
   id="use76" />&#10;				<clipPath
   id="XMLID_00000143611369236125769860000003729865526542950538_">&#10;					<use
   xlink:href="#XMLID_5_"
   style="overflow:visible"
   id="use77" />&#10;				</clipPath>&#10;				<path
   style="opacity:0.2"
   d="m 135.93,301.81 -0.07,0.94 h -11.93 c -4.95,-3.75 -8.3,-10.89 -8.3,-19.09 0,-0.34 0.03,-0.67 0.04,-1.01 h 3.52 c 2.43,5.98 7.77,16.22 16.74,19.16 z"
   clip-path="url(#XMLID_00000143611369236125769860000003729865526542950538_)"
   id="path77" />&#10;				&#10;					<use
   xlink:href="#XMLID_5_"
   style="overflow:visible;fill:none;stroke:#263238;stroke-linecap:round;stroke-linejoin:round;stroke-miterlimit:10"
   id="use78" />&#10;			</g>&#10;			<polygon
   style="fill:#757575;stroke:#263238;stroke-linecap:round;stroke-linejoin:round;stroke-miterlimit:10"
   points="141.04,301.808 122.665,301.808 121.81,304.27 141.895,304.27 "
   id="polygon78" />&#10;			<g
   id="g80">&#10;				<defs
   id="defs78">&#10;					<polyline
   id="XMLID_6_"
   points="141.895,304.27 141.04,301.808 122.665,301.808 121.81,304.27      " />&#10;				</defs>&#10;				<use
   xlink:href="#XMLID_6_"
   style="overflow:visible;opacity:0.2"
   id="use79" />&#10;				<clipPath
   id="XMLID_00000028319388570386761960000003227731796479504775_">&#10;					<use
   xlink:href="#XMLID_6_"
   style="overflow:visible;opacity:0.2"
   id="use80" />&#10;				</clipPath>&#10;				&#10;					<line
   style="opacity:0.2"
   x1="121.81"
   y1="304.26999"
   x2="141.895"
   y2="304.26999"
   clip-path="url(#XMLID_00000028319388570386761960000003227731796479504775_)"
   id="line80" />&#10;			</g>&#10;		</g><path
   style="fill:none;stroke:#263238;stroke-linecap:round;stroke-linejoin:round;stroke-miterlimit:10"
   d="m 126.648,262.707 c -2.787,4.798 4.688,9.307 0.982,15.874"
   id="path81" /><path
   style="fill:none;stroke:#263238;stroke-linecap:round;stroke-linejoin:round;stroke-miterlimit:10"
   d="m 131.441,262.707 c -2.788,4.799 4.688,9.307 0.982,15.874"
   id="path82" /><path
   style="fill:none;stroke:#263238;stroke-linecap:round;stroke-linejoin:round;stroke-miterlimit:10"
   d="m 136.571,262.707 c -2.787,4.799 4.689,9.307 0.982,15.874"
   id="path83" /><path
   style="fill:#13bfa1;stroke:#263238;stroke-linecap:round;stroke-linejoin:round;stroke-miterlimit:10;fill-opacity:1"
   d="m 324.298,333.116 c -7.107,-12.122 -36.517,-22.679 -69.184,-23.981 -0.087,-0.003 -0.175,-0.009 -0.262,-0.012 -1.068,-0.042 -2.141,-0.073 -3.216,-0.094 l -0.004,-0.032 c -0.545,0 -1.088,0.01 -1.633,0.016 -0.544,-0.006 -1.088,-0.016 -1.633,-0.016 l -0.004,0.032 c -1.075,0.021 -2.146,0.052 -3.216,0.094 -0.092,0.003 -0.184,0.01 -0.276,0.013 -32.662,1.306 -62.063,11.859 -69.169,23.98 -7.594,12.953 -18.837,33.791 -18.837,33.791 6.303,10.204 30.502,11.568 30.502,11.568 l 1.288,27.445 h 53.278 16.133 53.278 l 1.288,-27.445 c 0,0 24.199,-1.364 30.502,-11.568 0.002,0 -11.241,-20.838 -18.835,-33.791 z"
   id="path84" /><g
   id="g88">&#10;			<g
   id="g87">&#10;				<defs
   id="defs84">&#10;					<path
   id="XMLID_14_"
   d="m 213.94,396.03 c 0,0 -56.55,9.49 -60.62,1.74 -0.41,-0.78 -0.68,-1.71 -0.82,-2.76 -1.33,-9.35 6.78,-27.79 6.78,-27.79 6.29,-0.6 12.89,1.03 18.17,2.96 0.01,0.01 0.01,0.01 0.01,0 6.14,2.26 10.5,4.95 10.54,5.07 l -0.42,0.92 -0.14,0.29 13.21,0.42 11.82,0.38 0.27,0.01 v 0.02 z" />&#10;				</defs>&#10;				<use
   xlink:href="#XMLID_14_"
   style="overflow:visible;fill:#ffffff"
   id="use84" />&#10;				<clipPath
   id="XMLID_00000132806675298060091230000012687168494576198533_">&#10;					<use
   xlink:href="#XMLID_14_"
   style="overflow:visible"
   id="use85" />&#10;				</clipPath>&#10;				<g
   clip-path="url(#XMLID_00000132806675298060091230000012687168494576198533_)"
   id="g86">&#10;					<path
   style="opacity:0.2;fill:#92e3a9"
   d="m 187.58,376.17 c -12.94,0.25 -17.85,2.03 -17.85,2.03 0,0 3.27,-5.15 7.72,-8.02 0.01,0.01 0.01,0.01 0.01,0 6.14,2.26 10.5,4.95 10.54,5.07 z"
   id="path85" />&#10;					<path
   style="opacity:0.2;fill:#92e3a9"
   d="m 213.94,396.03 c 0,0 -56.55,9.49 -60.62,1.74 -0.41,-0.78 -0.68,-1.71 -0.82,-2.76 1.45,0.55 2.93,0.91 4.37,0.96 7.4,0.26 44.72,-4.35 44.72,-4.35 l -0.94,-14.74 -0.03,-0.48 c 3.58,0.18 7.52,0.45 11.85,0.86 0.09,0.01 0.18,0.02 0.27,0.03 z"
   id="path86" />&#10;				</g>&#10;				&#10;					<use
   xlink:href="#XMLID_14_"
   style="overflow:visible;fill:none;stroke:#263238;stroke-linecap:round;stroke-linejoin:round;stroke-miterlimit:10"
   id="use86" />&#10;			</g>&#10;			<path
   style="fill:none;stroke:#263238;stroke-linecap:round;stroke-linejoin:round;stroke-miterlimit:10"
   d="m 187.438,376.456 c 0,0 -13.357,-0.353 -19.05,2.257"
   id="path87" />&#10;		</g><path
   style="fill:none;stroke:#263238;stroke-linecap:round;stroke-linejoin:round;stroke-miterlimit:10"
   d="m 307.646,372.667 c 0,0 -5.237,-24.213 4.916,-35.935"
   id="path88" /><path
   style="fill:none;stroke:#263238;stroke-linecap:round;stroke-linejoin:round;stroke-miterlimit:10"
   d="m 316.545,348.793 c 0,0 -6.877,4.982 -8.125,13.082"
   id="path89" /><path
   style="fill:none;stroke:#263238;stroke-linecap:round;stroke-linejoin:round;stroke-miterlimit:10"
   d="m 187.438,333.908 c 0,0 9.269,18.093 3.915,40.093"
   id="path90" /><path
   style="fill:none;stroke:#263238;stroke-linecap:round;stroke-linejoin:round;stroke-miterlimit:10"
   d="m 180.713,342.293 c 0,0 7.327,4.462 10.64,11.418"
   id="path91" /><path
   style="fill:none;stroke:#263238;stroke-linecap:round;stroke-linejoin:round;stroke-miterlimit:10"
   d="m 272.359,312.001 c 0,0 -10.837,27.666 -43.098,12.666"
   id="path92" /><path
   style="fill:none;stroke:#263238;stroke-linecap:round;stroke-linejoin:round;stroke-miterlimit:10"
   d="m 322.621,330.76 c 0,0 -6.989,4.073 -10.139,13.073"
   id="path93" /><path
   style="fill:none;stroke:#263238;stroke-linecap:round;stroke-linejoin:round;stroke-miterlimit:10"
   d="m 177.38,330.76 c 0,0 5.52,2.907 8.653,9.907"
   id="path94" /><path
   style="fill:none;stroke:#263238;stroke-linecap:round;stroke-linejoin:round;stroke-miterlimit:10"
   d="m 225,311.096 c 0,0 3.593,14.738 24.213,15.071"
   id="path95" /><path
   style="fill:none;stroke:#263238;stroke-linecap:round;stroke-linejoin:round;stroke-miterlimit:10"
   d="m 292.167,326.167 c 0,0 -38.334,37.445 -65.501,38.806"
   id="path96" /><path
   style="fill:none;stroke:#263238;stroke-linecap:round;stroke-linejoin:round;stroke-miterlimit:10"
   d="m 205.166,332.5 c 0,0 5.309,11.919 14.988,16.293"
   id="path97" /><g
   id="g101">&#10;			<g
   id="g100">&#10;				<defs
   id="defs97">&#10;					<path
   id="XMLID_15_"
   d="m 286.353,396.03 c 0,0 56.55,9.49 60.62,1.74 0.41,-0.78 0.68,-1.71 0.82,-2.76 1.33,-9.35 -6.78,-27.79 -6.78,-27.79 -6.29,-0.6 -12.89,1.03 -18.17,2.96 -0.01,0.01 -0.01,0.01 -0.01,0 -6.14,2.26 -10.5,4.95 -10.54,5.07 l 0.42,0.92 0.14,0.29 -13.21,0.42 -11.82,0.38 -0.27,0.01 v 0.02 z" />&#10;				</defs>&#10;				<use
   xlink:href="#XMLID_15_"
   style="overflow:visible;fill:#ffffff"
   id="use97" />&#10;				<clipPath
   id="XMLID_00000096026505220147409330000013751570787561163157_">&#10;					<use
   xlink:href="#XMLID_15_"
   style="overflow:visible"
   id="use98" />&#10;				</clipPath>&#10;				<g
   clip-path="url(#XMLID_00000096026505220147409330000013751570787561163157_)"
   id="g99">&#10;					<path
   style="opacity:0.2;fill:#92e3a9"
   d="m 312.713,376.17 c 12.94,0.25 17.85,2.03 17.85,2.03 0,0 -3.27,-5.15 -7.72,-8.02 -0.01,0.01 -0.01,0.01 -0.01,0 -6.14,2.26 -10.5,4.95 -10.54,5.07 z"
   id="path98" />&#10;					<path
   style="opacity:0.2;fill:#92e3a9"
   d="m 286.353,396.03 c 0,0 56.55,9.49 60.62,1.74 0.41,-0.78 0.68,-1.71 0.82,-2.76 -1.45,0.55 -2.93,0.91 -4.37,0.96 -7.4,0.26 -44.72,-4.35 -44.72,-4.35 l 0.94,-14.74 0.03,-0.48 c -3.58,0.18 -7.52,0.45 -11.85,0.86 -0.09,0.01 -0.18,0.02 -0.27,0.03 z"
   id="path99" />&#10;				</g>&#10;				&#10;					<use
   xlink:href="#XMLID_15_"
   style="overflow:visible;fill:none;stroke:#263238;stroke-linecap:round;stroke-linejoin:round;stroke-miterlimit:10"
   id="use99" />&#10;			</g>&#10;			<path
   style="fill:none;stroke:#263238;stroke-linecap:round;stroke-linejoin:round;stroke-miterlimit:10"
   d="m 312.855,376.456 c 0,0 13.357,-0.353 19.05,2.257"
   id="path100" />&#10;		</g><path
   style="fill:#ffffff;stroke:#263238;stroke-miterlimit:10"
   d="m 269.164,312.057 c 0,0 -6.108,11.022 -20.323,10.327 -11.635,-0.584 -19.58,-9.404 -19.58,-9.404 4.18,-3.389 4.801,-11.588 4.509,-16.973 -0.01,-0.122 -0.01,-0.235 -0.019,-0.357 -0.019,-0.349 -0.047,-0.696 -0.075,-1.035 -0.32,-3.888 -1.064,-6.815 -1.064,-6.815 l 34.81,1.741 c -1.496,4.16 -2.155,7.644 -2.287,10.515 -0.085,1.798 0.038,3.36 0.273,4.707 0.009,0.057 0.019,0.104 0.027,0.15 0.962,5.176 3.729,7.144 3.729,7.144 z"
   id="path102" /><g
   id="g106">&#10;		<path
   style="fill:#757575;stroke:#263238;stroke-linecap:round;stroke-linejoin:round;stroke-miterlimit:10"
   d="m 191.354,391.33 v 3.72 c 0,1.17 0.948,2.116 2.117,2.116 H 305.53 c 1.169,0 2.117,-0.946 2.117,-2.116 v -3.72 z"
   id="path103" />&#10;		<g
   id="g105">&#10;			<path
   style="fill:#bfbfbf;stroke:#263238;stroke-miterlimit:10"
   d="m 321.408,336.602 -14.44,53.918 c -0.301,1.093 -1.205,2.043 -2.259,2.458 -0.377,0.15 -0.763,0.235 -1.158,0.235 H 195.449 c -0.395,0 -0.781,-0.085 -1.158,-0.235 -1.054,-0.415 -1.958,-1.365 -2.259,-2.458 l -14.44,-53.918 c -0.405,-1.487 0.48,-2.693 1.968,-2.693 h 139.88 c 1.488,-10e-4 2.374,1.205 1.968,2.693 z"
   id="path104" />&#10;			<path
   style="fill:#999999;stroke:#263238;stroke-linecap:round;stroke-linejoin:round;stroke-miterlimit:10"
   d="m 319.055,339.425 -14.346,53.553 c -0.377,0.15 -0.763,0.235 -1.158,0.235 H 195.449 c -0.395,0 -0.781,-0.085 -1.158,-0.235 l -14.346,-53.553 c -0.404,-1.487 0.48,-2.692 1.968,-2.692 h 135.174 c 1.488,-10e-4 2.373,1.205 1.968,2.692 z"
   id="path105" />&#10;		</g>&#10;		<path
   style="fill:#bfbfbf;stroke:#263238;stroke-miterlimit:10"
   d="m 256.82,369.561 c -3.198,0 -5.791,-1.917 -5.791,-4.28 0,-0.545 0.144,-1.065 0.395,-1.544 -0.619,-0.111 -1.261,-0.177 -1.925,-0.177 -4.484,0 -8.119,2.688 -8.119,6.001 0,3.315 3.635,6.001 8.119,6.001 4.484,0 8.119,-2.686 8.119,-6.001 0,-0.016 -0.003,-0.029 -0.003,-0.045 -0.26,0.027 -0.523,0.045 -0.795,0.045 z"
   id="path106" />&#10;	</g><path
   style="fill:#263238"
   d="m 267.423,289.54 c -1.496,4.16 -2.155,7.644 -2.287,10.515 -3.775,3.784 -8.407,6.6 -13.517,5.799 -7.39,-1.168 -13.537,-6.627 -17.942,-11.239 -0.32,-3.888 -1.064,-6.815 -1.064,-6.815 z"
   id="path107" /><g
   id="g122">&#10;		<g
   id="g109">&#10;			<path
   style="fill:#ffffff;stroke:#263238;stroke-miterlimit:10"
   d="m 274.515,264.197 c 0,0 2.806,-3.049 4.185,-2.046 1.381,1.003 3.011,3.845 2.258,6.435 -0.751,2.592 -4.013,7.105 -4.264,9.738 -0.25,2.631 -1.94,5.614 -3.79,3.873 -1.851,-1.742 1.611,-18 1.611,-18 z"
   id="path108" />&#10;			<path
   style="fill:#ffffff;stroke:#263238;stroke-miterlimit:10"
   d="m 224.486,264.197 c 0,0 -2.808,-3.049 -4.188,-2.046 -1.379,1.003 -3.008,3.845 -2.257,6.435 0.753,2.592 4.012,7.105 4.263,9.738 0.251,2.631 1.94,5.614 3.792,3.873 1.85,-1.742 -1.61,-18 -1.61,-18 z"
   id="path109" />&#10;		</g>&#10;		<path
   style="fill:#ffffff;stroke:#263238;stroke-miterlimit:10"
   d="m 248.908,228.943 c 35.303,0 26.909,47.018 20.414,62.112 -2.28,5.302 -14.104,12.259 -19.822,12.259 -5.317,0 -17.482,-8.315 -19.64,-13.293 -6.571,-15.171 -14.603,-61.078 19.048,-61.078 z"
   id="path110" />&#10;		<g
   id="g114">&#10;			<path
   style="fill:none;stroke:#263238;stroke-linecap:round;stroke-linejoin:round;stroke-miterlimit:10"
   d="m 254.892,266.445 c 0,0 9.002,-1.652 12.033,1.899"
   id="path111" />&#10;			<path
   style="fill:#263238"
   d="m 261.697,273.234 c 0,1.085 -0.55,1.963 -1.23,1.963 -0.68,0 -1.23,-0.878 -1.23,-1.963 0,-1.086 0.551,-1.965 1.23,-1.965 0.68,10e-4 1.23,0.879 1.23,1.965 z"
   id="path112" />&#10;			<path
   style="fill:none;stroke:#263238;stroke-linecap:round;stroke-linejoin:round;stroke-miterlimit:10"
   d="m 244.109,266.445 c 0,0 -8.298,-0.731 -12.036,1.899"
   id="path113" />&#10;			<path
   style="fill:#263238"
   d="m 237.303,273.234 c 0,1.085 0.551,1.963 1.23,1.963 0.678,0 1.229,-0.878 1.229,-1.963 0,-1.086 -0.551,-1.965 -1.229,-1.965 -0.679,10e-4 -1.23,0.879 -1.23,1.965 z"
   id="path114" />&#10;		</g>&#10;		<path
   style="fill:#263238"
   d="m 263.52,240.964 c 0,0 -12.662,4.764 -27.204,0 0,0 -4.765,-0.278 -6.645,2.117 -1.88,2.397 0,9.793 0.501,12.802 0.502,3.008 -4.137,5.098 -3.511,12.703 l -1.794,2.625 c 0,0 -4.98,-12.238 -3.726,-22.77 1.253,-10.529 7.903,-14.623 7.903,-14.623 0,0 3.029,-9.094 20.794,-9.025 19.147,0.073 21.08,10.436 21.08,10.436 0,0 12.98,8.656 3.378,36.865 l -2.084,-3.508 c 0,0 1.012,-5.683 -2.424,-10.697 -1.672,-2.441 1.002,-9.779 0.375,-13.541 -0.627,-3.76 -6.643,-3.384 -6.643,-3.384 z"
   id="path115" />&#10;		<path
   style="fill:none;stroke:#263238;stroke-linecap:round;stroke-linejoin:round;stroke-miterlimit:10"
   d="m 251.6,271.27 c 0,0 0.532,8.031 2.087,11.084 1.554,3.052 -3.887,3.568 -6.217,1.756"
   id="path116" />&#10;		<path
   style="fill:none;stroke:#263238;stroke-linecap:round;stroke-linejoin:round;stroke-miterlimit:10"
   d="m 242.713,290.549 c 0,1.226 4.04,2.764 8.002,2.764 3.991,0 6.943,-1.666 6.354,-2.277"
   id="path117" />&#10;		<path
   style="fill:#263238"
   d="m 274.092,246.11 c 0,0 -5.179,7.044 -16.944,11.907 v -3.355 c 0,0 -10.632,6.135 -20.209,5.198 l 2.167,-4.359 c 0,0 -8.071,8.553 -14.905,8.217 -6.833,-0.334 -8.815,-38.926 25.637,-38.926 27.998,0 24.254,21.318 24.254,21.318 z"
   id="path118" />&#10;		<path
   style="fill:#263238"
   d="m 268.287,248.443 c 0,0 -1.839,10.209 7.788,17.684 0,0 5.705,-6.134 3.508,-17.684 -2.197,-11.552 -7.225,-11.91 -7.225,-11.91 z"
   id="path119" />&#10;		<path
   style="opacity:0.2;fill:none;stroke:#ffffff;stroke-miterlimit:10"
   d="m 264,232.5 c 0,0 -3.588,15.25 -16.794,23"
   id="path120" />&#10;		<path
   style="opacity:0.2;fill:none;stroke:#ffffff;stroke-miterlimit:10"
   d="m 255.604,232.5 c 0,0 -5.854,15 -27.604,17.5"
   id="path121" />&#10;		<path
   style="opacity:0.2;fill:none;stroke:#ffffff;stroke-miterlimit:10"
   d="m 269.164,238.11 c 0,0 0.086,7.89 -5.164,11.89"
   id="path122" />&#10;	</g><line
   style="fill:#ffffff;stroke:#263238;stroke-linecap:round;stroke-linejoin:round;stroke-miterlimit:10"
   x1="395.40302"
   y1="120.26"
   x2="405.33301"
   y2="101"
   id="line122" /><line
   style="fill:#ffffff;stroke:#263238;stroke-linecap:round;stroke-linejoin:round;stroke-miterlimit:10"
   x1="405.33301"
   y1="130.70599"
   x2="427.66599"
   y2="117.301"
   id="line123" /><line
   style="fill:#ffffff;stroke:#263238;stroke-linecap:round;stroke-linejoin:round;stroke-miterlimit:10"
   x1="414.56601"
   y1="146.787"
   x2="433.95801"
   y2="145.55901"
   id="line124" />&#10;<g
   id="Table">&#10;	<g
   id="g127">&#10;		<path
   style="fill:#FFFFFF;stroke:#263238;stroke-miterlimit:10;"
   d="M96.5,412.667H81.031v-13.289c0-1.222,0.99-2.212,2.212-2.212    h332.514c1.222,0,2.212,0.99,2.212,2.212v13.289"
   id="path124" />&#10;		<line
   style="fill:none;stroke:#263238;stroke-miterlimit:10;"
   x1="400"
   y1="412.667"
   x2="261.697"
   y2="412.667"
   id="line125" />&#10;		<line
   style="fill:none;stroke:#263238;stroke-miterlimit:10;"
   x1="251.794"
   y1="412.667"
   x2="241.855"
   y2="412.667"
   id="line126" />&#10;		<line
   style="fill:none;stroke:#263238;stroke-miterlimit:10;"
   x1="177.493"
   y1="412.667"
   x2="104.5"
   y2="412.667"
   id="line127" />&#10;	</g>&#10;</g>&#10;</svg>
