<?xml version="1.0" encoding="UTF-8" standalone="no"?>
<!-- Uploaded to: SVG Repo, www.svgrepo.com, Generator: SVG Repo Mixer Tools -->

<svg
   width="800px"
   height="800px"
   viewBox="0 0 24 24"
   fill="none"
   version="1.1"
   id="svg1"
   sodipodi:docname="add.svg"
   inkscape:version="1.3 (0e150ed6c4, 2023-07-21)"
   xmlns:inkscape="http://www.inkscape.org/namespaces/inkscape"
   xmlns:sodipodi="http://sodipodi.sourceforge.net/DTD/sodipodi-0.dtd"
   xmlns="http://www.w3.org/2000/svg"
   xmlns:svg="http://www.w3.org/2000/svg">
  <defs
     id="defs1" />
  <sodipodi:namedview
     id="namedview1"
     pagecolor="#ffffff"
     bordercolor="#000000"
     borderopacity="0.25"
     inkscape:showpageshadow="2"
     inkscape:pageopacity="0.0"
     inkscape:pagecheckerboard="0"
     inkscape:deskcolor="#d1d1d1"
     inkscape:zoom="0.63625"
     inkscape:cx="396.85658"
     inkscape:cy="396.85658"
     inkscape:window-width="1366"
     inkscape:window-height="705"
     inkscape:window-x="-8"
     inkscape:window-y="-8"
     inkscape:window-maximized="1"
     inkscape:current-layer="svg1" />
  <path
     fill-rule="evenodd"
     clip-rule="evenodd"
     d="M12 22C7.28595 22 4.92893 22 3.46447 20.5355C2 19.0711 2 16.714 2 12C2 7.28595 2 4.92893 3.46447 3.46447C4.92893 2 7.28595 2 12 2C16.714 2 19.0711 2 20.5355 3.46447C22 4.92893 22 7.28595 22 12C22 16.714 22 19.0711 20.5355 20.5355C19.0711 22 16.714 22 12 22ZM12 8.25C12.4142 8.25 12.75 8.58579 12.75 9V11.25H15C15.4142 11.25 15.75 11.5858 15.75 12C15.75 12.4142 15.4142 12.75 15 12.75H12.75L12.75 15C12.75 15.4142 12.4142 15.75 12 15.75C11.5858 15.75 11.25 15.4142 11.25 15V12.75H9C8.58579 12.75 8.25 12.4142 8.25 12C8.25 11.5858 8.58579 11.25 9 11.25H11.25L11.25 9C11.25 8.58579 11.5858 8.25 12 8.25Z"
     fill="#1C274C"
     id="path1"
     style="fill:#101010;fill-opacity:0.70046085" />
</svg>
