<?xml version="1.0" encoding="UTF-8" standalone="no"?>
<!-- Created with Inkscape (http://www.inkscape.org/) -->

<svg
   width="100"
   height="100"
   viewBox="0 0 100 100"
   version="1.1"
   id="svg1"
   inkscape:version="1.3 (0e150ed6c4, 2023-07-21)"
   sodipodi:docname="androgyne.svg"
   xmlns:inkscape="http://www.inkscape.org/namespaces/inkscape"
   xmlns:sodipodi="http://sodipodi.sourceforge.net/DTD/sodipodi-0.dtd"
   xmlns="http://www.w3.org/2000/svg"
   xmlns:svg="http://www.w3.org/2000/svg">
  <sodipodi:namedview
     id="namedview1"
     pagecolor="#ffffff"
     bordercolor="#000000"
     borderopacity="0.25"
     inkscape:showpageshadow="2"
     inkscape:pageopacity="0.0"
     inkscape:pagecheckerboard="0"
     inkscape:deskcolor="#d1d1d1"
     inkscape:document-units="px"
     inkscape:zoom="5.09"
     inkscape:cx="49.901768"
     inkscape:cy="50"
     inkscape:window-width="1366"
     inkscape:window-height="705"
     inkscape:window-x="-8"
     inkscape:window-y="-8"
     inkscape:window-maximized="1"
     inkscape:current-layer="layer1" />
  <defs
     id="defs1" />
  <g
     inkscape:label="Layer 1"
     inkscape:groupmode="layer"
     id="layer1">
    <g
       transform="matrix(1.1526019,0,0,1.1526019,-429.13123,78.199768)"
       id="g92">&#10;		<g
   transform="matrix(-0.264969,-0.264969,0.264969,-0.264969,8861.76,19188.5)"
   id="g84">&#10;			<g
   id="g83">&#10;				<path
   style="fill:#079f34"
   d="m 52111.895,20236.266 c 11.574,-11.576 26.961,-17.969 43.336,-17.969 v 0 c 16.375,0 31.762,6.354 43.336,17.928 11.594,11.596 17.945,26.98 17.945,43.355 0,16.375 -6.391,31.76 -17.965,43.336 -11.535,11.533 -26.922,17.926 -43.297,17.926 -16.375,0 -31.762,-6.352 -43.355,-17.947 -11.574,-11.574 -17.926,-26.961 -17.926,-43.334 0,-16.375 6.39,-31.762 17.926,-43.295 z m 79.371,79.369 c 9.641,-9.639 14.922,-22.424 14.922,-36.055 0.02,-13.611 -5.242,-26.457 -14.883,-36.096 -9.617,-9.619 -22.465,-14.883 -36.074,-14.861 v 0 c -13.633,0 -26.418,5.283 -36.055,14.922 -9.602,9.598 -14.883,22.383 -14.883,36.016 -0.02,13.611 5.242,26.457 14.859,36.074 9.641,9.641 22.484,14.902 36.098,14.883 13.633,0 26.418,-5.284 36.016,-14.883 z"
   id="path82" />
&#10;			</g>
&#10;		</g>
&#10;		<g
   transform="rotate(-179.65786,2089.3992,12101.171)"
   id="g91">&#10;			<g
   transform="matrix(0.0582533,0,0,0.536788,-69.0614,11002.7)"
   id="g86">&#10;				<g
   id="g85">&#10;					<path
   style="clip-rule:evenodd;fill:#079f34;fill-rule:evenodd"
   d="m 67023.039,24615.307 c -18.117,1.301 -19.016,0.143 -30.141,2.17 -8.047,1.465 -3.414,3.369 -4.086,5.072 -5.188,12.998 -1.828,26.068 1.18,39.111 1.609,6.967 0.508,13.947 8.648,20.842 2.109,1.803 6.727,3.434 10.227,5.209 -0.04,0.967 7.18,1.75 16.086,1.748 8.906,0 16.188,-0.789 16.211,-1.758 3.594,-1.777 8.336,-3.412 10.555,-5.217 8.5,-6.902 7.602,-13.887 9.414,-20.857 3.375,-13.035 7.102,-26.092 3.336,-39.08 -0.484,-1.697 4.352,-3.598 -3.5,-5.063 -10.836,-2.027 -11.914,-0.867 -29.852,-2.176 0.02,-0.24 -1.773,-0.439 -4.008,-0.438 -2.218,0 -4.046,0.194 -4.07,0.437 z"
   id="path84" />
&#10;				</g>
&#10;			</g>
&#10;			<g
   transform="matrix(0.00135485,0.226887,0.36416,-0.00217458,474.55,6653.64)"
   id="g88">&#10;				<g
   id="g87">&#10;					<path
   style="clip-rule:evenodd;fill:#079f34;fill-rule:evenodd"
   d="m 77566.188,8904.726 c 6.086,1.922 3.727,-1.171 7.547,2.361 1.523,1.411 0.609,3.348 0.672,5.048 0.445,12.959 -0.633,25.963 -1.648,38.944 -0.547,6.994 -0.43,14.031 -2.703,20.873 -0.633,1.879 -1.828,3.38 -2.828,5.196 -0.06,1.426 -1.953,2.559 -4.234,2.528 -2.297,-0.031 -4.102,-1.213 -4.063,-2.638 -0.875,-1.831 -1.992,-3.348 -2.5,-5.229 -1.914,-6.861 -1.586,-13.86 -1.938,-20.834 -0.625,-13.087 -1.344,-26.239 0.492,-39.245 0.242,-1.721 -0.445,-3.734 1.281,-5.083 4.266,-3.335 1.5,-0.393 7.852,-1.979 0.02,-0.356 0.508,-0.633 1.078,-0.616 0.562,0.014 1.015,0.318 0.992,0.674 z"
   id="path86" />
&#10;				</g>
&#10;			</g>
&#10;			<g
   transform="matrix(-0.264969,0.264969,-0.264969,-0.264969,8735.4,5779.85)"
   id="g90">&#10;				<g
   id="g89">&#10;					<path
   style="clip-rule:evenodd;fill:#079f34;fill-rule:evenodd"
   d="m 44109.68,-25616.959 c 0.02,1.014 -0.246,2.68 -0.348,4.076 -0.06,1.205 -0.551,6.4 -0.773,13.135 -0.324,9.611 -0.141,22.219 -0.203,30.855 -0.121,1.641 1.098,3.078 2.727,3.211 1.648,0.133 3.07,-1.086 3.211,-2.725 1.344,-8.531 3.582,-20.943 4.82,-30.48 0.898,-6.715 1.242,-11.949 1.363,-13.156 0.633,-7.559 -1.059,-11.488 -3.313,-13.641 -2.543,-2.438 -6.895,-3.234 -13.547,-2.736 -2.48,0.211 -16.086,1.342 -28.168,3.346 -8.277,1.373 -15.762,3.234 -18.934,4.336 -2.277,0.629 -3.641,3.004 -3.012,5.293 0.633,2.291 3.012,3.639 5.309,3.008 l 45.719,-4.619 c 2.176,-0.182 4.457,0.911 5.149,0.1 z m -0.04,-0.463 c -0.06,-0.375 -0.223,-0.549 -0.527,-0.418 -0.247,0.102 0.261,0.235 0.527,0.418 z"
   id="path88" />
&#10;				</g>
&#10;			</g>
&#10;		</g>
&#10;	</g>
  </g>
</svg>
