<?xml version="1.0" encoding="UTF-8" standalone="no"?>
<!-- Created with Inkscape (http://www.inkscape.org/) -->

<svg
   width="100"
   height="100"
   viewBox="0 0 100 100"
   version="1.1"
   id="svg1"
   inkscape:version="1.3 (0e150ed6c4, 2023-07-21)"
   sodipodi:docname="bigender.svg"
   xmlns:inkscape="http://www.inkscape.org/namespaces/inkscape"
   xmlns:sodipodi="http://sodipodi.sourceforge.net/DTD/sodipodi-0.dtd"
   xmlns="http://www.w3.org/2000/svg"
   xmlns:svg="http://www.w3.org/2000/svg">
  <sodipodi:namedview
     id="namedview1"
     pagecolor="#ffffff"
     bordercolor="#000000"
     borderopacity="0.25"
     inkscape:showpageshadow="2"
     inkscape:pageopacity="0.0"
     inkscape:pagecheckerboard="0"
     inkscape:deskcolor="#d1d1d1"
     inkscape:document-units="px"
     inkscape:zoom="5.09"
     inkscape:cx="49.901768"
     inkscape:cy="50"
     inkscape:window-width="1366"
     inkscape:window-height="705"
     inkscape:window-x="-8"
     inkscape:window-y="-8"
     inkscape:window-maximized="1"
     inkscape:current-layer="layer1" />
  <defs
     id="defs1" />
  <g
     inkscape:label="Layer 1"
     inkscape:groupmode="layer"
     id="layer1">
    <g
       id="g105"
       transform="matrix(1.1418953,0,0,1.1418953,-301.99031,-61.293518)">&#10;		<g
   transform="rotate(-135,1842.4182,11938.978)"
   id="g97">&#10;			<g
   transform="matrix(0.374723,0,0,0.374723,-7881.75,11415.2)"
   id="g94">&#10;				<g
   id="g93">&#10;					<path
   style="clip-rule:evenodd;fill:#8c55be;fill-rule:evenodd"
   d="m 51216.063,20901.6 c -4.148,1.301 -1.402,-1.559 -4.535,1.447 -0.305,0.293 -0.324,0.736 -0.406,1.148 -0.895,3.813 -0.977,7.762 -1.18,11.674 -0.734,13.539 -0.406,27.145 0.04,40.709 0.164,4.645 -0.184,9.33 0.773,13.873 0.285,1.328 0.875,2.236 1.363,3.506 -0.06,1.385 1.035,2.547 2.418,2.594 1.387,0.05 2.543,-1.039 2.586,-2.424 0.629,-1.807 1.383,-3.314 1.77,-5.186 1.461,-6.844 1.441,-13.889 1.809,-20.889 0.672,-12.953 1.402,-25.916 1.426,-38.861 0,-1.693 0.59,-3.604 -0.309,-5.035 -2.152,-3.438 -0.953,-0.502 -4.512,-2.469 0.04,-0.344 -0.227,-0.645 -0.57,-0.668 -0.348,-0.03 -0.653,0.235 -0.672,0.581 z"
   id="path92" />
&#10;				</g>
&#10;			</g>
&#10;			<g
   transform="matrix(-0.264969,0.264969,-0.264969,-0.264969,8735.4,5779.85)"
   id="g96">&#10;				<g
   id="g95">&#10;					<path
   style="clip-rule:evenodd;fill:#8c55be;fill-rule:evenodd"
   d="m 20604.957,-30320.021 c 0.02,1.012 -0.244,2.678 -0.346,4.076 -0.06,1.203 -0.549,6.398 -0.773,13.133 -0.324,9.611 -0.141,22.219 -0.203,30.857 -0.121,1.639 1.1,3.076 2.727,3.209 1.646,0.135 3.07,-1.086 3.213,-2.723 1.342,-8.533 3.58,-20.945 4.82,-30.48 0.895,-6.717 1.24,-11.951 1.361,-13.156 0.631,-7.561 -1.057,-11.49 -3.314,-13.641 -2.543,-2.439 -6.895,-3.236 -13.545,-2.738 -2.48,0.211 -16.088,1.342 -28.168,3.346 -8.277,1.373 -15.762,3.236 -18.934,4.336 -2.279,0.631 -3.641,3.004 -3.01,5.293 0.629,2.291 3.01,3.639 5.307,3.01 l 45.719,-4.619 c 2.177,-0.185 4.455,0.909 5.146,0.1 z m -0.04,-0.465 c -0.06,-0.373 -0.223,-0.549 -0.529,-0.418 -0.242,0.101 0.265,0.236 0.529,0.418 z"
   id="path94" />
&#10;				</g>
&#10;			</g>
&#10;		</g>
&#10;		<g
   transform="translate(945.172)"
   id="g104">&#10;			<g
   transform="matrix(0.374723,0,0,0.374723,-7901.28,11423.5)"
   id="g99">&#10;				<g
   id="g98">&#10;					<path
   style="fill:#8c55be"
   d="m 19366.732,-30181.252 c -33.822,0 -61.314,-27.492 -61.314,-61.285 0,-33.795 27.492,-61.258 61.314,-61.258 33.766,0 61.256,27.463 61.256,61.258 0,33.793 -27.49,61.285 -61.256,61.285 z m 0,-112.275 c -28.119,0 -51.049,22.871 -51.049,50.99 0,28.117 22.93,51.018 51.049,51.018 28.119,0 50.99,-22.9 50.99,-51.018 0,-28.119 -22.87,-50.99 -50.99,-50.99 z"
   id="path97" />
&#10;				</g>
&#10;			</g>
&#10;			<g
   transform="matrix(0.374723,0,0,0.374723,-7881.75,11415.2)"
   id="g101">&#10;				<g
   id="g100">&#10;					<path
   style="clip-rule:evenodd;fill:#8c55be;fill-rule:evenodd"
   d="m 19316.705,-30165.057 c -4.271,1.363 -1.75,-1.809 -4.74,1.537 -0.283,0.313 -0.182,0.811 -0.244,1.229 -0.629,4.092 -0.793,8.232 -1.139,12.363 l -0.67,57.131 c -0.102,2.957 2.217,5.438 5.166,5.537 2.947,0.1 5.43,-2.219 5.531,-5.176 l 1.83,-57.029 c -0.02,-4.055 0.203,-8.098 0.08,-12.146 0,-0.412 0.143,-0.881 -0.08,-1.221 -2.521,-3.699 -0.447,-0.193 -4.494,-2.137 0.04,-0.344 -0.225,-0.646 -0.57,-0.67 -0.346,-0.03 -0.65,0.237 -0.67,0.582 z"
   id="path99" />
&#10;				</g>
&#10;			</g>
&#10;			<g
   transform="matrix(0.374723,0,0,0.374723,-7881.75,11415.2)"
   id="g103">&#10;				<g
   id="g102">&#10;					<path
   style="clip-rule:evenodd;fill:#8c55be;fill-rule:evenodd"
   d="m 19283.533,-30128.482 0.02,0.1 c 0.104,2.109 -1.037,2.732 -1.117,3.223 -0.184,1.332 0.467,1.242 0.305,2.553 l -0.184,1.191 0.06,0.08 c 0.141,0.225 0.467,0.18 0.73,0.256 2.422,0.73 4.881,1.18 7.443,1.42 10.598,0.998 21.66,-1.002 32.053,-1.406 5.41,-0.299 10.982,0.791 16.373,0.03 1.24,-0.176 2.582,-0.111 3.498,-0.969 1.221,-1.172 0.162,-0.324 0.752,-1.92 1.018,-0.07 1.789,-0.967 1.729,-1.994 -0.08,-1.027 -0.977,-1.799 -1.992,-1.729 -0.793,-1.473 0.426,-0.805 -0.916,-1.816 -0.875,-0.67 -2.014,-0.637 -3.131,-0.779 -5.492,-0.719 -11.188,-0.631 -16.719,-0.477 -9.172,0.344 -18.854,1.119 -28.289,1.432 -2.279,0.08 -4.535,0.201 -6.773,0.277 -1.158,0.04 -2.502,-0.51 -3.396,0.199 z"
   id="path101" />
&#10;				</g>
&#10;			</g>
&#10;		</g>
&#10;	</g>
  </g>
</svg>
