<?xml version="1.0" encoding="UTF-8" standalone="no"?>
<!-- Uploaded to: SVG Repo, www.svgrepo.com, Generator: SVG Repo Mixer Tools -->

<svg
   width="800px"
   height="800px"
   viewBox="0 0 25 25"
   version="1.1"
   id="svg2"
   sodipodi:docname="birthday-celebration-party-svgrepo-com.svg"
   inkscape:version="1.3 (0e150ed6c4, 2023-07-21)"
   xmlns:inkscape="http://www.inkscape.org/namespaces/inkscape"
   xmlns:sodipodi="http://sodipodi.sourceforge.net/DTD/sodipodi-0.dtd"
   xmlns="http://www.w3.org/2000/svg"
   xmlns:svg="http://www.w3.org/2000/svg">
  <sodipodi:namedview
     id="namedview2"
     pagecolor="#ffffff"
     bordercolor="#000000"
     borderopacity="0.25"
     inkscape:showpageshadow="2"
     inkscape:pageopacity="0.0"
     inkscape:pagecheckerboard="0"
     inkscape:deskcolor="#d1d1d1"
     inkscape:zoom="0.63625"
     inkscape:cx="399.21415"
     inkscape:cy="400"
     inkscape:window-width="1366"
     inkscape:window-height="705"
     inkscape:window-x="-8"
     inkscape:window-y="-8"
     inkscape:window-maximized="1"
     inkscape:current-layer="svg2" />
  <defs
     id="defs1">
    <style
       id="style1">.cls-1{fill:#ff7900;}</style>
  </defs>
  <path
     class="cls-1"
     d="M 22.5,3 H 21 V 2 A 1,1 0 0 0 20,1 H 19 A 1,1 0 0 0 18,2 V 3 H 14 V 2 A 1,1 0 0 0 13,1 H 12 A 1,1 0 0 0 11,2 V 3 H 7 V 2 A 1,1 0 0 0 6,1 H 5 A 1,1 0 0 0 4,2 V 3 H 2.5 A 1.5,1.5 0 0 0 1,4.5 v 18 A 1.5,1.5 0 0 0 2.5,24 h 20 A 1.5,1.5 0 0 0 24,22.5 V 4.5 A 1.5,1.5 0 0 0 22.5,3 Z M 19,2 h 1 v 3 h -1 z m -7,0 h 1 v 1.44 c 0,0 0,0 0,0.06 0,0.06 0,0 0,0.07 V 5 H 12 Z M 5,2 H 6 V 5 H 5 Z M 2.5,4 H 4 V 5 A 1,1 0 0 0 5,6 H 6 A 1,1 0 0 0 7,5 V 4 h 4 v 1 a 1,1 0 0 0 1,1 h 1 A 1,1 0 0 0 14,5 V 4 h 4 v 1 a 1,1 0 0 0 1,1 h 1 A 1,1 0 0 0 21,5 V 4 h 1.5 A 0.5,0.5 0 0 1 23,4.5 V 8 H 2 V 4.5 A 0.5,0.5 0 0 1 2.5,4 Z m 20,19 H 2.5 A 0.5,0.5 0 0 1 2,22.5 V 9 H 23 V 22.5 A 0.5,0.5 0 0 1 22.5,23 Z"
     id="path1"
     style="fill:#101010;fill-opacity:1" />
  <path
     class="cls-1"
     d="M 17.5,15 H 16 V 13.91 A 1.51,1.51 0 0 0 17,12.5 C 17,11.92 16.53,10 15.5,10 14.47,10 14,11.92 14,12.5 a 1.51,1.51 0 0 0 1,1.41 V 15 H 13 V 13.91 A 1.51,1.51 0 0 0 14,12.5 C 14,11.92 13.53,10 12.5,10 11.47,10 11,11.92 11,12.5 a 1.51,1.51 0 0 0 1,1.41 V 15 H 10 V 13.91 A 1.51,1.51 0 0 0 11,12.5 C 11,11.92 10.53,10 9.5,10 8.47,10 8,11.92 8,12.5 a 1.51,1.51 0 0 0 1,1.41 V 15 H 7.5 A 0.5,0.5 0 0 0 7,15.5 v 6 A 0.5,0.5 0 0 0 7.5,22 h 10 A 0.5,0.5 0 0 0 18,21.5 v -6 A 0.5,0.5 0 0 0 17.5,15 Z m -2,-4 a 3.21,3.21 0 0 1 0.5,1.5 0.5,0.5 0 0 1 -1,0 3.21,3.21 0 0 1 0.5,-1.5 z m -3,0 a 3.21,3.21 0 0 1 0.5,1.5 0.5,0.5 0 0 1 -1,0 3.21,3.21 0 0 1 0.5,-1.5 z m -3,0 a 3.21,3.21 0 0 1 0.5,1.5 0.5,0.5 0 0 1 -1,0 3.21,3.21 0 0 1 0.5,-1.5 z m 7.5,5 v 1.27 A 2.53,2.53 0 0 1 15.48,18 2.11,2.11 0 0 1 14.25,17.59 3.08,3.08 0 0 0 12.5,17 3.08,3.08 0 0 0 10.75,17.59 2.09,2.09 0 0 1 9.52,18 2.53,2.53 0 0 1 8,17.27 V 16 Z M 8,21 V 18.51 A 3.21,3.21 0 0 0 9.48,19 2.85,2.85 0 0 0 11.27,18.44 2.16,2.16 0 0 1 12.5,18 2.16,2.16 0 0 1 13.73,18.44 3,3 0 0 0 15.39,19 h 0.13 A 3.21,3.21 0 0 0 17,18.51 V 21 Z"
     id="path2"
     style="fill:#101010;fill-opacity:1" />
</svg>
