<?xml version="1.0" encoding="UTF-8" standalone="no"?>
<!-- Generator: Adobe Illustrator 27.5.0, SVG Export Plug-In . SVG Version: 6.00 Build 0)  -->

<svg
   version="1.1"
   x="0px"
   y="0px"
   viewBox="0 0 500 500"
   style="enable-background:new 0 0 500 500;"
   xml:space="preserve"
   id="svg139"
   sodipodi:docname="business.svg"
   inkscape:version="1.3 (0e150ed6c4, 2023-07-21)"
   inkscape:export-filename="business.png"
   inkscape:export-xdpi="96"
   inkscape:export-ydpi="96"
   xmlns:inkscape="http://www.inkscape.org/namespaces/inkscape"
   xmlns:sodipodi="http://sodipodi.sourceforge.net/DTD/sodipodi-0.dtd"
   xmlns="http://www.w3.org/2000/svg"
   xmlns:svg="http://www.w3.org/2000/svg"><defs
   id="defs139">&#10;	&#10;	&#10;	&#10;	&#10;	&#10;	&#10;	&#10;	&#10;	&#10;	&#10;	&#10;	&#10;	&#10;&#10;		&#10;		&#10;		&#10;		&#10;	&#10;		&#10;		&#10;	&#10;		&#10;		&#10;	&#10;		&#10;		&#10;	&#10;		&#10;		&#10;		&#10;		&#10;	&#10;		&#10;		&#10;	&#10;		&#10;		&#10;		&#10;	&#10;		&#10;		&#10;	&#10;		&#10;		&#10;		&#10;	&#10;		&#10;		&#10;	&#10;		&#10;		&#10;		&#10;		&#10;	&#10;		&#10;		&#10;	&#10;		&#10;		&#10;		&#10;	&#10;	&#10;&#10;		&#10;		&#10;		&#10;		&#10;		&#10;	&#10;	&#10;&#10;		&#10;		&#10;		&#10;		&#10;		&#10;		&#10;		&#10;		&#10;		&#10;		&#10;		&#10;		&#10;		&#10;		&#10;		&#10;		&#10;		&#10;		&#10;			&#10;		&#10;			&#10;		&#10;	&#10;			&#10;			&#10;		&#10;			&#10;			&#10;			&#10;		&#10;				&#10;				&#10;			&#10;				&#10;				&#10;			&#10;				&#10;				&#10;			&#10;	&#10;&#10;		&#10;		&#10;	&#10;	&#10;</defs><sodipodi:namedview
   id="namedview139"
   pagecolor="#ffffff"
   bordercolor="#000000"
   borderopacity="0.25"
   inkscape:showpageshadow="2"
   inkscape:pageopacity="0.0"
   inkscape:pagecheckerboard="0"
   inkscape:deskcolor="#d1d1d1"
   inkscape:zoom="0.471"
   inkscape:cx="62.632696"
   inkscape:cy="71.125265"
   inkscape:window-width="1366"
   inkscape:window-height="705"
   inkscape:window-x="-8"
   inkscape:window-y="-8"
   inkscape:window-maximized="1"
   inkscape:current-layer="svg139" />&#10;<path
   style="display:inline;fill:#13bfa1;fill-opacity:1"
   d="m 335.807,76.301 c -36.039,-5.547 -73.149,0.501 -100.904,23.025 -26.978,21.894 -39.25,58.531 -67.411,78.88 -43.535,31.459 -105.264,21.008 -130.454,77.538 -8.992,20.18 -11.357,42.727 -11.058,64.818 0.374,27.668 4.883,55.663 16.832,80.62 11.949,24.957 31.847,46.717 57.314,57.536 37.573,15.962 81.123,6.429 118.846,-9.176 15.561,-6.437 31.182,-13.982 47.999,-14.863 21.182,-1.11 41.227,8.436 61.346,15.155 24.144,8.064 50.886,12.125 74.853,3.549 18.76,-6.713 34.179,-20.624 46.549,-36.244 22.012,-27.793 35.786,-62.03 39.156,-97.324 C 498.482,219.177 446.554,93.348 335.807,76.301 Z"
   id="path1" /><path
   style="display:inline;opacity:0.7;fill:#ffffff"
   d="m 335.807,76.301 c -36.039,-5.547 -73.149,0.501 -100.904,23.025 -26.978,21.894 -39.25,58.531 -67.411,78.88 -43.535,31.459 -105.264,21.008 -130.454,77.538 -8.992,20.18 -11.357,42.727 -11.058,64.818 0.374,27.668 4.883,55.663 16.832,80.62 11.949,24.957 31.847,46.717 57.314,57.536 37.573,15.962 81.123,6.429 118.846,-9.176 15.561,-6.437 31.182,-13.982 47.999,-14.863 21.182,-1.11 41.227,8.436 61.346,15.155 24.144,8.064 50.886,12.125 74.853,3.549 18.76,-6.713 34.179,-20.624 46.549,-36.244 22.012,-27.793 35.786,-62.03 39.156,-97.324 C 498.482,219.177 446.554,93.348 335.807,76.301 Z"
   id="path2" />&#10;&#10;<g
   id="Banknotes_2">&#10;	<g
   id="g63">&#10;		<g
   id="g7">&#10;			<path
   style="fill:#FFFFFF;stroke:#263238;stroke-miterlimit:10;"
   d="M143.171,372.521c0,0-30.318-0.382-37.411-11.72H26.558     c0,0,6.41,11.616,16.436,11.72H143.171z"
   id="path6" />&#10;			<path
   style="fill:#FFFFFF;stroke:#263238;stroke-miterlimit:10;"
   d="M103.458,364.538H38.942c0,0,1.195,2.626-2.091,4.059     c0,0,2.389,2.626,7.467,3.581h82.138c0,0-10.454-0.955-16.129-4.297C110.327,367.881,103.757,368.836,103.458,364.538z"
   id="path7" />&#10;		</g>&#10;		<g
   id="g20">&#10;			&#10;				<rect
   x="131.211"
   y="440.656"
   transform="matrix(-1 -1.224647e-16 1.224647e-16 -1 444.4405 903.8322)"
   style="fill:#263238;stroke:#263238;stroke-miterlimit:10;"
   width="182.018"
   height="22.52"
   id="rect7" />&#10;			&#10;				<rect
   x="31.035"
   y="440.656"
   transform="matrix(-1 -1.224647e-16 1.224647e-16 -1 244.0869 903.8322)"
   style="fill:#FFFFFF;stroke:#263238;stroke-miterlimit:10;"
   width="182.018"
   height="22.52"
   id="rect8" />&#10;			<line
   style="fill:#FFFFFF;stroke:#263238;stroke-miterlimit:10;"
   x1="211.8"
   y1="446.661"
   x2="167.347"
   y2="446.661"
   id="line8" />&#10;			<line
   style="fill:#FFFFFF;stroke:#263238;stroke-miterlimit:10;"
   x1="203.035"
   y1="451.666"
   x2="138.546"
   y2="451.666"
   id="line9" />&#10;			<line
   style="fill:#FFFFFF;stroke:#263238;stroke-miterlimit:10;"
   x1="177.364"
   y1="456.17"
   x2="188.634"
   y2="456.17"
   id="line10" />&#10;			<line
   style="fill:#FFFFFF;stroke:#263238;stroke-miterlimit:10;"
   x1="193.017"
   y1="456.17"
   x2="211.174"
   y2="456.17"
   id="line11" />&#10;			<line
   style="fill:#FFFFFF;stroke:#263238;stroke-miterlimit:10;"
   x1="32.108"
   y1="455.169"
   x2="89.084"
   y2="455.169"
   id="line12" />&#10;			<line
   style="fill:#FFFFFF;stroke:#263238;stroke-miterlimit:10;"
   x1="37.117"
   y1="452.166"
   x2="44.63"
   y2="452.166"
   id="line13" />&#10;			<line
   style="fill:#FFFFFF;stroke:#263238;stroke-miterlimit:10;"
   x1="79.692"
   y1="451.666"
   x2="54.648"
   y2="451.666"
   id="line14" />&#10;			<line
   style="fill:#FFFFFF;stroke:#263238;stroke-miterlimit:10;"
   x1="32.108"
   y1="445.66"
   x2="54.022"
   y2="445.66"
   id="line15" />&#10;			<line
   style="fill:none;stroke:#8A8A8A;stroke-miterlimit:10;"
   x1="310.725"
   y1="450.164"
   x2="299.455"
   y2="450.164"
   id="line16" />&#10;			<line
   style="fill:none;stroke:#8A8A8A;stroke-miterlimit:10;"
   x1="313.229"
   y1="455.169"
   x2="278.167"
   y2="455.169"
   id="line17" />&#10;			<line
   style="fill:none;stroke:#8A8A8A;stroke-miterlimit:10;"
   x1="214.931"
   y1="458.172"
   x2="231.835"
   y2="458.172"
   id="line18" />&#10;			<line
   style="fill:none;stroke:#8A8A8A;stroke-miterlimit:10;"
   x1="213.052"
   y1="450.164"
   x2="258.758"
   y2="450.164"
   id="line19" />&#10;			<line
   style="fill:none;stroke:#8A8A8A;stroke-miterlimit:10;"
   x1="298.203"
   y1="443.659"
   x2="271.906"
   y2="443.659"
   id="line20" />&#10;			&#10;				<rect
   x="114.128"
   y="440.656"
   transform="matrix(-1 -1.224647e-16 1.224647e-16 -1 249.543 903.3317)"
   style="fill:#FFFFFF;stroke:#263238;stroke-miterlimit:10;"
   width="21.288"
   height="22.02"
   id="rect20" />&#10;		</g>&#10;		<g
   id="g34">&#10;			&#10;				<rect
   x="128.876"
   y="417.944"
   transform="matrix(-1 -1.224647e-16 1.224647e-16 -1 439.7697 858.4089)"
   style="fill:#263238;stroke:#263238;stroke-miterlimit:10;"
   width="182.018"
   height="22.52"
   id="rect21" />&#10;			&#10;				<rect
   x="28.699"
   y="417.944"
   transform="matrix(-1 -1.224647e-16 1.224647e-16 -1 239.4161 858.4089)"
   style="fill:#FFFFFF;stroke:#263238;stroke-miterlimit:10;"
   width="182.018"
   height="22.52"
   id="rect22" />&#10;			<line
   style="fill:#FFFFFF;stroke:#263238;stroke-miterlimit:10;"
   x1="209.465"
   y1="423.95"
   x2="165.011"
   y2="423.95"
   id="line22" />&#10;			<line
   style="fill:#FFFFFF;stroke:#263238;stroke-miterlimit:10;"
   x1="200.699"
   y1="428.954"
   x2="136.21"
   y2="428.954"
   id="line23" />&#10;			<line
   style="fill:#FFFFFF;stroke:#263238;stroke-miterlimit:10;"
   x1="175.029"
   y1="433.458"
   x2="186.299"
   y2="433.458"
   id="line24" />&#10;			<line
   style="fill:#FFFFFF;stroke:#263238;stroke-miterlimit:10;"
   x1="190.681"
   y1="433.458"
   x2="208.839"
   y2="433.458"
   id="line25" />&#10;			<line
   style="fill:#FFFFFF;stroke:#263238;stroke-miterlimit:10;"
   x1="29.773"
   y1="432.457"
   x2="86.748"
   y2="432.457"
   id="line26" />&#10;			<line
   style="fill:#FFFFFF;stroke:#263238;stroke-miterlimit:10;"
   x1="34.781"
   y1="429.455"
   x2="42.295"
   y2="429.455"
   id="line27" />&#10;			<line
   style="fill:#FFFFFF;stroke:#263238;stroke-miterlimit:10;"
   x1="77.356"
   y1="428.954"
   x2="52.312"
   y2="428.954"
   id="line28" />&#10;			<line
   style="fill:#FFFFFF;stroke:#263238;stroke-miterlimit:10;"
   x1="29.773"
   y1="422.949"
   x2="51.686"
   y2="422.949"
   id="line29" />&#10;			<line
   style="fill:none;stroke:#8A8A8A;stroke-miterlimit:10;"
   x1="308.389"
   y1="427.453"
   x2="297.119"
   y2="427.453"
   id="line30" />&#10;			<line
   style="fill:none;stroke:#8A8A8A;stroke-miterlimit:10;"
   x1="310.894"
   y1="432.457"
   x2="275.832"
   y2="432.457"
   id="line31" />&#10;			<line
   style="fill:none;stroke:#8A8A8A;stroke-miterlimit:10;"
   x1="212.595"
   y1="435.46"
   x2="229.5"
   y2="435.46"
   id="line32" />&#10;			<line
   style="fill:none;stroke:#8A8A8A;stroke-miterlimit:10;"
   x1="210.717"
   y1="427.453"
   x2="256.422"
   y2="427.453"
   id="line33" />&#10;			<line
   style="fill:none;stroke:#8A8A8A;stroke-miterlimit:10;"
   x1="295.867"
   y1="420.947"
   x2="269.571"
   y2="420.947"
   id="line34" />&#10;			&#10;				<rect
   x="111.792"
   y="417.944"
   transform="matrix(-1 -1.224647e-16 1.224647e-16 -1 244.8722 857.9085)"
   style="fill:#FFFFFF;stroke:#263238;stroke-miterlimit:10;"
   width="21.288"
   height="22.02"
   id="rect34" />&#10;		</g>&#10;		<g
   id="g48">&#10;			&#10;				<rect
   x="136.271"
   y="395.233"
   transform="matrix(-1 -1.224647e-16 1.224647e-16 -1 454.5606 812.9856)"
   style="fill:#263238;stroke:#263238;stroke-miterlimit:10;"
   width="182.018"
   height="22.52"
   id="rect35" />&#10;			&#10;				<rect
   x="36.095"
   y="395.233"
   transform="matrix(-1 -1.224647e-16 1.224647e-16 -1 254.207 812.9856)"
   style="fill:#FFFFFF;stroke:#263238;stroke-miterlimit:10;"
   width="182.018"
   height="22.52"
   id="rect36" />&#10;			<line
   style="fill:#FFFFFF;stroke:#263238;stroke-miterlimit:10;"
   x1="216.86"
   y1="401.238"
   x2="172.407"
   y2="401.238"
   id="line36" />&#10;			<line
   style="fill:#FFFFFF;stroke:#263238;stroke-miterlimit:10;"
   x1="208.095"
   y1="406.243"
   x2="143.606"
   y2="406.243"
   id="line37" />&#10;			<line
   style="fill:#FFFFFF;stroke:#263238;stroke-miterlimit:10;"
   x1="182.424"
   y1="410.747"
   x2="193.694"
   y2="410.747"
   id="line38" />&#10;			<line
   style="fill:#FFFFFF;stroke:#263238;stroke-miterlimit:10;"
   x1="198.077"
   y1="410.747"
   x2="216.234"
   y2="410.747"
   id="line39" />&#10;			<line
   style="fill:#FFFFFF;stroke:#263238;stroke-miterlimit:10;"
   x1="37.168"
   y1="409.746"
   x2="94.144"
   y2="409.746"
   id="line40" />&#10;			<line
   style="fill:#FFFFFF;stroke:#263238;stroke-miterlimit:10;"
   x1="42.177"
   y1="406.743"
   x2="49.69"
   y2="406.743"
   id="line41" />&#10;			<line
   style="fill:#FFFFFF;stroke:#263238;stroke-miterlimit:10;"
   x1="84.752"
   y1="406.243"
   x2="59.708"
   y2="406.243"
   id="line42" />&#10;			<line
   style="fill:#FFFFFF;stroke:#263238;stroke-miterlimit:10;"
   x1="37.168"
   y1="400.237"
   x2="59.082"
   y2="400.237"
   id="line43" />&#10;			<line
   style="fill:none;stroke:#8A8A8A;stroke-miterlimit:10;"
   x1="315.785"
   y1="404.741"
   x2="304.515"
   y2="404.741"
   id="line44" />&#10;			<line
   style="fill:none;stroke:#8A8A8A;stroke-miterlimit:10;"
   x1="318.289"
   y1="409.746"
   x2="283.227"
   y2="409.746"
   id="line45" />&#10;			<line
   style="fill:none;stroke:#8A8A8A;stroke-miterlimit:10;"
   x1="219.991"
   y1="412.748"
   x2="236.895"
   y2="412.748"
   id="line46" />&#10;			<line
   style="fill:none;stroke:#8A8A8A;stroke-miterlimit:10;"
   x1="218.112"
   y1="404.741"
   x2="263.818"
   y2="404.741"
   id="line47" />&#10;			<line
   style="fill:none;stroke:#8A8A8A;stroke-miterlimit:10;"
   x1="303.263"
   y1="398.235"
   x2="276.966"
   y2="398.235"
   id="line48" />&#10;			&#10;				<rect
   x="119.188"
   y="395.233"
   transform="matrix(-1 -1.224647e-16 1.224647e-16 -1 259.663 812.4851)"
   style="fill:#FFFFFF;stroke:#263238;stroke-miterlimit:10;"
   width="21.288"
   height="22.02"
   id="rect48" />&#10;		</g>&#10;		<g
   id="g62">&#10;			&#10;				<rect
   x="130.627"
   y="372.521"
   transform="matrix(-1 -1.224647e-16 1.224647e-16 -1 443.271 767.5622)"
   style="fill:#263238;stroke:#263238;stroke-miterlimit:10;"
   width="182.018"
   height="22.52"
   id="rect49" />&#10;			&#10;				<rect
   x="30.45"
   y="372.521"
   transform="matrix(-1 -1.224647e-16 1.224647e-16 -1 242.9174 767.5622)"
   style="fill:#FFFFFF;stroke:#263238;stroke-miterlimit:10;"
   width="182.018"
   height="22.52"
   id="rect50" />&#10;			<line
   style="fill:#FFFFFF;stroke:#263238;stroke-miterlimit:10;"
   x1="211.215"
   y1="378.526"
   x2="166.762"
   y2="378.526"
   id="line50" />&#10;			<line
   style="fill:#FFFFFF;stroke:#263238;stroke-miterlimit:10;"
   x1="202.45"
   y1="383.531"
   x2="137.961"
   y2="383.531"
   id="line51" />&#10;			<line
   style="fill:#FFFFFF;stroke:#263238;stroke-miterlimit:10;"
   x1="176.779"
   y1="388.035"
   x2="188.049"
   y2="388.035"
   id="line52" />&#10;			<line
   style="fill:#FFFFFF;stroke:#263238;stroke-miterlimit:10;"
   x1="192.432"
   y1="388.035"
   x2="210.589"
   y2="388.035"
   id="line53" />&#10;			<line
   style="fill:#FFFFFF;stroke:#263238;stroke-miterlimit:10;"
   x1="31.523"
   y1="387.034"
   x2="88.499"
   y2="387.034"
   id="line54" />&#10;			<line
   style="fill:#FFFFFF;stroke:#263238;stroke-miterlimit:10;"
   x1="36.532"
   y1="384.031"
   x2="44.045"
   y2="384.031"
   id="line55" />&#10;			<line
   style="fill:#FFFFFF;stroke:#263238;stroke-miterlimit:10;"
   x1="79.107"
   y1="383.531"
   x2="54.063"
   y2="383.531"
   id="line56" />&#10;			<line
   style="fill:#FFFFFF;stroke:#263238;stroke-miterlimit:10;"
   x1="31.523"
   y1="377.526"
   x2="53.437"
   y2="377.526"
   id="line57" />&#10;			<line
   style="fill:none;stroke:#8A8A8A;stroke-miterlimit:10;"
   x1="310.14"
   y1="382.03"
   x2="298.87"
   y2="382.03"
   id="line58" />&#10;			<line
   style="fill:none;stroke:#8A8A8A;stroke-miterlimit:10;"
   x1="312.644"
   y1="387.034"
   x2="277.582"
   y2="387.034"
   id="line59" />&#10;			<line
   style="fill:none;stroke:#8A8A8A;stroke-miterlimit:10;"
   x1="214.346"
   y1="390.037"
   x2="231.251"
   y2="390.037"
   id="line60" />&#10;			<line
   style="fill:none;stroke:#8A8A8A;stroke-miterlimit:10;"
   x1="212.467"
   y1="382.03"
   x2="258.173"
   y2="382.03"
   id="line61" />&#10;			<line
   style="fill:none;stroke:#8A8A8A;stroke-miterlimit:10;"
   x1="297.618"
   y1="375.524"
   x2="271.321"
   y2="375.524"
   id="line62" />&#10;			&#10;				<rect
   x="113.543"
   y="372.521"
   transform="matrix(-1 -1.224647e-16 1.224647e-16 -1 248.3735 767.0617)"
   style="fill:#FFFFFF;stroke:#263238;stroke-miterlimit:10;"
   width="21.287"
   height="22.02"
   id="rect62" />&#10;		</g>&#10;	</g>&#10;</g>&#10;<g
   id="g70">&#10;			<rect
   x="283.28"
   y="118.62"
   style="fill:#263238;stroke:#263238;stroke-miterlimit:10"
   width="174.24001"
   height="344.556"
   id="rect63" />&#10;			<line
   style="fill:none;stroke:#8a8a8a;stroke-miterlimit:10"
   x1="438.68399"
   y1="120.19"
   x2="438.68399"
   y2="179.84"
   id="line63" />&#10;			<line
   style="fill:none;stroke:#8a8a8a;stroke-miterlimit:10"
   x1="449.672"
   y1="135.103"
   x2="449.672"
   y2="160.218"
   id="line64" />&#10;			<line
   style="fill:none;stroke:#8a8a8a;stroke-miterlimit:10"
   x1="444.17801"
   y1="129.60899"
   x2="444.17801"
   y2="219.08299"
   id="line65" />&#10;			<line
   style="fill:none;stroke:#8a8a8a;stroke-miterlimit:10"
   x1="453.59601"
   y1="118.62"
   x2="453.59601"
   y2="235.565"
   id="line66" />&#10;			<line
   style="fill:none;stroke:#8a8a8a;stroke-miterlimit:10"
   x1="440.25299"
   y1="462.39099"
   x2="440.25299"
   y2="401.172"
   id="line67" />&#10;			<line
   style="fill:none;stroke:#8a8a8a;stroke-miterlimit:10"
   x1="446.53201"
   y1="463.17599"
   x2="446.53201"
   y2="449.83401"
   id="line68" />&#10;			<line
   style="fill:none;stroke:#8a8a8a;stroke-miterlimit:10"
   x1="448.10199"
   y1="445.12399"
   x2="448.10199"
   y2="390.96899"
   id="line69" />&#10;			<line
   style="fill:none;stroke:#8a8a8a;stroke-miterlimit:10"
   x1="441.03799"
   y1="393.323"
   x2="441.03799"
   y2="304.634"
   id="line70" />&#10;		</g><rect
   x="258.94901"
   y="118.62"
   style="fill:#13bfa1;stroke:#263238;stroke-miterlimit:10;fill-opacity:1"
   width="174.24001"
   height="344.556"
   id="rect70" /><path
   style="fill:#ffffff;stroke:#263238;stroke-miterlimit:10"
   d="m 418.277,142.951 c -7.104,0 -12.895,-5.556 -13.303,-12.558 H 287.165 c -0.409,7.002 -6.199,12.558 -13.303,12.558 -0.805,0 -1.589,-0.083 -2.355,-0.22 v 289.271 c 0.766,-0.137 1.55,-0.22 2.355,-0.22 7.369,0 13.343,5.974 13.343,13.343 0,2.271 -0.571,4.407 -1.571,6.279 h 120.873 c -1.001,-1.872 -1.571,-4.008 -1.571,-6.279 0,-7.369 5.974,-13.343 13.343,-13.343 0.805,0 1.589,0.084 2.355,0.22 V 142.731 c -0.768,0.137 -1.552,0.22 -2.357,0.22 z m -75.739,200.141 c -27.525,0 -49.839,-24.246 -49.839,-54.156 0,-29.909 22.314,-54.156 49.839,-54.156 27.525,0 49.839,24.246 49.839,54.156 0,29.909 -22.314,54.156 -49.839,54.156 z"
   id="path70" /><rect
   x="259.73401"
   y="270.099"
   style="fill:#ffffff;stroke:#263238;stroke-miterlimit:10"
   width="197.467"
   height="35.319"
   id="rect71" /><rect
   x="433.57001"
   y="270.099"
   style="fill:#3d3d3d;stroke:#8a8a8a;stroke-miterlimit:10"
   width="23.632"
   height="35.319"
   id="rect72" />&#10;<g
   id="g73">&#10;			<path
   style="fill:#263238;stroke:#263238;stroke-miterlimit:10"
   d="m 68.683,441.746 -5.82,8.731 -11.376,8.995 v 3.704 h 38.891 l -1.323,-12.964 v -5.82 c -0.001,0 -15.874,-6.879 -20.372,-2.646 z"
   id="path72" />&#10;			<polygon
   style="fill:#ffffff;stroke:#263238;stroke-miterlimit:10"
   points="90.026,459.737 51.486,459.737 51.486,463.176 90.377,463.176 "
   id="polygon72" />&#10;		</g><g
   id="g74">&#10;			<path
   style="fill:#263238;stroke:#263238;stroke-miterlimit:10"
   d="m 132.899,441.746 6.203,8.731 12.125,8.995 v 3.704 h -41.45 l 1.41,-12.964 v -5.82 c 0,0 16.918,-6.879 21.712,-2.646 z"
   id="path73" />&#10;			<polygon
   style="fill:#ffffff;stroke:#263238;stroke-miterlimit:10"
   points="110.151,459.737 151.227,459.737 151.227,463.176 109.777,463.176 "
   id="polygon73" />&#10;		</g><path
   style="fill:#13bfa1;stroke:#263238;stroke-miterlimit:10;fill-opacity:1"
   d="m 51.334,260.682 c 0,0 9.081,102.48 9.729,121.938 0.649,19.458 6.81,45.727 6.81,45.727 l -2.919,4.54 2.919,10.053 c 0,0 6.81,-1.621 10.378,-0.324 3.567,1.297 10.053,2.919 10.053,2.919 0,0 3.243,-8.756 3.567,-12.648 0.324,-3.892 -3.892,-13.297 -3.892,-13.297 L 87.33,302.516 h 5.838 l 14.918,123.884 -0.649,7.459 2.919,11.675 c 0,0 17.188,-3.567 18.485,-3.892 1.297,-0.324 2.919,0.324 2.919,0.324 0,0 1.946,-4.216 1.946,-5.513 0,-1.297 -2.594,-8.756 -2.594,-8.756 l -0.649,-58.05 V 266.52 259.71 l -79.13,-1.621 v 2.593 z"
   id="path74" /><g
   id="g80">&#10;				<polyline
   style="fill:none;stroke:#263238;stroke-linecap:round;stroke-linejoin:round;stroke-miterlimit:10"
   points="      127.721,305.943 129.492,344.706 121.941,345.392 121.941,350.197 127.432,350.54     "
   id="polyline74" />&#10;				&#10;					<line
   style="fill:none;stroke:#263238;stroke-linecap:round;stroke-linejoin:round;stroke-miterlimit:10"
   x1="126.403"
   y1="277.09698"
   x2="127.547"
   y2="302.14499"
   id="line74" />&#10;				<path
   style="fill:none;stroke:#263238;stroke-linecap:round;stroke-linejoin:round;stroke-miterlimit:10"
   d="m 123.097,373.211 c 0.254,6.926 0.803,12.94 1.934,13.364 2.745,1.03 3.432,2.059 3.432,2.059"
   id="path75" />&#10;				<path
   style="fill:none;stroke:#263238;stroke-linecap:round;stroke-linejoin:round;stroke-miterlimit:10"
   d="m 122.971,351.569 c 0,0 -0.177,8.759 0.008,17.517"
   id="path76" />&#10;				&#10;					<line
   style="fill:none;stroke:#263238;stroke-linecap:round;stroke-linejoin:round;stroke-miterlimit:10"
   x1="79.386002"
   y1="299.061"
   x2="93.113998"
   y2="300.091"
   id="line76" />&#10;				<polyline
   style="fill:none;stroke:#263238;stroke-linecap:round;stroke-linejoin:round;stroke-miterlimit:10"
   points="      83.847,266.115 84.19,285.334 90.368,289.795     "
   id="polyline76" />&#10;				&#10;					<line
   style="fill:none;stroke:#263238;stroke-linecap:round;stroke-linejoin:round;stroke-miterlimit:10"
   x1="90.367996"
   y1="272.979"
   x2="91.397003"
   y2="296.659"
   id="line77" />&#10;				&#10;					<line
   style="fill:none;stroke:#263238;stroke-linecap:round;stroke-linejoin:round;stroke-miterlimit:10"
   x1="86.133003"
   y1="382.80899"
   x2="86.593002"
   y2="406.48001"
   id="line78" />&#10;				&#10;					<line
   style="fill:none;stroke:#263238;stroke-linecap:round;stroke-linejoin:round;stroke-miterlimit:10"
   x1="84.533997"
   y1="300.43399"
   x2="86.019997"
   y2="376.96301"
   id="line79" />&#10;				<path
   style="fill:none;stroke:#263238;stroke-linecap:round;stroke-linejoin:round;stroke-miterlimit:10"
   d="m 112.332,276.067 c 0,0 4.805,9.953 13.728,6.864"
   id="path79" />&#10;				<path
   style="fill:none;stroke:#263238;stroke-linecap:round;stroke-linejoin:round;stroke-miterlimit:10"
   d="m 64.285,276.067 c 0,0 -3.432,7.55 -8.923,8.58"
   id="path80" />&#10;			</g><polygon
   style="fill:#ffffff;stroke:#263238;stroke-miterlimit:10"
   points="113.689,147.054 84.669,146.334 74.356,149.452 65.722,260.255 111.29,260.975 "
   id="polygon81" /><path
   style="fill:#ffffff;stroke:#263238;stroke-miterlimit:10"
   d="m 81.007,141.987 h -2.432 l -1.216,3.162 0.486,26.755 15.08,-9.729 14.837,14.107 1.946,-31.863 c 0,0 0.73,-1.459 -1.459,-2.432 -2.189,-0.973 -2.919,-1.216 -2.919,-1.216 z"
   id="path81" /><path
   style="fill:#ffffff;stroke:#263238;stroke-miterlimit:10"
   d="m 79.548,134.204 0.73,10.945 c 0,0 7.054,15.323 11.675,17.512 4.621,2.189 15.323,-18.242 15.323,-18.242 l -0.73,-12.161 H 79.305 Z"
   id="path82" /><path
   style="fill:#263238;stroke:#263238;stroke-miterlimit:10"
   d="m 79.548,134.204 c 0,0 8.756,18.972 13.864,19.701 5.108,0.73 13.377,-17.512 13.377,-19.215 0,-1.703 -27.241,-0.486 -27.241,-0.486 z"
   id="path83" /><g
   id="g93">&#10;			<path
   style="fill:#ffffff;stroke:#263238;stroke-miterlimit:10"
   d="m 74.933,117.916 c 0,0 -4.225,-3.457 -4.802,1.345 -0.576,4.801 5.57,9.219 5.57,9.219 z"
   id="path84" />&#10;			<path
   style="fill:#ffffff;stroke:#263238;stroke-miterlimit:10"
   d="m 109.235,117.916 c 0,0 4.225,-3.457 4.801,1.345 0.576,4.801 -5.57,9.219 -5.57,9.219 z"
   id="path85" />&#10;			<path
   style="fill:#ffffff;stroke:#263238;stroke-miterlimit:10"
   d="m 74.164,118.493 c 0,0 2.305,13.444 4.225,15.941 1.921,2.497 7.874,11.139 13.444,12.676 5.57,1.536 14.212,-9.219 15.941,-12.868 1.729,-3.649 2.305,-19.782 2.305,-19.782 l -0.192,-8.643 c 0,0 -0.576,-6.338 -3.073,-9.795 -2.497,-3.457 -13.252,-5.762 -20.358,-3.073 -7.106,2.689 -13.06,15.173 -13.06,17.669 0,2.497 0.768,7.875 0.768,7.875 z"
   id="path86" />&#10;			<path
   style="fill:#263238;stroke:#263238;stroke-miterlimit:10"
   d="m 86.84,103.512 c 0,0 -5.954,6.914 -8.643,8.258 -2.689,1.344 -3.457,1.921 -3.457,1.921 l 0.384,8.066 -3.073,-10.947 c 0,0 -3.841,-11.716 -3.073,-16.901 0.768,-5.186 18.246,-10.179 24.391,-12.1 6.146,-1.921 8.451,1.921 12.484,4.994 4.033,3.073 8.259,5.378 7.682,10.563 -0.576,5.186 -2.689,10.563 -2.689,10.563 0,0 -0.96,14.404 -0.96,14.981 0,0.576 -1.729,-14.212 -1.729,-14.212 0,0 -3.073,-0.576 -3.841,-4.225 -0.768,-3.649 -0.96,-7.682 -0.96,-7.682 0,0 -2.497,5.186 -4.993,7.682 -2.497,2.497 -8.643,4.802 -9.603,4.61 -0.96,-0.192 0.96,-4.802 0.96,-4.802 l -3.457,3.265 z"
   id="path87" />&#10;			<g
   id="g92">&#10;				<path
   style="fill:none;stroke:#263238;stroke-miterlimit:10"
   d="m 88.377,130.4 c 0,0 1.729,1.536 3.265,1.921 1.536,0.384 4.225,-1.921 4.993,-2.497"
   id="path88" />&#10;				<path
   style="fill:#ffffff;stroke:#263238;stroke-miterlimit:10"
   d="m 87.8,135.778 c 0,0 4.417,3.457 10.371,-0.576"
   id="path89" />&#10;				<ellipse
   style="fill:#263238"
   cx="84.823997"
   cy="121.373"
   rx="1.248"
   ry="2.1129999"
   id="ellipse89" />&#10;				<ellipse
   style="fill:#263238"
   cx="99.419998"
   cy="121.373"
   rx="1.248"
   ry="2.1129999"
   id="ellipse90" />&#10;				<path
   style="fill:none;stroke:#263238;stroke-miterlimit:10"
   d="m 96.443,114.651 c 0,0 3.841,-2.305 7.682,1.152"
   id="path90" />&#10;				<path
   style="fill:none;stroke:#263238;stroke-miterlimit:10"
   d="m 86.264,114.459 c 0,0 -3.457,-2.113 -6.146,0.96"
   id="path91" />&#10;				<line
   style="fill:none;stroke:#263238;stroke-miterlimit:10"
   x1="99.900002"
   y1="125.023"
   x2="104.125"
   y2="124.062"
   id="line91" />&#10;				<line
   style="fill:none;stroke:#263238;stroke-miterlimit:10"
   x1="80.501999"
   y1="123.87"
   x2="83.959"
   y2="125.023"
   id="line92" />&#10;			</g>&#10;		</g><path
   style="fill:#263238;stroke:#263238;stroke-miterlimit:10"
   d="m 77.602,169.958 -2.189,105.074 -25.053,-1.216 -1.459,-2.919 c 0,0 -3.405,0 -3.892,-2.676 -0.486,-2.676 3.405,-61.537 3.405,-61.537 L 27.01,204.738 41.361,176.767 c 0,0 4.378,-19.458 5.351,-20.918 0.973,-1.46 31.376,-11.918 31.376,-11.918 z"
   id="path93" /><path
   style="fill:#263238;stroke:#263238;stroke-miterlimit:10"
   d="m 108.735,143.284 -3.567,131.992 32.106,-0.324 1.297,-4.865 3.243,-2.27 c 0,0 0,-5.189 0,-10.378 0,-5.189 -6.162,-42.808 -6.162,-42.808 0,0 16.215,-2.27 16.539,-5.513 0.324,-3.243 -6.81,-52.213 -10.702,-55.78 -3.891,-3.568 -32.754,-10.054 -32.754,-10.054 z"
   id="path94" /><path
   style="fill:#ffffff;stroke:#263238;stroke-miterlimit:10"
   d="m 116.79,218.548 4.269,12.298 c 0,0 2.472,-5.932 2.097,-9.677 -0.375,-3.745 -0.375,-4.868 -1.498,-5.056 -1.123,-0.186 -4.681,-0.935 -4.868,2.435 z"
   id="path95" /><polygon
   style="fill:#13bfa1;stroke:#263238;stroke-miterlimit:10;fill-opacity:1"
   points="74.123,186.595 87.792,213.745 102.21,206.63 90.039,177.982 "
   id="polygon95" /><path
   style="fill:#ffffff;stroke:#263238;stroke-miterlimit:10"
   d="m 97.83,205.542 c -0.286,-1.012 0.165,-2.025 1.008,-2.264 0.081,-0.023 0.163,-0.031 0.245,-0.038 l -8.961,-21.093 c -0.184,0.402 -0.503,0.71 -0.92,0.828 -0.601,0.17 -1.236,-0.105 -1.656,-0.641 l -9.506,5.145 c 0.115,0.179 0.212,0.377 0.274,0.598 0.249,0.881 -0.061,1.763 -0.702,2.134 l 9.451,18.772 c 0.171,-0.185 0.38,-0.328 0.628,-0.398 0.757,-0.214 1.569,0.273 1.935,1.107 l 8.236,-4.064 c -0.01,-0.031 -0.023,-0.057 -0.032,-0.086 z m -8.125,-4.865 c -1.741,0.493 -3.632,-0.801 -4.224,-2.891 -0.591,-2.09 0.341,-4.183 2.082,-4.676 1.741,-0.493 3.632,0.801 4.224,2.891 0.592,2.089 -0.34,4.183 -2.082,4.676 z"
   id="path96" /><polygon
   style="fill:#13bfa1;stroke:#263238;stroke-miterlimit:10;fill-opacity:1"
   points="79.97,183.254 87.271,212.761 102.909,209.023 97.4,178.388 "
   id="polygon96" /><path
   style="fill:#ffffff;stroke:#263238;stroke-miterlimit:10"
   d="m 98.88,206.99 c -0.055,-1.05 0.61,-1.938 1.486,-1.984 0.084,-0.004 0.166,0.006 0.247,0.017 l -4.056,-22.556 c -0.268,0.352 -0.648,0.581 -1.081,0.603 -0.624,0.033 -1.182,-0.377 -1.473,-0.993 l -10.411,2.906 c 0.072,0.2 0.123,0.415 0.135,0.644 0.048,0.914 -0.451,1.705 -1.158,1.924 l 5.048,20.401 c 0.208,-0.142 0.444,-0.235 0.701,-0.249 0.786,-0.041 1.47,0.614 1.641,1.508 l 8.932,-2.135 c -0.002,-0.027 -0.009,-0.055 -0.011,-0.086 z m -6.842,-6.547 c -1.807,0.094 -3.364,-1.588 -3.477,-3.757 -0.113,-2.169 1.261,-4.003 3.068,-4.097 1.807,-0.094 3.364,1.588 3.477,3.756 0.113,2.17 -1.261,4.004 -3.068,4.098 z"
   id="path97" /><polygon
   style="fill:#13bfa1;stroke:#263238;stroke-miterlimit:10;fill-opacity:1"
   points="88.619,180.969 86.94,211.319 102.986,212.335 106.71,181.432 "
   id="polygon97" /><path
   style="fill:#ffffff;stroke:#263238;stroke-miterlimit:10"
   d="m 99.731,209.209 c 0.256,-1.02 1.152,-1.674 2.002,-1.461 0.082,0.021 0.157,0.054 0.232,0.089 l 2.742,-22.753 c -0.36,0.258 -0.79,0.365 -1.21,0.26 -0.606,-0.152 -1.019,-0.707 -1.116,-1.381 l -10.805,-0.277 c 0.01,0.212 -0.004,0.432 -0.06,0.655 -0.223,0.888 -0.932,1.498 -1.672,1.5 l -1.161,20.984 c 0.241,-0.075 0.493,-0.095 0.743,-0.032 0.763,0.191 1.225,1.018 1.126,1.924 l 9.166,0.58 c 0.005,-0.029 0.006,-0.059 0.013,-0.088 z m -4.62,-8.267 c -1.755,-0.44 -2.75,-2.505 -2.221,-4.611 0.529,-2.106 2.38,-3.457 4.135,-3.016 1.755,0.441 2.75,2.505 2.221,4.611 -0.528,2.106 -2.379,3.457 -4.135,3.016 z"
   id="path98" /><g
   id="g102">&#10;			<path
   style="fill:#ffffff;stroke:#263238;stroke-linecap:round;stroke-linejoin:round;stroke-miterlimit:10"
   d="m 121.658,210.684 c 0,0 -4.494,-0.749 -5.243,-1.124 -0.749,-0.374 -6.179,-2.247 -10.486,-4.494 -4.307,-2.247 -7.864,0 -14.043,1.124 -6.179,1.123 -7.864,1.498 -7.864,2.996 0,1.498 3.183,1.872 3.183,1.872 0,0 -2.996,0.374 -1.498,2.434 1.498,2.06 3.558,2.621 3.558,2.621 0,0 1.311,2.247 3.183,3.558 1.872,1.311 3.183,2.434 3.183,2.434 0,0 1.872,2.434 4.494,3.183 2.621,0.749 17.413,-3.745 17.413,-3.745 0,0 4.494,1.311 5.617,-1.123 1.124,-2.433 -1.497,-9.736 -1.497,-9.736 z"
   id="path99" />&#10;			<path
   style="fill:none;stroke:#263238;stroke-linecap:round;stroke-linejoin:round;stroke-miterlimit:10"
   d="m 87.205,211.059 c 0,0 11.235,-0.374 14.792,-1.498"
   id="path100" />&#10;			<path
   style="fill:none;stroke:#263238;stroke-linecap:round;stroke-linejoin:round;stroke-miterlimit:10"
   d="m 89.265,216.114 c 0,0 5.992,0.936 9.362,0.749 3.37,-0.187 5.243,-1.498 5.243,-1.498"
   id="path101" />&#10;			<path
   style="fill:none;stroke:#263238;stroke-linecap:round;stroke-linejoin:round;stroke-miterlimit:10"
   d="m 93.946,220.795 c 0,0 6.553,2.06 11.047,0.562"
   id="path102" />&#10;		</g><g
   id="g103">&#10;			<path
   style="fill:#263238;stroke:#263238;stroke-miterlimit:10"
   d="m 127.221,178.633 3.567,27.89 -10.053,2.919 c 0,0 1.621,8.432 0.973,12.324 -0.649,3.892 -0.649,9.081 -0.649,9.081 0,0 11.026,-3.567 18.161,-4.216 7.135,-0.649 13.297,-3.892 15.242,-9.08 1.946,-5.189 -4.216,-23.026 -4.216,-23.026"
   id="path103" />&#10;			<polyline
   style="fill:none;stroke:#6b6b6b;stroke-miterlimit:10"
   points="125.895,208.617 130.788,206.524 143.191,203.195         "
   id="polyline103" />&#10;			<line
   style="fill:none;stroke:#6b6b6b;stroke-miterlimit:10"
   x1="130.78799"
   y1="206.524"
   x2="126.94"
   y2="173.584"
   id="line103" />&#10;		</g><path
   style="fill:#ffffff;stroke:#263238;stroke-miterlimit:10"
   d="m 67.382,205.881 c 0,0 -2.247,-9.924 -3.183,-11.796 -0.936,-1.872 -5.992,3.37 -6.366,5.056 -0.374,1.685 8.052,6.927 9.549,6.74 z"
   id="path104" /><path
   style="fill:#ffffff;stroke:#263238;stroke-miterlimit:10"
   d="m 62.489,185.032 -4.844,5.682 c 0,0 1.311,8.239 2.434,8.613 1.123,0.374 8.8,-5.617 8.8,-5.617 z"
   id="path105" /><path
   style="fill:#ffffff;stroke:#263238;stroke-linecap:round;stroke-linejoin:round;stroke-miterlimit:10"
   d="m 71.477,173.61 c 0,0 -8.426,8.239 -8.988,11.422 -0.562,3.183 5.43,9.175 6.179,9.737 0.749,0.562 6.179,-3.745 6.366,-4.494 0.187,-0.749 -3.558,-6.553 -3.558,-6.553 0,0 4.494,2.247 5.056,2.809 0.562,0.562 4.119,5.617 5.43,5.243 1.311,-0.375 0.749,-2.809 0,-5.056 -0.749,-2.247 -8.8,-9.737 -8.8,-9.737 l 5.43,1.311 c 0,0 6.366,6.179 7.864,6.179 1.498,0 0.749,-1.498 -0.187,-2.809 -0.936,-1.311 -5.43,-6.553 -6.554,-7.864 -1.123,-1.311 -5.43,-2.06 -5.992,-2.06 -0.561,0 -2.246,1.872 -2.246,1.872 z"
   id="path106" /><line
   style="fill:none;stroke:#263238;stroke-linecap:round;stroke-linejoin:round;stroke-miterlimit:10"
   x1="71.476997"
   y1="183.72099"
   x2="68.856003"
   y2="181.10001"
   id="line106" /><line
   style="fill:none;stroke:#263238;stroke-linecap:round;stroke-linejoin:round;stroke-miterlimit:10"
   x1="65.485001"
   y1="184.283"
   x2="72.225998"
   y2="192.522"
   id="line107" /><g
   id="g109">&#10;			<path
   style="fill:#263238;stroke:#263238;stroke-miterlimit:10"
   d="m 57.459,189.778 c 0,0 1.311,4.494 2.06,7.303 0.749,2.809 7.864,8.8 7.864,8.8 0,0 -10.111,10.673 -19.099,15.354 -8.988,4.681 -19.549,2.33 -22.732,-1.415 -3.183,-3.745 -1.872,-14.605 0.749,-16.852 2.621,-2.247 17.864,-5.139 21.609,-7.198 3.744,-2.06 9.549,-5.992 9.549,-5.992 z"
   id="path107" />&#10;			<line
   style="fill:none;stroke:#6b6b6b;stroke-miterlimit:10"
   x1="57.459"
   y1="189.778"
   x2="32.823002"
   y2="201.82001"
   id="line108" />&#10;			<line
   style="fill:none;stroke:#6b6b6b;stroke-miterlimit:10"
   x1="54.261002"
   y1="191.362"
   x2="54.261002"
   y2="179.85899"
   id="line109" />&#10;		</g>&#10;<path
   style="fill:#13bfa1;stroke:#263238;stroke-linejoin:round;stroke-miterlimit:10;fill-opacity:1"
   d="m 218.24,444.3 c 0,0 -2.964,0.847 -11.01,-5.082 -8.046,-5.928 -17.362,-14.398 -17.362,-14.398 0,0 9.243,-1.239 13.511,-3.495 4.705,-2.486 10.203,-8.362 10.203,-8.362 0,0 18.633,25.408 41.923,23.714 0,0 -0.847,6.776 -8.046,9.74 -7.199,2.965 -29.219,-2.117 -29.219,-2.117 z"
   id="path110" /><path
   style="fill:#ffffff;stroke:#263238;stroke-miterlimit:10"
   d="m 248.471,439.592 c 0,0 -19.783,-5.189 -30.485,-16.539 0,0 -3.892,0.973 -4.54,-3.243 0,0 -4.865,5.189 -13.621,6.162 0,0 0.324,2.27 -0.649,2.919 0,0 15.242,13.297 23.999,14.918 8.756,1.622 14.269,1.297 18.485,0.973 4.216,-0.324 7.135,-3.243 7.135,-3.243 0,0 -3.243,-0.65 -0.324,-1.947 z m -18.682,-0.729 c -0.705,1.743 -4.238,1.958 -7.891,0.48 -3.653,-1.478 -6.042,-4.089 -5.337,-5.833 0.705,-1.743 4.238,-1.958 7.891,-0.48 3.653,1.478 6.043,4.09 5.337,5.833 z"
   id="path111" /><path
   style="fill:#13bfa1;stroke:#263238;stroke-linejoin:round;stroke-miterlimit:10;fill-opacity:1"
   d="m 215.241,443.772 c 0,0 10.203,4.197 18.249,4.197 8.046,0 13.969,-1.552 13.969,-1.552 0,0 -2.753,1.502 -7.217,-1.368 -2.555,-1.642 -4.197,-5.292 -4.197,-5.292 0,0 -9.794,3.592 -20.804,4.015 z"
   id="path112" /><path
   style="fill:#13bfa1;stroke:#263238;stroke-linejoin:round;stroke-miterlimit:10;fill-opacity:1"
   d="m 329.82,401.062 c 0,0 18.566,-6.113 29.433,-13.358 l 11.547,19.018 c 0,0 -27.622,21.509 -34.867,15.849 z"
   id="path113" /><path
   style="fill:#ffffff;stroke:#263238;stroke-miterlimit:10"
   d="m 362.876,405.59 c 0,-1.097 0.812,-2.018 1.932,-2.35 l -5.13,-8.506 c -0.405,0.135 -0.853,0.215 -1.329,0.215 -1.275,0 -2.366,-0.541 -2.87,-1.316 -9.59,6.704 -24.299,10.146 -24.299,10.146 l 2.943,11.547 c 0,0 -0.453,6.339 7.471,4.755 6.133,-1.227 17.684,-8.958 22.596,-12.393 -0.788,-0.443 -1.314,-1.215 -1.314,-2.098 z m -19.782,8.498 c -3.474,0.795 -6.708,-0.388 -7.225,-2.643 -0.516,-2.255 1.881,-4.728 5.355,-5.523 3.474,-0.795 6.708,0.388 7.225,2.643 0.517,2.255 -1.881,4.728 -5.355,5.523 z"
   id="path114" /><path
   style="fill:#13bfa1;stroke:#263238;stroke-linejoin:round;stroke-miterlimit:10;fill-opacity:1"
   d="m 327.103,392.458 12.679,25.132 c 0,0 -4.302,2.264 -3.849,4.981 l -12.226,-23.999 c 0,-10e-4 -1.585,-3.85 3.396,-6.114 z"
   id="path115" /><path
   style="fill:#ffffff;stroke:#263238;stroke-miterlimit:10"
   d="m 324.792,400.702 9.414,18.478 c 0.462,-1.36 1.953,-2.044 1.953,-2.044 l -10.415,-18.339 z"
   id="path116" /><polygon
   style="fill:#13bfa1;stroke:#263238;stroke-miterlimit:10;fill-opacity:1"
   points="189.486,260.793 189.69,308.959 214.83,308.847 214.91,259.704 "
   id="polygon116" /><path
   style="fill:#ffffff;stroke:#263238;stroke-miterlimit:10"
   d="m 209.321,304.225 c 0.255,-1.65 1.56,-2.786 2.914,-2.539 0.13,0.024 0.252,0.07 0.373,0.116 l -0.045,-36.677 c -0.472,0.403 -1.062,0.599 -1.664,0.489 -0.869,-0.159 -1.518,-0.913 -1.74,-1.869 l -15.185,0.651 c 0.042,0.303 0.049,0.62 -10e-4,0.943 -0.2,1.293 -1.117,2.234 -2.155,2.309 l -0.045,33.974 c 0.364,-0.145 0.755,-0.204 1.153,-0.131 1.216,0.223 2.051,1.488 2.025,2.938 l 14.361,-0.064 c 0.004,-0.045 0.002,-0.092 0.009,-0.14 z m -8.358,-12.651 c -2.796,-0.512 -4.636,-3.688 -4.108,-7.095 0.527,-3.407 3.222,-5.755 6.018,-5.243 2.796,0.512 4.636,3.688 4.108,7.095 -0.527,3.407 -3.222,5.755 -6.018,5.243 z"
   id="path117" /><polygon
   style="fill:#13bfa1;stroke:#263238;stroke-miterlimit:10;fill-opacity:1"
   points="424.558,56.971 389.496,92.03 407.799,110.327 443.781,74.767 "
   id="polygon117" /><path
   style="fill:#ffffff;stroke:#263238;stroke-miterlimit:10"
   d="m 407.185,102.95 c 1.391,-1.009 3.168,-0.879 3.968,0.29 0.077,0.113 0.132,0.235 0.186,0.357 l 26.779,-26.616 c -0.637,-0.053 -1.208,-0.342 -1.563,-0.862 -0.514,-0.751 -0.433,-1.772 0.105,-2.627 L 425.178,62.863 c -0.191,0.25 -0.418,0.485 -0.691,0.683 -1.09,0.791 -2.443,0.803 -3.25,0.098 l -24.868,24.591 c 0.37,0.162 0.696,0.404 0.931,0.748 0.719,1.05 0.399,2.578 -0.681,3.61 l 10.455,10.452 c 0.039,-0.03 0.07,-0.066 0.111,-0.095 z m 3.19,-15.28 c -1.653,-2.415 -0.664,-6.062 2.209,-8.146 2.873,-2.084 6.542,-1.815 8.195,0.599 1.653,2.415 0.664,6.062 -2.209,8.146 -2.873,2.084 -6.542,1.816 -8.195,-0.599 z"
   id="path118" /><polygon
   style="fill:#13bfa1;stroke:#263238;stroke-miterlimit:10;fill-opacity:1"
   points="183.002,203.943 231.784,184.649 221.709,159.189 171.822,178.582 "
   id="polygon118" /><path
   style="fill:#ffffff;stroke:#263238;stroke-miterlimit:10"
   d="m 219.203,166.609 c -1.775,0.395 -3.445,-0.479 -3.73,-1.95 -0.028,-0.142 -0.029,-0.283 -0.03,-0.425 l -37.19,14.58 c 0.596,0.319 1.029,0.84 1.155,1.494 0.183,0.945 -0.325,1.902 -1.207,2.506 l 6.678,15.148 c 0.291,-0.162 0.609,-0.295 0.958,-0.372 1.391,-0.309 2.709,0.248 3.196,1.271 l 34.485,-13.417 c -0.291,-0.312 -0.506,-0.685 -0.59,-1.118 -0.256,-1.322 0.696,-2.67 2.179,-3.218 l -5.755,-14.543 c -0.051,0.012 -0.097,0.033 -0.149,0.044 z m -9.522,13.493 c 0.589,3.04 -1.905,6.165 -5.57,6.98 -3.666,0.815 -7.115,-0.988 -7.704,-4.028 -0.589,-3.04 1.905,-6.165 5.57,-6.98 3.666,-0.815 7.115,0.989 7.704,4.028 z"
   id="path119" /><path
   style="fill:#13bfa1;stroke:#263238;stroke-linejoin:round;stroke-miterlimit:10;fill-opacity:1"
   d="m 355.171,56.807 c 0,0 2.98,0.789 6.861,9.998 3.881,9.209 7.554,21.253 7.554,21.253 0,0 -8.576,-3.663 -13.398,-3.908 -5.315,-0.27 -13.044,1.967 -13.044,1.967 0,0 -3.014,-31.363 -23.893,-41.821 0,0 4.193,-5.389 11.895,-4.253 7.703,1.135 24.025,16.764 24.025,16.764 z"
   id="path120" /><path
   style="fill:#ffffff;stroke:#263238;stroke-miterlimit:10"
   d="m 326.786,45.39 c 0,0 14.344,14.578 17.735,29.805 0,0 3.842,1.155 2.242,5.109 0,0 6.834,-1.97 14.856,1.673 0,0 0.883,-2.117 2.05,-2.176 0,0 -6.296,-19.222 -12.991,-25.094 -6.695,-5.872 -11.598,-8.414 -15.386,-10.291 -3.789,-1.878 -7.79,-0.863 -7.79,-0.863 0,0 2.455,2.215 -0.716,1.837 z m 15.68,10.182 c 1.498,-1.137 4.644,0.485 7.026,3.624 2.383,3.138 3.1,6.604 1.602,7.742 -1.498,1.137 -4.644,-0.485 -7.026,-3.624 -2.383,-3.139 -3.1,-6.605 -1.602,-7.742 z"
   id="path121" /><path
   style="fill:#13bfa1;stroke:#263238;stroke-linejoin:round;stroke-miterlimit:10;fill-opacity:1"
   d="m 357.478,58.795 c 0,0 -6.62,-8.826 -13.534,-12.941 -6.914,-4.115 -12.797,-5.812 -12.797,-5.812 0,0 3.134,0.118 5.502,4.867 1.355,2.718 0.9,6.694 0.9,6.694 0,0 10.251,1.924 19.929,7.192 z"
   id="path122" /><path
   style="fill:#13bfa1;stroke:#263238;stroke-miterlimit:10;fill-opacity:1"
   d="m 96.393,31.599 4.827,17.7 c 0,0 -24.136,17.879 -60.608,12.873 l 1.967,-19.13 c 0,0 14.303,2.861 27.354,0.179 13.051,-2.683 26.46,-11.622 26.46,-11.622 z"
   id="path123" /><path
   style="fill:#ffffff;stroke:#263238;stroke-miterlimit:10"
   d="m 93.63,48.523 c 0,-0.805 0.661,-1.495 1.617,-1.84 l -2.845,-7.869 c -0.389,0.128 -0.826,0.208 -1.295,0.208 -0.871,0 -1.64,-0.255 -2.158,-0.647 -3.913,2.091 -11.463,5.752 -18.943,7.302 -8.081,1.675 -16.819,1.191 -20.675,0.845 -0.222,0.437 -1.072,0.765 -2.114,0.804 l -0.951,10.728 c 0.242,-0.019 0.492,-0.031 0.749,-0.031 1.968,0 3.563,0.598 3.563,1.336 0,0.209 -0.14,0.405 -0.369,0.582 23.171,0.881 39.388,-7.128 44.315,-9.936 -0.551,-0.376 -0.894,-0.901 -0.894,-1.482 z m -22.932,5.589 c -3.537,0.708 -6.64,0.109 -6.929,-1.338 -0.29,-1.447 2.343,-3.194 5.88,-3.902 3.537,-0.708 6.64,-0.109 6.93,1.338 0.289,1.447 -2.343,3.194 -5.881,3.902 z"
   id="path124" /><path
   style="fill:#13bfa1;stroke:#263238;stroke-miterlimit:10;fill-opacity:1"
   d="m 422.076,425.772 4.827,17.7 c 0,0 -24.136,17.879 -60.608,12.873 l 1.967,-19.13 c 0,0 14.303,2.861 27.354,0.179 13.051,-2.683 26.46,-11.622 26.46,-11.622 z"
   id="path125" /><path
   style="fill:#ffffff;stroke:#263238;stroke-miterlimit:10"
   d="m 419.312,442.695 c 0,-0.805 0.661,-1.495 1.617,-1.84 l -2.845,-7.868 c -0.39,0.128 -0.826,0.208 -1.296,0.208 -0.871,0 -1.64,-0.255 -2.158,-0.647 -3.914,2.091 -11.463,5.752 -18.943,7.302 -8.081,1.675 -16.819,1.191 -20.675,0.845 -0.222,0.436 -1.072,0.765 -2.114,0.804 l -0.951,10.728 c 0.242,-0.019 0.492,-0.031 0.749,-0.031 1.968,0 3.563,0.598 3.563,1.336 0,0.21 -0.14,0.405 -0.369,0.582 23.171,0.881 39.388,-7.128 44.315,-9.935 -0.549,-0.377 -0.893,-0.902 -0.893,-1.484 z m -22.931,5.59 c -3.537,0.708 -6.64,0.109 -6.929,-1.338 -0.29,-1.447 2.343,-3.194 5.881,-3.902 3.537,-0.708 6.64,-0.109 6.929,1.338 0.289,1.447 -2.344,3.194 -5.881,3.902 z"
   id="path126" /><path
   style="fill:#13bfa1;stroke:#263238;stroke-linejoin:round;stroke-miterlimit:10;fill-opacity:1"
   d="m 169.238,54.163 c 0,0 18.566,-6.113 29.433,-13.358 l 11.547,19.018 c 0,0 -27.622,21.509 -34.867,15.849 z"
   id="path127" /><path
   style="fill:#ffffff;stroke:#263238;stroke-miterlimit:10"
   d="m 202.293,58.691 c 0,-1.097 0.812,-2.018 1.932,-2.35 l -5.131,-8.506 c -0.405,0.135 -0.853,0.215 -1.329,0.215 -1.275,0 -2.366,-0.541 -2.87,-1.316 -9.59,6.704 -24.299,10.146 -24.299,10.146 l 2.943,11.547 c 0,0 -0.453,6.34 7.472,4.755 6.133,-1.227 17.684,-8.958 22.596,-12.394 -0.788,-0.443 -1.314,-1.214 -1.314,-2.097 z m -19.781,8.498 c -3.474,0.795 -6.708,-0.388 -7.225,-2.643 -0.516,-2.255 1.881,-4.728 5.355,-5.523 3.474,-0.795 6.708,0.388 7.225,2.643 0.516,2.255 -1.881,4.727 -5.355,5.523 z"
   id="path128" /><path
   style="fill:#13bfa1;stroke:#263238;stroke-linejoin:round;stroke-miterlimit:10;fill-opacity:1"
   d="M 166.521,45.559 179.2,70.691 c 0,0 -4.302,2.264 -3.849,4.981 l -12.226,-24 c -0.001,0 -1.585,-3.849 3.396,-6.113 z"
   id="path129" /><path
   style="fill:#ffffff;stroke:#263238;stroke-miterlimit:10"
   d="m 164.21,53.803 9.413,18.478 c 0.462,-1.36 1.954,-2.044 1.954,-2.044 L 165.162,51.898 Z"
   id="path130" /><polygon
   style="fill:#13bfa1;stroke:#263238;stroke-miterlimit:10;fill-opacity:1"
   points="324.513,165.619 289.451,200.678 307.754,218.975 343.736,183.415 "
   id="polygon130" /><path
   style="fill:#ffffff;stroke:#263238;stroke-miterlimit:10"
   d="m 307.139,211.598 c 1.391,-1.009 3.168,-0.879 3.968,0.29 0.077,0.113 0.132,0.235 0.185,0.357 l 26.779,-26.616 c -0.637,-0.053 -1.208,-0.342 -1.564,-0.862 -0.514,-0.751 -0.433,-1.772 0.105,-2.627 L 325.13,171.511 c -0.191,0.25 -0.418,0.485 -0.691,0.683 -1.09,0.791 -2.443,0.803 -3.25,0.098 l -24.868,24.591 c 0.37,0.162 0.696,0.404 0.931,0.748 0.719,1.051 0.399,2.578 -0.681,3.61 l 10.455,10.452 c 0.041,-0.03 0.073,-0.066 0.113,-0.095 z m 3.191,-15.28 c -1.653,-2.415 -0.664,-6.062 2.209,-8.146 2.873,-2.084 6.542,-1.815 8.195,0.6 1.653,2.415 0.664,6.062 -2.209,8.146 -2.873,2.084 -6.542,1.815 -8.195,-0.6 z"
   id="path131" /><polygon
   style="fill:#13bfa1;stroke:#263238;stroke-miterlimit:10;fill-opacity:1"
   points="388.603,251.164 436.509,256.16 439.112,231.155 390.265,225.771 "
   id="polygon131" /><path
   style="fill:#ffffff;stroke:#263238;stroke-miterlimit:10"
   d="m 433.923,236.133 c -1.613,-0.432 -2.602,-1.852 -2.209,-3.171 0.038,-0.127 0.096,-0.243 0.156,-0.359 l -36.467,-3.914 c 0.35,0.513 0.481,1.12 0.306,1.707 -0.252,0.847 -1.072,1.411 -2.046,1.528 l -0.992,15.167 c 0.306,-0.009 0.621,0.019 0.938,0.103 1.264,0.339 2.101,1.352 2.063,2.392 l 33.771,3.712 c -0.104,-0.378 -0.121,-0.772 -0.005,-1.161 0.352,-1.185 1.7,-1.878 3.14,-1.696 l 1.487,-14.284 c -0.049,-0.009 -0.096,-0.011 -0.142,-0.024 z m -13.48,6.944 c -0.81,2.725 -4.167,4.211 -7.497,3.318 -3.33,-0.892 -5.373,-3.824 -4.563,-6.549 0.81,-2.725 4.167,-4.21 7.497,-3.318 3.33,0.892 5.373,3.824 4.563,6.549 z"
   id="path132" /><path
   style="fill:#13bfa1;stroke:#263238;stroke-linejoin:round;stroke-miterlimit:10;fill-opacity:1"
   d="m 443.176,296.428 c 0,0 2.98,0.789 6.862,9.998 3.881,9.21 7.554,21.253 7.554,21.253 0,0 -8.576,-3.663 -13.398,-3.908 -5.315,-0.27 -13.044,1.967 -13.044,1.967 0,0 -3.014,-31.363 -23.894,-41.821 0,0 4.193,-5.389 11.896,-4.254 7.702,1.135 24.024,16.765 24.024,16.765 z"
   id="path133" /><path
   style="fill:#ffffff;stroke:#263238;stroke-miterlimit:10"
   d="m 414.791,285.01 c 0,0 14.345,14.578 17.735,29.805 0,0 3.842,1.155 2.242,5.109 0,0 6.834,-1.97 14.856,1.673 0,0 0.883,-2.117 2.05,-2.176 0,0 -6.296,-19.222 -12.991,-25.094 -6.695,-5.872 -11.598,-8.413 -15.386,-10.291 -3.789,-1.878 -7.789,-0.863 -7.789,-0.863 0,0 2.455,2.215 -0.717,1.837 z m 15.68,10.183 c 1.498,-1.137 4.644,0.485 7.026,3.624 2.383,3.138 3.1,6.604 1.602,7.742 -1.498,1.137 -4.644,-0.485 -7.026,-3.624 -2.382,-3.139 -3.1,-6.605 -1.602,-7.742 z"
   id="path134" /><path
   style="fill:#13bfa1;stroke:#263238;stroke-linejoin:round;stroke-miterlimit:10;fill-opacity:1"
   d="m 445.483,298.415 c 0,0 -6.62,-8.826 -13.534,-12.941 -6.914,-4.116 -12.797,-5.812 -12.797,-5.812 0,0 3.134,0.118 5.502,4.867 1.355,2.718 0.9,6.694 0.9,6.694 0,0 10.252,1.924 19.929,7.192 z"
   id="path135" /><path
   style="fill:#13bfa1;stroke:#263238;stroke-linejoin:round;stroke-miterlimit:10;fill-opacity:1"
   d="m 420.005,180.829 c 0,0 -16.189,10.954 -24.663,20.893 l -16.304,-15.139 c 0,0 20.693,-28.238 29.209,-24.773 z"
   id="path136" /><path
   style="fill:#ffffff;stroke:#263238;stroke-miterlimit:10"
   d="m 386.97,185.506 c 0.3,1.056 -0.229,2.163 -1.216,2.789 l 7.259,6.78 c 0.353,-0.24 0.762,-0.44 1.22,-0.57 1.226,-0.348 2.424,-0.127 3.12,0.481 7.394,-9.069 20.602,-16.399 20.602,-16.399 l -5.986,-10.303 c 0,0 -1.297,-6.222 -8.486,-2.532 -5.564,2.856 -14.563,13.45 -18.35,18.096 0.879,0.21 1.596,0.808 1.837,1.658 z m 16.707,-13.58 c 3.124,-1.714 6.559,-1.46 7.672,0.568 1.113,2.028 -0.518,5.062 -3.642,6.776 -3.124,1.714 -6.559,1.46 -7.672,-0.568 -1.113,-2.028 0.518,-5.061 3.642,-6.776 z"
   id="path137" /><path
   style="fill:#13bfa1;stroke:#263238;stroke-linejoin:round;stroke-miterlimit:10;fill-opacity:1"
   d="m 424.97,188.363 -19.064,-20.71 c 0,0 3.519,-3.353 2.341,-5.843 l 18.319,19.745 c 0,0 2.577,3.269 -1.596,6.808 z"
   id="path138" /><path
   style="fill:#ffffff;stroke:#263238;stroke-miterlimit:10"
   d="m 424.94,179.802 -14.104,-15.203 c -0.073,1.435 -1.321,2.5 -1.321,2.5 l 15.03,14.795 z"
   id="path139" />&#10;<g
   id="Floor">&#10;	&#10;		<line
   style="fill:none;stroke:#263238;stroke-linecap:round;stroke-linejoin:round;stroke-miterlimit:10;"
   x1="9.659"
   y1="463.176"
   x2="488"
   y2="463.176"
   id="line139" />&#10;</g>&#10;</svg>
