<?xml version="1.0" encoding="UTF-8" standalone="no"?>
<!-- Generator: Adobe Illustrator 27.5.0, SVG Export Plug-In . SVG Version: 6.00 Build 0)  -->

<svg
   version="1.1"
   x="0px"
   y="0px"
   viewBox="0 0 3710 3710"
   style="enable-background:new 0 0 3710 3710;"
   xml:space="preserve"
   id="svg113"
   sodipodi:docname="canvas.svg"
   inkscape:version="1.3 (0e150ed6c4, 2023-07-21)"
   xmlns:inkscape="http://www.inkscape.org/namespaces/inkscape"
   xmlns:sodipodi="http://sodipodi.sourceforge.net/DTD/sodipodi-0.dtd"
   xmlns="http://www.w3.org/2000/svg"
   xmlns:svg="http://www.w3.org/2000/svg"><defs
   id="defs113">&#10;	&#10;&#10;		<linearGradient
   id="SVGID_1_"
   gradientUnits="userSpaceOnUse"
   x1="3569.4978"
   y1="4025.7253"
   x2="1128.6875"
   y2="994.39203">&#10;			<stop
   offset="0"
   style="stop-color:#d5fbf4;stop-opacity:1;"
   id="stop2" />&#10;			<stop
   offset="1"
   style="stop-color:#E9EFFD"
   id="stop3" />&#10;		</linearGradient>&#10;		&#10;		&#10;		&#10;		&#10;		&#10;		&#10;		&#10;		&#10;	&#10;			&#10;				<linearGradient
   id="SVGID_00000129888086083766363780000018283925454366355608_"
   gradientUnits="userSpaceOnUse"
   x1="-475.94519"
   y1="2307.0483"
   x2="-308.43719"
   y2="2307.0483"
   gradientTransform="matrix(-1,0,0,1,2669.0103,0)">&#10;				<stop
   offset="0"
   style="stop-color:#FEBBBA"
   id="stop28" />&#10;				<stop
   offset="1"
   style="stop-color:#FF928E"
   id="stop29" />&#10;			</linearGradient>&#10;			&#10;			&#10;			&#10;				<linearGradient
   id="SVGID_00000154422402847482845550000001242052946464584623_"
   gradientUnits="userSpaceOnUse"
   x1="-307.51779"
   y1="3168.8418"
   x2="-181.9128"
   y2="3168.8418"
   gradientTransform="matrix(-1,0,0,1,2669.0103,0)">&#10;				<stop
   offset="0"
   style="stop-color:#09005D"
   id="stop36" />&#10;				<stop
   offset="1"
   style="stop-color:#1A0F91"
   id="stop37" />&#10;			</linearGradient>&#10;			&#10;			&#10;				<linearGradient
   id="SVGID_00000050659846013843748420000008397712307944699826_"
   gradientUnits="userSpaceOnUse"
   x1="2850.925"
   y1="3221.0164"
   x2="2974.4841"
   y2="3221.0164">&#10;				<stop
   offset="0"
   style="stop-color:#4F52FF"
   id="stop38" />&#10;				<stop
   offset="1"
   style="stop-color:#4042E2"
   id="stop39" />&#10;			</linearGradient>&#10;			&#10;			&#10;				<linearGradient
   id="SVGID_00000155843822595944046520000012210720755840112024_"
   gradientUnits="userSpaceOnUse"
   x1="-272.5885"
   y1="3025.8462"
   x2="-296.58121"
   y2="3235.2383"
   gradientTransform="matrix(-1,0,0,1,2669.0103,0)">&#10;				<stop
   offset="0"
   style="stop-color:#FEBBBA"
   id="stop40" />&#10;				<stop
   offset="1"
   style="stop-color:#FF928E"
   id="stop41" />&#10;			</linearGradient>&#10;			&#10;			&#10;				<linearGradient
   id="SVGID_00000042007820292932707570000001827317900997936300_"
   gradientUnits="userSpaceOnUse"
   x1="2603.6787"
   y1="3215.6201"
   x2="2785.2722"
   y2="3215.6201">&#10;				<stop
   offset="0"
   style="stop-color:#4F52FF"
   id="stop42" />&#10;				<stop
   offset="1"
   style="stop-color:#4042E2"
   id="stop43" />&#10;			</linearGradient>&#10;			&#10;			&#10;				<linearGradient
   id="SVGID_00000180364872462526469910000000842663939836725135_"
   gradientUnits="userSpaceOnUse"
   x1="-116.2552"
   y1="3172.1826"
   x2="64.551598"
   y2="3172.1826"
   gradientTransform="matrix(-1,0,0,1,2669.0103,0)">&#10;				<stop
   offset="0"
   style="stop-color:#09005D"
   id="stop44" />&#10;				<stop
   offset="1"
   style="stop-color:#1A0F91"
   id="stop45" />&#10;			</linearGradient>&#10;			&#10;			&#10;				<linearGradient
   id="SVGID_00000060018787333485158070000004524343370371323531_"
   gradientUnits="userSpaceOnUse"
   x1="-77.150101"
   y1="3048.24"
   x2="-101.1428"
   y2="3257.6318"
   gradientTransform="matrix(-1,0,0,1,2669.0103,0)">&#10;				<stop
   offset="0"
   style="stop-color:#FEBBBA"
   id="stop46" />&#10;				<stop
   offset="1"
   style="stop-color:#FF928E"
   id="stop47" />&#10;			</linearGradient>&#10;			&#10;			&#10;				<linearGradient
   id="SVGID_00000177442966336821219690000010902457267893104304_"
   gradientUnits="userSpaceOnUse"
   x1="3453.0012"
   y1="1947.0248"
   x2="3256.8391"
   y2="2213.0071">&#10;				<stop
   offset="0"
   style="stop-color:#09005D"
   id="stop48" />&#10;				<stop
   offset="1"
   style="stop-color:#1A0F91"
   id="stop49" />&#10;			</linearGradient>&#10;			&#10;			&#10;				<linearGradient
   id="SVGID_00000038407611531971157470000012138080263951552406_"
   gradientUnits="userSpaceOnUse"
   x1="19125.584"
   y1="-12102.531"
   x2="18743.234"
   y2="-11833.224"
   gradientTransform="matrix(-1,0,0,1,1901.2418,0)">&#10;				<stop
   offset="0"
   style="stop-color:#FF928E"
   id="stop50" />&#10;				<stop
   offset="1"
   style="stop-color:#FE7062"
   id="stop51" />&#10;			</linearGradient>&#10;			&#10;			&#10;				<linearGradient
   id="SVGID_00000025434368225198054600000009270211131655753095_"
   gradientUnits="userSpaceOnUse"
   x1="-219.58389"
   y1="1671.1215"
   x2="-311.1929"
   y2="2067.0029"
   gradientTransform="matrix(-1,0,0,1,2669.0103,0)">&#10;				<stop
   offset="0"
   style="stop-color:#FEBBBA"
   id="stop52" />&#10;				<stop
   offset="1"
   style="stop-color:#FF928E"
   id="stop53" />&#10;			</linearGradient>&#10;			&#10;			&#10;			&#10;				<linearGradient
   id="SVGID_00000113327494194647416530000008524772272515023281_"
   gradientUnits="userSpaceOnUse"
   x1="3205.916"
   y1="1353.3239"
   x2="3156.0439"
   y2="1599.3585">&#10;				<stop
   offset="0"
   style="stop-color:#E1473D"
   id="stop60" />&#10;				<stop
   offset="1"
   style="stop-color:#E9605A"
   id="stop61" />&#10;			</linearGradient>&#10;			&#10;			&#10;				<linearGradient
   id="SVGID_00000128480513953248522800000017374185527885208249_"
   gradientUnits="userSpaceOnUse"
   x1="2942.9937"
   y1="1886.8575"
   x2="2942.9937"
   y2="2196.0623">&#10;				<stop
   offset="0"
   style="stop-color:#4F52FF"
   id="stop62" />&#10;				<stop
   offset="1"
   style="stop-color:#4042E2"
   id="stop63" />&#10;			</linearGradient>&#10;			&#10;			&#10;		&#10;				&#10;				&#10;					<linearGradient
   id="SVGID_00000103267224595583125130000013197999192233499563_"
   gradientUnits="userSpaceOnUse"
   x1="-247.93719"
   y1="1035.2756"
   x2="-880.78693"
   y2="1750.4816"
   gradientTransform="matrix(-0.9966,-0.0819,-0.0819,0.9966,1760.3298,69.3106)">&#10;					<stop
   offset="0"
   style="stop-color:#E1473D"
   id="stop30" />&#10;					<stop
   offset="1"
   style="stop-color:#E9605A"
   id="stop31" />&#10;				</linearGradient>&#10;				&#10;				&#10;				&#10;			&#10;					&#10;						<linearGradient
   id="SVGID_00000115487857551445599240000000455616569215861939_"
   gradientUnits="userSpaceOnUse"
   x1="3342.9534"
   y1="1437.363"
   x2="3183.3638"
   y2="1696.6962">&#10;						<stop
   offset="0"
   style="stop-color:#4F52FF"
   id="stop32" />&#10;						<stop
   offset="1"
   style="stop-color:#4042E2"
   id="stop33" />&#10;					</linearGradient>&#10;					&#10;					&#10;						<linearGradient
   id="SVGID_00000114040612220680907790000000973122106984504746_"
   gradientUnits="userSpaceOnUse"
   x1="4329.6216"
   y1="25.136801"
   x2="3621.3728"
   y2="633.63239">&#10;						<stop
   offset="0"
   style="stop-color:#09005D"
   id="stop34" />&#10;						<stop
   offset="1"
   style="stop-color:#1A0F91"
   id="stop35" />&#10;					</linearGradient>&#10;					&#10;				&#10;			&#10;			&#10;		&#10;				&#10;					<linearGradient
   id="SVGID_00000129912338078820086250000000633358552775473030_"
   gradientUnits="userSpaceOnUse"
   x1="1244.6389"
   y1="2688.6382"
   x2="2545.9014"
   y2="2925.7935"
   gradientTransform="matrix(0.9949,0.1008,-0.1008,0.9949,-135.1907,-68.8084)">&#10;					<stop
   offset="0"
   style="stop-color:#4F52FF"
   id="stop100" />&#10;					<stop
   offset="1"
   style="stop-color:#4042E2"
   id="stop101" />&#10;				</linearGradient>&#10;				&#10;				&#10;					<linearGradient
   id="SVGID_00000070833826929515759660000013146339453922540460_"
   gradientUnits="userSpaceOnUse"
   x1="2491.2297"
   y1="2767.8772"
   x2="2793.7842"
   y2="2495.2456">&#10;					<stop
   offset="0"
   style="stop-color:#4F52FF"
   id="stop102" />&#10;					<stop
   offset="1"
   style="stop-color:#4042E2"
   id="stop103" />&#10;				</linearGradient>&#10;				&#10;				&#10;					<linearGradient
   id="SVGID_00000018221347796611253670000000627036525278431137_"
   gradientUnits="userSpaceOnUse"
   x1="2212.4641"
   y1="2506.2778"
   x2="2006.3275"
   y2="2695.7903">&#10;					<stop
   offset="0"
   style="stop-color:#FF928E"
   id="stop104" />&#10;					<stop
   offset="1"
   style="stop-color:#FE7062"
   id="stop105" />&#10;				</linearGradient>&#10;				&#10;			&#10;				&#10;					&#10;				&#10;				&#10;			&#10;			&#10;				<linearGradient
   id="SVGID_00000047749528006976398410000010527452133899408772_"
   gradientUnits="userSpaceOnUse"
   x1="-304.41299"
   y1="2504.1228"
   x2="-772.44458"
   y2="5173.1689"
   gradientTransform="translate(1513.0023)">&#10;				<stop
   offset="0"
   style="stop-color:#09005D"
   id="stop12" />&#10;				<stop
   offset="1"
   style="stop-color:#1A0F91"
   id="stop13" />&#10;			</linearGradient>&#10;			&#10;			&#10;				<linearGradient
   id="SVGID_00000024702731415929962800000014771984101839673492_"
   gradientUnits="userSpaceOnUse"
   x1="2435.2681"
   y1="-1070.8566"
   x2="2136.0374"
   y2="-508.96829"
   gradientTransform="translate(1513.0023)">&#10;				<stop
   offset="0"
   style="stop-color:#09005D"
   id="stop14" />&#10;				<stop
   offset="1"
   style="stop-color:#1A0F91"
   id="stop15" />&#10;			</linearGradient>&#10;			&#10;			&#10;				<linearGradient
   id="SVGID_00000114766162323094197650000000104460340543285376_"
   gradientUnits="userSpaceOnUse"
   x1="2208.6992"
   y1="-1191.505"
   x2="1909.4688"
   y2="-629.61731"
   gradientTransform="translate(1513.0023)">&#10;				<stop
   offset="0"
   style="stop-color:#09005D"
   id="stop16" />&#10;				<stop
   offset="1"
   style="stop-color:#1A0F91"
   id="stop17" />&#10;			</linearGradient>&#10;			&#10;			&#10;				<linearGradient
   id="SVGID_00000041295418071454558680000018444477776434862270_"
   gradientUnits="userSpaceOnUse"
   x1="1894.989"
   y1="2573.4236"
   x2="1638.9829"
   y2="10.0222">&#10;				<stop
   offset="0"
   style="stop-color:#09005D"
   id="stop18" />&#10;				<stop
   offset="1"
   style="stop-color:#1A0F91"
   id="stop19" />&#10;			</linearGradient>&#10;			&#10;			&#10;			<defs
   id="defs20">&#10;				&#10;					<filter
   id="Adobe_OpacityMaskFilter"
   filterUnits="userSpaceOnUse"
   x="1078.014"
   y="680.10797"
   width="1487.8781"
   height="1672.097">&#10;					<feFlood
   result="back"
   id="feFlood20" />&#10;					<feBlend
   in="SourceGraphic"
   in2="back"
   mode="normal"
   id="feBlend20" />&#10;				</filter>&#10;			</defs>&#10;			&#10;				<mask
   maskUnits="userSpaceOnUse"
   x="1078.014"
   y="680.108"
   width="1487.878"
   height="1672.097"
   id="mask22">&#10;				<g
   style="filter:url(#Adobe_OpacityMaskFilter)"
   id="g22">&#10;					<defs
   id="defs21">&#10;						&#10;							<filter
   id="Adobe_OpacityMaskFilter_00000112601207223067473250000000896706981234161840_"
   filterUnits="userSpaceOnUse"
   x="1078.014"
   y="680.10797"
   width="1487.8781"
   height="1672.097">&#10;							<feFlood
   result="back"
   id="feFlood21" />&#10;							<feBlend
   in="SourceGraphic"
   in2="back"
   mode="normal"
   id="feBlend21" />&#10;						</filter>&#10;					</defs>&#10;					&#10;						<mask
   maskUnits="userSpaceOnUse"
   x="1078.014"
   y="680.108"
   width="1487.878"
   height="1672.097"
   id="SVGID_00000142139260772399289320000014211438530219843760_">&#10;						<g
   style="filter:url(#Adobe_OpacityMaskFilter_00000112601207223067473250000000896706981234161840_)"
   id="g21">&#10;						</g>&#10;					</mask>&#10;					&#10;						<linearGradient
   id="SVGID_00000163062140896484254770000012896217759180849083_"
   gradientUnits="userSpaceOnUse"
   x1="1823.3574"
   y1="1511.0973"
   x2="305.11041"
   y2="4631.938">&#10;						<stop
   offset="0"
   style="stop-color:#FFFFFF"
   id="stop21" />&#10;						<stop
   offset="1"
   style="stop-color:#000000"
   id="stop22" />&#10;					</linearGradient>&#10;					&#10;						<path
   style="fill:url(#SVGID_00000163062140896484254770000012896217759180849083_)"
   d="m 1140.799,706.018 1118.406,-25.892 c 32.15,-0.744 59.9,22.389 64.956,54.147 l 240.919,1513.345 c 6.115,38.408 -23.021,73.404 -61.902,74.353 l -1238.827,30.216 c -34.116,0.832 -62.933,-25.144 -65.633,-59.162 L 1078.22,775.355 c -2.922,-36.794 25.678,-68.483 62.579,-69.337 z"
   mask="url(#SVGID_00000142139260772399289320000014211438530219843760_)"
   id="path22" />&#10;				</g>&#10;			</mask>&#10;			&#10;				<linearGradient
   id="SVGID_00000024003038877112517160000014302947742929091722_"
   gradientUnits="userSpaceOnUse"
   x1="1823.3574"
   y1="1511.0973"
   x2="305.11041"
   y2="4631.938">&#10;				<stop
   offset="0"
   style="stop-color:#FFFFFF"
   id="stop23" />&#10;				<stop
   offset="1"
   style="stop-color:#FFFFFF"
   id="stop24" />&#10;			</linearGradient>&#10;			&#10;			&#10;		&#10;				&#10;					<linearGradient
   id="SVGID_00000177465113921895100230000000988237675427177636_"
   gradientUnits="userSpaceOnUse"
   x1="1775.7223"
   y1="1154.5256"
   x2="1882.1144"
   y2="2431.2419">&#10;					<stop
   offset="0"
   style="stop-color:#FF928E"
   id="stop25" />&#10;					<stop
   offset="1"
   style="stop-color:#FE7062"
   id="stop26" />&#10;				</linearGradient>&#10;				&#10;				&#10;			&#10;			&#10;				<linearGradient
   id="SVGID_00000103252415452809565840000006860729938906864056_"
   gradientUnits="userSpaceOnUse"
   x1="1046.0225"
   y1="1434.6874"
   x2="1046.0225"
   y2="1584.3024">&#10;				<stop
   offset="0"
   style="stop-color:#FF928E"
   id="stop68" />&#10;				<stop
   offset="1"
   style="stop-color:#FE7062"
   id="stop69" />&#10;			</linearGradient>&#10;			&#10;			&#10;				<linearGradient
   id="SVGID_00000137839780904379465920000015927080164941805738_"
   gradientUnits="userSpaceOnUse"
   x1="973.96179"
   y1="1939.6295"
   x2="827.67157"
   y2="769.30518">&#10;				<stop
   offset="0"
   style="stop-color:#FEBBBA"
   id="stop70" />&#10;				<stop
   offset="1"
   style="stop-color:#FF928E"
   id="stop71" />&#10;			</linearGradient>&#10;			&#10;			&#10;				<linearGradient
   id="SVGID_00000128460932345887541200000010475823958491029403_"
   gradientUnits="userSpaceOnUse"
   x1="836.5553"
   y1="-3724.5085"
   x2="2143.1841"
   y2="-1867.0114"
   gradientTransform="matrix(-0.5343,0.8453,-0.8453,-0.5343,-370.4386,-433.75407)">&#10;				<stop
   offset="0"
   style="stop-color:#FF928E"
   id="stop72" />&#10;				<stop
   offset="1"
   style="stop-color:#FE7062"
   id="stop73" />&#10;			</linearGradient>&#10;			&#10;			&#10;				<linearGradient
   id="SVGID_00000044862358524148156200000011600068651362532526_"
   gradientUnits="userSpaceOnUse"
   x1="4223.834"
   y1="-222.0719"
   x2="4170.1895"
   y2="67.0131"
   gradientTransform="matrix(0.489,0.8723,-0.8723,0.489,-1684.225,-1276.2433)">&#10;				<stop
   offset="0"
   style="stop-color:#FEBBBA"
   id="stop74" />&#10;				<stop
   offset="1"
   style="stop-color:#FF928E"
   id="stop75" />&#10;			</linearGradient>&#10;			&#10;			&#10;				<linearGradient
   id="SVGID_00000147193478419405661950000016426546165671098778_"
   gradientUnits="userSpaceOnUse"
   x1="5183.6611"
   y1="-1201.2673"
   x2="4882.7524"
   y2="-1115.7743"
   gradientTransform="matrix(0.0867,0.9962,-0.9962,0.0867,-1363.284,-2307.4275)">&#10;				<stop
   offset="0"
   style="stop-color:#FF928E"
   id="stop76" />&#10;				<stop
   offset="1"
   style="stop-color:#FE7062"
   id="stop77" />&#10;			</linearGradient>&#10;			&#10;			&#10;				&#10;			&#10;				<linearGradient
   id="SVGID_00000039112703714666939300000003337355097233064614_"
   gradientUnits="userSpaceOnUse"
   x1="5415.9893"
   y1="-1123.4728"
   x2="5066.6519"
   y2="-823.10773"
   gradientTransform="matrix(0.0867,0.9962,-0.9962,0.0867,-1363.284,-2307.4275)">&#10;				<stop
   offset="0"
   style="stop-color:#FF928E"
   id="stop78" />&#10;				<stop
   offset="1"
   style="stop-color:#FE7062"
   id="stop79" />&#10;			</linearGradient>&#10;			&#10;			&#10;				<linearGradient
   id="SVGID_00000014629258645466541470000009491560423780794047_"
   gradientUnits="userSpaceOnUse"
   x1="4422.7134"
   y1="323.7522"
   x2="4378.0098"
   y2="857.21863"
   gradientTransform="matrix(0.489,0.8723,-0.8723,0.489,-1684.225,-1276.2433)">&#10;				<stop
   offset="0"
   style="stop-color:#4F52FF"
   id="stop80" />&#10;				<stop
   offset="1"
   style="stop-color:#4042E2"
   id="stop81" />&#10;			</linearGradient>&#10;			&#10;			&#10;				<linearGradient
   id="SVGID_00000001622375948158383840000008816606392991864995_"
   gradientUnits="userSpaceOnUse"
   x1="4813.8223"
   y1="-1515.0848"
   x2="4839.2749"
   y2="-938.15619"
   gradientTransform="matrix(0.0929,0.9957,-0.9957,0.0929,-1654.3082,-1650.1391)">&#10;				<stop
   offset="0"
   style="stop-color:#FF928E"
   id="stop82" />&#10;				<stop
   offset="1"
   style="stop-color:#FE7062"
   id="stop83" />&#10;			</linearGradient>&#10;			&#10;			&#10;				<linearGradient
   id="SVGID_00000166673773481065077940000002949346349061352607_"
   gradientUnits="userSpaceOnUse"
   x1="4846.8779"
   y1="-1234.3994"
   x2="4730.2188"
   y2="-954.41809"
   gradientTransform="matrix(0.0929,0.9957,-0.9957,0.0929,-1654.3082,-1650.1391)">&#10;				<stop
   offset="0"
   style="stop-color:#FF928E"
   id="stop84" />&#10;				<stop
   offset="1"
   style="stop-color:#FE7062"
   id="stop85" />&#10;			</linearGradient>&#10;			&#10;			&#10;				<linearGradient
   id="SVGID_00000103953432080990310780000012274033130325279123_"
   gradientUnits="userSpaceOnUse"
   x1="3220.9834"
   y1="10358.031"
   x2="3194.3855"
   y2="10519.282"
   gradientTransform="matrix(0.489,0.8723,-0.8723,0.489,-1684.225,-1276.2433)">&#10;				<stop
   offset="0"
   style="stop-color:#FF928E"
   id="stop86" />&#10;				<stop
   offset="1"
   style="stop-color:#FE7062"
   id="stop87" />&#10;			</linearGradient>&#10;			&#10;			&#10;				&#10;			&#10;				<linearGradient
   id="SVGID_00000061449086625938679030000000359085987048832394_"
   gradientUnits="userSpaceOnUse"
   x1="4042.0698"
   y1="9231.1699"
   x2="4015.4707"
   y2="9392.4268"
   gradientTransform="matrix(0.0867,0.9962,-0.9962,0.0867,-1363.284,-2307.4275)">&#10;				<stop
   offset="0"
   style="stop-color:#FF928E"
   id="stop88" />&#10;				<stop
   offset="1"
   style="stop-color:#FE7062"
   id="stop89" />&#10;			</linearGradient>&#10;			&#10;			&#10;				<linearGradient
   id="SVGID_00000054956885622416950400000001473165699723399097_"
   gradientUnits="userSpaceOnUse"
   x1="5575.0732"
   y1="-1277.9329"
   x2="5903.6812"
   y2="-1028.7687"
   gradientTransform="matrix(0.0867,0.9962,-0.9962,0.0867,-1363.284,-2307.4275)">&#10;				<stop
   offset="0"
   style="stop-color:#FF928E"
   id="stop90" />&#10;				<stop
   offset="1"
   style="stop-color:#FE7062"
   id="stop91" />&#10;			</linearGradient>&#10;			&#10;			&#10;				<linearGradient
   id="SVGID_00000009561256941779979140000004608374457771398566_"
   gradientUnits="userSpaceOnUse"
   x1="2340.4866"
   y1="3518.8899"
   x2="1758.6675"
   y2="4629.3325"
   gradientTransform="matrix(0.0765,0.9971,-0.9971,0.0765,-1366.5418,-2279.4438)">&#10;				<stop
   offset="0"
   style="stop-color:#FF928E"
   id="stop92" />&#10;				<stop
   offset="1"
   style="stop-color:#FE7062"
   id="stop93" />&#10;			</linearGradient>&#10;			&#10;			&#10;				<linearGradient
   id="SVGID_00000127739472215936525960000011218550733378371470_"
   gradientUnits="userSpaceOnUse"
   x1="2485.1938"
   y1="3594.7671"
   x2="1903.3699"
   y2="4705.2192"
   gradientTransform="matrix(0.0765,0.9971,-0.9971,0.0765,-1366.5418,-2279.4438)">&#10;				<stop
   offset="0"
   style="stop-color:#FF928E"
   id="stop94" />&#10;				<stop
   offset="1"
   style="stop-color:#FE7062"
   id="stop95" />&#10;			</linearGradient>&#10;			&#10;			&#10;				<linearGradient
   id="SVGID_00000006703932502248625810000007390092965197628804_"
   gradientUnits="userSpaceOnUse"
   x1="2634.0383"
   y1="3672.7834"
   x2="2052.2126"
   y2="4783.2388"
   gradientTransform="matrix(0.0765,0.9971,-0.9971,0.0765,-1366.5418,-2279.4438)">&#10;				<stop
   offset="0"
   style="stop-color:#FF928E"
   id="stop96" />&#10;				<stop
   offset="1"
   style="stop-color:#FE7062"
   id="stop97" />&#10;			</linearGradient>&#10;			&#10;			&#10;				<linearGradient
   id="SVGID_00000065785712264488787030000009914464438848110003_"
   gradientUnits="userSpaceOnUse"
   x1="2684.3381"
   y1="3699.2422"
   x2="2102.5015"
   y2="4809.7183"
   gradientTransform="matrix(0.0765,0.9971,-0.9971,0.0765,-1366.5418,-2279.4438)">&#10;				<stop
   offset="0"
   style="stop-color:#FF928E"
   id="stop98" />&#10;				<stop
   offset="1"
   style="stop-color:#FE7062"
   id="stop99" />&#10;			</linearGradient>&#10;			&#10;		&#10;				&#10;					<linearGradient
   id="SVGID_00000003814038313422304480000011230062533645953935_"
   gradientUnits="userSpaceOnUse"
   x1="16154.853"
   y1="-11174.373"
   x2="15772.493"
   y2="-10905.059"
   gradientTransform="matrix(-0.9661,-0.2581,-0.2581,0.9661,1436.7734,173.8431)">&#10;					<stop
   offset="0"
   style="stop-color:#FF928E"
   id="stop64" />&#10;					<stop
   offset="1"
   style="stop-color:#FE7062"
   id="stop65" />&#10;				</linearGradient>&#10;				&#10;				&#10;					<linearGradient
   id="SVGID_00000054235617798976618170000006142953408748645783_"
   gradientUnits="userSpaceOnUse"
   x1="-1386.5802"
   y1="1321.7213"
   x2="-1240.2935"
   y2="1321.7213"
   gradientTransform="matrix(-0.9661,-0.2581,-0.2581,0.9661,1436.7734,173.8431)">&#10;					<stop
   offset="0"
   style="stop-color:#FEBBBA"
   id="stop66" />&#10;					<stop
   offset="1"
   style="stop-color:#FF928E"
   id="stop67" />&#10;				</linearGradient>&#10;				&#10;			&#10;			&#10;			&#10;		&#10;				&#10;				&#10;			&#10;				&#10;				&#10;			&#10;			&#10;			&#10;		&#10;			&#10;			&#10;		&#10;				&#10;					<linearGradient
   id="SVGID_00000062911073905912596500000016667899967566630591_"
   gradientUnits="userSpaceOnUse"
   x1="-1287.7422"
   y1="-965.72662"
   x2="-1450.2686"
   y2="-750.71753"
   gradientTransform="matrix(-0.6854,-0.7281,-0.7281,0.6854,1318.0114,1318.7853)">&#10;					<stop
   offset="0"
   style="stop-color:#FEBBBA"
   id="stop54" />&#10;					<stop
   offset="1"
   style="stop-color:#FF928E"
   id="stop55" />&#10;				</linearGradient>&#10;				&#10;				&#10;					<linearGradient
   id="SVGID_00000114042055095445111690000016203606470738509223_"
   gradientUnits="userSpaceOnUse"
   x1="-1411.8663"
   y1="-914.09222"
   x2="-1217.7263"
   y2="-914.09222"
   gradientTransform="matrix(-0.6854,-0.7281,-0.7281,0.6854,1318.0114,1318.7853)">&#10;					<stop
   offset="0"
   style="stop-color:#09005D"
   id="stop56" />&#10;					<stop
   offset="1"
   style="stop-color:#1A0F91"
   id="stop57" />&#10;				</linearGradient>&#10;				&#10;				&#10;					<linearGradient
   id="SVGID_00000132775123904118010220000014987876248249811353_"
   gradientUnits="userSpaceOnUse"
   x1="-1525.7793"
   y1="-795.45612"
   x2="-1395.4202"
   y2="-929.20111"
   gradientTransform="matrix(-0.6854,-0.7281,-0.7281,0.6854,1318.0114,1318.7853)">&#10;					<stop
   offset="0"
   style="stop-color:#FEBBBA"
   id="stop58" />&#10;					<stop
   offset="1"
   style="stop-color:#FF928E"
   id="stop59" />&#10;				</linearGradient>&#10;				&#10;			</defs><sodipodi:namedview
   id="namedview113"
   pagecolor="#ffffff"
   bordercolor="#000000"
   borderopacity="0.25"
   inkscape:showpageshadow="2"
   inkscape:pageopacity="0.0"
   inkscape:pagecheckerboard="0"
   inkscape:deskcolor="#d1d1d1"
   inkscape:zoom="0.083671126"
   inkscape:cx="2922.155"
   inkscape:cy="1798.7089"
   inkscape:window-width="1366"
   inkscape:window-height="705"
   inkscape:window-x="-8"
   inkscape:window-y="-8"
   inkscape:window-maximized="1"
   inkscape:current-layer="svg113" />&#10;&#10;<path
   style="fill:url(#SVGID_1_)"
   d="m 2898.015,2830.277 c -56.064,59.022 -109.112,97.085 -151.024,127.157 -492.667,353.494 -1075.621,250.452 -1199.516,225.288 -182.953,-37.159 -536.598,-108.986 -792.276,-409.659 -386.82,-454.893 -326.587,-1171.564 -26.543,-1644.648 54.883,-86.535 344.789,-566.826 934.023,-643.849 356.598,-46.614 772.277,47.401 1073.3,299.598 631.875,529.386 586.892,1598.838 162.036,2046.113 z"
   id="path3" /><path
   style="fill:#98f5e4;fill-opacity:1"
   d="m 1073.494,2368.99 c 0,0 108.493,-210.708 -15.243,-406.065 -114.805,-181.259 -412.413,-598.128 -401.325,-842.447 0.492,-10.824 -20.039,-6.06 -26.785,6.24 -72.362,131.942 -224.612,460.423 -145.472,769.281 102.054,398.291 588.825,472.991 588.825,472.991 z"
   id="path4" /><path
   style="opacity:0.45;fill:#ffffff"
   d="m 616.836,1349.882 c -14.77,44.243 -22.107,90.607 -24.723,136.882 -2.565,46.33 0.475,92.854 8.794,138.323 4.124,22.751 9.881,45.166 16.669,67.23 l 5.389,16.458 c 1.906,5.448 4.024,10.821 6.023,16.233 l 3.024,8.11 3.357,7.98 c 2.256,5.312 4.432,10.658 6.752,15.94 l 7.408,15.649 c 1.256,2.597 2.419,5.24 3.751,7.8 l 4.05,7.652 8.12,15.291 8.777,14.928 4.386,7.464 c 1.512,2.458 3.134,4.848 4.681,7.285 l 9.383,14.558 c 6.419,9.645 13.077,19.228 19.68,28.792 26.654,38.146 54.331,75.574 82.894,112.342 14.259,18.402 28.786,36.603 43.471,54.687 14.592,18.162 29.346,36.204 44.171,54.214 14.814,18.018 29.681,36.015 44.361,54.2 14.631,18.22 29.255,36.504 42.875,55.595 13.626,19.071 26.508,38.794 37.428,59.663 5.31,10.512 10.232,21.242 14.171,32.368 3.816,11.166 6.803,22.611 8.671,34.25 0.146,0.914 -0.475,1.773 -1.389,1.919 -0.889,0.143 -1.727,-0.443 -1.906,-1.316 l -0.01,-0.034 c -2.303,-11.33 -5.687,-22.392 -9.861,-33.145 -4.28,-10.721 -9.344,-21.113 -14.881,-31.254 -11.336,-20.162 -24.61,-39.223 -38.665,-57.693 -28.232,-36.886 -58.737,-72.164 -88.972,-107.71 -60.853,-70.781 -119.507,-143.874 -172.942,-220.71 -6.658,-9.628 -13.323,-19.204 -19.837,-28.973 l -9.589,-14.849 c -1.588,-2.481 -3.216,-4.937 -4.744,-7.456 l -4.429,-7.651 -8.854,-15.302 -8.189,-15.671 -4.08,-7.843 c -1.342,-2.623 -2.514,-5.331 -3.779,-7.992 l -7.456,-16.034 c -18.922,-43.2 -32.466,-88.726 -40.208,-135.18 -3.698,-23.255 -6.059,-46.702 -6.977,-70.195 -0.903,-23.494 -0.235,-47.023 1.804,-70.401 2.063,-23.381 5.768,-46.581 10.723,-69.463 5.075,-22.846 11.328,-45.487 20.291,-67.097 0.044,-0.105 0.165,-0.156 0.27,-0.112 0.102,0.041 0.148,0.166 0.114,0.268 z"
   id="path5" /><path
   style="fill:#c4f9f0;fill-opacity:1"
   d="m 500.621,521.761 c -7.475,-13.685 11.967,-23.527 28.078,-14.3 163.609,93.692 572.689,376.726 632.145,891.362 74.595,645.688 314.736,874.793 572.602,1011.141 0,0 -318.512,-58.096 -572.855,-290.246 C 536.119,1549.737 633.523,765.089 500.621,521.761 Z"
   id="path6" /><path
   style="opacity:0.47;fill:#c4f9f0;fill-opacity:1"
   d="m 666.834,716.245 c 22.297,24.106 41.74,50.172 60.196,77.018 4.541,6.751 9.324,13.357 13.671,20.235 l 13.081,20.617 6.534,10.32 6.163,10.536 12.329,21.083 c 32.044,56.712 59.537,115.897 83.896,176.304 l 17.634,45.577 c 5.373,15.372 10.427,30.857 15.656,46.285 l 7.781,23.167 c 2.379,7.787 4.566,15.632 6.858,23.446 l 13.604,46.941 c 1.195,3.897 2.197,7.843 3.127,11.807 l 2.899,11.866 5.797,23.736 5.797,23.74 c 1.944,7.912 3.949,15.812 5.399,23.828 l 9.541,47.927 c 3.181,15.989 6.42,32.007 9.298,47.702 23.548,126.369 66.545,248.637 119.802,365.714 6.585,14.684 13.616,29.164 20.533,43.697 7.159,14.417 14.248,28.869 21.713,43.134 14.785,28.602 30.282,56.837 46.354,84.74 16.024,27.931 32.729,55.474 50.107,82.568 8.657,13.569 17.567,26.967 26.598,40.264 8.993,13.257 18.268,26.589 27.655,39.195 l 0.147,0.197 c 3.819,5.128 2.757,12.38 -2.37,16.198 -5.086,3.788 -12.268,2.767 -16.11,-2.254 -20.109,-26.303 -38.467,-53.007 -56.348,-80.367 -17.845,-27.298 -34.995,-55.032 -51.464,-83.168 -16.422,-28.162 -32.055,-56.781 -47.084,-85.712 -7.573,-14.437 -14.771,-29.067 -22.036,-43.662 -7.025,-14.715 -14.161,-29.376 -20.852,-44.251 -6.907,-14.774 -13.278,-29.793 -19.842,-44.724 -6.252,-15.069 -12.604,-30.096 -18.405,-45.35 -11.991,-30.349 -22.847,-61.151 -33.023,-92.169 l -7.426,-23.336 c -2.467,-7.781 -4.638,-15.657 -6.97,-23.48 -4.758,-15.621 -8.741,-31.471 -12.991,-47.24 -7.902,-31.697 -15.254,-63.559 -20.871,-95.774 l -17.435,-95.359 c -1.314,-7.956 -3.181,-15.791 -4.985,-23.64 l -5.38,-23.558 -5.38,-23.563 -2.69,-11.783 c -0.86,-3.937 -1.793,-7.856 -2.917,-11.724 l -12.757,-46.618 c -2.151,-7.763 -4.197,-15.561 -6.433,-23.299 l -7.352,-23.018 c -4.942,-15.333 -9.71,-30.731 -14.796,-46.02 l -16.418,-45.464 C 823.976,998.249 798.13,939.03 767.73,882.144 l -11.549,-21.248 -5.777,-10.629 -6.145,-10.41 -12.313,-20.822 c -4.093,-6.951 -8.616,-13.623 -12.904,-20.452 -4.334,-6.8 -8.639,-13.625 -13.297,-20.199 -4.623,-6.597 -9.018,-13.377 -13.833,-19.832 -9.449,-13.01 -19.131,-26.045 -29.596,-38.048 l -0.099,-0.114 c -1.126,-1.292 -0.992,-3.252 0.3,-4.378 1.267,-1.104 3.181,-0.991 4.317,0.233 z"
   id="path7" /><path
   style="fill:#94f4e4;fill-opacity:1"
   d="m 2391.086,2069.375 c 0,0 -175.577,-233.972 -65.394,-497.272 102.23,-244.297 378.198,-813.087 314.199,-1108.095 -2.836,-13.069 23.132,-11.516 33.884,2.056 115.328,145.594 368.499,513.833 336.046,906.028 -41.851,505.757 -618.735,697.283 -618.735,697.283 z"
   id="path8" /><path
   style="opacity:0.45;fill:#ffffff"
   d="m 2736.531,734.601 c 15.374,24.443 27.664,50.701 38.562,77.452 10.759,26.82 20.064,54.285 27.408,82.31 7.313,28.026 12.99,56.519 16.748,85.294 3.739,28.777 5.713,57.796 6.021,86.859 0.182,58.129 -6.887,116.327 -20.982,172.806 l -5.758,21.052 c -0.989,3.5 -1.856,7.038 -2.947,10.507 l -3.343,10.386 -6.725,20.762 -7.611,20.451 -3.809,10.226 c -1.338,3.38 -2.812,6.706 -4.232,10.053 l -8.599,20.052 c -5.907,13.234 -12.037,26.263 -18.149,39.356 -49.138,104.544 -105.401,205.613 -164.818,304.322 -29.443,49.505 -59.27,98.74 -85.999,149.46 -13.284,25.381 -25.497,51.319 -35.124,78.197 -4.641,13.485 -8.655,27.178 -11.646,41.108 -2.857,13.948 -4.687,28.108 -5.148,42.371 v 0.038 c -0.037,1.141 -0.992,2.036 -2.133,1.999 -1.111,-0.036 -1.989,-0.946 -2.001,-2.047 -0.133,-14.549 1.136,-29.093 3.472,-43.469 2.494,-14.353 6.265,-28.427 10.553,-42.316 8.974,-27.651 20.572,-54.314 33.21,-80.338 12.627,-26.046 26.644,-51.318 40.68,-76.514 14.104,-25.163 28.475,-50.136 42.776,-75.124 14.316,-24.98 28.54,-49.984 42.542,-75.101 14.131,-25.043 28.046,-50.194 41.593,-75.533 27.156,-50.647 53.098,-101.912 77.646,-153.84 6.058,-13.004 12.178,-26.042 17.996,-39.104 l 8.408,-19.654 c 1.378,-3.285 2.858,-6.529 4.19,-9.832 l 3.794,-9.989 7.594,-19.98 6.719,-20.285 3.346,-10.149 c 1.092,-3.39 1.96,-6.847 2.952,-10.267 l 5.78,-20.573 c 1.731,-6.908 3.273,-13.863 4.921,-20.792 l 2.436,-10.404 2.003,-10.494 c 1.314,-7 2.781,-13.976 3.974,-20.999 l 3.155,-21.141 c 3.699,-28.252 6.071,-56.717 6.386,-85.254 0.724,-57.048 -5.195,-114.289 -17.893,-170.136 -12.749,-55.77 -31.262,-110.671 -58.381,-161.455 -0.074,-0.12 -0.037,-0.278 0.084,-0.352 0.115,-0.072 0.272,-0.027 0.35,0.081 z"
   id="path9" /><path
   style="fill:#c0f9ef;fill-opacity:1"
   d="m 3081.207,732.175 c -2.843,-14.08 -22.714,-14.995 -26.776,-1.216 -39.265,133.199 -153.166,479.245 -323.831,661.427 -277.882,296.636 -466.588,781.769 -294.435,1036.584 0,0 954.658,-162.715 645.042,-1696.795 z"
   id="path10" /><path
   style="opacity:0.43;fill:#ffffff"
   d="m 3054.833,922.595 c -0.369,4.94 -0.986,8.305 -1.484,12.266 l -1.714,11.443 -3.671,22.798 -8.274,45.387 c -5.794,30.198 -11.961,60.321 -18.406,90.391 -13.112,60.083 -27.681,119.86 -43.719,179.253 -31.903,118.831 -69.361,236.256 -112.713,351.573 -43.367,115.292 -93.22,228.359 -151.696,337.03 -29.615,54.118 -60.837,107.401 -95.369,158.57 -34.944,50.856 -71.824,100.439 -112.631,146.643 -1.806,2.044 -4.928,2.238 -6.972,0.432 -1.948,-1.721 -2.187,-4.674 -0.645,-6.714 74.055,-97.439 136.494,-202.685 192.058,-311.299 55.372,-108.772 103.57,-221.144 147.112,-335.313 43.4,-114.248 81.772,-230.454 116.642,-347.757 17.217,-58.713 33.827,-117.638 49.22,-176.9 7.8,-29.605 15.329,-59.287 22.488,-89.057 l 10.408,-44.723 5.052,-22.38 2.398,-11.193 2.044,-10.465 0.25,-1.279 c 0.514,-2.637 3.069,-4.357 5.705,-3.841 2.443,0.477 4.1,2.71 3.917,5.135 z"
   id="path11" /><path
   style="fill:#0a6858;fill-opacity:1"
   d="m 1172.455,3131.472 c -1.539,0 -3.099,-0.088 -4.663,-0.267 -22.182,-2.546 -38.097,-22.592 -35.545,-44.779 L 1386.009,878.13 c 2.546,-22.167 22.631,-38.058 44.774,-35.541 22.182,2.546 38.097,22.592 35.546,44.779 l -253.762,2208.296 c -2.369,20.608 -19.848,35.808 -40.112,35.808 z"
   id="path13" /><path
   style="fill:#0a6858;fill-opacity:1"
   d="m 2567.407,3131.481 c -18.5,0 -35.191,-12.781 -39.41,-31.593 L 2032.864,891.593 c -4.881,-21.783 8.819,-43.407 30.606,-48.292 21.738,-4.847 43.402,8.813 48.293,30.606 l 495.127,2208.296 c 4.885,21.782 -8.814,43.406 -30.602,48.293 -2.974,0.66 -5.95,0.985 -8.881,0.985 z"
   id="path15" /><path
   style="fill:#0a6858;fill-opacity:1"
   d="m 1731.244,3131.472 c -22.326,0 -40.427,-18.101 -40.427,-40.427 V 2001.213 c 0,-22.325 18.101,-40.427 40.427,-40.427 22.325,0 40.427,18.102 40.427,40.427 v 1089.832 c 0,22.326 -18.102,40.427 -40.427,40.427 z"
   id="path17" /><path
   style="fill:#0a6858;fill-opacity:1"
   d="m 922.195,635.691 142.135,1790.248 c 3.007,37.866 35.082,66.778 73.055,65.852 l 1484.488,-36.209 c 43.278,-1.056 75.708,-40.009 68.901,-82.761 L 2406.586,587.701 c -5.627,-35.349 -36.516,-61.098 -72.301,-60.269 L 991.851,558.513 c -41.073,0.952 -72.907,36.224 -69.656,77.178 z"
   id="path19" /><path
   style="fill:#13bfa1;fill-opacity:1"
   d="m 1046.455,607.793 1244.869,-28.82 c 35.785,-0.828 66.674,24.92 72.301,60.27 l 268.16,1684.466 c 6.806,42.751 -25.624,81.704 -68.901,82.76 L 1183.977,2440.1 c -37.973,0.926 -70.049,-27.987 -73.055,-65.853 L 976.8,684.97 c -3.253,-40.955 28.582,-76.227 69.655,-77.177 z"
   id="path20" /><path
   style="opacity:0.71;fill:url(#SVGID_00000024003038877112517160000014302947742929091722_)"
   d="m 1140.799,706.018 1118.406,-25.892 c 32.15,-0.744 59.9,22.389 64.956,54.147 l 240.919,1513.345 c 6.115,38.408 -23.021,73.404 -61.902,74.353 l -1238.827,30.216 c -34.116,0.832 -62.933,-25.144 -65.633,-59.162 L 1078.22,775.355 c -2.922,-36.794 25.678,-68.483 62.579,-69.337 z"
   id="path24" /><path
   style="fill:#db1c12;fill-opacity:1"
   d="m 1999.409,2188.095 c 0,0 -589.073,19.435 -686.715,-346.456 -78.474,-294.062 156.481,4.077 429.698,185.343 21.441,14.225 43.843,-16.648 23.664,-32.612 -198.26,-156.849 -483.874,-412.563 -436.255,-551.196 71.888,-209.281 93.609,-94.933 285.508,144.043 191.899,238.975 286.927,228.762 182.012,53.057 -104.915,-175.706 -399.975,-331.029 -382.026,-451.211 17.949,-120.181 127.465,-282.492 166.166,-360.965 38.699,-78.472 412.311,129.406 411.628,284.145 -0.682,154.74 -111.545,387.293 -51.823,512.269 59.723,124.977 114.806,-125.092 133.368,-264.35 18.563,-139.258 53.374,-221.066 155.573,-77.817 102.199,143.248 13.706,357.076 -87.362,480.555 -101.068,123.48 -122.09,229.188 -67.704,172.622 54.386,-56.566 207.287,-244.361 220.513,-334.616 13.225,-90.257 226.123,256.241 -296.245,587.189 z"
   id="path26" /><path
   style="opacity:0.53;fill:#ffffff"
   d="m 1973.991,2167.848 c -1.688,-0.789 -2.897,-2.457 -2.994,-4.455 -22.989,-451.007 -264.485,-1010.786 -266.923,-1016.384 -1.148,-2.637 0.058,-5.698 2.698,-6.853 2.625,-1.14 5.698,0.064 6.846,2.701 2.449,5.615 244.691,567.09 267.773,1020.015 0.149,2.865 -2.06,5.311 -4.932,5.46 -0.883,0.045 -1.722,-0.135 -2.468,-0.484 z"
   id="path27" /><path
   style="fill:url(#SVGID_00000129888086083766363780000018283925454366355608_)"
   d="m 3084.665,2220.717 c 17.185,18.342 42.486,34.191 60.291,44.075 -26.589,32.867 -62.569,65.781 -110.2,97.996 l -13.632,30.591 -43.677,-52.348 c 10e-4,0 78.372,-39.001 107.218,-120.314 z"
   id="path29" /><path
   style="fill:#95f5e5;fill-opacity:1"
   d="m 2313.857,1545.705 c 0,0 113.933,-220.056 -80.514,-329.025 -194.447,-108.969 -268.542,17.096 -430.148,-89.443 0,0 85.004,411.825 510.662,418.468 z"
   id="path30" /><path
   style="fill:url(#SVGID_00000103267224595583125130000013197999192233499563_)"
   d="m 2116.054,1156.31 c 8.915,-0.01 59.283,-12.017 71.942,15.842 12.659,27.859 -11.058,45.552 -77.134,47.335 -66.076,1.783 -76.726,46.572 -23.912,81.355 52.814,34.783 20.038,72.732 -41.42,48.447 -61.458,-24.284 -62.143,-2.131 -38.617,35.449 23.525,37.581 -31.352,70.307 -84.215,25.599 -48.57,-41.077 -137.179,-148.242 -162.51,-287.688 -2.686,-14.784 12.523,-26.412 26.165,-20.112 45.857,21.18 146.417,53.918 329.701,53.773 z"
   id="path31" /><path
   style="fill:#ffffff"
   d="m 2297.476,1479.056 c 5.126,-10.994 8.722,-22.684 11.431,-34.552 2.731,-11.878 4.241,-24.054 4.728,-36.294 0.461,-12.244 -0.233,-24.572 -2.132,-36.757 -1.879,-12.186 -4.966,-24.244 -9.354,-35.843 -8.615,-23.266 -21.849,-44.875 -38.212,-63.62 -16.283,-18.861 -35.32,-35.224 -55.762,-49.307 l -0.013,-0.01 c -3.944,-2.717 -9.345,-1.723 -12.062,2.222 -2.717,3.944 -1.722,9.344 2.222,12.062 0.135,0.093 0.296,0.196 0.434,0.281 20.228,12.225 39.136,26.629 55.582,43.523 16.526,16.793 30.232,36.419 39.772,58.088 4.845,10.803 8.491,22.163 11.003,33.795 2.531,11.632 3.926,23.548 4.189,35.528 0.238,11.975 -0.524,24.031 -2.521,35.918 -1.978,11.881 -4.846,23.693 -9.305,34.965 z"
   id="path32" /><path
   style="fill:#13bfa1;fill-opacity:1"
   d="m 2559.247,1746.357 c 380.379,376.209 603.738,726.801 685.238,866.027 10.949,18.703 -9.595,40.103 -28.639,29.756 -415.925,-225.983 -653.32,-527.122 -783.207,-754.163 33.948,-82.407 87.062,-122.424 126.608,-141.62 z"
   id="path33" /><path
   style="fill:#0a6858;fill-opacity:1"
   d="m 2321.585,1527.183 c 85.147,73.125 164.307,146.623 237.662,219.175 -39.546,19.195 -92.66,59.213 -126.607,141.62 -108.193,-189.121 -141.797,-326.835 -141.797,-326.835 0.68,-34.737 30.742,-33.96 30.742,-33.96 z"
   id="path35" /><path
   style="fill:#0a6858;fill-opacity:1"
   d="m 2850.925,3213.565 c -0.015,-0.935 0.048,-1.883 0.288,-2.837 14.147,-56.086 84.362,-91.02 84.362,-91.02 l 27.823,2.181 c 15.997,49.434 13.942,79.751 11.373,93.255 -0.071,0.379 -0.186,0.738 -0.287,1.105 -22.951,2.051 -70.193,3.39 -123.559,-2.684 z"
   id="path37" /><path
   style="fill:#0a6858;fill-opacity:1"
   d="m 2974.484,3216.249 c -1.24,4.509 -4.568,8.02 -8.829,8.917 -32.649,6.866 -84.542,1.34 -106.33,-1.508 -4.807,-0.628 -8.32,-5.074 -8.4,-10.093 53.366,6.074 100.608,4.735 123.559,2.684 z"
   id="path39" /><path
   style="fill:url(#SVGID_00000155843822595944046520000012210720755840112024_)"
   d="m 2974.586,3080.447 -11.784,56.728 c -0.864,4.157 -4.058,7.27 -7.927,7.633 -4.736,0.445 -11.477,0.705 -18.257,-0.291 -6.079,-0.893 -10.313,-7.071 -9.235,-13.701 l 8.191,-50.37 h 39.012 z"
   id="path41" /><path
   style="fill:#0a6858;fill-opacity:1"
   d="m 2730.426,3215.68 c 30.729,-0.86 46.623,-4.479 54.84,-7.838 0.019,3.055 10e-4,6.165 -0.097,9.386 -0.106,3.441 -2.655,6.19 -5.79,6.17 l -168.721,-1.089 c -5.384,-0.035 -8.531,-6.28 -6.198,-11.217 22.121,1.828 78.464,5.917 125.966,4.588 z"
   id="path43" /><path
   style="fill:#0a6858;fill-opacity:1"
   d="m 2604.459,3211.092 c 0.204,-0.43 0.378,-0.868 0.668,-1.272 14.9,-20.82 52.851,-62.278 127.842,-80.26 l 35.975,-1.135 c 0,0 16.019,27.843 16.322,79.417 -8.217,3.359 -24.111,6.977 -54.84,7.838 -47.502,1.329 -103.845,-2.76 -125.967,-4.588 z"
   id="path45" /><path
   style="fill:url(#SVGID_00000060018787333485158070000004524343370371323531_)"
   d="m 2775.615,3073.904 c -0.4,2.681 -5.331,43.438 -7.24,59.24 -0.454,3.755 -3.174,6.661 -6.603,7.071 -6.126,0.732 -16.039,1.397 -24.711,-0.38 -4.678,-0.959 -8.065,-5.453 -8.065,-10.679 v -63.976 z"
   id="path47" /><path
   style="fill:#0a6858;fill-opacity:1"
   d="m 2804.477,2330.125 c 0,0 -86.77,329.756 -85.201,744.721 0.029,7.566 5.341,14.095 12.744,15.655 10.91,2.298 26.947,5.026 40.223,4.654 7.087,-0.199 13.012,-5.455 14.204,-12.444 12.166,-71.348 81.987,-473.29 121.768,-538.544 0,0 26.173,357.987 17.807,543.713 -0.208,4.618 3.174,8.624 7.766,9.155 6.966,0.805 18.11,1.417 32.292,-0.09 5.384,-0.572 9.727,-4.641 10.496,-10 8.666,-60.384 58.546,-419.813 56.425,-678.732 -0.12,-14.601 -38.613,-78.087 -38.613,-78.087 h -189.911 z"
   id="path49" /><path
   style="fill:#fafaf2;fill-opacity:1"
   d="m 2683.802,1931.039 c 14.082,-17.652 26.419,-36.574 36.739,-56.07 14.413,-27.231 25.543,-57.04 29.482,-87.789 97.464,16.945 246.073,36.203 308.94,44.123 20.613,2.596 39.467,12.759 53.051,28.48 53.871,62.342 172.082,233.023 32.943,405.01 -17.804,-9.884 -43.106,-25.733 -60.291,-44.075 15.394,-43.394 16.654,-98.846 -15.606,-166.847 -1.102,5.39 -2.465,10.726 -4.121,15.977 -44.464,140.866 -46.837,258.089 -46.738,285.105 0.014,3.669 -2.189,6.971 -5.595,8.336 -58.52,23.45 -171.169,9.493 -208.982,3.858 -6.934,-1.033 -11.599,-7.488 -10.64,-14.433 18.559,-134.454 -76.687,-355.638 -101.843,-411.037 -1.812,-3.985 -4.314,-7.573 -7.339,-10.638 z"
   id="path51" /><path
   style="fill:url(#SVGID_00000025434368225198054600000009270211131655753095_)"
   d="m 2957.816,1701.949 11.278,115.229 c 0,0 -64.823,19.524 -111.971,-13.742 l 33.144,-104.726 z"
   id="path53" /><path
   style="fill:url(#SVGID_00000062911073905912596500000016667899967566630591_)"
   d="m 2882.6,1570.615 c -1.56,1.469 -65.844,127.707 -65.844,127.707 l 72.86,35.173 78.704,-110.596 c 0,0 -59.602,-76.871 -85.72,-52.284 z"
   id="path55" /><path
   style="fill:#0a6858;fill-opacity:1"
   d="m 2936.082,1625.962 c 1.3,3.362 0.98,7.116 -0.874,10.207 l -36.339,60.576 c -0.551,0.919 -1.208,1.75 -1.992,2.481 -4.325,4.026 -19.126,15.737 -30.568,-0.207 -9.752,-13.59 -18.903,-25.945 -28.707,-31.04 -5.726,-2.976 -12.771,-0.599 -15.678,5.162 -5.987,11.866 -17.584,36.055 -24.87,58.993 -1.826,5.749 1.141,11.922 6.732,14.186 14.753,5.977 43.912,16.787 69.787,20.358 4.25,0.587 8.458,-1.207 10.988,-4.672 11.132,-15.25 42.508,-57.869 53.217,-68.536 9.949,-9.911 28.31,-6.174 36.584,-3.797 3.14,0.902 6.485,0.468 9.284,-1.218 8.395,-5.056 23.043,-17.647 9.642,-38.965 -3.332,-5.3 -1.633,-12.36 3.597,-15.8 9.372,-6.165 19.542,-17.737 9.853,-36.478 -9.809,-18.971 -27.324,-20.674 -39.254,-19.216 -5.278,0.645 -10.637,-2.123 -12.662,-7.04 -0.901,-2.187 -2.681,-4.051 -5.997,-4.724 -6.253,-1.268 -10.357,-6.987 -9.13,-13.247 2.104,-10.735 0.52,-24.682 -16.621,-34.106 -31.437,-17.284 -58.974,10.879 -65.976,34.654 -7.002,23.775 28.147,40.576 50.257,43.38 16.239,2.058 25.144,19.783 28.727,29.049 z"
   id="path57" /><path
   style="fill:url(#SVGID_00000132775123904118010220000014987876248249811353_)"
   d="m 2924.128,1715.714 c 0,0 13.979,-40.902 31.873,-39.401 17.894,1.501 31.977,19.327 9.801,39.366 -27.585,24.926 -41.674,0.035 -41.674,0.035 z"
   id="path59" /><path
   style="fill:#a1a1a1;fill-opacity:1"
   d="m 3074.959,2043.335 c 23.586,-64.548 15.03,-142.492 14.94,-143.272 l -6.499,0.743 c 0.086,0.765 8.46,77.214 -14.589,140.283 z"
   id="path61" /><path
   style="fill:#41edd0;fill-opacity:1"
   d="m 2911.404,2535.761 c 1.454,0 2.783,-0.976 3.163,-2.451 7.195,-27.752 61.077,-58.251 61.62,-58.556 1.575,-0.884 2.138,-2.877 1.252,-4.454 -0.885,-1.575 -2.869,-2.139 -4.454,-1.253 -2.316,1.299 -56.859,32.174 -64.751,62.62 -0.454,1.749 0.597,3.535 2.345,3.987 0.275,0.073 0.553,0.107 0.825,0.107 z"
   id="path63" /><path
   style="fill:#fafaf2;fill-opacity:1"
   d="m 2428.736,1832.876 c 113.208,49.205 209.957,-4.672 279.297,-34.509 91.546,-39.393 142.649,5.325 142.649,5.325 l -121.772,132.371 c -150.777,81.378 -267.524,23.168 -335.542,-34.428 6.745,-30.05 21.337,-52.808 35.368,-68.759 z"
   id="path65" /><path
   style="fill:url(#SVGID_00000054235617798976618170000006142953408748645783_)"
   d="m 2329.5,1676.214 29.085,79.723 c 29.558,44.627 33.893,61.182 70.15,76.94 -14.031,15.95 -28.623,38.708 -35.368,68.758 -41.359,-50.807 -54.982,-119.494 -54.982,-119.494 -52.142,-93.381 -8.885,-105.927 -8.885,-105.927 z"
   id="path67" />&#10;</svg>
