<?xml version="1.0" encoding="UTF-8" standalone="no"?>
<!-- Uploaded to: SVG Repo, www.svgrepo.com, Generator: SVG Repo Mixer Tools -->

<svg
   width="800px"
   height="800px"
   viewBox="0 0 1024 1024"
   version="1.1"
   id="svg1"
   sodipodi:docname="delete.svg"
   inkscape:version="1.3 (0e150ed6c4, 2023-07-21)"
   xmlns:inkscape="http://www.inkscape.org/namespaces/inkscape"
   xmlns:sodipodi="http://sodipodi.sourceforge.net/DTD/sodipodi-0.dtd"
   xmlns="http://www.w3.org/2000/svg"
   xmlns:svg="http://www.w3.org/2000/svg">
  <defs
     id="defs1" />
  <sodipodi:namedview
     id="namedview1"
     pagecolor="#ffffff"
     bordercolor="#000000"
     borderopacity="0.25"
     inkscape:showpageshadow="2"
     inkscape:pageopacity="0.0"
     inkscape:pagecheckerboard="0"
     inkscape:deskcolor="#d1d1d1"
     inkscape:zoom="0.63625"
     inkscape:cx="399.21415"
     inkscape:cy="400"
     inkscape:window-width="1366"
     inkscape:window-height="705"
     inkscape:window-x="-8"
     inkscape:window-y="-8"
     inkscape:window-maximized="1"
     inkscape:current-layer="svg1" />
  <path
     fill="#000000"
     d="M352 192V95.936a32 32 0 0 1 32-32h256a32 32 0 0 1 32 32V192h256a32 32 0 1 1 0 64H96a32 32 0 0 1 0-64h256zm64 0h192v-64H416v64zM192 960a32 32 0 0 1-32-32V256h704v672a32 32 0 0 1-32 32H192zm224-192a32 32 0 0 0 32-32V416a32 32 0 0 0-64 0v320a32 32 0 0 0 32 32zm192 0a32 32 0 0 0 32-32V416a32 32 0 0 0-64 0v320a32 32 0 0 0 32 32z"
     id="path1"
     style="fill:#fe0000;fill-opacity:1" />
</svg>
