<?xml version="1.0" encoding="UTF-8" standalone="no"?>
<!-- Created with Inkscape (http://www.inkscape.org/) -->

<svg
   width="100"
   height="100"
   viewBox="0 0 100 100"
   version="1.1"
   id="svg1"
   inkscape:version="1.3 (0e150ed6c4, 2023-07-21)"
   sodipodi:docname="demigirl.svg"
   xmlns:inkscape="http://www.inkscape.org/namespaces/inkscape"
   xmlns:sodipodi="http://sodipodi.sourceforge.net/DTD/sodipodi-0.dtd"
   xmlns="http://www.w3.org/2000/svg"
   xmlns:svg="http://www.w3.org/2000/svg">
  <sodipodi:namedview
     id="namedview1"
     pagecolor="#ffffff"
     bordercolor="#000000"
     borderopacity="0.25"
     inkscape:showpageshadow="2"
     inkscape:pageopacity="0.0"
     inkscape:pagecheckerboard="0"
     inkscape:deskcolor="#d1d1d1"
     inkscape:document-units="px"
     inkscape:zoom="5.09"
     inkscape:cx="49.901768"
     inkscape:cy="50"
     inkscape:window-width="1366"
     inkscape:window-height="705"
     inkscape:window-x="-8"
     inkscape:window-y="-8"
     inkscape:window-maximized="1"
     inkscape:current-layer="layer1" />
  <defs
     id="defs1" />
  <g
     inkscape:label="Layer 1"
     inkscape:groupmode="layer"
     id="layer1">
    <g
       id="g34"
       transform="matrix(1.3605856,0,0,1.3605856,-69.127162,-464.95017)">&#10;		<g
   transform="translate(0,1307.92)"
   id="g31">&#10;			<g
   transform="matrix(0.374723,0,0,0.374723,-7901.28,11423.5)"
   id="g28">&#10;				<g
   id="g27">&#10;					<path
   style="fill:#8c55be"
   d="m 21319.281,-32940.109 c -33.766,0 -61.256,-27.461 -61.256,-61.254 0,-33.797 27.49,-61.258 61.256,-61.258 33.822,0 61.314,27.461 61.314,61.258 0,33.793 -27.491,61.254 -61.314,61.254 z m 0,-112.246 c -28.119,0 -50.99,22.871 -50.99,50.992 0,28.117 22.871,50.988 50.99,50.988 28.119,0 51.047,-22.871 51.047,-50.988 0,-28.121 -22.928,-50.992 -51.047,-50.992 z"
   id="path26" />
&#10;				</g>
&#10;			</g>
&#10;			<g
   transform="matrix(0.374723,0,0,0.374723,-7881.75,11415.2)"
   id="g30">&#10;				<g
   id="g29">&#10;					<path
   style="clip-rule:evenodd;fill:#8c55be;fill-rule:evenodd"
   d="m 21269.311,-32923.895 c -3.805,1.457 -2.219,-1.266 -4.801,1.871 -1.098,1.336 -0.711,3.363 -0.895,5.09 -2.299,21.625 -0.406,43.574 -0.916,65.309 -0.08,2.844 2.137,5.234 4.984,5.328 2.846,0.1 5.246,-2.137 5.328,-4.98 0.977,-21.637 2.318,-43.359 2.359,-65.027 0,-1.691 0.59,-3.602 -0.307,-5.031 -2.154,-3.441 -0.955,-0.504 -4.514,-2.469 0.04,-0.344 -0.225,-0.645 -0.57,-0.672 -0.344,-0.02 -0.649,0.238 -0.668,0.581 z"
   id="path28" />
&#10;				</g>
&#10;			</g>
&#10;		</g>
&#10;		<g
   transform="matrix(-0.169559,0,0,0.171154,5532.81,13208.8)"
   id="g33">&#10;			<g
   id="g32">&#10;				<path
   style="clip-rule:evenodd;fill:#8c55be;fill-rule:evenodd"
   d="m 32167.111,-74840.938 c 2.42,2.766 -1.77,-3.336 -0.06,2.789 2.258,-0.164 4.23,1.531 4.395,3.781 0.162,2.242 -1.547,4.195 -3.803,4.359 -0.285,2.164 -0.104,2.828 0.203,2.867 l -0.875,1.281 c -0.875,1.352 -2.137,1.555 -3.723,2.008 -5.145,1.484 -10.818,-0.148 -16.148,0.234 -10.535,0.375 -21.861,3.047 -32.5,1.305 -2.826,-0.461 -6.305,-0.109 -7.869,-2.438 l -0.713,-1 c 0.447,-1.234 0.754,-3.227 0.855,-6.258 -0.754,-0.102 -1.281,-0.797 -1.18,-1.547 0.121,-0.758 0.813,-1.273 1.586,-1.164 0.529,-2.625 0.875,-4.813 1.057,-6.633 l 0.285,-0.266 c 0.814,-0.828 2.035,-0.703 3.213,-0.898 2.115,-0.359 4.17,-0.781 6.346,-0.953 9.314,-0.711 18.936,-0.992 28.025,-1.289 5.613,-0.06 11.512,-0.758 16.941,0.742 1.281,0.359 2.074,0.805 2.908,1.82 z"
   id="path31" />
&#10;			</g>
&#10;		</g>
&#10;	</g>
  </g>
</svg>
