<?xml version="1.0" encoding="UTF-8" standalone="no"?>
<!-- Created with Inkscape (http://www.inkscape.org/) -->

<svg
   width="100"
   height="100"
   viewBox="0 0 100 100"
   version="1.1"
   id="svg1"
   inkscape:version="1.3 (0e150ed6c4, 2023-07-21)"
   sodipodi:docname="demiboy.svg"
   xmlns:inkscape="http://www.inkscape.org/namespaces/inkscape"
   xmlns:sodipodi="http://sodipodi.sourceforge.net/DTD/sodipodi-0.dtd"
   xmlns="http://www.w3.org/2000/svg"
   xmlns:svg="http://www.w3.org/2000/svg">
  <sodipodi:namedview
     id="namedview1"
     pagecolor="#ffffff"
     bordercolor="#000000"
     borderopacity="0.25"
     inkscape:showpageshadow="2"
     inkscape:pageopacity="0.0"
     inkscape:pagecheckerboard="0"
     inkscape:deskcolor="#d1d1d1"
     inkscape:document-units="px"
     inkscape:zoom="5.09"
     inkscape:cx="49.901768"
     inkscape:cy="50"
     inkscape:window-width="1366"
     inkscape:window-height="705"
     inkscape:window-x="-8"
     inkscape:window-y="-8"
     inkscape:window-maximized="1"
     inkscape:current-layer="layer1" />
  <defs
     id="defs1" />
  <g
     inkscape:label="Layer 1"
     inkscape:groupmode="layer"
     id="layer1">
    <g
       id="g21"
       transform="matrix(1.6393506,0,0,1.6393506,-631.74155,-325.12526)">&#10;		<g
   transform="matrix(0.27955,-0.249538,0.249538,0.27955,-4577.34,18445.5)"
   id="g18">&#10;			<g
   id="g17">&#10;				<path
   style="fill:#fb5275"
   d="m 42246.332,-27345.428 c -0.852,-0.76 -1.727,-1.578 -2.563,-2.441 -11.563,-11.543 -17.926,-26.936 -17.926,-43.297 0,-16.359 6.355,-31.787 17.918,-43.371 11.605,-11.545 27.02,-17.932 43.379,-17.932 v 0 c 33.766,-0.06 61.203,27.531 61.219,61.262 0,16.359 -6.336,31.768 -17.898,43.35 -11.605,11.545 -27.02,17.934 -43.379,17.932 -15.148,0.01 -29.516,-5.475 -40.75,-15.503 z m 74.664,-83.814 c -8.977,-8.014 -20.871,-12.936 -33.879,-12.924 v 0 c -13.613,0 -26.441,5.297 -36.051,14.951 -9.656,9.617 -14.949,22.398 -14.965,36.033 0,13.613 5.316,26.42 14.93,36.035 10.207,10.064 22.441,14.945 36.074,14.92 13.613,0 26.422,-5.277 36.031,-14.932 9.656,-9.615 14.949,-22.398 14.965,-36.033 -0.03,-15.124 -6.636,-28.706 -17.105,-38.05 z"
   id="path16" />
&#10;			</g>
&#10;		</g>
&#10;		<g
   transform="matrix(-0.269273,-0.269273,0.278428,-0.278428,8923.57,19982.9)"
   id="g20">&#10;			<g
   id="g19">&#10;				<path
   style="clip-rule:evenodd;fill:#fb5275;fill-rule:evenodd"
   d="m 52478.84,20223.656 c 0,0 -1.281,-1.953 -4.371,2.861 -0.633,1.006 -0.488,2.617 -0.613,4.373 -1.441,18.439 -0.973,65.709 -0.973,65.709 -0.02,2.34 1.523,4.428 3.82,5.141 2.32,0.715 4.82,-0.111 6.203,-2.035 0,0 14.258,-21.213 22.313,-33.48 0.813,-1.223 1.625,-2.305 2.195,-3.373 1.789,-3.436 2.32,-5.709 2.32,-5.709 0.77,-1.084 0.488,-2.576 -0.633,-3.326 -1.117,-0.752 -2.645,-0.482 -3.438,0.602 0,0 -2.012,1.277 -4.695,4.107 -0.855,0.883 -1.609,2.012 -2.504,3.168 -4.027,5.166 -9.355,12.061 -14.012,18.123 0.469,-15.428 0.938,-37.48 0.387,-48.775 -0.08,-1.76 0.121,-3.367 -0.508,-4.389 -2.949,-4.896 -4.273,-2.98 -4.273,-2.98 0.02,-0.33 -0.262,-0.6 -0.609,-0.604 -0.324,0 -0.609,0.257 -0.609,0.587 z"
   id="path18" />
&#10;			</g>
&#10;		</g>
&#10;	</g>
  </g>
</svg>
