<?xml version="1.0" encoding="UTF-8" standalone="no"?>
<!-- Created with Inkscape (http://www.inkscape.org/) -->

<svg
   width="100"
   height="100"
   viewBox="0 0 100 100"
   version="1.1"
   id="svg1"
   inkscape:version="1.3 (0e150ed6c4, 2023-07-21)"
   sodipodi:docname="female.svg"
   xmlns:inkscape="http://www.inkscape.org/namespaces/inkscape"
   xmlns:sodipodi="http://sodipodi.sourceforge.net/DTD/sodipodi-0.dtd"
   xmlns="http://www.w3.org/2000/svg"
   xmlns:svg="http://www.w3.org/2000/svg">
  <sodipodi:namedview
     id="namedview1"
     pagecolor="#ffffff"
     bordercolor="#000000"
     borderopacity="0.25"
     inkscape:showpageshadow="2"
     inkscape:pageopacity="0.0"
     inkscape:pagecheckerboard="0"
     inkscape:deskcolor="#d1d1d1"
     inkscape:document-units="px"
     inkscape:zoom="5.09"
     inkscape:cx="49.901768"
     inkscape:cy="50"
     inkscape:window-width="1366"
     inkscape:window-height="705"
     inkscape:window-x="-8"
     inkscape:window-y="-8"
     inkscape:window-maximized="1"
     inkscape:current-layer="layer1" />
  <defs
     id="defs1" />
  <g
     inkscape:label="Layer 1"
     inkscape:groupmode="layer"
     id="layer1">
    <g
       id="g8"
       transform="matrix(1.3611993,0,0,1.3611993,-64.911587,-85.848704)">&#10;		<g
   transform="matrix(0.374723,0,0,0.374723,-7901.28,11423.5)"
   id="g3">&#10;			<g
   id="g2">&#10;				<path
   style="fill:#fb5275"
   d="m 21310.912,-30193.357 c -33.766,0 -61.258,-27.49 -61.258,-61.285 0,-33.793 27.492,-61.256 61.258,-61.256 33.822,0 61.314,27.463 61.314,61.256 0,33.794 -27.492,61.285 -61.314,61.285 z m 0,-112.276 c -28.119,0 -50.99,22.871 -50.99,50.99 0,28.119 22.871,51.02 50.99,51.02 28.119,0 51.047,-22.9 51.047,-51.02 0,-28.12 -22.928,-50.99 -51.047,-50.99 z"
   id="path1" />
&#10;			</g>
&#10;		</g>
&#10;		<g
   transform="matrix(0.374723,0,0,0.374723,-7881.75,11415.2)"
   id="g5">&#10;			<g
   id="g4">&#10;				<path
   style="clip-rule:evenodd;fill:#fb5275;fill-rule:evenodd"
   d="m 21260.939,-30177.162 c -3.803,1.457 -2.217,-1.266 -4.799,1.869 -1.098,1.336 -0.711,3.365 -0.895,5.09 -2.277,21.629 -0.346,43.576 -0.814,65.313 -0.08,2.789 2.096,5.135 4.902,5.229 2.785,0.09 5.125,-2.098 5.227,-4.887 0.996,-21.635 2.379,-43.357 2.441,-65.021 0,-1.693 0.59,-3.604 -0.307,-5.035 -2.154,-3.439 -0.955,-0.502 -4.514,-2.469 0.04,-0.344 -0.225,-0.645 -0.57,-0.668 -0.344,-0.03 -0.649,0.233 -0.671,0.579 z"
   id="path2" />
&#10;			</g>
&#10;		</g>
&#10;		<g
   transform="matrix(0.374723,0,0,0.374723,-7881.75,11415.2)"
   id="g7">&#10;			<g
   id="g6">&#10;				<path
   style="clip-rule:evenodd;fill:#fb5275;fill-rule:evenodd"
   d="m 21227.77,-30140.586 0.02,0.1 c 0.102,2.109 -1.037,2.73 -1.117,3.221 -0.184,1.332 0.467,1.244 0.305,2.553 l -0.184,1.191 0.06,0.08 c 0.143,0.225 0.469,0.18 0.732,0.254 2.42,0.732 4.881,1.18 7.443,1.422 10.598,0.996 21.66,-1.002 32.053,-1.406 5.41,-0.301 10.982,0.791 16.373,0.03 1.24,-0.176 2.582,-0.111 3.498,-0.971 1.219,-1.17 0.162,-0.322 0.752,-1.92 1.016,-0.07 1.789,-0.965 1.729,-1.992 -0.08,-1.027 -0.977,-1.801 -1.992,-1.729 -0.795,-1.473 0.426,-0.805 -0.916,-1.816 -0.875,-0.672 -2.014,-0.637 -3.133,-0.781 -5.49,-0.717 -11.186,-0.631 -16.717,-0.475 -9.172,0.342 -18.854,1.117 -28.291,1.432 -2.277,0.08 -4.533,0.201 -6.771,0.275 -1.16,0.04 -2.502,-0.508 -3.396,0.199 z"
   id="path4" />
&#10;			</g>
&#10;		</g>
&#10;	</g>
  </g>
</svg>
