<?xml version="1.0" encoding="UTF-8" standalone="no"?>
<!-- Created with Inkscape (http://www.inkscape.org/) -->

<svg
   width="100"
   height="100"
   viewBox="0 0 100 100"
   version="1.1"
   id="svg1"
   inkscape:version="1.3 (0e150ed6c4, 2023-07-21)"
   sodipodi:docname="genderless.svg"
   xmlns:inkscape="http://www.inkscape.org/namespaces/inkscape"
   xmlns:sodipodi="http://sodipodi.sourceforge.net/DTD/sodipodi-0.dtd"
   xmlns="http://www.w3.org/2000/svg"
   xmlns:svg="http://www.w3.org/2000/svg">
  <sodipodi:namedview
     id="namedview1"
     pagecolor="#ffffff"
     bordercolor="#000000"
     borderopacity="0.25"
     inkscape:showpageshadow="2"
     inkscape:pageopacity="0.0"
     inkscape:pagecheckerboard="0"
     inkscape:deskcolor="#d1d1d1"
     inkscape:document-units="px"
     inkscape:zoom="5.09"
     inkscape:cx="49.901768"
     inkscape:cy="50"
     inkscape:window-width="1366"
     inkscape:window-height="705"
     inkscape:window-x="-8"
     inkscape:window-y="-8"
     inkscape:window-maximized="1"
     inkscape:current-layer="layer1" />
  <defs
     id="defs1" />
  <g
     inkscape:label="Layer 1"
     inkscape:groupmode="layer"
     id="layer1">
    <g
       id="g74"
       transform="matrix(1.3579504,0,0,1.3579504,-215.37016,-254.68749)">&#10;		<g
   transform="matrix(-0.374723,0,0,-0.374723,11092.7,13510.3)"
   id="g69">&#10;			<g
   id="g68">&#10;				<path
   style="fill:#079f34"
   d="m 29080.35,35358.051 c 33.764,0 61.256,27.492 61.256,61.285 0,33.797 -27.492,61.258 -61.256,61.258 -33.766,0 -61.258,-27.461 -61.258,-61.258 0,-33.793 27.492,-61.285 61.258,-61.285 z m 0,112.277 c 28.117,0 50.99,-22.871 50.99,-50.992 0,-28.117 -22.873,-51.016 -50.99,-51.016 -28.119,0 -50.99,22.898 -50.99,51.016 0,28.121 22.87,50.992 50.99,50.992 z"
   id="path67" />
&#10;			</g>
&#10;		</g>
&#10;		<g
   transform="matrix(-0.374723,0,0,-0.374723,11073.2,13518.5)"
   id="g71">&#10;			<g
   id="g70">&#10;				<path
   style="clip-rule:evenodd;fill:#079f34;fill-rule:evenodd"
   d="m 29030.408,35496.586 c -3.803,1.457 -2.217,-1.266 -4.801,1.871 -1.098,1.336 -0.711,3.363 -0.895,5.086 -2.359,21.621 -0.609,43.574 -1.199,65.301 -0.102,3.012 2.258,5.539 5.268,5.641 3.01,0.102 5.531,-2.262 5.633,-5.273 0.875,-21.637 2.055,-43.367 2.055,-65.035 -0.02,-1.691 0.59,-3.602 -0.305,-5.031 -2.156,-3.441 -0.957,-0.504 -4.516,-2.473 0.04,-0.34 -0.223,-0.645 -0.568,-0.668 -0.348,-0.02 -0.652,0.237 -0.672,0.581 z"
   id="path69" />
&#10;			</g>
&#10;		</g>
&#10;		<g
   transform="matrix(0,-0.119328,-0.61167,0,3270.21,15744.8)"
   id="g73">&#10;			<g
   id="g72">&#10;				<path
   style="clip-rule:evenodd;fill:#079f34;fill-rule:evenodd"
   d="m 129958.45,4990.81 c 7.98,1.218 9.78,0.458 14.5,2.209 4.03,1.501 1.35,3.368 1.55,5.064 1.48,12.99 -0.43,26.037 -2.17,39.067 -0.94,6.965 -0.56,13.948 -4.81,20.854 -1.09,1.788 -3.45,3.441 -5.22,5.209 0,0.848 -3.61,1.533 -7.96,1.527 -4.35,0 -7.85,-0.7 -7.82,-1.548 -1.65,-1.77 -3.91,-3.427 -4.9,-5.217 -3.89,-6.909 -3.3,-13.882 -4.03,-20.846 -1.36,-13.049 -2.91,-26.124 0,-39.122 0.37,-1.7 -2.09,-3.588 2.13,-5.072 4.95,-1.727 6.65,-0.96 14.81,-2.136 0,-0.211 0.91,-0.38 1.99,-0.378 1.1,0 1.95,0.177 1.95,0.389 z"
   id="path71" />
&#10;			</g>
&#10;		</g>
&#10;	</g>
  </g>
</svg>
