<?xml version="1.0" encoding="UTF-8" standalone="no"?>
<!-- Uploaded to: SVG Repo, www.svgrepo.com, Generator: SVG Repo Mixer Tools -->

<svg
   fill="#000000"
   width="800px"
   height="800px"
   viewBox="0 0 32 32"
   version="1.1"
   id="svg1"
   sodipodi:docname="health.svg"
   inkscape:version="1.3 (0e150ed6c4, 2023-07-21)"
   xmlns:inkscape="http://www.inkscape.org/namespaces/inkscape"
   xmlns:sodipodi="http://sodipodi.sourceforge.net/DTD/sodipodi-0.dtd"
   xmlns="http://www.w3.org/2000/svg"
   xmlns:svg="http://www.w3.org/2000/svg">
  <defs
     id="defs1" />
  <sodipodi:namedview
     id="namedview1"
     pagecolor="#ffffff"
     bordercolor="#000000"
     borderopacity="0.25"
     inkscape:showpageshadow="2"
     inkscape:pageopacity="0.0"
     inkscape:pagecheckerboard="0"
     inkscape:deskcolor="#d1d1d1"
     inkscape:zoom="0.63625"
     inkscape:cx="399.21415"
     inkscape:cy="400"
     inkscape:window-width="1366"
     inkscape:window-height="705"
     inkscape:window-x="-8"
     inkscape:window-y="-8"
     inkscape:window-maximized="1"
     inkscape:current-layer="svg1" />
  <title
     id="title1">health</title>
  <path
     d="M29.125 10.375h-7.5v-7.5c0-1.036-0.839-1.875-1.875-1.875h-7.5c-1.036 0-1.875 0.84-1.875 1.875v7.5h-7.5c-1.036 0-1.875 0.84-1.875 1.875v7.5c0 1.036 0.84 1.875 1.875 1.875h7.5v7.5c0 1.036 0.84 1.875 1.875 1.875h7.5c1.036 0 1.875-0.84 1.875-1.875v-7.5h7.5c1.035 0 1.875-0.839 1.875-1.875v-7.5c0-1.036-0.84-1.875-1.875-1.875z"
     id="path1"
     style="fill:#fafaf2;fill-opacity:1" />
</svg>
