<?xml version="1.0" encoding="UTF-8" standalone="no"?>
<!-- Generator: Adobe Illustrator 27.5.0, SVG Export Plug-In . SVG Version: 6.00 Build 0)  -->

<svg
   version="1.1"
   x="0px"
   y="0px"
   viewBox="0 0 750 500"
   style="enable-background:new 0 0 750 500;"
   xml:space="preserve"
   id="svg180"
   sodipodi:docname="history.svg"
   inkscape:version="1.3 (0e150ed6c4, 2023-07-21)"
   xmlns:inkscape="http://www.inkscape.org/namespaces/inkscape"
   xmlns:sodipodi="http://sodipodi.sourceforge.net/DTD/sodipodi-0.dtd"
   xmlns="http://www.w3.org/2000/svg"
   xmlns:svg="http://www.w3.org/2000/svg"><defs
   id="defs180">&#10;	&#10;&#10;		&#10;			&#10;		&#10;	&#10;			&#10;			&#10;			&#10;			&#10;			&#10;			&#10;			&#10;			&#10;			&#10;			&#10;			&#10;			&#10;			&#10;			&#10;		&#10;				&#10;				&#10;			&#10;					&#10;					&#10;					&#10;				&#10;				&#10;				&#10;				&#10;				&#10;				&#10;			&#10;					&#10;					&#10;					&#10;				&#10;				&#10;				&#10;				&#10;				&#10;				&#10;				&#10;			&#10;				&#10;				&#10;				&#10;			&#10;	&#10;&#10;		&#10;		&#10;	&#10;			&#10;			&#10;			&#10;			&#10;			&#10;			&#10;			&#10;			&#10;			&#10;		&#10;	&#10;&#10;		&#10;		&#10;	&#10;			&#10;			&#10;			&#10;			&#10;			&#10;			&#10;			&#10;			&#10;			&#10;			&#10;			&#10;			&#10;			&#10;			&#10;			&#10;				&#10;			&#10;			&#10;			&#10;			&#10;			&#10;			&#10;			&#10;			&#10;		</defs><sodipodi:namedview
   id="namedview180"
   pagecolor="#ffffff"
   bordercolor="#000000"
   borderopacity="0.25"
   inkscape:showpageshadow="2"
   inkscape:pageopacity="0.0"
   inkscape:pagecheckerboard="0"
   inkscape:deskcolor="#d1d1d1"
   inkscape:zoom="0.44406306"
   inkscape:cx="336.6639"
   inkscape:cy="246.5866"
   inkscape:window-width="1366"
   inkscape:window-height="705"
   inkscape:window-x="-8"
   inkscape:window-y="-8"
   inkscape:window-maximized="1"
   inkscape:current-layer="svg180" />&#10;<g
   id="Background_Simple">&#10;	<g
   id="g2">&#10;		<path
   style="fill:#13bfa1;fill-opacity:1"
   d="M698.083,138.723C657.598,79.762,590.465,36.989,520.222,27.066    c-0.525-0.076-1.05-0.148-1.575-0.218c-103.686-13.924-202.979,96.6-233.733,113.135    c-30.754,16.535-187.162,26.108-223.189,80.065C25.698,274.004,5.489,362.772,65.24,428.913    c59.751,66.141,219.674,7.832,288.213,18.276c51.897,7.908,105.502,14.262,158.521,16.594    c47.02,2.069,101.596,5.835,142.061-22.72c35.569-25.101,41.783-62.279,56.984-99.878c9.771-24.169,24.533-46.352,25.84-72.862    C739.139,222.116,724.189,176.743,698.083,138.723z"
   id="path1" />&#10;		<path
   style="opacity:0.7;fill:#FFFFFF;"
   d="M698.083,138.723C657.598,79.762,590.465,36.989,520.222,27.066    c-0.525-0.076-1.05-0.148-1.575-0.218c-103.686-13.924-202.979,96.6-233.733,113.135    c-30.754,16.535-187.162,26.108-223.189,80.065C25.698,274.004,5.489,362.772,65.24,428.913    c59.751,66.141,219.674,7.832,288.213,18.276c51.897,7.908,105.502,14.262,158.521,16.594    c47.02,2.069,101.596,5.835,142.061-22.72c35.569-25.101,41.783-62.279,56.984-99.878c9.771-24.169,24.533-46.352,25.84-72.862    C739.139,222.116,724.189,176.743,698.083,138.723z"
   id="path2" />&#10;	</g>&#10;</g>&#10;<g
   id="Clouds">&#10;	<g
   id="g7">&#10;		<path
   style="opacity:0.3;fill:none;stroke:#000000;stroke-linecap:round;stroke-linejoin:round;stroke-miterlimit:10;"
   d="    M350.855,209.09h124.292c0,0-14.654-20.515-30.773-21.98c-16.119-1.465-30.773,8.792-41.03,1.465c0,0-1.559-3.686-4.854-8.676"
   id="path3" />&#10;		<path
   style="opacity:0.3;fill:none;stroke:#000000;stroke-linecap:round;stroke-linejoin:round;stroke-miterlimit:10;"
   d="    M394.25,174.115c-8.473-10.429-23.139-22.4-45.124-20.709c-38.1,2.931-35.169,21.98-51.288,27.842    c-16.119,5.861-27.842-13.188-49.822-7.327c-21.98,5.861-19.05,20.515-30.773,21.98c-11.723,1.465-16.119-13.188-32.238-7.327    c-16.119,5.861-20.515,20.515-20.515,20.515h181.889"
   id="path4" />&#10;		<path
   style="opacity:0.3;fill:none;stroke:#000000;stroke-linecap:round;stroke-linejoin:round;stroke-miterlimit:10;"
   d="    M685.564,202.671c0,0-6.591-15.578-22.169-14.38c-15.578,1.198-14.38,8.988-20.971,11.384c-6.591,2.397-11.384-5.393-20.372-2.996    c-8.987,2.397-7.789,8.388-12.583,8.988c-4.793,0.599-6.591-5.393-13.182-2.996c-6.591,2.397-8.388,8.388-8.388,8.388h127.024    c0,0-5.992-8.388-12.583-8.988C695.75,201.472,689.759,205.666,685.564,202.671z"
   id="path5" />&#10;		<path
   style="opacity:0.3;fill:none;stroke:#000000;stroke-linecap:round;stroke-linejoin:round;stroke-miterlimit:10;"
   d="    M388.726,57.968c-9.799,4.157-10.611,11.36-17.965,14.034c-9.771,3.553-16.877-7.994-30.201-4.441    c-13.324,3.553-11.548,12.436-18.654,13.324c-7.106,0.888-9.771-7.994-19.542-4.441S289.928,88.88,289.928,88.88h188.315    c0,0-8.883-12.436-18.654-13.324c-9.771-0.888-18.654,5.33-24.872,0.888c0,0-9.771-23.095-32.866-21.319    c-2.856,0.22-5.332,0.589-7.497,1.074"
   id="path6" />&#10;		<path
   style="opacity:0.3;fill:none;stroke:#000000;stroke-linecap:round;stroke-linejoin:round;stroke-miterlimit:10;"
   d="    M111.098,125.988c-8.428,1.649-8.156,6.569-12.638,8.199c-4.994,1.816-8.626-4.086-15.436-2.27    c-6.81,1.816-5.902,6.356-9.534,6.81c-3.632,0.454-4.994-4.086-9.988-2.27c-4.994,1.816-6.356,6.356-6.356,6.356h96.251    c0,0-4.54-6.356-9.534-6.81c-4.994-0.454-9.534,2.724-12.712,0.454c0,0-3.323-7.855-10.956-10.257"
   id="path7" />&#10;	</g>&#10;</g>&#10;<g
   id="Pillars">&#10;	<g
   id="g65">&#10;		<g
   id="g25">&#10;			<path
   style="fill:#CCCCCC;stroke:#263238;stroke-linecap:round;stroke-linejoin:round;stroke-miterlimit:10;"
   d="     M534.353,164.302v7.963l6.371,4.38v8.76v16.723h4.38l-3.08,3.657l0.691,49.696l-0.398,44.594l1.593,2.787l-3.185,41.01     l1.593,2.787v51.761h27.871v-51.363l-0.796-6.371v-36.631v-4.38l0.796-3.185v-41.807v-50.168l-0.398-4.38l0.796-5.574     l0.398-3.583l0.796-7.565c0,0,0.796-2.389,1.194-3.583c0.398-1.195,1.991-5.176,1.991-5.176l1.593-4.38l0.796-5.574     L534.353,164.302z"
   id="path8" />&#10;			&#10;				<line
   style="fill:none;stroke:#263238;stroke-linecap:round;stroke-linejoin:round;stroke-miterlimit:10;"
   x1="543.571"
   y1="202.052"
   x2="566.227"
   y2="202.052"
   id="line8" />&#10;			&#10;				<line
   style="fill:none;stroke:#263238;stroke-linecap:round;stroke-linejoin:round;stroke-miterlimit:10;"
   x1="547.418"
   y1="205.471"
   x2="547.418"
   y2="255.698"
   id="line9" />&#10;			&#10;				<line
   style="fill:none;stroke:#263238;stroke-linecap:round;stroke-linejoin:round;stroke-miterlimit:10;"
   x1="553.403"
   y1="206.968"
   x2="553.403"
   y2="250.996"
   id="line10" />&#10;			&#10;				<line
   style="fill:none;stroke:#263238;stroke-linecap:round;stroke-linejoin:round;stroke-miterlimit:10;"
   x1="560.028"
   y1="207.822"
   x2="560.028"
   y2="229.409"
   id="line11" />&#10;			&#10;				<line
   style="fill:none;stroke:#263238;stroke-linecap:round;stroke-linejoin:round;stroke-miterlimit:10;"
   x1="543.785"
   y1="257.408"
   x2="568.578"
   y2="257.408"
   id="line12" />&#10;			&#10;				<line
   style="fill:none;stroke:#263238;stroke-linecap:round;stroke-linejoin:round;stroke-miterlimit:10;"
   x1="545.922"
   y1="300.581"
   x2="566.227"
   y2="300.581"
   id="line13" />&#10;			&#10;				<line
   style="fill:none;stroke:#263238;stroke-linecap:round;stroke-linejoin:round;stroke-miterlimit:10;"
   x1="547.632"
   y1="261.469"
   x2="547.204"
   y2="299.085"
   id="line14" />&#10;			&#10;				<line
   style="fill:none;stroke:#263238;stroke-linecap:round;stroke-linejoin:round;stroke-miterlimit:10;"
   x1="552.975"
   y1="261.041"
   x2="552.975"
   y2="296.948"
   id="line15" />&#10;			&#10;				<line
   style="fill:none;stroke:#263238;stroke-linecap:round;stroke-linejoin:round;stroke-miterlimit:10;"
   x1="559.173"
   y1="263.178"
   x2="559.173"
   y2="278.995"
   id="line16" />&#10;			&#10;				<line
   style="fill:none;stroke:#263238;stroke-linecap:round;stroke-linejoin:round;stroke-miterlimit:10;"
   x1="559.601"
   y1="283.055"
   x2="559.601"
   y2="294.597"
   id="line17" />&#10;			<path
   style="fill:none;stroke:#263238;stroke-linecap:round;stroke-linejoin:round;stroke-miterlimit:10;"
   d="M546.777,305.497     l-0.855,36.12l2.351,1.282c0,0,1.282,0.855,1.496,1.71l1.496,1.496h15.175"
   id="path17" />&#10;			&#10;				<line
   style="fill:none;stroke:#263238;stroke-linecap:round;stroke-linejoin:round;stroke-miterlimit:10;"
   x1="552.975"
   y1="302.719"
   x2="552.975"
   y2="346.106"
   id="line18" />&#10;			&#10;				<line
   style="fill:none;stroke:#263238;stroke-linecap:round;stroke-linejoin:round;stroke-miterlimit:10;"
   x1="559.815"
   y1="306.993"
   x2="559.815"
   y2="330.931"
   id="line19" />&#10;			&#10;				<line
   style="fill:none;stroke:#263238;stroke-linecap:round;stroke-linejoin:round;stroke-miterlimit:10;"
   x1="560.028"
   y1="341.19"
   x2="560.028"
   y2="334.351"
   id="line20" />&#10;			&#10;				<line
   style="fill:none;stroke:#263238;stroke-linecap:round;stroke-linejoin:round;stroke-miterlimit:10;"
   x1="547.846"
   y1="350.594"
   x2="547.846"
   y2="395.477"
   id="line21" />&#10;			&#10;				<line
   style="fill:none;stroke:#263238;stroke-linecap:round;stroke-linejoin:round;stroke-miterlimit:10;"
   x1="552.761"
   y1="350.38"
   x2="552.761"
   y2="380.944"
   id="line22" />&#10;			&#10;				<line
   style="fill:none;stroke:#263238;stroke-linecap:round;stroke-linejoin:round;stroke-miterlimit:10;"
   x1="559.815"
   y1="351.663"
   x2="559.815"
   y2="363.418"
   id="line23" />&#10;			&#10;				<line
   style="fill:none;stroke:#263238;stroke-linecap:round;stroke-linejoin:round;stroke-miterlimit:10;"
   x1="558.746"
   y1="395.05"
   x2="558.746"
   y2="369.616"
   id="line24" />&#10;			&#10;				<line
   style="fill:none;stroke:#263238;stroke-linecap:round;stroke-linejoin:round;stroke-miterlimit:10;"
   x1="538.853"
   y1="171.96"
   x2="574.965"
   y2="171.96"
   id="line25" />&#10;		</g>&#10;		<g
   id="g43">&#10;			<path
   style="fill:#CCCCCC;stroke:#263238;stroke-linecap:round;stroke-linejoin:round;stroke-miterlimit:10;"
   d="     M452.504,164.302v7.963l6.371,4.38v8.76v16.723h-2.171l4.162,53.354l-0.398,44.594l1.593,2.787l-3.185,41.01l1.593,2.787v51.761     h27.871v-51.363l-0.796-6.371v-36.631v-4.38l0.796-3.185v-41.807v-50.168l-0.398-4.38l0.796-5.574l0.398-3.583l0.796-7.565     c0,0,0.796-2.389,1.194-3.583c0.398-1.195,1.991-5.176,1.991-5.176l1.593-4.38l0.796-5.574L452.504,164.302z"
   id="path25" />&#10;			&#10;				<line
   style="fill:none;stroke:#263238;stroke-linecap:round;stroke-linejoin:round;stroke-miterlimit:10;"
   x1="461.722"
   y1="202.052"
   x2="484.378"
   y2="202.052"
   id="line26" />&#10;			&#10;				<line
   style="fill:none;stroke:#263238;stroke-linecap:round;stroke-linejoin:round;stroke-miterlimit:10;"
   x1="465.57"
   y1="205.471"
   x2="465.57"
   y2="255.698"
   id="line27" />&#10;			&#10;				<line
   style="fill:none;stroke:#263238;stroke-linecap:round;stroke-linejoin:round;stroke-miterlimit:10;"
   x1="471.554"
   y1="206.968"
   x2="471.554"
   y2="250.996"
   id="line28" />&#10;			&#10;				<line
   style="fill:none;stroke:#263238;stroke-linecap:round;stroke-linejoin:round;stroke-miterlimit:10;"
   x1="478.18"
   y1="207.822"
   x2="478.18"
   y2="229.409"
   id="line29" />&#10;			&#10;				<line
   style="fill:none;stroke:#263238;stroke-linecap:round;stroke-linejoin:round;stroke-miterlimit:10;"
   x1="461.936"
   y1="257.408"
   x2="486.729"
   y2="257.408"
   id="line30" />&#10;			&#10;				<line
   style="fill:none;stroke:#263238;stroke-linecap:round;stroke-linejoin:round;stroke-miterlimit:10;"
   x1="464.073"
   y1="300.581"
   x2="484.378"
   y2="300.581"
   id="line31" />&#10;			&#10;				<line
   style="fill:none;stroke:#263238;stroke-linecap:round;stroke-linejoin:round;stroke-miterlimit:10;"
   x1="465.783"
   y1="261.469"
   x2="465.356"
   y2="299.085"
   id="line32" />&#10;			&#10;				<line
   style="fill:none;stroke:#263238;stroke-linecap:round;stroke-linejoin:round;stroke-miterlimit:10;"
   x1="471.127"
   y1="261.041"
   x2="471.127"
   y2="296.948"
   id="line33" />&#10;			&#10;				<line
   style="fill:none;stroke:#263238;stroke-linecap:round;stroke-linejoin:round;stroke-miterlimit:10;"
   x1="477.325"
   y1="263.178"
   x2="477.325"
   y2="278.995"
   id="line34" />&#10;			&#10;				<line
   style="fill:none;stroke:#263238;stroke-linecap:round;stroke-linejoin:round;stroke-miterlimit:10;"
   x1="477.752"
   y1="283.055"
   x2="477.752"
   y2="294.597"
   id="line35" />&#10;			<path
   style="fill:none;stroke:#263238;stroke-linecap:round;stroke-linejoin:round;stroke-miterlimit:10;"
   d="M464.928,305.497     l-0.855,36.12l2.351,1.282c0,0,1.282,0.855,1.496,1.71l1.496,1.496h15.175"
   id="path35" />&#10;			&#10;				<line
   style="fill:none;stroke:#263238;stroke-linecap:round;stroke-linejoin:round;stroke-miterlimit:10;"
   x1="471.127"
   y1="302.719"
   x2="471.127"
   y2="346.106"
   id="line36" />&#10;			&#10;				<line
   style="fill:none;stroke:#263238;stroke-linecap:round;stroke-linejoin:round;stroke-miterlimit:10;"
   x1="477.966"
   y1="306.993"
   x2="477.966"
   y2="330.931"
   id="line37" />&#10;			&#10;				<line
   style="fill:none;stroke:#263238;stroke-linecap:round;stroke-linejoin:round;stroke-miterlimit:10;"
   x1="478.18"
   y1="341.19"
   x2="478.18"
   y2="334.351"
   id="line38" />&#10;			&#10;				<line
   style="fill:none;stroke:#263238;stroke-linecap:round;stroke-linejoin:round;stroke-miterlimit:10;"
   x1="465.997"
   y1="350.594"
   x2="465.997"
   y2="395.477"
   id="line39" />&#10;			&#10;				<line
   style="fill:none;stroke:#263238;stroke-linecap:round;stroke-linejoin:round;stroke-miterlimit:10;"
   x1="470.913"
   y1="350.38"
   x2="470.913"
   y2="380.944"
   id="line40" />&#10;			&#10;				<line
   style="fill:none;stroke:#263238;stroke-linecap:round;stroke-linejoin:round;stroke-miterlimit:10;"
   x1="477.966"
   y1="351.663"
   x2="477.966"
   y2="363.418"
   id="line41" />&#10;			&#10;				<line
   style="fill:none;stroke:#263238;stroke-linecap:round;stroke-linejoin:round;stroke-miterlimit:10;"
   x1="476.897"
   y1="395.05"
   x2="476.897"
   y2="369.616"
   id="line42" />&#10;			&#10;				<line
   style="fill:none;stroke:#263238;stroke-linecap:round;stroke-linejoin:round;stroke-miterlimit:10;"
   x1="457.005"
   y1="171.96"
   x2="493.117"
   y2="171.96"
   id="line43" />&#10;		</g>&#10;		<polygon
   style="fill:#E5E5E5;stroke:#263238;stroke-linecap:round;stroke-linejoin:round;stroke-miterlimit:10;"
   points="    616.254,72.343 623.12,75.089 623.12,80.125 625.409,96.604 627.24,106.675 622.662,108.506 616.254,111.71 616.254,107.132   "
   id="polygon43" />&#10;		<polygon
   style="fill:#CCCCCC;stroke:#263238;stroke-linecap:round;stroke-linejoin:round;stroke-miterlimit:10;"
   points="    461.989,117.203 616.254,72.343 616.254,107.132 609.387,115.83 476.18,126.358   "
   id="polygon44" />&#10;		<polygon
   style="fill:#CCCCCC;stroke:#263238;stroke-linecap:round;stroke-linejoin:round;stroke-miterlimit:10;"
   points="    455.834,126.477 659.692,126.477 658.498,141.209 650.535,142.801 657.303,157.533 656.507,162.71 450.26,168.284 450.658,160.32     449.066,153.95 444.288,146.783 443.889,143.598 449.464,143.2 448.667,137.227 452.251,134.44   "
   id="polygon45" />&#10;		&#10;			<line
   style="fill:none;stroke:#263238;stroke-linecap:round;stroke-linejoin:round;stroke-miterlimit:10;"
   x1="455.038"
   y1="143.598"
   x2="644.562"
   y2="143.598"
   id="line45" />&#10;		<path
   style="fill:none;stroke:#263238;stroke-linecap:round;stroke-linejoin:round;stroke-miterlimit:10;"
   d="M627.441,144.792    v6.371l-6.769,2.389c-2.787,1.991-11.547,9.158-11.547,9.158l-10.352,1.593"
   id="path45" />&#10;		&#10;			<line
   style="fill:none;stroke:#263238;stroke-linecap:round;stroke-linejoin:round;stroke-miterlimit:10;"
   x1="524.318"
   y1="145.19"
   x2="524.318"
   y2="165.895"
   id="line46" />&#10;		<g
   id="g64">&#10;			<path
   style="fill:#CCCCCC;stroke:#263238;stroke-linecap:round;stroke-linejoin:round;stroke-miterlimit:10;"
   d="     M615.895,164.302v7.963l6.371,4.38v8.76l2.848,16.723h1.532l-2.389,53.354l-0.398,44.594l1.593,2.787l-3.185,41.01l1.593,2.787     v51.761h27.871v-51.363l-0.796-6.371v-36.631v-4.38l0.796-3.185v-41.807v-50.168l-0.398-4.38l0.796-5.574l0.398-3.583     l0.796-7.565c0,0,0.796-2.389,1.194-3.583c0.398-1.195,1.991-5.176,1.991-5.176l1.593-4.38l-1.593-7.565L615.895,164.302z"
   id="path46" />&#10;			&#10;				<line
   style="fill:none;stroke:#263238;stroke-linecap:round;stroke-linejoin:round;stroke-miterlimit:10;"
   x1="625.113"
   y1="202.052"
   x2="647.768"
   y2="202.052"
   id="line47" />&#10;			&#10;				<line
   style="fill:none;stroke:#263238;stroke-linecap:round;stroke-linejoin:round;stroke-miterlimit:10;"
   x1="628.96"
   y1="205.471"
   x2="628.96"
   y2="255.698"
   id="line48" />&#10;			&#10;				<line
   style="fill:none;stroke:#263238;stroke-linecap:round;stroke-linejoin:round;stroke-miterlimit:10;"
   x1="634.944"
   y1="206.968"
   x2="634.944"
   y2="250.996"
   id="line49" />&#10;			&#10;				<line
   style="fill:none;stroke:#263238;stroke-linecap:round;stroke-linejoin:round;stroke-miterlimit:10;"
   x1="641.57"
   y1="207.822"
   x2="641.57"
   y2="229.409"
   id="line50" />&#10;			&#10;				<line
   style="fill:none;stroke:#263238;stroke-linecap:round;stroke-linejoin:round;stroke-miterlimit:10;"
   x1="625.327"
   y1="257.408"
   x2="650.119"
   y2="257.408"
   id="line51" />&#10;			&#10;				<line
   style="fill:none;stroke:#263238;stroke-linecap:round;stroke-linejoin:round;stroke-miterlimit:10;"
   x1="627.464"
   y1="300.581"
   x2="647.768"
   y2="300.581"
   id="line52" />&#10;			&#10;				<line
   style="fill:none;stroke:#263238;stroke-linecap:round;stroke-linejoin:round;stroke-miterlimit:10;"
   x1="629.174"
   y1="261.469"
   x2="628.746"
   y2="299.085"
   id="line53" />&#10;			&#10;				<line
   style="fill:none;stroke:#263238;stroke-linecap:round;stroke-linejoin:round;stroke-miterlimit:10;"
   x1="634.517"
   y1="261.041"
   x2="634.517"
   y2="296.948"
   id="line54" />&#10;			&#10;				<line
   style="fill:none;stroke:#263238;stroke-linecap:round;stroke-linejoin:round;stroke-miterlimit:10;"
   x1="640.715"
   y1="263.178"
   x2="640.715"
   y2="278.995"
   id="line55" />&#10;			&#10;				<line
   style="fill:none;stroke:#263238;stroke-linecap:round;stroke-linejoin:round;stroke-miterlimit:10;"
   x1="641.143"
   y1="283.055"
   x2="641.143"
   y2="294.597"
   id="line56" />&#10;			<path
   style="fill:none;stroke:#263238;stroke-linecap:round;stroke-linejoin:round;stroke-miterlimit:10;"
   d="M628.319,305.497     l-0.855,36.12l2.351,1.282c0,0,1.282,0.855,1.496,1.71l1.496,1.496h15.175"
   id="path56" />&#10;			&#10;				<line
   style="fill:none;stroke:#263238;stroke-linecap:round;stroke-linejoin:round;stroke-miterlimit:10;"
   x1="634.517"
   y1="302.719"
   x2="634.517"
   y2="346.106"
   id="line57" />&#10;			&#10;				<line
   style="fill:none;stroke:#263238;stroke-linecap:round;stroke-linejoin:round;stroke-miterlimit:10;"
   x1="641.356"
   y1="306.993"
   x2="641.356"
   y2="330.931"
   id="line58" />&#10;			&#10;				<line
   style="fill:none;stroke:#263238;stroke-linecap:round;stroke-linejoin:round;stroke-miterlimit:10;"
   x1="641.57"
   y1="341.19"
   x2="641.57"
   y2="334.351"
   id="line59" />&#10;			&#10;				<line
   style="fill:none;stroke:#263238;stroke-linecap:round;stroke-linejoin:round;stroke-miterlimit:10;"
   x1="629.388"
   y1="350.594"
   x2="629.388"
   y2="395.477"
   id="line60" />&#10;			&#10;				<line
   style="fill:none;stroke:#263238;stroke-linecap:round;stroke-linejoin:round;stroke-miterlimit:10;"
   x1="634.303"
   y1="350.38"
   x2="634.303"
   y2="380.944"
   id="line61" />&#10;			&#10;				<line
   style="fill:none;stroke:#263238;stroke-linecap:round;stroke-linejoin:round;stroke-miterlimit:10;"
   x1="641.356"
   y1="351.663"
   x2="641.356"
   y2="363.418"
   id="line62" />&#10;			&#10;				<line
   style="fill:none;stroke:#263238;stroke-linecap:round;stroke-linejoin:round;stroke-miterlimit:10;"
   x1="640.288"
   y1="395.05"
   x2="640.288"
   y2="369.616"
   id="line63" />&#10;			&#10;				<line
   style="fill:none;stroke:#263238;stroke-linecap:round;stroke-linejoin:round;stroke-miterlimit:10;"
   x1="620.395"
   y1="171.96"
   x2="656.507"
   y2="171.96"
   id="line64" />&#10;		</g>&#10;		<path
   style="fill:#CCCCCC;stroke:#263238;stroke-linecap:round;stroke-linejoin:round;stroke-miterlimit:10;"
   d="M455.834,126.477    h-14.902v-9.731l74.157-1.831l26.092-2.289c0,0,26.55,1.831,27.923,1.373c1.373-0.458,26.55-3.662,26.55-3.662    s11.902-1.373,14.19-2.289c2.289-0.915,17.395-1.373,17.395-1.373l8.697,2.747l6.409,10.528v6.409L455.834,126.477z"
   id="path64" />&#10;	</g>&#10;</g>&#10;<g
   id="Walls">&#10;	<g
   id="g66">&#10;		<path
   style="fill:#CCCCCC;stroke:#263238;stroke-linecap:round;stroke-linejoin:round;stroke-miterlimit:10;"
   d="M399.773,329.846    l-10.069-16.521c-4.736-7.771-13.599-12.03-22.625-10.872l-16.25,2.083c0,0-15.943-4.783-19.132-6.377    c-1.385-0.692-3.07-4.843-4.534-9.317c-2.503-7.652-8.767-13.476-16.599-15.342l-69.047-16.45l-56.499-17.084l-23.118-18.335    l-17.538-9.566l-82.796-0.797l-20.129,20.758l-9.226,54.516l10.114,28.22l-15.984,17.071l-2.516,29.301h387.587l1.594-23.118    L399.773,329.846z"
   id="path65" />&#10;		<path
   style="fill:#DEDEDE;stroke:#263238;stroke-linecap:round;stroke-linejoin:round;stroke-miterlimit:10;"
   d="M413.007,338.017    l-13.234-8.171l-10.789-17.703c-4.298-7.052-12.34-10.916-20.531-9.866l-17.623,2.259c0,0-15.943-4.783-19.132-6.377    c-1.482-0.741-3.309-5.444-4.84-10.266c-2.233-7.032-7.947-12.405-15.125-14.115l-70.215-16.728l-56.499-17.084l-23.118-18.335    l-17.538-9.566l26.505,31.806l20.501,10.251l10.983,10.983l101.774,24.162l6.59,30.752l-5.125,11.715l13.179,16.108l11.715,13.179    l0.662,0.114h80.265L413.007,338.017z"
   id="path66" />&#10;	</g>&#10;	<g
   id="g71">&#10;		<polygon
   style="fill:#DEDEDE;stroke:#263238;stroke-linecap:round;stroke-linejoin:round;stroke-miterlimit:10;"
   points="    607.457,352.099 569.45,314.77 532.8,313.413 494.792,281.514 458.142,277.441 399.773,323.594 381.448,324.951 335.974,366.352     207.02,366.352 183.265,398.93 648.858,398.93 635.963,363.637   "
   id="polygon66" />&#10;		<path
   style="fill:#CCCCCC;stroke:#263238;stroke-linecap:round;stroke-linejoin:round;stroke-miterlimit:10;"
   d="M595.919,352.099    l-38.008-37.329l-36.65-1.357l-38.008-31.899l-25.112-4.072l-69.907,46.152l-18.325,1.357l-45.473,41.401H205.25    c-6.138,0-11.907,2.933-15.523,7.893l-17.999,24.685H637.32l-12.896-35.293L595.919,352.099z"
   id="path67" />&#10;		<g
   id="g68">&#10;			<polygon
   style="fill:#CCCCCC;stroke:#263238;stroke-linecap:round;stroke-linejoin:round;stroke-miterlimit:10;"
   points="     574.734,392.06 556.953,386.402 544.021,391.252 540.384,398.93 580.392,398.93    "
   id="polygon67" />&#10;			<polygon
   style="fill:#DEDEDE;stroke:#263238;stroke-linecap:round;stroke-linejoin:round;stroke-miterlimit:10;"
   points="     552.912,394.081 551.125,398.93 580.392,398.93 574.734,392.06 556.953,386.402 558.165,390.848    "
   id="polygon68" />&#10;		</g>&#10;		<g
   id="g70">&#10;			<polygon
   style="fill:#CCCCCC;stroke:#263238;stroke-linecap:round;stroke-linejoin:round;stroke-miterlimit:10;"
   points="     600.233,394.72 589.334,391.252 581.409,394.224 579.179,398.93 603.7,398.93    "
   id="polygon69" />&#10;			<polygon
   style="fill:#DEDEDE;stroke:#263238;stroke-linecap:round;stroke-linejoin:round;stroke-miterlimit:10;"
   points="     586.858,395.958 585.763,398.93 603.7,398.93 600.233,394.72 589.334,391.252 590.078,393.976    "
   id="polygon70" />&#10;		</g>&#10;	</g>&#10;</g>&#10;<g
   id="Floor">&#10;	<g
   id="g72">&#10;		<polygon
   style="fill:#E5E5E5;stroke:#263238;stroke-linecap:round;stroke-linejoin:round;stroke-miterlimit:10;"
   points="    13.762,361.085 124.518,361.085 143.586,376.207 144.244,384.755 140.299,411.055 153.449,428.15 181.064,459.053 614.36,459.053     639.346,438.013 658.413,413.027 659.071,374.892 672.878,361.085 723.506,361.085 647.893,361.085 146.874,361.085   "
   id="polygon71" />&#10;		<polygon
   style="fill:#ADADAD;stroke:#263238;stroke-linecap:round;stroke-linejoin:round;stroke-miterlimit:10;"
   points="    142.923,398.93 658.656,398.93 659.071,374.892 672.878,361.085 647.893,361.085 146.874,361.085 124.518,361.085     143.586,376.207 144.244,384.755 142.17,398.576   "
   id="polygon72" />&#10;	</g>&#10;</g>&#10;<g
   id="Rocks">&#10;	<g
   id="g78">&#10;		<g
   id="g74">&#10;			<polygon
   style="fill:#CCCCCC;stroke:#263238;stroke-linecap:round;stroke-linejoin:round;stroke-miterlimit:10;"
   points="     441.4,442.179 430.501,438.712 422.576,441.684 420.346,446.39 444.867,446.39    "
   id="polygon73" />&#10;			<polygon
   style="fill:#DEDEDE;stroke:#263238;stroke-linecap:round;stroke-linejoin:round;stroke-miterlimit:10;"
   points="     428.025,443.418 426.93,446.39 444.867,446.39 441.4,442.179 430.501,438.712 431.245,441.436    "
   id="polygon74" />&#10;		</g>&#10;		<g
   id="g76">&#10;			<polygon
   style="fill:#CCCCCC;stroke:#263238;stroke-linecap:round;stroke-linejoin:round;stroke-miterlimit:10;"
   points="     209.541,434.51 198.643,431.042 190.717,434.014 188.488,438.72 213.009,438.72    "
   id="polygon75" />&#10;			<polygon
   style="fill:#DEDEDE;stroke:#263238;stroke-linecap:round;stroke-linejoin:round;stroke-miterlimit:10;"
   points="     196.166,435.748 195.071,438.72 213.008,438.72 209.541,434.51 198.643,431.042 199.386,433.767    "
   id="polygon76" />&#10;		</g>&#10;		<g
   id="g77">&#10;			<path
   style="fill:#CCCCCC;stroke:#263238;stroke-linecap:round;stroke-linejoin:round;stroke-miterlimit:10;"
   d="M575.323,427.43     c0,0-28.319-13.569-32.448-14.159c-4.13-0.59-14.749,4.72-14.749,4.72l-17.109,13.569l-16.519,2.95l-15.339,11.209h86.726     l-5.31-5.9h44.248l-10.619-11.21L575.323,427.43z"
   id="path76" />&#10;			<path
   style="fill:#DEDEDE;stroke:#263238;stroke-linecap:round;stroke-linejoin:round;stroke-miterlimit:10;"
   d="M556.444,426.84     l-11.799,4.72c0,0-6.49-1.18-6.49,0.59c0,1.77-4.72,11.21-4.72,11.21l2.36,2.36h30.089l-5.31-5.9h44.248l-10.619-11.21     l-18.879-1.18c0,0-28.319-13.569-32.448-14.159l3.54,11.209L556.444,426.84z"
   id="path77" />&#10;		</g>&#10;	</g>&#10;</g>&#10;<path
   style="fill:#13bfa1;stroke:#263238;stroke-linecap:round;stroke-linejoin:round;stroke-miterlimit:10;fill-opacity:1"
   d="m 347.172,373.6 -5.287,-4.567 -12.768,12.621 4.505,5.34 c 0,0 -1.27,16.98 2.515,20.809 3.785,3.829 45.552,23.695 45.552,23.695 l 9.426,-9.318 c 0,0 -19.38,-41.995 -23.165,-45.824 -3.784,-3.829 -20.778,-2.756 -20.778,-2.756 z"
   id="path78" /><line
   style="fill:none;stroke:#263238;stroke-miterlimit:10"
   x1="337.185"
   y1="406.784"
   x2="347.09399"
   y2="396.98901"
   id="line78" /><line
   style="fill:none;stroke:#263238;stroke-miterlimit:10"
   x1="348.694"
   y1="395.19699"
   x2="350.29199"
   y2="393.617"
   id="line79" /><line
   style="fill:none;stroke:#263238;stroke-miterlimit:10"
   x1="367.19501"
   y1="383.651"
   x2="352.384"
   y2="398.29099"
   id="line80" /><line
   style="fill:none;stroke:#263238;stroke-miterlimit:10"
   x1="363.862"
   y1="410.32901"
   x2="370.57501"
   y2="403.69299"
   id="line81" /><line
   style="fill:none;stroke:#263238;stroke-miterlimit:10"
   x1="371.64099"
   y1="402.42801"
   x2="373.98599"
   y2="400.11099"
   id="line82" /><line
   style="fill:none;stroke:#263238;stroke-miterlimit:10"
   x1="361.034"
   y1="404.698"
   x2="350.48499"
   y2="415.125"
   id="line83" /><line
   style="fill:none;stroke:#263238;stroke-miterlimit:10"
   x1="373.56299"
   y1="418.22501"
   x2="381.87399"
   y2="410.009"
   id="line84" /><line
   style="fill:none;stroke:#263238;stroke-miterlimit:10"
   x1="345.73801"
   y1="375.15701"
   x2="339.664"
   y2="381.16"
   id="line85" /><g
   id="g86">&#10;			<polygon
   style="fill:#cccccc;stroke:#263238;stroke-linecap:round;stroke-linejoin:round;stroke-miterlimit:10"
   points="318.957,412.483 299.969,428.358 323.004,432.716 400.513,432.716 409.229,432.716 401.758,429.603 374.365,409.681 365.649,408.748 334.521,407.191 "
   id="polygon85" />&#10;			<polygon
   style="fill:#dedede;stroke:#263238;stroke-linecap:round;stroke-linejoin:round;stroke-miterlimit:10"
   points="371.867,409.682 367.017,416.956 348.428,418.573 335.092,423.018 323.004,432.716 400.513,432.716 409.229,432.716 401.758,429.603 374.365,409.681 371.879,409.415 "
   id="polygon86" />&#10;		</g>&#10;<g
   id="Sun">&#10;	<g
   style="opacity:0.3;"
   id="g94">&#10;		&#10;			<ellipse
   transform="matrix(0.9239 -0.3827 0.3827 0.9239 -10.8418 64.5628)"
   style="fill:none;stroke:#000000;stroke-linecap:round;stroke-linejoin:round;stroke-miterlimit:10;"
   cx="156.869"
   cy="59.534"
   rx="19.161"
   ry="19.162"
   id="ellipse87" />&#10;		&#10;			<line
   style="fill:none;stroke:#000000;stroke-linecap:round;stroke-linejoin:round;stroke-miterlimit:10;"
   x1="156.869"
   y1="30.141"
   x2="156.869"
   y2="37.308"
   id="line87" />&#10;		&#10;			<line
   style="fill:none;stroke:#000000;stroke-linecap:round;stroke-linejoin:round;stroke-miterlimit:10;"
   x1="156.869"
   y1="81.15"
   x2="156.869"
   y2="88.316"
   id="line88" />&#10;		&#10;			<line
   style="fill:none;stroke:#000000;stroke-linecap:round;stroke-linejoin:round;stroke-miterlimit:10;"
   x1="185.956"
   y1="59.229"
   x2="178.79"
   y2="59.229"
   id="line89" />&#10;		&#10;			<line
   style="fill:none;stroke:#000000;stroke-linecap:round;stroke-linejoin:round;stroke-miterlimit:10;"
   x1="134.947"
   y1="59.229"
   x2="127.781"
   y2="59.229"
   id="line90" />&#10;		&#10;			<line
   style="fill:none;stroke:#000000;stroke-linecap:round;stroke-linejoin:round;stroke-miterlimit:10;"
   x1="177.437"
   y1="38.661"
   x2="172.369"
   y2="43.728"
   id="line91" />&#10;		&#10;			<line
   style="fill:none;stroke:#000000;stroke-linecap:round;stroke-linejoin:round;stroke-miterlimit:10;"
   x1="141.368"
   y1="74.729"
   x2="136.301"
   y2="79.797"
   id="line92" />&#10;		&#10;			<line
   style="fill:none;stroke:#000000;stroke-linecap:round;stroke-linejoin:round;stroke-miterlimit:10;"
   x1="177.437"
   y1="79.797"
   x2="172.369"
   y2="74.729"
   id="line93" />&#10;		&#10;			<line
   style="fill:none;stroke:#000000;stroke-linecap:round;stroke-linejoin:round;stroke-miterlimit:10;"
   x1="141.368"
   y1="43.728"
   x2="136.301"
   y2="38.661"
   id="line94" />&#10;	</g>&#10;</g>&#10;<g
   id="Ladder">&#10;	<g
   id="g102">&#10;		&#10;			<rect
   x="99.303"
   y="219.182"
   transform="matrix(-1 -1.224647e-16 1.224647e-16 -1 233.8047 443.2074)"
   style="fill:#FFFFFF;stroke:#263238;stroke-linecap:round;stroke-linejoin:round;stroke-miterlimit:10;"
   width="35.198"
   height="4.844"
   id="rect94" />&#10;		&#10;			<rect
   x="96.397"
   y="247.921"
   transform="matrix(-1 -1.224647e-16 1.224647e-16 -1 227.9922 500.6867)"
   style="fill:#FFFFFF;stroke:#263238;stroke-linecap:round;stroke-linejoin:round;stroke-miterlimit:10;"
   width="35.198"
   height="4.844"
   id="rect95" />&#10;		&#10;			<rect
   x="93.491"
   y="276.661"
   transform="matrix(-1 -1.224647e-16 1.224647e-16 -1 222.1797 558.1661)"
   style="fill:#FFFFFF;stroke:#263238;stroke-linecap:round;stroke-linejoin:round;stroke-miterlimit:10;"
   width="35.198"
   height="4.844"
   id="rect96" />&#10;		&#10;			<rect
   x="90.585"
   y="305.401"
   transform="matrix(-1 -1.224647e-16 1.224647e-16 -1 216.3671 615.6454)"
   style="fill:#FFFFFF;stroke:#263238;stroke-linecap:round;stroke-linejoin:round;stroke-miterlimit:10;"
   width="35.198"
   height="4.844"
   id="rect97" />&#10;		&#10;			<rect
   x="87.678"
   y="334.141"
   transform="matrix(-1 -1.224647e-16 1.224647e-16 -1 210.5546 673.1248)"
   style="fill:#FFFFFF;stroke:#263238;stroke-linecap:round;stroke-linejoin:round;stroke-miterlimit:10;"
   width="35.198"
   height="4.844"
   id="rect98" />&#10;		<g
   id="g99">&#10;			<polygon
   style="fill:#FFFFFF;stroke:#263238;stroke-linecap:round;stroke-linejoin:round;stroke-miterlimit:10;"
   points="     119.703,360.322 125.003,360.322 137.808,207.212 132.508,207.212    "
   id="polygon98" />&#10;			<polygon
   style="fill:#FFFFFF;stroke:#263238;stroke-linecap:round;stroke-linejoin:round;stroke-miterlimit:10;"
   points="     117.765,360.322 123.065,360.322 135.871,207.212 130.571,207.212    "
   id="polygon99" />&#10;		</g>&#10;		<g
   id="g101">&#10;			<polygon
   style="fill:#FFFFFF;stroke:#263238;stroke-linecap:round;stroke-linejoin:round;stroke-miterlimit:10;"
   points="     84.828,360.322 90.128,360.322 102.933,207.212 97.633,207.212    "
   id="polygon100" />&#10;			<polygon
   style="fill:#FFFFFF;stroke:#263238;stroke-linecap:round;stroke-linejoin:round;stroke-miterlimit:10;"
   points="     82.89,360.322 88.19,360.322 100.995,207.212 95.696,207.212    "
   id="polygon101" />&#10;		</g>&#10;	</g>&#10;</g>&#10;<g
   id="Plants">&#10;	<g
   id="g114">&#10;		<g
   id="g107">&#10;			<path
   style="fill:#263238;"
   d="M696.081,327.17c0.023,0.011,0.227-1.693,0.227-1.802c0.005-1.261-0.726-3.702-2.069-4.141     c-0.967-0.316-1.911,0.349-2.12,1.302c-0.213,0.974,0.37,2.056,0.983,2.771C693.822,326.14,696.079,327.169,696.081,327.17z"
   id="path102" />&#10;			<path
   style="fill:#263238;"
   d="M671.153,329.983c1.064,0.303,3.514-0.084,3.515-0.084c0.026-0.004-0.745-1.537-0.805-1.629     c-0.691-1.055-2.648-2.687-4.01-2.313c-0.981,0.27-1.402,1.345-1.049,2.256C669.165,329.143,670.247,329.724,671.153,329.983z"
   id="path103" />&#10;			<path
   style="fill:#263238;"
   d="M679.963,342.326c0.167,0.246,0.331,0.494,0.499,0.74c0.806,1.179,1.615,2.352,2.373,3.526     c0.268,0.414,0.516,0.831,0.766,1.248c-0.213-0.236-0.394-0.433-0.425-0.46c-0.945-0.835-3.263-1.893-4.478-1.172     c-0.875,0.52-0.997,1.668-0.416,2.453c0.593,0.802,1.79,1.076,2.732,1.086c0.912,0.01,2.591-0.675,3.159-0.919     c0.243,0.434,0.487,0.869,0.703,1.301c0.141,0.298,0.297,0.576,0.422,0.883c0.13,0.302,0.258,0.6,0.386,0.896     c0.224,0.579,0.459,1.175,0.664,1.745c0.145,0.395,0.276,0.775,0.41,1.157c-0.261-0.415-0.79-1.217-0.842-1.279     c-0.808-0.969-2.939-2.365-4.249-1.836c-0.944,0.381-1.238,1.497-0.783,2.361c0.465,0.882,1.607,1.335,2.536,1.488     c1.023,0.168,3.163-0.401,3.43-0.473c0.218,0.633,0.424,1.25,0.609,1.836c0.49,1.535,0.872,2.888,1.162,3.977h0.964     c-0.326-1.137-0.76-2.574-1.332-4.24c-0.219-0.643-0.466-1.327-0.726-2.026c0.155-0.087,1.033-0.588,1.793-1.158     c0.821,0.679,2.78,1.34,3.033,1.423c-0.167,0.648-0.336,1.277-0.504,1.868c-0.465,1.642-0.913,3.035-1.284,4.133h0.976     c0.333-1.072,0.72-2.385,1.117-3.914c0.172-0.657,0.344-1.363,0.512-2.09c0.271,0.02,2.485,0.167,3.458-0.196     c0.883-0.329,1.916-0.993,2.202-1.948c0.28-0.935-0.224-1.974-1.223-2.166c-1.387-0.267-3.209,1.514-3.816,2.62     c-0.036,0.065-0.345,0.817-0.532,1.294c0.067-0.297,0.136-0.585,0.202-0.892c0.134-0.606,0.25-1.214,0.377-1.869     c0.05-0.318,0.101-0.639,0.152-0.964c0.058-0.321,0.078-0.667,0.119-1.003c0.078-0.782,0.119-1.578,0.143-2.382     c0.531,0.116,2.422,0.5,3.349,0.309c0.922-0.191,2.045-0.691,2.472-1.592c0.419-0.882,0.078-1.985-0.881-2.327     c-1.331-0.474-3.402,1.01-4.169,2.012c-0.048,0.062-0.517,0.843-0.767,1.276c0.011-0.483,0.023-0.965,0.018-1.454     c-0.015-1.411-0.074-2.839-0.127-4.264c-0.016-0.436-0.027-0.871-0.04-1.307c0.188,0.043,2.426,0.549,3.464,0.334     c0.923-0.191,2.045-0.691,2.472-1.592c0.418-0.882,0.078-1.985-0.881-2.327c-1.331-0.474-3.402,1.01-4.169,2.012     c-0.058,0.075-0.732,1.199-0.889,1.494c-0.028-0.959-0.046-1.915-0.026-2.858c0.026-1.302,0.123-2.577,0.308-3.806     c0.088,0.02,2.421,0.559,3.484,0.339c0.923-0.191,2.045-0.691,2.472-1.592c0.419-0.882,0.078-1.985-0.881-2.327     c-1.331-0.474-3.402,1.01-4.169,2.011c-0.05,0.066-0.565,0.921-0.8,1.334c-0.042-0.015-0.034-0.012-0.076-0.027     c0.214-1.314,0.588-2.56,0.995-3.709c0.234-0.666,0.496-1.289,0.764-1.89c0.424,0.145,2.371,0.785,3.349,0.693     c0.938-0.089,2.108-0.462,2.632-1.311c0.513-0.831,0.295-1.965-0.62-2.409c-1.271-0.617-3.492,0.63-4.364,1.541     c-0.047,0.05-0.474,0.607-0.779,1.017c0.125-0.269,0.249-0.549,0.374-0.805c0.467-0.961,0.953-1.812,1.39-2.562     c0.252-0.425,0.488-0.804,0.713-1.156c0.491-0.075,2.463-0.403,3.274-0.926c0.792-0.511,1.658-1.382,1.732-2.376     c0.072-0.974-0.643-1.88-1.66-1.853c-1.412,0.038-2.809,2.169-3.163,3.379c-0.03,0.104-0.321,1.796-0.296,1.792     c0,0,0.024-0.004,0.03-0.004c-0.223,0.335-0.458,0.696-0.708,1.096c-0.454,0.742-0.961,1.585-1.45,2.54     c-0.492,0.953-0.999,2.001-1.433,3.154c-0.437,1.155-0.838,2.392-1.086,3.721c-0.003,0.015-0.004,0.031-0.007,0.046     c-0.048-0.411-0.221-1.556-0.244-1.642c-0.328-1.218-1.678-3.379-3.089-3.448c-1.016-0.049-1.752,0.841-1.7,1.816     c0.052,0.996,0.899,1.885,1.68,2.413c0.88,0.595,3.152,0.981,3.333,1.011c-0.225,1.267-0.352,2.586-0.408,3.927     c-0.033,0.767-0.042,1.541-0.041,2.316c-0.053-0.354-0.103-0.67-0.115-0.714c-0.328-1.218-1.678-3.379-3.089-3.448     c-1.017-0.049-1.752,0.841-1.701,1.816c0.052,0.996,0.899,1.885,1.68,2.414c0.792,0.536,2.722,0.903,3.234,0.993     c0.003,0.298,0.003,0.595,0.008,0.892c0.022,1.427,0.05,2.852,0.034,4.25c-0.005,0.493-0.029,0.978-0.05,1.463     c-0.047-0.314-0.09-0.579-0.101-0.618c-0.328-1.218-1.678-3.379-3.089-3.447c-1.017-0.05-1.752,0.841-1.7,1.816     c0.052,0.996,0.899,1.885,1.68,2.413c0.755,0.511,2.534,0.866,3.142,0.977c-0.037,0.496-0.073,0.993-0.132,1.473     c-0.047,0.326-0.07,0.644-0.135,0.969c-0.058,0.323-0.116,0.643-0.173,0.96c-0.132,0.606-0.265,1.233-0.409,1.821     c-0.097,0.41-0.197,0.799-0.297,1.191c0.011-0.491,0.012-1.451,0.003-1.531c-0.093-0.833-0.57-2.143-1.285-3.013     c-0.013-0.123-0.037-0.245-0.072-0.363c-0.282-0.935-1.276-1.523-2.215-1.132c-1.304,0.543-1.842,3.033-1.738,4.29     c0.006,0.074,0.163,0.871,0.27,1.373c-0.108-0.285-0.209-0.563-0.324-0.855c-0.223-0.579-0.462-1.151-0.717-1.767     c-0.134-0.293-0.269-0.589-0.405-0.888c-0.129-0.299-0.303-0.599-0.454-0.902c-0.366-0.695-0.771-1.382-1.195-2.065     c0.507-0.196,2.296-0.918,2.963-1.59c0.664-0.668,1.324-1.704,1.184-2.691c-0.138-0.967-1.03-1.699-2.018-1.455     c-1.371,0.339-2.28,2.719-2.367,3.978c-0.005,0.078,0.033,0.988,0.064,1.488c-0.258-0.409-0.513-0.818-0.787-1.223     c-0.791-1.169-1.628-2.327-2.458-3.487c-0.255-0.355-0.504-0.712-0.755-1.068c0.181-0.068,2.327-0.881,3.074-1.633     c0.664-0.668,1.324-1.704,1.184-2.692c-0.138-0.967-1.03-1.699-2.018-1.455c-1.371,0.339-2.28,2.719-2.367,3.978     c-0.007,0.095,0.051,1.404,0.082,1.736c-0.552-0.785-1.095-1.572-1.599-2.369c-0.697-1.1-1.32-2.217-1.843-3.345     c0.084-0.031,2.327-0.869,3.093-1.64c0.664-0.668,1.324-1.704,1.184-2.691c-0.138-0.967-1.03-1.699-2.018-1.455     c-1.371,0.339-2.28,2.719-2.367,3.977c-0.006,0.083,0.037,1.081,0.069,1.555c-0.043,0.011-0.035,0.009-0.078,0.019     c-0.546-1.215-0.922-2.46-1.216-3.643c-0.172-0.685-0.298-1.349-0.406-1.998c0.434-0.113,2.41-0.653,3.176-1.27     c0.733-0.591,1.503-1.549,1.472-2.545c-0.031-0.976-0.837-1.802-1.846-1.667c-1.4,0.186-2.565,2.452-2.79,3.693     c-0.012,0.067-0.061,0.767-0.089,1.278c-0.044-0.293-0.095-0.596-0.132-0.878c-0.141-1.059-0.205-2.037-0.254-2.904     c-0.024-0.493-0.036-0.94-0.043-1.358c0.368-0.333,1.832-1.695,2.22-2.579c0.378-0.863,0.621-2.067,0.134-2.937     c-0.477-0.852-1.574-1.213-2.407-0.629c-1.157,0.811-1.146,3.358-0.774,4.564c0.032,0.104,0.722,1.675,0.742,1.658     c0,0,0.018-0.016,0.022-0.02c-0.001,0.402,0.002,0.834,0.015,1.304c0.031,0.87,0.073,1.852,0.192,2.918     c0.116,1.066,0.271,2.22,0.545,3.421c0.273,1.205,0.621,2.458,1.147,3.702c0.006,0.014,0.014,0.028,0.02,0.042     c-0.267-0.316-1.043-1.176-1.11-1.235c-0.946-0.835-3.263-1.892-4.478-1.172c-0.875,0.52-0.997,1.668-0.416,2.453     c0.593,0.802,1.79,1.076,2.732,1.086c1.063,0.012,3.17-0.92,3.337-0.995c0.512,1.181,1.133,2.351,1.826,3.501     c0.396,0.658,0.815,1.308,1.244,1.954c-0.24-0.266-0.456-0.502-0.489-0.532c-0.946-0.835-3.263-1.893-4.478-1.172     c-0.875,0.52-0.997,1.668-0.417,2.453c0.593,0.802,1.79,1.077,2.732,1.086C677.673,343.291,679.486,342.533,679.963,342.326z"
   id="path104" />&#10;			<path
   style="opacity:0.3;fill:#263238;"
   d="M671.153,329.983c1.064,0.303,3.514-0.084,3.515-0.084     c0.026-0.004-0.745-1.537-0.805-1.629c-0.691-1.055-2.648-2.687-4.01-2.313c-0.981,0.27-1.402,1.345-1.049,2.256     C669.165,329.143,670.247,329.724,671.153,329.983z"
   id="path105" />&#10;			<path
   style="opacity:0.3;fill:#263238;"
   d="M696.081,327.17c0.023,0.011,0.227-1.693,0.227-1.802     c0.005-1.261-0.726-3.702-2.069-4.141c-0.967-0.316-1.911,0.349-2.12,1.302c-0.213,0.974,0.37,2.056,0.983,2.771     C693.822,326.14,696.079,327.169,696.081,327.17z"
   id="path106" />&#10;			<path
   style="opacity:0.3;fill:#263238;"
   d="M679.963,342.326c0.167,0.246,0.331,0.494,0.499,0.74     c0.806,1.179,1.615,2.352,2.373,3.526c0.268,0.414,0.516,0.831,0.766,1.248c-0.213-0.236-0.394-0.433-0.425-0.46     c-0.945-0.835-3.263-1.893-4.478-1.172c-0.875,0.52-0.997,1.668-0.416,2.453c0.593,0.802,1.79,1.076,2.732,1.086     c0.912,0.01,2.591-0.675,3.159-0.919c0.243,0.434,0.487,0.869,0.703,1.301c0.141,0.298,0.297,0.576,0.422,0.883     c0.13,0.302,0.258,0.6,0.386,0.896c0.224,0.579,0.459,1.175,0.664,1.745c0.145,0.395,0.276,0.775,0.41,1.157     c-0.261-0.415-0.79-1.217-0.842-1.279c-0.808-0.969-2.939-2.365-4.249-1.836c-0.944,0.381-1.238,1.497-0.783,2.361     c0.465,0.882,1.607,1.335,2.536,1.488c1.023,0.168,3.163-0.401,3.43-0.473c0.218,0.633,0.424,1.25,0.609,1.836     c0.49,1.535,0.872,2.888,1.162,3.977h0.964c-0.326-1.137-0.76-2.574-1.332-4.24c-0.219-0.643-0.466-1.327-0.726-2.026     c0.155-0.087,1.033-0.588,1.793-1.158c0.821,0.679,2.78,1.34,3.033,1.423c-0.167,0.648-0.336,1.277-0.504,1.868     c-0.465,1.642-0.913,3.035-1.284,4.133h0.976c0.333-1.072,0.72-2.385,1.117-3.914c0.172-0.657,0.344-1.363,0.512-2.09     c0.271,0.02,2.485,0.167,3.458-0.196c0.883-0.329,1.916-0.993,2.202-1.948c0.28-0.935-0.224-1.974-1.223-2.166     c-1.387-0.267-3.209,1.514-3.816,2.62c-0.036,0.065-0.345,0.817-0.532,1.294c0.067-0.297,0.136-0.585,0.202-0.892     c0.134-0.606,0.25-1.214,0.377-1.869c0.05-0.318,0.101-0.639,0.152-0.964c0.058-0.321,0.078-0.667,0.119-1.003     c0.078-0.782,0.119-1.578,0.143-2.382c0.531,0.116,2.422,0.5,3.349,0.309c0.922-0.191,2.045-0.691,2.472-1.592     c0.419-0.882,0.078-1.985-0.881-2.327c-1.331-0.474-3.402,1.01-4.169,2.012c-0.048,0.062-0.517,0.843-0.767,1.276     c0.011-0.483,0.023-0.965,0.018-1.454c-0.015-1.411-0.074-2.839-0.127-4.264c-0.016-0.436-0.027-0.871-0.04-1.307     c0.188,0.043,2.426,0.549,3.464,0.334c0.923-0.191,2.045-0.691,2.472-1.592c0.418-0.882,0.078-1.985-0.881-2.327     c-1.331-0.474-3.402,1.01-4.169,2.012c-0.058,0.075-0.732,1.199-0.889,1.494c-0.028-0.959-0.046-1.915-0.026-2.858     c0.026-1.302,0.123-2.577,0.308-3.806c0.088,0.02,2.421,0.559,3.484,0.339c0.923-0.191,2.045-0.691,2.472-1.592     c0.419-0.882,0.078-1.985-0.881-2.327c-1.331-0.474-3.402,1.01-4.169,2.011c-0.05,0.066-0.565,0.921-0.8,1.334     c-0.042-0.015-0.034-0.012-0.076-0.027c0.214-1.314,0.588-2.56,0.995-3.709c0.234-0.666,0.496-1.289,0.764-1.89     c0.424,0.145,2.371,0.785,3.349,0.693c0.938-0.089,2.108-0.462,2.632-1.311c0.513-0.831,0.295-1.965-0.62-2.409     c-1.271-0.617-3.492,0.63-4.364,1.541c-0.047,0.05-0.474,0.607-0.779,1.017c0.125-0.269,0.249-0.549,0.374-0.805     c0.467-0.961,0.953-1.812,1.39-2.562c0.252-0.425,0.488-0.804,0.713-1.156c0.491-0.075,2.463-0.403,3.274-0.926     c0.792-0.511,1.658-1.382,1.732-2.376c0.072-0.974-0.643-1.88-1.66-1.853c-1.412,0.038-2.809,2.169-3.163,3.379     c-0.03,0.104-0.321,1.796-0.296,1.792c0,0,0.024-0.004,0.03-0.004c-0.223,0.335-0.458,0.696-0.708,1.096     c-0.454,0.742-0.961,1.585-1.45,2.54c-0.492,0.953-0.999,2.001-1.433,3.154c-0.437,1.155-0.838,2.392-1.086,3.721     c-0.003,0.015-0.004,0.031-0.007,0.046c-0.048-0.411-0.221-1.556-0.244-1.642c-0.328-1.218-1.678-3.379-3.089-3.448     c-1.016-0.049-1.752,0.841-1.7,1.816c0.052,0.996,0.899,1.885,1.68,2.413c0.88,0.595,3.152,0.981,3.333,1.011     c-0.225,1.267-0.352,2.586-0.408,3.927c-0.033,0.767-0.042,1.541-0.041,2.316c-0.053-0.354-0.103-0.67-0.115-0.714     c-0.328-1.218-1.678-3.379-3.089-3.448c-1.017-0.049-1.752,0.841-1.701,1.816c0.052,0.996,0.899,1.885,1.68,2.414     c0.792,0.536,2.722,0.903,3.234,0.993c0.003,0.298,0.003,0.595,0.008,0.892c0.022,1.427,0.05,2.852,0.034,4.25     c-0.005,0.493-0.029,0.978-0.05,1.463c-0.047-0.314-0.09-0.579-0.101-0.618c-0.328-1.218-1.678-3.379-3.089-3.447     c-1.017-0.05-1.752,0.841-1.7,1.816c0.052,0.996,0.899,1.885,1.68,2.413c0.755,0.511,2.534,0.866,3.142,0.977     c-0.037,0.496-0.073,0.993-0.132,1.473c-0.047,0.326-0.07,0.644-0.135,0.969c-0.058,0.323-0.116,0.643-0.173,0.96     c-0.132,0.606-0.265,1.233-0.409,1.821c-0.097,0.41-0.197,0.799-0.297,1.191c0.011-0.491,0.012-1.451,0.003-1.531     c-0.093-0.833-0.57-2.143-1.285-3.013c-0.013-0.123-0.037-0.245-0.072-0.363c-0.282-0.935-1.276-1.523-2.215-1.132     c-1.304,0.543-1.842,3.033-1.738,4.29c0.006,0.074,0.163,0.871,0.27,1.373c-0.108-0.285-0.209-0.563-0.324-0.855     c-0.223-0.579-0.462-1.151-0.717-1.767c-0.134-0.293-0.269-0.589-0.405-0.888c-0.129-0.299-0.303-0.599-0.454-0.902     c-0.366-0.695-0.771-1.382-1.195-2.065c0.507-0.196,2.296-0.918,2.963-1.59c0.664-0.668,1.324-1.704,1.184-2.691     c-0.138-0.967-1.03-1.699-2.018-1.455c-1.371,0.339-2.28,2.719-2.367,3.978c-0.005,0.078,0.033,0.988,0.064,1.488     c-0.258-0.409-0.513-0.818-0.787-1.223c-0.791-1.169-1.628-2.327-2.458-3.487c-0.255-0.355-0.504-0.712-0.755-1.068     c0.181-0.068,2.327-0.881,3.074-1.633c0.664-0.668,1.324-1.704,1.184-2.692c-0.138-0.967-1.03-1.699-2.018-1.455     c-1.371,0.339-2.28,2.719-2.367,3.978c-0.007,0.095,0.051,1.404,0.082,1.736c-0.552-0.785-1.095-1.572-1.599-2.369     c-0.697-1.1-1.32-2.217-1.843-3.345c0.084-0.031,2.327-0.869,3.093-1.64c0.664-0.668,1.324-1.704,1.184-2.691     c-0.138-0.967-1.03-1.699-2.018-1.455c-1.371,0.339-2.28,2.719-2.367,3.977c-0.006,0.083,0.037,1.081,0.069,1.555     c-0.043,0.011-0.035,0.009-0.078,0.019c-0.546-1.215-0.922-2.46-1.216-3.643c-0.172-0.685-0.298-1.349-0.406-1.998     c0.434-0.113,2.41-0.653,3.176-1.27c0.733-0.591,1.503-1.549,1.472-2.545c-0.031-0.976-0.837-1.802-1.846-1.667     c-1.4,0.186-2.565,2.452-2.79,3.693c-0.012,0.067-0.061,0.767-0.089,1.278c-0.044-0.293-0.095-0.596-0.132-0.878     c-0.141-1.059-0.205-2.037-0.254-2.904c-0.024-0.493-0.036-0.94-0.043-1.358c0.368-0.333,1.832-1.695,2.22-2.579     c0.378-0.863,0.621-2.067,0.134-2.937c-0.477-0.852-1.574-1.213-2.407-0.629c-1.157,0.811-1.146,3.358-0.774,4.564     c0.032,0.104,0.722,1.675,0.742,1.658c0,0,0.018-0.016,0.022-0.02c-0.001,0.402,0.002,0.834,0.015,1.304     c0.031,0.87,0.073,1.852,0.192,2.918c0.116,1.066,0.271,2.22,0.545,3.421c0.273,1.205,0.621,2.458,1.147,3.702     c0.006,0.014,0.014,0.028,0.02,0.042c-0.267-0.316-1.043-1.176-1.11-1.235c-0.946-0.835-3.263-1.892-4.478-1.172     c-0.875,0.52-0.997,1.668-0.416,2.453c0.593,0.802,1.79,1.076,2.732,1.086c1.063,0.012,3.17-0.92,3.337-0.995     c0.512,1.181,1.133,2.351,1.826,3.501c0.396,0.658,0.815,1.308,1.244,1.954c-0.24-0.266-0.456-0.502-0.489-0.532     c-0.946-0.835-3.263-1.893-4.478-1.172c-0.875,0.52-0.997,1.668-0.417,2.453c0.593,0.802,1.79,1.077,2.732,1.086     C677.673,343.291,679.486,342.533,679.963,342.326z"
   id="path107" />&#10;		</g>&#10;		<g
   id="g113">&#10;			<path
   style="fill:#263238;"
   d="M60.169,338.337c0.016,0.007,0.152-1.133,0.152-1.206c0.004-0.844-0.485-2.476-1.383-2.769     c-0.647-0.211-1.278,0.233-1.417,0.871c-0.142,0.652,0.247,1.375,0.657,1.853C58.659,337.648,60.168,338.336,60.169,338.337z"
   id="path108" />&#10;			<path
   style="fill:#263238;"
   d="M43.499,340.219c0.711,0.203,2.35-0.056,2.351-0.056c0.017-0.003-0.498-1.028-0.538-1.089     c-0.462-0.706-1.771-1.797-2.682-1.547c-0.656,0.181-0.938,0.9-0.702,1.509C42.169,339.657,42.893,340.046,43.499,340.219z"
   id="path109" />&#10;			<path
   style="fill:#263238;"
   d="M49.39,348.473c0.112,0.165,0.221,0.331,0.334,0.495c0.539,0.788,1.08,1.573,1.587,2.358     c0.179,0.277,0.345,0.556,0.512,0.835c-0.143-0.158-0.264-0.29-0.284-0.308c-0.632-0.558-2.182-1.266-2.995-0.784     c-0.585,0.348-0.667,1.115-0.278,1.64c0.396,0.536,1.197,0.72,1.827,0.726c0.61,0.006,1.733-0.452,2.113-0.614     c0.163,0.29,0.326,0.581,0.47,0.87c0.094,0.199,0.199,0.385,0.282,0.591c0.087,0.202,0.173,0.401,0.258,0.599     c0.15,0.387,0.307,0.786,0.444,1.167c0.097,0.264,0.185,0.518,0.274,0.774c-0.175-0.277-0.528-0.814-0.563-0.855     c-0.54-0.648-1.965-1.582-2.841-1.228c-0.631,0.255-0.828,1.001-0.524,1.579c0.311,0.59,1.075,0.893,1.696,0.995     c0.684,0.112,2.115-0.268,2.294-0.317c0.146,0.423,0.284,0.836,0.408,1.228c0.327,1.027,0.583,1.931,0.777,2.66h0.645     c-0.218-0.76-0.509-1.722-0.891-2.835c-0.146-0.43-0.312-0.887-0.485-1.355c0.103-0.058,0.69-0.393,1.199-0.775     c0.549,0.454,1.859,0.896,2.028,0.952c-0.112,0.433-0.225,0.854-0.337,1.249c-0.311,1.098-0.611,2.03-0.859,2.764h0.652     c0.223-0.717,0.481-1.595,0.747-2.617c0.115-0.44,0.23-0.912,0.342-1.398c0.181,0.013,1.662,0.111,2.313-0.131     c0.59-0.22,1.281-0.664,1.473-1.303c0.187-0.626-0.15-1.32-0.818-1.449c-0.928-0.178-2.146,1.012-2.552,1.752     c-0.024,0.044-0.231,0.546-0.356,0.865c0.045-0.199,0.091-0.391,0.135-0.596c0.09-0.405,0.167-0.812,0.252-1.25     c0.034-0.213,0.068-0.428,0.102-0.645c0.039-0.215,0.052-0.446,0.079-0.671c0.052-0.523,0.08-1.055,0.096-1.593     c0.355,0.077,1.62,0.335,2.24,0.206c0.617-0.128,1.367-0.462,1.653-1.065c0.28-0.59,0.052-1.328-0.589-1.556     c-0.89-0.317-2.275,0.676-2.788,1.345c-0.032,0.042-0.346,0.564-0.513,0.854c0.007-0.323,0.016-0.645,0.012-0.972     c-0.01-0.944-0.049-1.899-0.085-2.852c-0.011-0.292-0.018-0.583-0.027-0.874c0.126,0.029,1.623,0.367,2.317,0.223     c0.617-0.128,1.367-0.462,1.653-1.065c0.28-0.59,0.052-1.328-0.589-1.556c-0.89-0.317-2.275,0.676-2.788,1.345     c-0.039,0.05-0.489,0.802-0.595,0.999c-0.019-0.641-0.031-1.281-0.018-1.911c0.017-0.871,0.082-1.724,0.206-2.545     c0.059,0.014,1.619,0.374,2.33,0.227c0.617-0.128,1.367-0.462,1.653-1.065c0.28-0.59,0.052-1.328-0.589-1.556     c-0.89-0.317-2.275,0.676-2.788,1.345c-0.034,0.044-0.378,0.616-0.535,0.892c-0.028-0.01-0.023-0.008-0.051-0.018     c0.143-0.879,0.393-1.712,0.665-2.48c0.157-0.445,0.331-0.862,0.511-1.264c0.284,0.097,1.585,0.525,2.24,0.463     c0.627-0.059,1.41-0.309,1.76-0.876c0.343-0.556,0.198-1.314-0.415-1.611c-0.85-0.413-2.335,0.422-2.919,1.031     c-0.032,0.033-0.317,0.406-0.521,0.68c0.084-0.18,0.167-0.367,0.25-0.538c0.312-0.643,0.637-1.212,0.93-1.714     c0.169-0.284,0.326-0.537,0.477-0.773c0.328-0.05,1.647-0.269,2.19-0.619c0.529-0.342,1.109-0.924,1.158-1.589     c0.048-0.651-0.43-1.257-1.11-1.239c-0.944,0.025-1.878,1.45-2.115,2.26c-0.02,0.07-0.215,1.201-0.198,1.198     c0,0,0.016-0.002,0.02-0.003c-0.149,0.224-0.306,0.465-0.473,0.733c-0.304,0.496-0.642,1.06-0.97,1.699     c-0.329,0.637-0.668,1.338-0.958,2.109c-0.292,0.772-0.56,1.6-0.726,2.488c-0.002,0.01-0.003,0.021-0.004,0.031     c-0.032-0.275-0.148-1.04-0.163-1.098c-0.219-0.815-1.122-2.26-2.066-2.306c-0.68-0.033-1.171,0.563-1.137,1.215     c0.035,0.666,0.601,1.261,1.123,1.614c0.589,0.398,2.108,0.656,2.229,0.676c-0.15,0.848-0.235,1.729-0.273,2.626     c-0.022,0.513-0.028,1.03-0.027,1.549c-0.035-0.237-0.069-0.448-0.077-0.477c-0.219-0.815-1.122-2.26-2.065-2.306     c-0.68-0.033-1.172,0.562-1.137,1.214c0.035,0.666,0.601,1.261,1.123,1.614c0.529,0.358,1.82,0.604,2.163,0.664     c0.002,0.199,0.002,0.398,0.005,0.597c0.014,0.955,0.033,1.908,0.023,2.842c-0.003,0.33-0.019,0.654-0.033,0.979     c-0.032-0.21-0.06-0.387-0.067-0.414c-0.219-0.815-1.122-2.26-2.066-2.306c-0.68-0.033-1.171,0.562-1.137,1.214     c0.035,0.666,0.602,1.261,1.123,1.614c0.505,0.342,1.695,0.579,2.101,0.653c-0.025,0.332-0.049,0.664-0.088,0.985     c-0.032,0.218-0.047,0.431-0.091,0.648c-0.039,0.216-0.077,0.43-0.116,0.642c-0.089,0.406-0.177,0.825-0.273,1.218     c-0.065,0.274-0.132,0.534-0.198,0.796c0.007-0.328,0.008-0.97,0.002-1.024c-0.062-0.557-0.381-1.433-0.859-2.015     c-0.009-0.082-0.025-0.163-0.048-0.243c-0.189-0.625-0.853-1.019-1.482-0.757c-0.872,0.363-1.232,2.028-1.162,2.869     c0.004,0.05,0.109,0.583,0.181,0.918c-0.072-0.191-0.14-0.377-0.217-0.572c-0.149-0.388-0.309-0.77-0.479-1.181     c-0.089-0.196-0.18-0.394-0.271-0.594c-0.086-0.2-0.203-0.401-0.304-0.603c-0.245-0.465-0.516-0.924-0.799-1.381     c0.339-0.131,1.535-0.614,1.982-1.063c0.444-0.447,0.886-1.14,0.792-1.8c-0.092-0.646-0.689-1.136-1.35-0.973     c-0.917,0.227-1.525,1.818-1.583,2.66c-0.004,0.053,0.022,0.661,0.043,0.995c-0.172-0.273-0.343-0.547-0.526-0.818     c-0.529-0.782-1.089-1.556-1.644-2.332c-0.17-0.237-0.337-0.476-0.505-0.714c0.121-0.045,1.556-0.589,2.056-1.092     c0.444-0.447,0.886-1.14,0.792-1.8c-0.092-0.646-0.689-1.136-1.35-0.973c-0.917,0.227-1.525,1.819-1.583,2.66     c-0.004,0.063,0.034,0.939,0.055,1.161c-0.369-0.525-0.733-1.051-1.069-1.585c-0.466-0.736-0.882-1.483-1.232-2.237     c0.056-0.021,1.557-0.582,2.068-1.097c0.444-0.447,0.886-1.14,0.792-1.8c-0.092-0.647-0.689-1.136-1.35-0.973     c-0.917,0.227-1.525,1.819-1.583,2.66c-0.004,0.055,0.025,0.723,0.046,1.04c-0.029,0.007-0.024,0.006-0.052,0.013     c-0.365-0.812-0.617-1.645-0.814-2.436c-0.115-0.458-0.199-0.902-0.271-1.336c0.29-0.076,1.612-0.436,2.124-0.849     c0.491-0.396,1.005-1.036,0.985-1.702c-0.021-0.653-0.56-1.205-1.235-1.115c-0.936,0.124-1.715,1.64-1.866,2.47     c-0.008,0.045-0.041,0.513-0.059,0.854c-0.03-0.196-0.064-0.398-0.088-0.587c-0.094-0.708-0.137-1.362-0.17-1.942     c-0.016-0.33-0.024-0.628-0.029-0.908c0.246-0.223,1.225-1.133,1.485-1.725c0.253-0.577,0.415-1.382,0.089-1.964     c-0.319-0.57-1.052-0.811-1.61-0.421c-0.774,0.542-0.767,2.246-0.518,3.052c0.022,0.07,0.483,1.12,0.496,1.109     c0,0,0.012-0.011,0.015-0.013c-0.001,0.269,0.001,0.557,0.01,0.872c0.021,0.582,0.049,1.239,0.128,1.952     c0.077,0.713,0.181,1.485,0.365,2.288c0.182,0.806,0.415,1.644,0.767,2.476c0.004,0.009,0.009,0.019,0.013,0.028     c-0.178-0.211-0.697-0.786-0.742-0.826c-0.632-0.558-2.182-1.266-2.995-0.784c-0.585,0.348-0.667,1.115-0.278,1.64     c0.396,0.536,1.197,0.72,1.827,0.726c0.711,0.008,2.12-0.616,2.232-0.666c0.342,0.79,0.757,1.572,1.221,2.341     c0.265,0.44,0.545,0.875,0.832,1.307c-0.16-0.178-0.305-0.336-0.327-0.356c-0.632-0.559-2.182-1.266-2.995-0.784     c-0.585,0.347-0.667,1.115-0.279,1.64c0.396,0.536,1.197,0.72,1.827,0.726C47.859,349.119,49.071,348.612,49.39,348.473z"
   id="path110" />&#10;			<path
   style="opacity:0.3;fill:#263238;"
   d="M43.499,340.219c0.711,0.203,2.35-0.056,2.351-0.056     c0.017-0.003-0.498-1.028-0.538-1.089c-0.462-0.706-1.771-1.797-2.682-1.547c-0.656,0.181-0.938,0.9-0.702,1.509     C42.169,339.657,42.893,340.046,43.499,340.219z"
   id="path111" />&#10;			<path
   style="opacity:0.3;fill:#263238;"
   d="M60.169,338.337c0.016,0.007,0.152-1.133,0.152-1.206     c0.004-0.844-0.485-2.476-1.383-2.769c-0.647-0.211-1.278,0.233-1.417,0.871c-0.142,0.652,0.247,1.375,0.657,1.853     C58.659,337.648,60.168,338.336,60.169,338.337z"
   id="path112" />&#10;			<path
   style="opacity:0.3;fill:#263238;"
   d="M49.39,348.473c0.112,0.165,0.221,0.331,0.334,0.495     c0.539,0.788,1.08,1.573,1.587,2.358c0.179,0.277,0.345,0.556,0.512,0.835c-0.143-0.158-0.264-0.29-0.284-0.308     c-0.632-0.558-2.182-1.266-2.995-0.784c-0.585,0.348-0.667,1.115-0.278,1.64c0.396,0.536,1.197,0.72,1.827,0.726     c0.61,0.006,1.733-0.452,2.113-0.614c0.163,0.29,0.326,0.581,0.47,0.87c0.094,0.199,0.199,0.385,0.282,0.591     c0.087,0.202,0.173,0.401,0.258,0.599c0.15,0.387,0.307,0.786,0.444,1.167c0.097,0.264,0.185,0.518,0.274,0.774     c-0.175-0.277-0.528-0.814-0.563-0.855c-0.54-0.648-1.965-1.582-2.841-1.228c-0.631,0.255-0.828,1.001-0.524,1.579     c0.311,0.59,1.075,0.893,1.696,0.995c0.684,0.112,2.115-0.268,2.294-0.317c0.146,0.423,0.284,0.836,0.408,1.228     c0.327,1.027,0.583,1.931,0.777,2.66h0.645c-0.218-0.76-0.509-1.722-0.891-2.835c-0.146-0.43-0.312-0.887-0.485-1.355     c0.103-0.058,0.69-0.393,1.199-0.775c0.549,0.454,1.859,0.896,2.028,0.952c-0.112,0.433-0.225,0.854-0.337,1.249     c-0.311,1.098-0.611,2.03-0.859,2.764h0.652c0.223-0.717,0.481-1.595,0.747-2.617c0.115-0.44,0.23-0.912,0.342-1.398     c0.181,0.013,1.662,0.111,2.313-0.131c0.59-0.22,1.281-0.664,1.473-1.303c0.187-0.626-0.15-1.32-0.818-1.449     c-0.928-0.178-2.146,1.012-2.552,1.752c-0.024,0.044-0.231,0.546-0.356,0.865c0.045-0.199,0.091-0.391,0.135-0.596     c0.09-0.405,0.167-0.812,0.252-1.25c0.034-0.213,0.068-0.428,0.102-0.645c0.039-0.215,0.052-0.446,0.079-0.671     c0.052-0.523,0.08-1.055,0.096-1.593c0.355,0.077,1.62,0.335,2.24,0.206c0.617-0.128,1.367-0.462,1.653-1.065     c0.28-0.59,0.052-1.328-0.589-1.556c-0.89-0.317-2.275,0.676-2.788,1.345c-0.032,0.042-0.346,0.564-0.513,0.854     c0.007-0.323,0.016-0.645,0.012-0.972c-0.01-0.944-0.049-1.899-0.085-2.852c-0.011-0.292-0.018-0.583-0.027-0.874     c0.126,0.029,1.623,0.367,2.317,0.223c0.617-0.128,1.367-0.462,1.653-1.065c0.28-0.59,0.052-1.328-0.589-1.556     c-0.89-0.317-2.275,0.676-2.788,1.345c-0.039,0.05-0.489,0.802-0.595,0.999c-0.019-0.641-0.031-1.281-0.018-1.911     c0.017-0.871,0.082-1.724,0.206-2.545c0.059,0.014,1.619,0.374,2.33,0.227c0.617-0.128,1.367-0.462,1.653-1.065     c0.28-0.59,0.052-1.328-0.589-1.556c-0.89-0.317-2.275,0.676-2.788,1.345c-0.034,0.044-0.378,0.616-0.535,0.892     c-0.028-0.01-0.023-0.008-0.051-0.018c0.143-0.879,0.393-1.712,0.665-2.48c0.157-0.445,0.331-0.862,0.511-1.264     c0.284,0.097,1.585,0.525,2.24,0.463c0.627-0.059,1.41-0.309,1.76-0.876c0.343-0.556,0.198-1.314-0.415-1.611     c-0.85-0.413-2.335,0.422-2.919,1.031c-0.032,0.033-0.317,0.406-0.521,0.68c0.084-0.18,0.167-0.367,0.25-0.538     c0.312-0.643,0.637-1.212,0.93-1.714c0.169-0.284,0.326-0.537,0.477-0.773c0.328-0.05,1.647-0.269,2.19-0.619     c0.529-0.342,1.109-0.924,1.158-1.589c0.048-0.651-0.43-1.257-1.11-1.239c-0.944,0.025-1.878,1.45-2.115,2.26     c-0.02,0.07-0.215,1.201-0.198,1.198c0,0,0.016-0.002,0.02-0.003c-0.149,0.224-0.306,0.465-0.473,0.733     c-0.304,0.496-0.642,1.06-0.97,1.699c-0.329,0.637-0.668,1.338-0.958,2.109c-0.292,0.772-0.56,1.6-0.726,2.488     c-0.002,0.01-0.003,0.021-0.004,0.031c-0.032-0.275-0.148-1.04-0.163-1.098c-0.219-0.815-1.122-2.26-2.066-2.306     c-0.68-0.033-1.171,0.563-1.137,1.215c0.035,0.666,0.601,1.261,1.123,1.614c0.589,0.398,2.108,0.656,2.229,0.676     c-0.15,0.848-0.235,1.729-0.273,2.626c-0.022,0.513-0.028,1.03-0.027,1.549c-0.035-0.237-0.069-0.448-0.077-0.477     c-0.219-0.815-1.122-2.26-2.065-2.306c-0.68-0.033-1.172,0.562-1.137,1.214c0.035,0.666,0.601,1.261,1.123,1.614     c0.529,0.358,1.82,0.604,2.163,0.664c0.002,0.199,0.002,0.398,0.005,0.597c0.014,0.955,0.033,1.908,0.023,2.842     c-0.003,0.33-0.019,0.654-0.033,0.979c-0.032-0.21-0.06-0.387-0.067-0.414c-0.219-0.815-1.122-2.26-2.066-2.306     c-0.68-0.033-1.171,0.562-1.137,1.214c0.035,0.666,0.602,1.261,1.123,1.614c0.505,0.342,1.695,0.579,2.101,0.653     c-0.025,0.332-0.049,0.664-0.088,0.985c-0.032,0.218-0.047,0.431-0.091,0.648c-0.039,0.216-0.077,0.43-0.116,0.642     c-0.089,0.406-0.177,0.825-0.273,1.218c-0.065,0.274-0.132,0.534-0.198,0.796c0.007-0.328,0.008-0.97,0.002-1.024     c-0.062-0.557-0.381-1.433-0.859-2.015c-0.009-0.082-0.025-0.163-0.048-0.243c-0.189-0.625-0.853-1.019-1.482-0.757     c-0.872,0.363-1.232,2.028-1.162,2.869c0.004,0.05,0.109,0.583,0.181,0.918c-0.072-0.191-0.14-0.377-0.217-0.572     c-0.149-0.388-0.309-0.77-0.479-1.181c-0.089-0.196-0.18-0.394-0.271-0.594c-0.086-0.2-0.203-0.401-0.304-0.603     c-0.245-0.465-0.516-0.924-0.799-1.381c0.339-0.131,1.535-0.614,1.982-1.063c0.444-0.447,0.886-1.14,0.792-1.8     c-0.092-0.646-0.689-1.136-1.35-0.973c-0.917,0.227-1.525,1.818-1.583,2.66c-0.004,0.053,0.022,0.661,0.043,0.995     c-0.172-0.273-0.343-0.547-0.526-0.818c-0.529-0.782-1.089-1.556-1.644-2.332c-0.17-0.237-0.337-0.476-0.505-0.714     c0.121-0.045,1.556-0.589,2.056-1.092c0.444-0.447,0.886-1.14,0.792-1.8c-0.092-0.646-0.689-1.136-1.35-0.973     c-0.917,0.227-1.525,1.819-1.583,2.66c-0.004,0.063,0.034,0.939,0.055,1.161c-0.369-0.525-0.733-1.051-1.069-1.585     c-0.466-0.736-0.882-1.483-1.232-2.237c0.056-0.021,1.557-0.582,2.068-1.097c0.444-0.447,0.886-1.14,0.792-1.8     c-0.092-0.647-0.689-1.136-1.35-0.973c-0.917,0.227-1.525,1.819-1.583,2.66c-0.004,0.055,0.025,0.723,0.046,1.04     c-0.029,0.007-0.024,0.006-0.052,0.013c-0.365-0.812-0.617-1.645-0.814-2.436c-0.115-0.458-0.199-0.902-0.271-1.336     c0.29-0.076,1.612-0.436,2.124-0.849c0.491-0.396,1.005-1.036,0.985-1.702c-0.021-0.653-0.56-1.205-1.235-1.115     c-0.936,0.124-1.715,1.64-1.866,2.47c-0.008,0.045-0.041,0.513-0.059,0.854c-0.03-0.196-0.064-0.398-0.088-0.587     c-0.094-0.708-0.137-1.362-0.17-1.942c-0.016-0.33-0.024-0.628-0.029-0.908c0.246-0.223,1.225-1.133,1.485-1.725     c0.253-0.577,0.415-1.382,0.089-1.964c-0.319-0.57-1.052-0.811-1.61-0.421c-0.774,0.542-0.767,2.246-0.518,3.052     c0.022,0.07,0.483,1.12,0.496,1.109c0,0,0.012-0.011,0.015-0.013c-0.001,0.269,0.001,0.557,0.01,0.872     c0.021,0.582,0.049,1.239,0.128,1.952c0.077,0.713,0.181,1.485,0.365,2.288c0.182,0.806,0.415,1.644,0.767,2.476     c0.004,0.009,0.009,0.019,0.013,0.028c-0.178-0.211-0.697-0.786-0.742-0.826c-0.632-0.558-2.182-1.266-2.995-0.784     c-0.585,0.348-0.667,1.115-0.278,1.64c0.396,0.536,1.197,0.72,1.827,0.726c0.711,0.008,2.12-0.616,2.232-0.666     c0.342,0.79,0.757,1.572,1.221,2.341c0.265,0.44,0.545,0.875,0.832,1.307c-0.16-0.178-0.305-0.336-0.327-0.356     c-0.632-0.559-2.182-1.266-2.995-0.784c-0.585,0.347-0.667,1.115-0.279,1.64c0.396,0.536,1.197,0.72,1.827,0.726     C47.859,349.119,49.071,348.612,49.39,348.473z"
   id="path113" />&#10;		</g>&#10;	</g>&#10;</g>&#10;<path
   style="fill:#263238;stroke:#263238;stroke-linecap:round;stroke-linejoin:round;stroke-miterlimit:10"
   d="m 512.159,423.216 c 0,2.743 -16.935,4.967 -37.826,4.967 -20.891,0 -37.826,-2.224 -37.826,-4.967 0,-2.743 16.935,-4.967 37.826,-4.967 20.89,0 37.826,2.224 37.826,4.967 z"
   id="path114" /><path
   style="fill:#ffffff;stroke:#263238;stroke-linecap:round;stroke-linejoin:round;stroke-miterlimit:10"
   d="m 479.304,373.828 c 0,0 -25.239,20.639 -30.48,29.605 -5.241,8.966 -5.019,16.035 -3.047,18.389 1.972,2.354 16.671,3.273 21.466,2.087 4.795,-1.186 11.438,-3.983 19.928,-8.392 8.491,-4.409 14.956,-7.373 17.391,-6.759 2.435,0.614 2.167,8.561 2.043,10.118 -0.124,1.557 -3.728,2.188 -3.852,3.745 -0.124,1.557 -0.646,1.401 6.25,1.184 6.896,-0.216 8.394,-1.989 8.641,-5.103 0.247,-3.114 -0.578,-7.403 0.182,-10.706 0.759,-3.303 2.003,-7.656 0.688,-11.067 -1.315,-3.41 -4.085,-3.669 -4.085,-3.669 0,0 -14.769,-3.16 -21.116,-7.448 -6.347,-4.288 -14.009,-11.984 -14.009,-11.984 z"
   id="path115" /><path
   style="fill:#ffffff;stroke:#263238;stroke-linecap:round;stroke-linejoin:round;stroke-miterlimit:10"
   d="m 518.515,396.931 c -0.151,-0.39 -0.322,-0.735 -0.504,-1.047 l -17.803,6.109 c 0,0 1.506,3.64 1.599,6.999 1.174,-0.3 2.11,-0.395 2.755,-0.233 2.435,0.614 2.167,8.561 2.043,10.118 -0.124,1.557 -3.728,2.188 -3.852,3.745 -0.124,1.557 -0.646,1.401 6.25,1.184 6.896,-0.217 8.394,-1.989 8.641,-5.103 0.247,-3.114 -0.578,-7.403 0.182,-10.706 0.76,-3.302 2.004,-7.656 0.689,-11.066 z"
   id="path116" /><path
   style="fill:#ffffff;stroke:#263238;stroke-linecap:round;stroke-linejoin:round;stroke-miterlimit:10"
   d="m 517.645,418.704 c 0.247,-3.114 -0.578,-7.403 0.182,-10.706 0.759,-3.303 2.003,-7.656 0.688,-11.067 -1.315,-3.41 -4.084,-3.669 -4.084,-3.669 0,0 -0.953,-0.204 -2.474,-0.578 -2.529,1.093 -6.093,3.318 -6.959,7.95 0,0 1.094,1.864 1.159,3.933 0.065,2.069 -1.594,4.192 -1.594,4.192 2.435,0.614 2.167,8.561 2.043,10.118 -0.124,1.557 -3.728,2.188 -3.852,3.745 -0.124,1.557 -0.646,1.401 6.25,1.184 6.896,-0.217 8.394,-1.988 8.641,-5.102 z"
   id="path117" /><path
   style="fill:none;stroke:#263238;stroke-linecap:round;stroke-linejoin:round;stroke-miterlimit:10"
   d="m 513.008,397.449 c 0,0 -32.223,12.575 -42.643,16.008"
   id="path118" /><path
   style="fill:#263238;stroke:#263238;stroke-linecap:round;stroke-linejoin:round;stroke-miterlimit:10"
   d="m 495.087,387.312 c 0,0 2.933,10.953 1.037,16.535 L 515.206,396 Z"
   id="path119" /><path
   style="fill:#263238;stroke:#263238;stroke-linecap:round;stroke-linejoin:round;stroke-miterlimit:10"
   d="m 524.339,357.055 c 0,0 6.548,10.667 5.375,22.784 -1.173,12.117 -12.557,17.825 -16.705,17.61 -4.149,-0.215 -16.397,-11.048 -18.978,-16.317 -2.582,-5.269 6.548,-22.296 6.548,-22.296 z"
   id="path120" /><path
   style="fill:#ffffff;stroke:#263238;stroke-linecap:round;stroke-linejoin:round;stroke-miterlimit:10"
   d="m 524.09,354.647 c -0.943,-2.559 -5.115,-14.509 -14.755,-24.734 -9.64,-10.225 -21.829,-19.161 -34.157,-21.536 -12.328,-2.374 -16.594,4.663 -17.752,6.253 -1.158,1.589 -16.97,14.684 -16.97,14.684 l -10.48,28.977 -19.625,25.611 c 0,0 -14.164,5.104 -14.81,6.505 -0.318,0.689 -1.09,2.856 -1.605,4.975 l -0.312,-0.083 -1.681,1.434 c 0,0 -0.861,5.55 -0.662,6.406 0.199,0.857 10.734,6.566 11.429,6.717 0.695,0.151 1.202,-0.21 0.296,-1.563 -0.905,-1.352 -3.228,-3.868 -3.228,-3.868 0,0 4.176,1.077 5.032,0.878 0.857,-0.199 1.352,-0.905 0.646,-1.401 -0.706,-0.496 -4.37,-1.761 -4.37,-1.761 0,0 4.299,-0.48 4.989,-0.502 0.69,-0.022 1.859,-1.266 0.291,-1.735 -0.892,-0.267 -2.055,-0.633 -2.902,-0.901 3.663,-0.845 7.217,-1.993 8.3,-3.065 2.343,-2.317 5.268,-8.104 5.268,-8.104 0,0 22.035,-20.336 23.51,-22.799 1.476,-2.462 12.519,-19.032 12.519,-19.032 0,0 5.231,-3.788 6.966,-3.498 1.735,0.291 28.532,23.783 31.485,24.381 2.953,0.598 23.297,-0.041 29.013,-4.88 5.715,-4.838 4.509,-4.8 3.565,-7.359 z"
   id="path121" /><path
   style="fill:#13bfa1;stroke:#263238;stroke-linecap:round;stroke-linejoin:round;stroke-miterlimit:10;fill-opacity:1"
   d="m 509.335,329.913 c -9.64,-10.225 -21.829,-19.161 -34.157,-21.536 -12.328,-2.374 -16.594,4.663 -17.752,6.253 -1.158,1.589 -16.97,14.684 -16.97,14.684 l -6.034,16.682 15.23,5.134 c 1.938,-2.919 3.408,-5.126 3.408,-5.126 0,0 5.231,-3.788 6.966,-3.498 1.735,0.291 28.532,23.783 31.485,24.381 2.953,0.598 23.297,-0.041 29.013,-4.88 5.716,-4.839 4.509,-4.801 3.566,-7.36 -0.943,-2.56 -5.115,-14.509 -14.755,-24.734 z"
   id="path122" /><g
   id="g126">&#10;				<g
   id="g125">&#10;					<path
   style="fill:#ffffff;stroke:#263238;stroke-linecap:round;stroke-linejoin:round;stroke-miterlimit:10"
   d="m 428.489,321.924 c 0,0 0.943,2.559 1.38,5.479 0.437,2.92 4.639,-0.663 4.639,-0.663 0,0 7.781,5.969 10.345,5.198 2.564,-0.771 5.139,-6.719 5.139,-6.719 0,0 4.052,2.634 5.297,3.803 1.245,1.169 2.15,2.521 2.672,-2.845 0.522,-5.366 1.733,-10.754 2.062,-11.283 0.329,-0.528 2.806,-4.057 2.806,-4.057 0,0 -5.103,-3.119 -7.997,-7.342 -2.894,-4.224 -6.742,-11.351 -6.742,-11.351 0,0 -17.089,10.891 -18.699,14.566 -1.61,3.673 -0.902,15.214 -0.902,15.214 z"
   id="path123" />&#10;					<path
   style="fill:#263238;stroke:#263238;stroke-linecap:round;stroke-linejoin:round;stroke-miterlimit:10"
   d="m 429.692,326.369 c 1.784,-1.306 3.947,-3.117 5.307,-5.015 l 1.435,-15.729 -2.849,-3.232 c -2.12,1.734 -3.748,3.301 -4.193,4.316 -1.61,3.675 -0.903,15.215 -0.903,15.215 0,0 0.73,1.981 1.203,4.445 z"
   id="path124" />&#10;					<path
   style="fill:#263238;stroke:#263238;stroke-linecap:round;stroke-linejoin:round;stroke-miterlimit:10"
   d="m 451.89,317.992 -7.037,13.945 c 2.564,-0.771 5.139,-6.719 5.139,-6.719 0,0 4.052,2.634 5.297,3.803 0.649,0.609 1.204,1.259 1.662,0.991 z"
   id="path125" />&#10;				</g>&#10;				<path
   style="fill:#263238;stroke:#263238;stroke-linecap:round;stroke-linejoin:round;stroke-miterlimit:10"
   d="m 437.926,303.679 c 0,0 3.056,3.873 4.446,4.175 1.39,0.302 0.193,-4.838 2.968,-4.408 2.775,0.431 5.771,2.408 5.513,5.177 -0.258,2.769 -3.006,3.201 -3.006,3.201 0,0 2.662,2.333 7.473,1.664 4.811,-0.669 10.913,-6.255 9.182,-11.896 -1.73,-5.641 -11.556,-8.739 -11.556,-8.739 l -5.829,1.218 -10.44,8.267 z"
   id="path126" />&#10;			</g><path
   style="fill:#13bfa1;stroke:#263238;stroke-linecap:round;stroke-linejoin:round;stroke-miterlimit:10;fill-opacity:1"
   d="m 417.625,311.22 c 0,0 -6.841,12.986 -5.941,14.166 0.9,1.18 8.184,2.332 11.449,1.884 3.265,-0.448 7.823,-3.697 10.386,-9.991 2.564,-6.293 2.913,-11.654 2.913,-11.654 l 16.512,-12.772 c 0,0 -3.585,-4.41 -6.608,-7.249 -3.023,-2.839 -9.229,-7.959 -15.489,-3.966 -6.26,3.993 -16.334,12.939 -17.556,17.982 -1.222,5.043 4.334,11.6 4.334,11.6 z"
   id="path127" /><path
   style="fill:#ffffff;stroke:#263238;stroke-linecap:round;stroke-linejoin:round;stroke-miterlimit:10"
   d="m 466.577,331.255 c 0,0 -10.555,-0.877 -12.096,-0.483 -1.541,0.393 -2.171,2.312 -1.982,2.823 0.189,0.512 0.216,1.374 0.216,1.374 0,0 -1.616,3.502 -1.212,5.388 0.404,1.886 3.206,3.178 3.206,3.178 0,0 3.249,-0.965 5.318,-1.03 2.069,-0.065 6.756,0.823 6.756,0.823 0,0 -2.037,-4.423 -0.696,-5.673 1.341,-1.25 4.434,-1.692 4.434,-1.692 z"
   id="path128" /><path
   style="fill:#263238;stroke:#263238;stroke-linecap:round;stroke-linejoin:round;stroke-miterlimit:10"
   d="m 517.93,378.311 c 0,0 -23.974,-21.51 -38.409,-30.549 -14.435,-9.039 -23.481,-9.29 -27.446,-0.174 -4.185,9.623 1.848,36.874 1.935,39.633 0.087,2.759 -0.918,25.743 -0.918,25.743 l 4.709,1.578 6.702,-0.901 c 0,0 0.175,-16.401 3.38,-24.267 3.205,-7.867 4.221,-19.461 4.221,-19.461 0,0 17.978,28.429 39.546,28.27 21.568,-0.159 17.717,-23.855 17.717,-23.855"
   id="path129" /><path
   style="fill:#ffffff;stroke:#263238;stroke-linecap:round;stroke-linejoin:round;stroke-miterlimit:10"
   d="m 479.521,347.762 c -14.435,-9.039 -23.482,-9.29 -27.446,-0.174 -4.185,9.623 1.848,36.874 1.935,39.633 0.087,2.759 -0.918,25.743 -0.918,25.743 l 4.709,1.578 6.702,-0.901 c 0,0 0.175,-16.401 3.38,-24.267 3.205,-7.867 4.221,-19.461 4.221,-19.461 0,0 4.665,7.367 12.086,14.58 2.132,-1.326 6.387,-4.518 10.808,-10.984 2.899,-4.24 4.712,-7.512 5.834,-9.818 -7.086,-5.812 -15.085,-12.03 -21.311,-15.929 z"
   id="path130" /><path
   style="fill:#ffffff;stroke:#263238;stroke-linecap:round;stroke-linejoin:round;stroke-miterlimit:10"
   d="m 464.504,413.641 c 0,0 0.048,-4.342 0.529,-9.627 -5.474,0.678 -9.149,0.009 -11.527,-0.922 -0.213,5.305 -0.413,9.872 -0.413,9.872 l 4.709,1.578 z"
   id="path131" /><line
   style="fill:none;stroke:#263238;stroke-linecap:round;stroke-linejoin:round;stroke-miterlimit:10"
   x1="472.10501"
   y1="369.91299"
   x2="463.41299"
   y2="356.897"
   id="line131" /><path
   style="fill:#ffffff;stroke:#263238;stroke-linecap:round;stroke-linejoin:round;stroke-miterlimit:10"
   d="m 465.78,410.322 c 0,0 -3.265,0.448 -5.334,0.513 -2.069,0.065 -3.287,-0.242 -3.287,-0.242 0,0 -2.765,-5.608 -4.93,-3.124 -2.166,2.484 -4.363,9.456 -5.877,10.712 -1.514,1.255 -9.18,4.43 -12.251,5.562 -3.071,1.132 -4.768,2.048 -4.013,4.095 0.755,2.047 5.264,2.769 12.005,3.075 6.74,0.306 18.809,-0.073 18.809,-0.073 0,0 5.829,-1.219 5.883,-5.017 0.053,-3.798 -0.626,-8.954 -0.648,-9.644 -0.022,-0.69 -0.357,-5.857 -0.357,-5.857 z"
   id="path132" /><g
   id="g134">&#10;				<path
   style="fill:#ffffff;stroke:#263238;stroke-linecap:round;stroke-linejoin:round;stroke-miterlimit:10"
   d="m 398.6,383.409 -2.826,19.935 c 0,0 -1.982,2.823 -2.289,4.041 -0.307,1.218 -2.654,14.408 -2.654,14.408 l 4.677,0.543 c 0,0 3.258,-11.665 2.665,-14.063 -0.593,-2.398 -1.154,-3.76 -1.154,-3.76 l 3.65,-21.169 c -10e-4,0 -0.227,-1.719 -2.069,0.065 z"
   id="path133" />&#10;				<path
   style="fill:#263238;stroke:#263238;stroke-linecap:round;stroke-linejoin:round;stroke-miterlimit:10"
   d="m 397.912,412.055 -4.881,-2.388 c -0.774,4.111 -2.201,12.126 -2.201,12.126 l 4.677,0.543 c 0,0 1.677,-6.003 2.405,-10.281 z"
   id="path134" />&#10;			</g><path
   style="fill:#ffffff;stroke:#263238;stroke-linecap:round;stroke-linejoin:round;stroke-miterlimit:10"
   d="m 403.789,389.286 c 0,0 -2.828,3.368 -3.302,4.763 -0.474,1.396 -3.878,8.406 -3.005,8.723 0.873,0.318 3.588,-1.148 4.256,-1.86 0.668,-0.711 2.941,-5.27 2.941,-5.27 0,0 5.189,0.355 7.656,-3.519"
   id="path135" /><path
   style="fill:#ffffff;stroke:#263238;stroke-linecap:round;stroke-linejoin:round;stroke-miterlimit:10"
   d="m 395.54,390.408 c 0,0 -3.981,5.13 -3.598,6.326 0.383,1.196 3.45,10.937 4.306,10.737 0.857,-0.199 1.546,-0.221 0.77,-2.958 -0.776,-2.737 -1.267,-7.381 -1.267,-7.381 l 1.088,-3.831"
   id="path136" /><path
   style="fill:#13bfa1;stroke:#263238;stroke-linecap:round;stroke-linejoin:round;stroke-miterlimit:10;fill-opacity:1"
   d="m 464.278,340.474 c 0,0 1.886,-0.404 3.685,1.955 1.8,2.36 7.728,9.767 12.54,14.621 4.812,4.854 15.103,8.327 18.648,5.8 3.545,-2.527 -0.159,-16.045 -2.325,-19.083 -2.166,-3.038 -20.849,-26.44 -20.849,-26.44"
   id="path137" /><path
   style="fill:#13bfa1;stroke:#263238;stroke-linecap:round;stroke-linejoin:round;stroke-miterlimit:10;fill-opacity:1"
   d="m 475.841,308.603 c 0,0 -13.849,-4.443 -17.231,5.418 -2.338,6.818 11.93,23.09 11.93,23.09"
   id="path138" /><path
   style="fill:#ffffff;stroke:#263238;stroke-linecap:round;stroke-linejoin:round;stroke-miterlimit:10"
   d="m 463.268,338.467 c 0.015,1.262 1.01,2.007 1.01,2.007 0,0 1.664,0.453 3.464,2.812 1.8,2.36 7.565,9.324 12.761,13.764 6.359,5.433 15.103,8.327 18.648,5.8 3.545,-2.527 -0.159,-16.045 -2.325,-19.083 -0.933,-1.308 -4.929,-6.393 -9.176,-11.759 l -13.685,9.197 -6.582,-8.081"
   id="path139" /><path
   style="fill:none;stroke:#263238;stroke-linecap:round;stroke-linejoin:round;stroke-miterlimit:10"
   d="m 473.965,341.206 c 0,0 10.799,14.158 14.63,15.246"
   id="path140" />&#10;<ellipse
   style="fill:#263238;stroke:#263238;stroke-linecap:round;stroke-linejoin:round;stroke-miterlimit:10"
   cx="263.18201"
   cy="428.14899"
   rx="42.750999"
   ry="6.0300002"
   id="ellipse141" /><path
   style="fill:#13bfa1;stroke:#263238;stroke-linecap:round;stroke-linejoin:round;stroke-miterlimit:10;fill-opacity:1"
   d="m 279.842,187.742 c 0,0 11.221,3.625 12.43,7.251 1.208,3.625 5.524,32.973 5.524,32.973 l 6.387,-7.596 5.179,1.899 -2.244,8.459 c 0,0 2.417,2.589 1.899,6.56 -0.518,3.971 -5.006,10.703 -7.423,13.293 -2.417,2.59 -6.905,6.387 -9.322,3.453 -2.417,-2.935 -5.006,-4.661 -5.87,-9.15 -0.863,-4.488 -5.524,-42.64 -5.524,-42.64"
   id="path141" /><path
   style="fill:#ffffff;stroke:#263238;stroke-miterlimit:10"
   d="m 308.671,225.376 c 0,0 -1.726,2.244 -4.834,1.036 l -2.589,-0.173 1.036,-4.488 7.078,0.518 z"
   id="path142" /><path
   style="fill:none;stroke:#263238;stroke-miterlimit:10"
   d="m 307.117,230.727 c 0,0 -0.863,1.554 -4.143,0.345"
   id="path143" /><path
   style="fill:#ffffff;stroke:#263238;stroke-miterlimit:10"
   d="m 247.387,418.518 c 0,0 2.417,12.429 2.762,14.846 0.345,2.417 -2.244,4.316 -5.352,4.834 -3.107,0.518 -7.768,0.173 -11.221,-3.625 -3.453,-3.798 -5.87,-8.114 -6.387,-10.876 -0.518,-2.762 -1.036,-4.143 -1.036,-4.143 0,0 1.381,-6.042 6.905,-7.596 5.525,-1.554 11.567,-0.345 14.329,6.56 z"
   id="path144" /><path
   style="fill:#ffffff;stroke:#263238;stroke-miterlimit:10"
   d="m 280.532,413.684 c 0,0 7.078,6.387 9.322,7.768 2.244,1.381 2.589,3.28 -0.173,5.352 -2.762,2.072 -10.531,3.107 -13.983,1.381 -3.453,-1.726 -7.423,-4.661 -11.394,-5.352 -3.971,-0.691 -7.423,-3.107 -6.215,-7.941 1.208,-4.834 12.947,-3.798 15.537,-3.798 2.59,0.001 6.906,2.59 6.906,2.59 z"
   id="path145" /><path
   style="fill:#263238;stroke:#263238;stroke-miterlimit:10"
   d="m 230.642,296.673 c 0,0 0.863,42.607 2.589,47.441 1.726,4.834 1.554,9.322 1.208,10.531 -0.345,1.208 -5.524,6.905 -5.697,11.221 -0.173,4.316 -1.036,41.432 -1.036,41.432 0,0 -2.589,2.417 -2.072,4.488 0.518,2.072 0.518,7.768 0.518,7.768 0,0 7.251,-5.524 12.947,-4.661 5.697,0.863 8.286,3.625 8.286,3.625 0,0 2.762,-5.524 2.244,-7.251 -0.518,-1.726 -1.554,-3.453 -1.554,-5.179 0,-1.726 9.322,-53.861 10.013,-58.695 0.691,-4.834 3.453,-42.607 3.453,-42.607 l 1.554,-2.244 c 0,0 -1.381,37.774 -1.208,44.851 0.173,7.078 -0.345,6.905 -1.381,14.156 -1.036,7.25 -1.726,12.775 -0.691,21.234 1.036,8.459 0.345,17.954 0.173,20.025 -0.173,2.072 -2.935,3.625 -3.107,5.869 -0.173,2.244 0.518,8.114 0.518,8.114 0,0 3.107,-2.417 10.013,-2.417 6.905,0 13.12,-0.69 13.12,-0.69 0,0 1.036,-5.697 1.036,-7.423 0,-1.726 -1.899,-6.215 -1.899,-7.768 0,-1.554 3.107,-29.865 3.107,-29.865 0,0 3.798,-11.394 4.143,-19.853 0.345,-8.459 3.625,-51.584 3.625,-51.584 0,0 -19.162,3.28 -31.764,0.691 -12.602,-2.59 -28.484,-6.042 -28.484,-6.042 z"
   id="path146" /><path
   style="fill:#13bfa1;stroke:#263238;stroke-linecap:round;stroke-linejoin:round;stroke-miterlimit:10;fill-opacity:1"
   d="m 288.301,197.927 3.971,56.105 1.726,44.194 c 0,0 -7.768,6.387 -14.156,9.15 -6.387,2.762 -12.775,2.589 -12.775,2.589 l -2.072,-7.078 -2.244,7.078 c 0,0 -8.804,-2.244 -15.364,-3.971 -6.56,-1.726 -22.097,-8.632 -22.097,-8.632 l 3.625,-36.598 c 0,0 -5.179,-64.737 -3.971,-67.326 1.208,-2.589 20.543,-8.632 20.543,-8.632 0,0 18.99,-2.072 24.859,-1.036 5.869,1.036 17.436,7.768 17.436,7.768"
   id="path147" /><path
   style="fill:none;stroke:#263238;stroke-miterlimit:10"
   d="m 264.287,217.041 c 0,0 2.644,49.791 1.763,74.907"
   id="path148" /><path
   style="fill:none;stroke:#263238;stroke-miterlimit:10"
   d="m 268.664,286.92 c 0,0.446 -0.362,0.808 -0.808,0.808 -0.446,0 -0.808,-0.362 -0.808,-0.808 0,-0.446 0.362,-0.808 0.808,-0.808 0.447,0 0.808,0.362 0.808,0.808 z"
   id="path149" /><path
   style="fill:none;stroke:#263238;stroke-miterlimit:10"
   d="m 269.203,271.572 c 0,0.446 -0.362,0.808 -0.808,0.808 -0.446,0 -0.808,-0.362 -0.808,-0.808 0,-0.446 0.362,-0.808 0.808,-0.808 0.446,0 0.808,0.362 0.808,0.808 z"
   id="path150" /><path
   style="fill:none;stroke:#263238;stroke-miterlimit:10"
   d="m 269.337,258.782 c 0,0.446 -0.362,0.808 -0.808,0.808 -0.446,0 -0.808,-0.362 -0.808,-0.808 0,-0.446 0.362,-0.808 0.808,-0.808 0.446,0 0.808,0.362 0.808,0.808 z"
   id="path151" /><path
   style="fill:none;stroke:#263238;stroke-miterlimit:10"
   d="m 267.453,223.509 c 0,0.446 -0.362,0.808 -0.808,0.808 -0.446,0 -0.808,-0.362 -0.808,-0.808 0,-0.446 0.362,-0.808 0.808,-0.808 0.446,0 0.808,0.362 0.808,0.808 z"
   id="path152" /><path
   style="fill:#ffffff;stroke:#263238;stroke-miterlimit:10"
   d="m 254.12,191.022 c 0,0 3.28,8.977 4.834,12.775 1.554,3.798 3.727,10.572 4.59,7.464 0.863,-3.107 4.041,-15.923 4.041,-15.923 z"
   id="path153" /><polygon
   style="fill:#263238;stroke:#263238;stroke-linecap:round;stroke-linejoin:round;stroke-miterlimit:10"
   points="255.874,195.575 256.734,192.381 267.585,195.338 257.471,199.629 "
   id="polygon153" /><path
   style="fill:#13bfa1;stroke:#263238;stroke-linecap:round;stroke-linejoin:round;stroke-miterlimit:10;fill-opacity:1"
   d="m 266.376,194.475 c 0,0 4.661,9.149 5.697,8.804 1.036,-0.345 -0.518,-10.358 -0.518,-10.358 z"
   id="path154" /><path
   style="fill:#13bfa1;stroke:#263238;stroke-linecap:round;stroke-linejoin:round;stroke-miterlimit:10;fill-opacity:1"
   d="m 246.351,180.491 -3.453,4.661 c 0,0 3.625,11.566 5.179,14.674 1.554,3.107 2.935,4.661 2.935,4.661 l 5.697,-11.221 z"
   id="path155" /><path
   style="fill:#13bfa1;stroke:#263238;stroke-linecap:round;stroke-linejoin:round;stroke-miterlimit:10;fill-opacity:1"
   d="m 229.606,190.849 c 0,0 -12.947,3.28 -13.12,4.834 -0.173,1.554 -13.1,42.118 -13.1,42.118 0,0 -3.453,4.316 -2.072,5.697 1.381,1.381 0.691,5.869 0.691,6.56 0,0.691 1.726,3.107 2.935,3.453 1.208,0.345 15.364,-3.107 17.781,-5.006 2.417,-1.899 13.273,-32.796 13.273,-32.796 0,0 -2.589,-6.042 -2.589,-6.56"
   id="path156" /><path
   style="fill:none;stroke:#263238;stroke-miterlimit:10"
   d="m 208.219,237.801 c 0,0 6.042,-2.244 8.804,-2.072 2.762,0.173 4.661,0.863 4.661,0.863"
   id="path157" /><path
   style="fill:none;stroke:#263238;stroke-miterlimit:10"
   d="m 213.916,231.241 c 0,0 8.804,1.899 10.358,4.661"
   id="path158" /><path
   style="fill:none;stroke:#263238;stroke-miterlimit:10"
   d="m 268.109,221.311 11.042,12.179 1.554,-1.208 -10.971,-12.423 c -0.416,-0.471 -1.143,-0.494 -1.587,-0.049 v 0 c -0.412,0.409 -0.428,1.07 -0.038,1.501 z"
   id="path159" /><g
   id="g161">&#10;					<path
   style="fill:#ffffff;stroke:#263238;stroke-miterlimit:10"
   d="m 250.066,236.417 10.614,-2.065 6.733,-6.56 13.638,1.726 -6.733,11.048 -4.661,0.345 c 0,0 -1.726,1.208 -3.28,1.554 -1.554,0.345 -6.042,-0.345 -6.042,-0.345 l -10.013,2.935 z"
   id="path160" />&#10;					<line
   style="fill:none;stroke:#263238;stroke-miterlimit:10"
   x1="270.69199"
   y1="231.245"
   x2="279.151"
   y2="232.28101"
   id="line160" />&#10;					<line
   style="fill:none;stroke:#263238;stroke-miterlimit:10"
   x1="273.79999"
   y1="234.52499"
   x2="277.25201"
   y2="235.216"
   id="line161" />&#10;				</g><path
   style="fill:#13bfa1;stroke:#263238;stroke-linecap:round;stroke-linejoin:round;stroke-miterlimit:10;fill-opacity:1"
   d="m 213.744,240.218 c 0,0 27.428,-3.794 28.119,-2.24 0.69,1.554 1.208,12.947 -0.863,13.983 -2.072,1.036 -24.321,8.8 -26.738,9.318 -2.417,0.518 -6.042,-0.345 -8.632,-2.417 -2.589,-2.072 -3.798,-7.251 -3.625,-8.804 0.173,-1.554 1.208,-5.524 1.208,-5.524"
   id="path161" /><polygon
   style="fill:#ffffff;stroke:#263238;stroke-miterlimit:10"
   points="241.863,237.978 250.066,236.417 251.012,248.508 241.517,250.235 "
   id="polygon161" /><polygon
   style="fill:#263238;stroke:#263238;stroke-miterlimit:10"
   points="288.301,251.443 308.671,218.47 284.158,221.75 261.715,257.658 "
   id="polygon162" /><path
   style="fill:#ffffff;stroke:#263238;stroke-miterlimit:10"
   d="m 297.795,215.363 c 0,0 -1.899,1.208 -3.28,1.554 -1.381,0.345 -6.387,-2.244 -6.733,-0.345 -0.345,1.899 2.762,2.935 3.798,3.28 1.036,0.345 5.179,0 5.179,0 z"
   id="path162" /><g
   id="g166">&#10;				<path
   style="fill:#ffffff;stroke:#263238;stroke-miterlimit:10"
   d="m 301.766,213.809 c 0,0 -2.59,-0.863 -3.453,0.173 -0.863,1.036 -2.59,2.935 -2.59,4.143 0,1.208 -0.863,5.179 0,5.352 0.863,0.173 1.726,0.345 2.244,-1.381 0.519,-1.727 3.799,-8.287 3.799,-8.287 z"
   id="path163" />&#10;				<path
   style="fill:#ffffff;stroke:#263238;stroke-miterlimit:10"
   d="m 301.766,213.809 c 0,0 3.28,0 2.762,1.554 -0.518,1.554 -2.762,7.423 -3.453,7.941 -0.691,0.518 -3.107,-1.208 -3.107,-1.208 z"
   id="path164" />&#10;				<path
   style="fill:#ffffff;stroke:#263238;stroke-miterlimit:10"
   d="m 304.528,215.363 c 0,0 3.28,-0.691 3.625,0.69 0.345,1.381 -2.935,6.905 -3.625,7.423 -0.691,0.518 -3.453,-0.173 -3.453,-0.173 z"
   id="path165" />&#10;				<path
   style="fill:#ffffff;stroke:#263238;stroke-miterlimit:10"
   d="m 308.153,216.053 c 0,0 2.417,2.59 2.417,3.971 0,1.381 -2.762,4.488 -3.97,4.488 -1.208,0 -2.072,-1.036 -2.072,-1.036 z"
   id="path166" />&#10;			</g><g
   id="g174">&#10;					<path
   style="fill:#ffffff;stroke:#263238;stroke-miterlimit:10"
   d="m 277.217,163.697 c 0,0 0.651,8.137 -0.814,16.11 -1.465,7.973 -5.533,13.995 -7.811,15.297 -2.278,1.302 -4.231,0.814 -6.835,0.325 -2.604,-0.488 -9.764,-5.533 -11.879,-8.625 -2.115,-3.092 -2.766,-7.16 -2.766,-7.16 0,0 -2.929,0.976 -5.207,-1.953 -2.278,-2.929 -1.953,-4.556 -1.953,-4.556 0,0 9.438,0.488 19.04,-3.092 9.601,-3.58 15.622,-9.112 18.225,-6.346 z"
   id="path167" />&#10;					<path
   style="fill:#263238;stroke:#263238;stroke-miterlimit:10"
   d="m 246.283,173.268 c 0,0 1.296,6.482 2.074,4.408 0.778,-2.074 0.778,-5.445 0.778,-5.445 z"
   id="path168" />&#10;					<path
   style="fill:none;stroke:#263238;stroke-miterlimit:10"
   d="m 267.779,174.6 c 0,0 0.651,10.577 0.814,11.229 0.163,0.651 -0.976,2.604 -2.766,1.627 l -2.278,-0.488"
   id="path169" />&#10;					<path
   style="fill:#ffffff;stroke:#263238;stroke-miterlimit:10"
   d="m 261.432,189.246 c 0,0 2.766,1.79 4.882,1.302 2.116,-0.488 3.255,-2.278 3.255,-2.278"
   id="path170" />&#10;					<path
   style="fill:none;stroke:#263238;stroke-miterlimit:10"
   d="m 255.411,179.319 c 0,0 3.092,0.976 5.533,-0.976"
   id="path171" />&#10;					<path
   style="fill:none;stroke:#263238;stroke-miterlimit:10"
   d="m 254.109,175.739 c 0,0 6.021,-0.814 7.811,-0.976"
   id="path172" />&#10;					<path
   style="fill:none;stroke:#263238;stroke-miterlimit:10"
   d="m 269.081,173.461 c 0,0 3.743,-2.604 6.835,-1.953"
   id="path173" />&#10;					<path
   style="fill:none;stroke:#263238;stroke-miterlimit:10"
   d="m 270.22,177.041 c 0,0 3.092,0.488 4.556,-0.976"
   id="path174" />&#10;				</g><path
   style="fill:#13bfa1;stroke:#263238;stroke-miterlimit:10;fill-opacity:1"
   d="m 219.285,171.345 c 0,0 8.787,7.974 33.36,2.604 24.573,-5.37 35.475,-12.53 41.496,-11.879 6.021,0.651 7.974,0 2.929,-1.953 -5.045,-1.953 -20.016,-3.092 -20.016,-3.092 0,0 -6.092,-16.618 -7.323,-18.063 -3.743,-4.394 -18.063,-3.743 -21.806,-2.604 -3.743,1.139 -10.415,7.323 -10.577,12.53 -0.163,5.207 2.116,15.459 2.116,15.459 z"
   id="path175" /><path
   style="fill:none;stroke:#263238;stroke-miterlimit:10"
   d="m 270.647,162.009 c 2.828,-1.404 4.455,-2.705 4.455,-2.705"
   id="path176" /><path
   style="fill:none;stroke:#263238;stroke-miterlimit:10"
   d="m 241.742,164.836 c 0,0 7.648,1.302 17.249,0.488 3.147,-0.267 5.962,-1.005 8.325,-1.878"
   id="path177" />&#10;</svg>
