<?xml version="1.0" encoding="utf-8"?>
<!-- Generator: Adobe Illustrator 27.5.0, SVG Export Plug-In . SVG Version: 6.00 Build 0)  -->
<svg version="1.1" xmlns="http://www.w3.org/2000/svg" xmlns:xlink="http://www.w3.org/1999/xlink" x="0px" y="0px"
	 viewBox="0 0 500 500" style="enable-background:new 0 0 500 500;" xml:space="preserve">
<g id="BACKGROUND">
	<rect style="fill:#F0F0F0;" width="500" height="500"/>
</g>
<g id="OBJECTS">
	<g>
		<circle style="fill:#85BDD0;" cx="250" cy="250" r="152.825"/>
		<g>
			<defs>
				<circle id="SVGID_1_" cx="250" cy="250" r="152.825"/>
			</defs>
			<clipPath id="SVGID_00000090987339963979857240000016179260084386622645_">
				<use xlink:href="#SVGID_1_"  style="overflow:visible;"/>
			</clipPath>
			<g style="clip-path:url(#SVGID_00000090987339963979857240000016179260084386622645_);">
				<path style="fill:#272726;" d="M209.212,311.378h84.276c0,0-27.65,123.571-35.932,133.058
					c-17.065-22.3-48.763-131.594-48.763-131.594"/>
				<path style="fill:#313130;" d="M227.887,311.378h50.622c0,0-16.608,123.571-21.583,133.058
					c-10.251-22.3-29.29-131.594-29.29-131.594"/>
				<path style="fill:#A2132C;" d="M265.144,333.684c-1.258,5.283-5.651,19.018-6.198,19.098c-1.429,0.207-6.597,0.522-9.764,0
					c-0.265-0.116-6.831-11.738-8.473-17.514c2.497-1.696,6.389-4.347,12.484-4.428
					C263.792,330.698,265.144,333.684,265.144,333.684z"/>
				<path style="fill:#77212A;" d="M253.193,330.839c-6.095,0.081-9.987,2.732-12.484,4.428c0.66,2.324,2.118,5.593,3.641,8.679
					c4.771-3.141,10.238-4.447,10.238-4.447s3.686,1.477,7.506,4.696c1.227-3.858,2.47-8.08,3.05-10.512
					C265.144,333.684,263.792,330.698,253.193,330.839z"/>
				<path style="fill:#A2132C;" d="M269.946,389.975c-1.28-19.362-10.853-37.194-10.853-37.194h-9.91
					c-4.174,8.538-9.138,27.693-8.906,37.194c-2.224,11.134,13.09,52.481,17.28,54.46c5.587-5.704,10.061-25.401,11.69-35.062
					C270.877,399.713,269.946,389.975,269.946,389.975z"/>
				<path style="fill:#77212A;" d="M262.677,360.623c-1.981-4.854-3.584-7.841-3.584-7.841h-9.91
					c-0.944,1.931-1.928,4.409-2.884,7.193C250.587,356.573,256.796,355.673,262.677,360.623z"/>
				<path style="fill:#77212A;" d="M269.946,389.975c-0.309-4.67-1.102-9.248-2.125-13.511
					c-2.757,16.29-10.381,44.098-10.381,44.098s-11.743-30.834-15.671-43.656c-0.984,4.977-1.576,9.649-1.492,13.069
					c-2.224,11.134,13.09,52.481,17.281,54.46c5.587-5.704,10.061-25.401,11.69-35.062
					C270.877,399.713,269.946,389.975,269.946,389.975z"/>
				<path style="fill:#3E3E3E;" d="M250.315,331.794c-7.513,4.078-14.089,9.871-19.08,16.812
					c-9.893-9.103-16.21-35.212-16.21-35.212C221.021,317.592,233.729,327.926,250.315,331.794z"/>
				<path style="fill:#3E3E3E;" d="M274.262,348.606c-4.256-5.913-9.84-11.686-17.79-17.27c11.391-2.937,24.821-14.06,28.819-18.857
					C287.089,329.668,274.262,348.606,274.262,348.606z"/>
				<path style="fill:#323231;" d="M227.792,322.159c-5.557-3.406-9.923-6.775-12.766-8.765c0,0,6.317,26.109,16.21,35.211
					c0.036-0.051,0.077-0.098,0.113-0.148C225.542,341.728,225.63,331.798,227.792,322.159z"/>
				<path style="fill:#323231;" d="M285.29,312.479c-1.815,2.178-5.578,5.661-10.21,9.089c4.059,12.667,1.162,22.158-1.004,26.787
					c0.061,0.084,0.124,0.167,0.185,0.251C274.262,348.606,287.089,329.668,285.29,312.479z"/>
				<path style="fill:#494949;" d="M373.88,345.88c-16.656-16.516-35.553-31.249-62.477-43.24
					c-5.43,2.489-32.282,57.738-30.559,90.465c0.888,16.878-19.848,45.446-23.288,51.33
					C276.408,441.4,345.681,401.601,373.88,345.88z"/>
				<path style="fill:#353535;" d="M315.757,388.592l-9.98-21.776c0,0,11.795,0.544,17.058,0.907
					c1.314-11.004,4.56-35.686,1.935-58.571c-4.233-2.25-8.674-4.424-13.365-6.513c-5.43,2.489-32.281,57.738-30.559,90.465
					c0.888,16.862-19.805,45.386-23.276,51.31C285.779,429.525,315.757,388.592,315.757,388.592z"/>
				<path style="fill:#494949;" d="M125.989,345.88c16.656-16.516,35.553-31.249,62.476-43.24
					c5.43,2.489,14.328,49.743,31.249,77.81c9.781,16.225,33.061,58.606,37.842,63.985
					C223.163,438.445,141.46,395.776,125.989,345.88z"/>
				<path style="fill:#353535;" d="M179.275,306.99c0,0-10.9,39.184-7.551,63.883c6.698,0.628,15.908-3.768,15.908-3.768
					s-7.326,15.28-5.861,22.187c1.465,6.907,57.802,45.611,75.787,55.144c-32.459-50.121-45.855-101.402-45.855-101.402
					l-18.837-42.69C192.865,300.344,182.573,305.344,179.275,306.99z"/>
				<path style="fill:#595959;" d="M208.27,283.625c-10.727,4.725-22.597,13.409-22.597,13.409s-3.665,61.17-3.271,61.477
					c0.323,0.251,24.236-3.128,24.236-3.128c-4.783,7.229-9.059,14.794-12.785,22.62c-0.756,1.589-1.508,3.301-1.262,5.043
					c0.196,1.387,1.003,2.602,1.803,3.752c17.753,25.529,38.947,38.132,63.163,57.638c-13.307-54.64-31.24-95.974-41.684-132.657
					C210.133,291.619,208.27,283.625,208.27,283.625z"/>
				<path style="fill:#4C4C4C;" d="M196.793,384.399c-0.8-1.15-1.607-2.365-1.803-3.752c-0.246-1.742,0.506-3.455,1.262-5.043
					c3.726-7.827,8.002-15.391,12.785-22.62c0,0-23.914,3.379-24.236,3.128c-0.368-0.287,2.814-53.817,3.227-60.738
					c-1.481,1.021-2.355,1.66-2.355,1.66s-3.665,61.17-3.271,61.477c0.323,0.251,24.236-3.128,24.236-3.128
					c-4.783,7.229-9.059,14.794-12.785,22.62c-0.756,1.589-1.508,3.301-1.262,5.043c0.196,1.388,1.003,2.602,1.803,3.753
					c17.753,25.529,38.947,38.132,63.163,57.638c-0.44-1.806-0.885-3.595-1.335-5.371
					C233.557,421.195,213.626,408.606,196.793,384.399z"/>
				<path style="fill:#595959;" d="M290.701,283.625c10.727,4.725,20.689,13.409,20.689,13.409s3.665,61.17,3.271,61.477
					c-0.322,0.251-24.236-3.128-24.236-3.128c7.153,13.117,14.293,25.921,14.047,27.663c-0.196,1.387-22.699,41.884-46.915,61.39
					c13.485-54.997,20.694-97.706,27.471-135.24C288.227,291.478,290.701,283.625,290.701,283.625z"/>
				<path style="fill:#4C4C4C;" d="M311.389,297.034c0,0-3.771-3.286-9.169-6.915c4.105,2.925,6.81,5.282,6.81,5.282
					s3.665,61.17,3.271,61.477c-0.322,0.251-24.236-3.128-24.236-3.128c7.153,13.117,14.293,25.921,14.047,27.663
					c-0.187,1.321-20.589,38.085-43.441,58.441c-0.367,1.519-0.738,3.044-1.115,4.583c24.216-19.506,46.719-60.003,46.915-61.39
					c0.246-1.742-6.894-14.547-14.047-27.663c0,0,23.914,3.379,24.237,3.128C315.054,358.204,311.389,297.034,311.389,297.034z"/>
				<path style="fill:#4C4C4C;" d="M230.269,355.829c-5.432-15.659-10.449-30.188-14.397-44.051
					c-5.74-20.159-7.602-28.154-7.602-28.154c-3.128,1.378-6.351,3.092-9.35,4.829C197.502,312.3,211.256,340.18,230.269,355.829z"
					/>
				<path style="fill:#4C4C4C;" d="M290.701,283.625c0,0-2.474,7.854-5.673,25.571c-2.644,14.643-5.355,30.078-8.478,46.718
					c13.358-14.142,23.599-39.595,28.487-63.834C301.21,289.322,296.051,285.981,290.701,283.625z"/>
				<path style="fill:#E2CAB9;" d="M293.916,259.834c0,0-0.001,0.008-0.002,0.013c0.081-0.925,0.165-1.834,0.257-2.72
					c-29.796,10.61-90.327,2.461-90.327,2.461c0.006,0.048,0.013,0.104,0.019,0.154l-7.278-1.323
					c0.236,2.83,3.302,10.142,8.491,12.265c0.021-0.099,0.04-0.202,0.058-0.308c1.595,13.375,3.849,31.93,5.033,37.465
					c1.569,7.336,21.888,24.304,39.604,24.304s38.196-16.294,40.017-24.304c2.162-9.514,2.646-24.064,3.393-37.31
					c0.01,0.051,0.018,0.104,0.029,0.153c5.189-2.123,8.255-9.434,8.491-12.265L293.916,259.834z"/>
				<path style="fill:#6A5251;" d="M293.208,270.683c5.189-2.123,8.255-9.434,8.491-12.265l-7.783,1.415
					c0,0-0.001,0.008-0.002,0.013c0.081-0.925,0.165-1.834,0.257-2.72c-29.796,10.61-90.327,2.461-90.327,2.461
					c0.006,0.048,0.013,0.104,0.019,0.154l-7.278-1.323c0.236,2.83,3.302,10.142,8.491,12.265c0.021-0.099,0.04-0.202,0.058-0.308
					c1.595,13.375,3.849,31.93,5.033,37.465c1.569,7.336,21.888,24.304,39.604,24.304c4.417,0,9.005-1.013,13.433-2.658
					c-7.569,1.575-19.234,1.677-24.253-3.689c-6.956-7.436-3.186-15.014-0.609-18.964c11.514,0.568,17.022-4.09,17.863-7.129
					c-3.204,1.897-10.481,1.499-12.093-0.415c-5.555-6.596-1.536-12.587,15.062-11.614c18.962,1.111,28.659-1.206,33.236-3.065
					c0.279-4.673,0.51-9.455,0.771-14.08C293.19,270.581,293.198,270.634,293.208,270.683z"/>
				<ellipse style="fill:#3B3B3B;" cx="249.473" cy="225.956" rx="86.049" ry="47.184"/>
				
					<linearGradient id="SVGID_00000134928129215066759270000005673516312239947662_" gradientUnits="userSpaceOnUse" x1="226.7358" y1="243.4593" x2="266.873" y2="208.1003">
					<stop  offset="0" style="stop-color:#404041"/>
					<stop  offset="1" style="stop-color:#494949"/>
				</linearGradient>
				
					<ellipse style="fill:url(#SVGID_00000134928129215066759270000005673516312239947662_);" cx="249.473" cy="223.429" rx="86.049" ry="47.184"/>
				<path style="fill:#898A8D;" d="M249.472,269.047c-47.046,0-85.267-20.703-86.031-46.401c-0.008,0.261-0.018,0.521-0.018,0.783
					c0,26.059,38.526,47.184,86.049,47.184c47.524,0,86.049-21.125,86.049-47.184c0-0.262-0.01-0.522-0.018-0.783
					C334.74,248.344,296.519,269.047,249.472,269.047z"/>
				<path style="fill:#494949;" d="M303.921,215.081c2.474,11.618-24.377,21.508-54.448,21.508
					c-30.071,0-55.958-9.726-54.448-21.508c3.163-24.679,12.428-60.039,16.399-67.225c3.971-7.185,13.009-11.897,31.011-2.08
					c6.831,3.725,13.492,1.979,19.476-0.378c12.48-4.916,24.599-11.499,30.822,10.022
					C297.271,171.115,302.25,207.237,303.921,215.081z"/>
				<path style="fill:#343434;" d="M301.972,203.835c-6.696,8.413-28.569,14.679-52.5,14.679c-24.527,0-46.264-6.471-52.629-15.25
					c-0.72,4.093-1.34,8.079-1.82,11.817c-1.51,11.782,24.377,21.508,54.448,21.508c30.071,0,56.922-9.89,54.448-21.508
					C303.479,213.01,302.806,208.954,301.972,203.835z"/>
				<path style="fill:#3C3C3C;" d="M236.839,143.619c1.51,5.178,16.938,18.34,29.668,13.377c12.73-4.963,9.494-10.141-1.295-8.091
					C254.424,150.955,245.362,148.905,236.839,143.619z"/>
				<path style="opacity:0.24;fill:#3C3C3C;" d="M301.829,202.958c-53.028,23.843-92.962-25.244-78.867-62.678
					c-5.745,0.524-9.388,3.685-11.539,7.577c-3.971,7.185-13.236,42.545-16.399,67.225c-1.51,11.782,24.377,21.508,54.448,21.508
					c30.071,0,56.922-9.89,54.448-21.508C303.454,212.892,302.73,208.495,301.829,202.958z"/>
				<path style="fill:#898A8D;" d="M292.812,167.96c2.983,12.271,3.081,22.782,0.22,23.477c-2.861,0.695-7.598-8.688-10.581-20.959
					c-2.983-12.271-3.081-22.782-0.22-23.477C285.092,146.306,289.829,155.69,292.812,167.96z"/>
				<path style="fill:#F8EADD;" d="M289.699,302.167c-0.735,9.122-3.761,13.618-22.653,23.777
					C275.519,319.719,286.845,309.862,289.699,302.167z"/>
			</g>
		</g>
	</g>
</g>
</svg>
