<?xml version="1.0" encoding="UTF-8" standalone="no"?>
<!-- Created with Inkscape (http://www.inkscape.org/) -->

<svg
   width="100"
   height="100"
   viewBox="0 0 100 100"
   version="1.1"
   id="svg1"
   inkscape:version="1.3 (0e150ed6c4, 2023-07-21)"
   sodipodi:docname="intergender.svg"
   xmlns:inkscape="http://www.inkscape.org/namespaces/inkscape"
   xmlns:sodipodi="http://sodipodi.sourceforge.net/DTD/sodipodi-0.dtd"
   xmlns="http://www.w3.org/2000/svg"
   xmlns:svg="http://www.w3.org/2000/svg">
  <sodipodi:namedview
     id="namedview1"
     pagecolor="#ffffff"
     bordercolor="#000000"
     borderopacity="0.25"
     inkscape:showpageshadow="2"
     inkscape:pageopacity="0.0"
     inkscape:pagecheckerboard="0"
     inkscape:deskcolor="#d1d1d1"
     inkscape:document-units="px"
     inkscape:zoom="5.09"
     inkscape:cx="49.901768"
     inkscape:cy="50"
     inkscape:window-width="1366"
     inkscape:window-height="705"
     inkscape:window-x="-8"
     inkscape:window-y="-8"
     inkscape:window-maximized="1"
     inkscape:current-layer="layer1" />
  <defs
     id="defs1" />
  <g
     inkscape:label="Layer 1"
     inkscape:groupmode="layer"
     id="layer1">
    <g
       id="g16"
       transform="matrix(1.5877025,0,0,1.5877025,-435.40587,-325.30885)">&#10;		<g
   transform="matrix(0.27955,-0.249538,0.249538,0.27955,-5070.57,18445.5)"
   id="g9">&#10;			<g
   id="g8">&#10;				<path
   style="fill:#fe8458"
   d="m 43023.824,-26679.721 c -12.594,-11.242 -20.57,-27.574 -20.527,-45.693 -0.04,-33.789 27.484,-61.285 61.297,-61.303 v 0 c 33.793,0.08 61.262,27.467 61.262,61.299 0.04,33.787 -27.469,61.262 -61.277,61.281 -15.657,-0.02 -29.946,-5.935 -40.755,-15.584 z m 40.746,-96.695 c -28.133,0 -51.012,22.891 -51.016,50.984 0,28.176 22.93,50.973 51.043,50.992 28.094,-0.04 50.996,-22.867 51,-50.963 -0.105,-28.15 -22.913,-51.072 -51.027,-51.013 z"
   id="path7" />
&#10;			</g>
&#10;		</g>
&#10;		<g
   transform="matrix(0.27955,-0.249538,0.249538,0.27955,-5072.54,18436.1)"
   id="g11">&#10;			<g
   id="g10">&#10;				<path
   style="clip-rule:evenodd;fill:#fe8458;fill-rule:evenodd"
   d="m 43040.441,-26648.256 2.52,-1.666 c 0.691,-0.561 1.383,-1.125 2.098,-1.688 l 3.477,0.244 c 0.609,0.652 1.219,1.307 1.832,1.961 l -0.41,1.82 c -1.746,-0.137 -1.543,-0.762 -3.375,-0.891 -1.828,-0.127 -1.707,0.52 -3.477,0.412 l -2.277,-0.166 -0.06,0.05 c -0.184,0.139 -0.08,0.434 -0.121,0.656 -0.305,2.18 -0.406,4.383 -0.551,6.582 -1.219,21.719 -0.203,43.582 -0.59,65.324 -0.102,2.736 2.055,5.033 4.801,5.127 2.727,0.09 5.023,-2.057 5.125,-4.795 1.078,-21.631 1.547,-43.371 2.645,-65.012 0.121,-2.143 0.266,-4.285 0.266,-6.428 0,-0.219 0.102,-0.49 -0.04,-0.646 l -0.06,-0.06"
   id="path9" />
&#10;			</g>
&#10;		</g>
&#10;		<g
   transform="matrix(0.27955,-0.249538,0.249538,0.27955,-5049.72,18413.3)"
   id="g13">&#10;			<g
   id="g12">&#10;				<path
   style="clip-rule:evenodd;fill:#fe8458;fill-rule:evenodd"
   d="m 42976.691,-26646.537 c 0,0 -1.137,-2.211 -4.414,2.857 -0.629,0.996 -0.508,2.611 -0.648,4.369 -1.484,18.434 -0.957,65.709 -0.957,65.709 -0.04,2.445 1.527,4.631 3.844,5.396 2.32,0.766 4.859,-0.07 6.305,-2.057 0,0 14.234,-21.242 22.289,-33.537 0.816,-1.223 1.629,-2.305 2.199,-3.383 1.789,-3.471 2.316,-5.768 2.316,-5.768 0.793,-1.127 0.527,-2.697 -0.59,-3.506 -1.117,-0.807 -2.684,-0.549 -3.496,0.578 0,0 -2.016,1.23 -4.719,4.045 -0.855,0.875 -1.609,2.006 -2.504,3.158 -3.984,5.104 -9.23,11.9 -13.871,17.906 0.469,-15.408 0.938,-37.184 0.348,-48.379 -0.08,-1.764 0.102,-3.373 -0.527,-4.389 -3.113,-5.16 -4.313,-2.984 -4.313,-2.984 0,-0.346 -0.285,-0.633 -0.633,-0.637 -0.343,0 -0.629,0.276 -0.629,0.622 z"
   id="path11" />
&#10;			</g>
&#10;		</g>
&#10;		<g
   transform="matrix(0.127798,-0.114078,0.00779484,0.00873233,-762.948,15748)"
   id="g15">&#10;			<g
   id="g14">&#10;				<path
   style="clip-rule:evenodd;fill:#fe8458;fill-rule:evenodd"
   d="m 64893.875,-925534.75 c 2.426,-3.5 4.43,-6.75 6.91,-3.88 9.477,11.13 19.281,-3.62 28.516,-5.18 5.469,-2.69 11.246,14.75 16.531,-7.13 1.426,-5.94 2.484,-10.37 3.336,-27.87 l 0.957,-18.57 c 2.297,-43.43 -1.363,49.69 -0.141,-41.37 2.258,-0.19 4.066,-27.06 4.066,-60 -0.02,-32.94 -1.852,-59.56 -4.109,-59.44 -1.281,-90.75 2.441,1.69 0.125,-41.31 l -0.957,-18.5 c -0.855,-17.19 -1.871,-21.88 -3.297,-27.69 -5.285,-21.94 -11.082,-5.44 -16.574,-7.62 -9.211,-0.82 -18.996,-13.13 -28.453,-2.13 -2.438,2.81 -4.727,9.38 -7.078,17.38 -9.051,30.75 -5.543,311.56 0.168,303.31 z"
   id="path13" />
&#10;			</g>
&#10;		</g>
&#10;	</g>
  </g>
</svg>
