<?xml version="1.0" encoding="UTF-8" standalone="no"?>
<!-- Uploaded to: SVG Repo, www.svgrepo.com, Generator: SVG Repo Mixer Tools -->

<svg
   version="1.0"
   id="Layer_1"
   width="800px"
   height="800px"
   viewBox="0 0 64 64"
   enable-background="new 0 0 64 64"
   xml:space="preserve"
   sodipodi:docname="location-pin-svgrepo-com.svg"
   inkscape:version="1.3 (0e150ed6c4, 2023-07-21)"
   xmlns:inkscape="http://www.inkscape.org/namespaces/inkscape"
   xmlns:sodipodi="http://sodipodi.sourceforge.net/DTD/sodipodi-0.dtd"
   xmlns="http://www.w3.org/2000/svg"
   xmlns:svg="http://www.w3.org/2000/svg"><defs
   id="defs3" /><sodipodi:namedview
   id="namedview3"
   pagecolor="#ffffff"
   bordercolor="#000000"
   borderopacity="0.25"
   inkscape:showpageshadow="2"
   inkscape:pageopacity="0.0"
   inkscape:pagecheckerboard="0"
   inkscape:deskcolor="#d1d1d1"
   inkscape:zoom="0.63625"
   inkscape:cx="399.21415"
   inkscape:cy="400"
   inkscape:window-width="1366"
   inkscape:window-height="705"
   inkscape:window-x="-8"
   inkscape:window-y="-8"
   inkscape:window-maximized="1"
   inkscape:current-layer="Layer_1" />&#10;<g
   id="g3"
   style="fill:#101010;fill-opacity:1">&#10;	<path
   fill="#231F20"
   d="M32,0C18.745,0,8,10.745,8,24c0,5.678,2.502,10.671,5.271,15l17.097,24.156C30.743,63.686,31.352,64,32,64   s1.257-0.314,1.632-0.844L50.729,39C53.375,35.438,56,29.678,56,24C56,10.745,45.255,0,32,0z M48.087,39h-0.01L32,61L15.923,39   h-0.01C13.469,35.469,10,29.799,10,24c0-12.15,9.85-22,22-22s22,9.85,22,22C54,29.799,50.281,35.781,48.087,39z"
   id="path1"
   style="fill:#101010;fill-opacity:1" />&#10;	<path
   fill="#231F20"
   d="M32,14c-5.523,0-10,4.478-10,10s4.477,10,10,10s10-4.478,10-10S37.523,14,32,14z M32,32   c-4.418,0-8-3.582-8-8s3.582-8,8-8s8,3.582,8,8S36.418,32,32,32z"
   id="path2"
   style="fill:#101010;fill-opacity:1" />&#10;	<path
   fill="#231F20"
   d="M32,10c-7.732,0-14,6.268-14,14s6.268,14,14,14s14-6.268,14-14S39.732,10,32,10z M32,36   c-6.627,0-12-5.373-12-12s5.373-12,12-12s12,5.373,12,12S38.627,36,32,36z"
   id="path3"
   style="fill:#101010;fill-opacity:1" />&#10;</g>&#10;</svg>
