<?xml version="1.0" encoding="UTF-8" standalone="no"?>
<!-- Created with Inkscape (http://www.inkscape.org/) -->

<svg
   width="100"
   height="100"
   viewBox="0 0 100 100"
   version="1.1"
   id="svg1"
   inkscape:version="1.3 (0e150ed6c4, 2023-07-21)"
   sodipodi:docname="male.svg"
   xmlns:inkscape="http://www.inkscape.org/namespaces/inkscape"
   xmlns:sodipodi="http://sodipodi.sourceforge.net/DTD/sodipodi-0.dtd"
   xmlns="http://www.w3.org/2000/svg"
   xmlns:svg="http://www.w3.org/2000/svg">
  <sodipodi:namedview
     id="namedview1"
     pagecolor="#ffffff"
     bordercolor="#000000"
     borderopacity="0.25"
     inkscape:showpageshadow="2"
     inkscape:pageopacity="0.0"
     inkscape:pagecheckerboard="0"
     inkscape:deskcolor="#d1d1d1"
     inkscape:document-units="px"
     inkscape:zoom="5.09"
     inkscape:cx="49.901768"
     inkscape:cy="50"
     inkscape:window-width="1366"
     inkscape:window-height="705"
     inkscape:window-x="-8"
     inkscape:window-y="-8"
     inkscape:window-maximized="1"
     inkscape:current-layer="layer1" />
  <defs
     id="defs1" />
  <g
     inkscape:label="Layer 1"
     inkscape:groupmode="layer"
     id="layer1">
    <g
       id="g82"
       transform="matrix(1.6365438,0,0,1.6365438,-281.17623,-111.19053)">&#10;		<g
   transform="matrix(-0.264969,-0.264969,0.264969,-0.264969,7872.79,19188.5)"
   id="g76">&#10;			<g
   id="g75">&#10;				<path
   style="fill:#2b34aa"
   d="m 50453.301,21478.732 c 11.574,-11.574 26.961,-17.967 43.336,-17.967 v 0 c 16.375,0 31.758,6.352 43.355,17.947 11.574,11.574 17.926,26.961 17.926,43.336 0,16.373 -6.391,31.76 -17.969,43.334 -11.574,11.576 -26.961,17.967 -43.332,17.967 -33.797,0 -61.285,-27.484 -61.285,-61.281 0,-16.375 6.395,-31.759 17.969,-43.336 z m 79.371,79.372 c 9.637,-9.639 14.922,-22.424 14.922,-36.055 0.02,-13.613 -5.242,-26.457 -14.863,-36.076 -9.637,-9.639 -22.484,-14.902 -36.094,-14.883 v 0 c -13.633,0 -26.418,5.283 -36.055,14.922 -9.602,9.6 -14.926,22.424 -14.926,36.057 -0.02,28.131 22.828,50.979 50.961,50.957 13.629,0 26.457,-5.323 36.055,-14.922 z"
   id="path74" />
&#10;			</g>
&#10;		</g>
&#10;		<g
   transform="rotate(-135,1593.9384,12039.032)"
   id="g81">&#10;			<g
   transform="matrix(0.374723,0,0,0.374723,-7881.75,11415.2)"
   id="g78">&#10;				<g
   id="g77">&#10;					<path
   style="clip-rule:evenodd;fill:#2b34aa;fill-rule:evenodd"
   d="m 50446.52,21599.316 c -4.152,1.301 -1.406,-1.559 -4.535,1.447 -0.309,0.293 -0.328,0.736 -0.41,1.148 -0.895,3.813 -0.977,7.762 -1.18,11.674 -0.73,13.539 -0.406,27.145 0.04,40.709 0.16,4.645 -0.184,9.33 0.773,13.873 0.285,1.328 0.875,2.236 1.359,3.506 -0.06,1.385 1.039,2.547 2.422,2.594 1.383,0.05 2.543,-1.039 2.582,-2.424 0.633,-1.807 1.383,-3.314 1.77,-5.186 1.465,-6.844 1.445,-13.889 1.813,-20.889 0.668,-12.953 1.402,-25.916 1.422,-38.861 0,-1.693 0.59,-3.604 -0.305,-5.035 -2.156,-3.438 -0.957,-0.502 -4.516,-2.469 0.04,-0.344 -0.223,-0.645 -0.57,-0.668 -0.344,-0.02 -0.649,0.236 -0.668,0.581 z"
   id="path76" />
&#10;				</g>
&#10;			</g>
&#10;			<g
   transform="matrix(-0.264969,0.264969,-0.264969,-0.264969,8735.4,5779.85)"
   id="g80">&#10;				<g
   id="g79">&#10;					<path
   style="clip-rule:evenodd;fill:#2b34aa;fill-rule:evenodd"
   d="m 21642.469,-30269.232 c 0.02,1.014 -0.244,2.68 -0.346,4.076 -0.06,1.203 -0.549,6.4 -0.773,13.135 -0.326,9.611 -0.143,22.219 -0.203,30.855 -0.123,1.639 1.098,3.078 2.725,3.209 1.648,0.135 3.072,-1.086 3.213,-2.723 1.344,-8.531 3.58,-20.943 4.82,-30.48 0.896,-6.715 1.242,-11.951 1.363,-13.156 0.631,-7.559 -1.057,-11.488 -3.314,-13.641 -2.543,-2.438 -6.895,-3.236 -13.545,-2.738 -2.482,0.213 -16.088,1.344 -28.168,3.346 -8.277,1.373 -15.762,3.236 -18.936,4.336 -2.277,0.631 -3.641,3.004 -3.01,5.295 0.631,2.289 3.01,3.639 5.309,3.008 l 45.719,-4.619 c 2.175,-0.185 4.454,0.911 5.146,0.1 z m -0.04,-0.463 c -0.06,-0.375 -0.225,-0.549 -0.529,-0.42 -0.245,0.101 0.265,0.236 0.529,0.42 z"
   id="path78" />
&#10;				</g>
&#10;			</g>
&#10;		</g>
&#10;	</g>
  </g>
</svg>
