<?xml version="1.0" encoding="UTF-8" standalone="no"?>
<!-- Created with Inkscape (http://www.inkscape.org/) -->

<svg
   width="100"
   height="100"
   viewBox="0 0 100 100"
   version="1.1"
   id="svg1"
   inkscape:version="1.3 (0e150ed6c4, 2023-07-21)"
   sodipodi:docname="neutrois.svg"
   xmlns:inkscape="http://www.inkscape.org/namespaces/inkscape"
   xmlns:sodipodi="http://sodipodi.sourceforge.net/DTD/sodipodi-0.dtd"
   xmlns="http://www.w3.org/2000/svg"
   xmlns:svg="http://www.w3.org/2000/svg">
  <sodipodi:namedview
     id="namedview1"
     pagecolor="#ffffff"
     bordercolor="#000000"
     borderopacity="0.25"
     inkscape:showpageshadow="2"
     inkscape:pageopacity="0.0"
     inkscape:pagecheckerboard="0"
     inkscape:deskcolor="#d1d1d1"
     inkscape:document-units="px"
     inkscape:zoom="5.09"
     inkscape:cx="49.901768"
     inkscape:cy="50"
     inkscape:window-width="1366"
     inkscape:window-height="705"
     inkscape:window-x="-8"
     inkscape:window-y="-8"
     inkscape:window-maximized="1"
     inkscape:current-layer="layer1" />
  <defs
     id="defs1" />
  <g
     inkscape:label="Layer 1"
     inkscape:groupmode="layer"
     id="layer1">
    <g
       transform="matrix(-1.3583404,0,0,-1.3583404,3649.6773,33612.289)"
       id="g26">&#10;		<g
   transform="matrix(0.374723,0,0,0.374723,-7901.28,11423.5)"
   id="g23">&#10;			<g
   id="g22">&#10;				<path
   style="fill:#ffb944"
   d="m 28157.666,35355.086 c 33.822,0 61.313,27.465 61.313,61.258 0,33.793 -27.49,61.285 -61.313,61.285 -33.766,0 -61.258,-27.492 -61.258,-61.285 0,-33.793 27.492,-61.258 61.258,-61.258 z m 0,112.277 c 28.117,0 51.047,-22.902 51.047,-51.02 0,-28.121 -22.93,-50.992 -51.047,-50.992 -28.119,0 -50.99,22.871 -50.99,50.992 0,28.118 22.871,51.02 50.99,51.02 z"
   id="path21" />
&#10;			</g>
&#10;		</g>
&#10;		<g
   transform="matrix(0.374723,0,0,0.374723,-7881.75,11415.2)"
   id="g25">&#10;			<g
   id="g24">&#10;				<path
   style="clip-rule:evenodd;fill:#ffb944;fill-rule:evenodd"
   d="m 28107.693,35493.828 c -3.803,1.457 -2.217,-1.266 -4.799,1.871 -1.1,1.336 -0.713,3.363 -0.896,5.09 -2.359,21.617 -0.609,43.57 -1.199,65.297 -0.102,3.016 2.258,5.543 5.268,5.645 3.01,0.102 5.531,-2.262 5.633,-5.273 0.875,-21.641 2.055,-43.371 2.055,-65.035 -0.02,-1.695 0.59,-3.605 -0.305,-5.035 -2.156,-3.438 -0.957,-0.504 -4.516,-2.469 0.04,-0.344 -0.223,-0.645 -0.568,-0.668 -0.346,-0.03 -0.653,0.233 -0.673,0.577 z"
   id="path23" />
&#10;			</g>
&#10;		</g>
&#10;	</g>
  </g>
</svg>
