<?xml version="1.0" encoding="UTF-8" standalone="no"?>
<!-- Created with Inkscape (http://www.inkscape.org/) -->

<svg
   width="100"
   height="100"
   viewBox="0 0 100 100"
   version="1.1"
   id="svg1"
   inkscape:version="1.3 (0e150ed6c4, 2023-07-21)"
   sodipodi:docname="non_binary.svg"
   xmlns:inkscape="http://www.inkscape.org/namespaces/inkscape"
   xmlns:sodipodi="http://sodipodi.sourceforge.net/DTD/sodipodi-0.dtd"
   xmlns="http://www.w3.org/2000/svg"
   xmlns:svg="http://www.w3.org/2000/svg">
  <sodipodi:namedview
     id="namedview1"
     pagecolor="#ffffff"
     bordercolor="#000000"
     borderopacity="0.25"
     inkscape:showpageshadow="2"
     inkscape:pageopacity="0.0"
     inkscape:pagecheckerboard="0"
     inkscape:deskcolor="#d1d1d1"
     inkscape:document-units="px"
     inkscape:zoom="5.09"
     inkscape:cx="49.901768"
     inkscape:cy="50"
     inkscape:window-width="1366"
     inkscape:window-height="705"
     inkscape:window-x="-8"
     inkscape:window-y="-8"
     inkscape:window-maximized="1"
     inkscape:current-layer="layer1" />
  <defs
     id="defs1" />
  <g
     inkscape:label="Layer 1"
     inkscape:groupmode="layer"
     id="layer1">
    <g
       transform="matrix(-1.3110923,0,0,-1.3110923,4482.2042,33101.093)"
       id="g48">&#10;		<g
   transform="matrix(0.374723,0,0,0.374723,-7901.28,11423.5)"
   id="g41">&#10;			<g
   id="g40">&#10;				<path
   style="fill:#2934b1"
   d="m 30107.102,36687.281 c 33.764,0 61.256,27.465 61.256,61.258 0,33.793 -27.492,61.285 -61.256,61.285 -33.766,0 -61.258,-27.492 -61.258,-61.285 0,-33.793 27.492,-61.258 61.258,-61.258 z m 0,112.278 c 28.117,0 50.99,-22.898 50.99,-51.02 0,-28.117 -22.873,-50.988 -50.99,-50.988 -28.119,0 -50.992,22.871 -50.992,50.988 0,28.121 22.872,51.02 50.992,51.02 z"
   id="path39" />
&#10;			</g>
&#10;		</g>
&#10;		<g
   transform="matrix(0.374723,0,0,0.374723,-7881.75,11415.2)"
   id="g43">&#10;			<g
   id="g42">&#10;				<path
   style="clip-rule:evenodd;fill:#2934b1;fill-rule:evenodd"
   d="m 30057.109,36826.027 c -3.68,1.336 -1.932,-1.57 -4.738,1.781 -0.203,0.23 -0.121,0.586 -0.162,0.891 -0.387,2.434 -0.814,5.172 -1.037,7.996 -0.732,9.09 -0.57,18.637 -0.57,18.637 0,0.03 0,0.06 0,0.09 l 1.078,51.25 c -0.04,2.324 1.83,4.234 4.148,4.266 2.34,0.03 4.252,-1.84 4.271,-4.168 l 2.299,-51.207 c 0,0.09 0.691,-9.324 0.752,-18.355 0,-2.773 -0.143,-5.48 -0.244,-7.891 -0.02,-0.301 0.08,-0.633 -0.06,-0.875 -2.379,-3.652 -1.059,-0.5 -4.494,-2.332 0.04,-0.344 -0.225,-0.645 -0.57,-0.668 -0.345,-0.02 -0.65,0.234 -0.672,0.581 z"
   id="path41" />
&#10;			</g>
&#10;		</g>
&#10;		<g
   transform="matrix(-0.560164,0.711621,0.25212,0.198461,14602,-5719.51)"
   id="g45">&#10;			<g
   id="g44">&#10;				<path
   style="clip-rule:evenodd;fill:#2934b1;fill-rule:evenodd"
   d="m 34521.383,32150.094 -0.711,28.992 -0.996,50.934 c -0.04,2.715 -0.855,4.846 -1.813,4.752 -0.953,-0.09 -1.707,-2.369 -1.688,-5.084 l 0.223,-51.27 c 0,-0.09 0,-0.178 0,-0.27 l 1.77,-29.846 c 0.184,-2.498 1.039,-4.125 1.914,-3.629 0.895,0.495 1.465,2.923 1.301,5.421 z"
   id="path43" />
&#10;			</g>
&#10;		</g>
&#10;		<g
   transform="matrix(0.537545,0.728858,0.258227,-0.190447,-12518,-5216.6)"
   id="g47">&#10;			<g
   id="g46">&#10;				<path
   style="clip-rule:evenodd;fill:#2934b1;fill-rule:evenodd"
   d="m 37481.262,-16489.631 -0.266,38.59 c 0,0 0,0 0,0.01 l -0.73,42.758 c -0.02,2.715 -0.813,4.879 -1.789,4.83 -0.957,-0.05 -1.73,-2.299 -1.711,-5.016 l -0.184,-42.801 c 0,-0.299 0.145,-9.885 0.449,-19.898 0.266,-7.869 0.629,-15.957 1.016,-20.271 0.184,-2.496 1.039,-4.121 1.934,-3.627 0.874,0.493 1.464,2.923 1.281,5.421 z"
   id="path45" />
&#10;			</g>
&#10;		</g>
&#10;	</g>
  </g>
</svg>
