<?xml version="1.0" encoding="UTF-8" standalone="no"?>
<!-- Uploaded to: SVG Repo, www.svgrepo.com, Generator: SVG Repo Mixer Tools -->

<svg
   fill="#000000"
   width="800px"
   height="800px"
   viewBox="0 0 52 52"
   enable-background="new 0 0 52 52"
   xml:space="preserve"
   version="1.1"
   id="svg2"
   sodipodi:docname="people.svg"
   inkscape:version="1.3 (0e150ed6c4, 2023-07-21)"
   xmlns:inkscape="http://www.inkscape.org/namespaces/inkscape"
   xmlns:sodipodi="http://sodipodi.sourceforge.net/DTD/sodipodi-0.dtd"
   xmlns="http://www.w3.org/2000/svg"
   xmlns:svg="http://www.w3.org/2000/svg"><defs
   id="defs2" /><sodipodi:namedview
   id="namedview2"
   pagecolor="#ffffff"
   bordercolor="#000000"
   borderopacity="0.25"
   inkscape:showpageshadow="2"
   inkscape:pageopacity="0.0"
   inkscape:pagecheckerboard="0"
   inkscape:deskcolor="#d1d1d1"
   inkscape:zoom="0.63625"
   inkscape:cx="399.21415"
   inkscape:cy="400"
   inkscape:window-width="1366"
   inkscape:window-height="705"
   inkscape:window-x="-8"
   inkscape:window-y="-8"
   inkscape:window-maximized="1"
   inkscape:current-layer="svg2" />&#10;<g
   id="g2">&#10;	<path
   d="M42,22.3c-2.8-1.1-3.2-2.2-3.2-3.3s0.8-2.2,1.8-3c1.7-1.4,2.6-3.5,2.6-5.8c0-4.4-2.9-8.2-8-8.2   c-4.7,0-7.5,3.2-7.9,7.1c0,0.4,0.2,0.7,0.5,0.9c3.8,2.4,6.1,6.6,6.1,11.7c0,3.8-1.5,7.2-4.2,9.6c-0.2,0.2-0.2,0.6,0,0.8   c0.7,0.5,2.3,1.2,3.3,1.7c0.3,0.1,0.5,0.2,0.8,0.2h12.1c2.3,0,4.1-1.9,4.1-4v-0.6C50,25.9,46.2,24,42,22.3z"
   id="path1"
   style="fill:#fafaf2;fill-opacity:1" />&#10;	<path
   d="M28.6,36.2c-3.4-1.4-3.9-2.6-3.9-3.9c0-1.3,1-2.6,2.1-3.6c2-1.7,3.1-4.1,3.1-6.9c0-5.2-3.4-9.7-9.6-9.7   c-6.1,0-9.6,4.5-9.6,9.7c0,2.8,1.1,5.2,3.1,6.9c1.1,1,2.1,2.3,2.1,3.6c0,1.3-0.5,2.6-4,3.9c-5,2-9.9,4.3-9.9,8.5V45v1   c0,2.2,1.8,4,4.1,4h27.7c2.3,0,4.2-1.8,4.2-4v-1v-0.4C38,40.5,33.6,38.2,28.6,36.2z"
   id="path2"
   style="fill:#fafaf2;fill-opacity:1" />&#10;</g>&#10;</svg>
