<?xml version="1.0" encoding="UTF-8" standalone="no"?>
<!-- Created with Inkscape (http://www.inkscape.org/) -->

<svg
   width="100"
   height="100"
   viewBox="0 0 100 100"
   version="1.1"
   id="svg1"
   inkscape:version="1.3 (0e150ed6c4, 2023-07-21)"
   sodipodi:docname="poligender.svg"
   xmlns:inkscape="http://www.inkscape.org/namespaces/inkscape"
   xmlns:sodipodi="http://sodipodi.sourceforge.net/DTD/sodipodi-0.dtd"
   xmlns="http://www.w3.org/2000/svg"
   xmlns:svg="http://www.w3.org/2000/svg">
  <sodipodi:namedview
     id="namedview1"
     pagecolor="#ffffff"
     bordercolor="#000000"
     borderopacity="0.25"
     inkscape:showpageshadow="2"
     inkscape:pageopacity="0.0"
     inkscape:pagecheckerboard="0"
     inkscape:deskcolor="#d1d1d1"
     inkscape:document-units="px"
     inkscape:zoom="5.09"
     inkscape:cx="49.901768"
     inkscape:cy="50"
     inkscape:window-width="1366"
     inkscape:window-height="705"
     inkscape:window-x="-8"
     inkscape:window-y="-8"
     inkscape:window-maximized="1"
     inkscape:current-layer="layer1" />
  <defs
     id="defs1" />
  <g
     inkscape:label="Layer 1"
     inkscape:groupmode="layer"
     id="layer1">
    <g
       id="g67"
       transform="matrix(0.91447512,0,0,0.91447512,-328.10897,-282.61649)">&#10;		<g
   transform="rotate(180,2092.52,12762.5)"
   id="g57">&#10;			<g
   transform="matrix(0.374723,0,0,0.374723,-7901.28,11423.5)"
   id="g50">&#10;				<g
   id="g49">&#10;					<path
   style="fill:#ffb944"
   d="m 31150.439,36604.105 c 33.764,0 61.256,27.465 61.256,61.258 0,33.793 -27.492,61.258 -61.256,61.258 -33.766,0 -61.258,-27.465 -61.258,-61.258 0,-33.793 27.493,-61.258 61.258,-61.258 z m 0,112.25 c 28.117,0 50.99,-22.871 50.99,-50.992 0,-28.117 -22.873,-50.988 -50.99,-50.988 -28.119,0 -50.99,22.871 -50.99,50.988 0,28.121 22.871,50.992 50.99,50.992 z"
   id="path48" />
&#10;				</g>
&#10;			</g>
&#10;			<g
   transform="matrix(0.374723,0,0,0.374723,-7881.75,11415.2)"
   id="g52">&#10;				<g
   id="g51">&#10;					<path
   style="clip-rule:evenodd;fill:#ffb944;fill-rule:evenodd"
   d="m 31100.432,36742.84 c -3.68,1.34 -1.932,-1.57 -4.738,1.785 -0.203,0.227 -0.121,0.586 -0.162,0.891 -0.387,2.434 -0.814,5.172 -1.037,7.992 -0.732,9.09 -0.57,18.637 -0.57,18.637 0,0.03 0,0.06 0,0.09 l 1.078,51.254 c -0.04,2.324 1.83,4.234 4.15,4.262 2.338,0.03 4.25,-1.836 4.27,-4.164 l 2.299,-51.211 c 0,0.09 0.691,-9.324 0.752,-18.355 0,-2.77 -0.143,-5.477 -0.244,-7.891 -0.02,-0.297 0.08,-0.629 -0.06,-0.871 -2.379,-3.652 -1.059,-0.504 -4.494,-2.332 0.04,-0.344 -0.225,-0.645 -0.57,-0.672 -0.347,-0.03 -0.652,0.237 -0.673,0.581 z"
   id="path50" />
&#10;				</g>
&#10;			</g>
&#10;			<g
   transform="matrix(-0.560164,0.711621,0.25212,0.198461,14602,-5719.51)"
   id="g54">&#10;				<g
   id="g53">&#10;					<path
   style="clip-rule:evenodd;fill:#ffb944;fill-rule:evenodd"
   d="m 34227.324,33047.43 -0.711,28.992 c -0.08,3.914 -0.996,50.934 -0.996,50.934 -0.04,2.715 -0.855,4.848 -1.809,4.754 -0.957,-0.09 -1.711,-2.371 -1.691,-5.086 l 0.227,-51.27 c 0,-0.09 0,-0.18 0,-0.27 l 1.77,-29.848 c 0.18,-2.496 1.035,-4.125 1.91,-3.629 0.894,0.497 1.464,2.927 1.3,5.423 z"
   id="path52" />
&#10;				</g>
&#10;			</g>
&#10;			<g
   transform="matrix(0.537545,0.728858,0.258227,-0.190447,-12518,-5216.6)"
   id="g56">&#10;				<g
   id="g55">&#10;					<path
   style="clip-rule:evenodd;fill:#ffb944;fill-rule:evenodd"
   d="m 37709.793,-15451.352 -0.266,38.591 c 0,0 0,0 0,0.01 l -0.734,42.758 c -0.02,2.715 -0.813,4.879 -1.789,4.83 -0.953,-0.05 -1.727,-2.298 -1.707,-5.016 l -0.184,-42.801 c 0,-0.299 0.145,-9.884 0.449,-19.898 0.262,-7.868 0.629,-15.957 1.016,-20.271 0.184,-2.497 1.039,-4.122 1.934,-3.628 0.871,0.495 1.461,2.925 1.281,5.422 z"
   id="path54" />
&#10;				</g>
&#10;			</g>
&#10;		</g>
&#10;		<g
   transform="matrix(0,-0.119328,-0.61167,0,4265.22,16340.1)"
   id="g59">&#10;			<g
   id="g58">&#10;				<path
   style="clip-rule:evenodd;fill:#ffb944;fill-rule:evenodd"
   d="m 133898.75,6260.804 c 7.97,1.218 9.78,0.458 14.5,2.209 4.02,1.501 1.33,3.368 1.55,5.064 1.48,12.99 -0.44,26.037 -2.19,39.067 -0.94,6.966 -0.55,13.948 -4.8,20.854 -1.09,1.788 -3.45,3.441 -5.22,5.209 0,0.848 -3.61,1.533 -7.95,1.527 -4.36,0 -7.86,-0.7 -7.84,-1.548 -1.65,-1.77 -3.9,-3.427 -4.9,-5.217 -3.89,-6.909 -3.29,-13.882 -4.03,-20.846 -1.36,-13.049 -2.9,-26.124 0,-39.122 0.36,-1.7 -2.1,-3.587 2.12,-5.072 4.96,-1.727 6.66,-0.96 14.82,-2.135 0,-0.212 0.92,-0.38 2,-0.378 1.09,0 1.95,0.176 1.95,0.388 z"
   id="path57" />
&#10;			</g>
&#10;		</g>
&#10;		<g
   transform="translate(1446.9,1281.51)"
   id="g66">&#10;			<g
   transform="matrix(0.0582533,0,0,0.536788,-69.0614,11002.7)"
   id="g61">&#10;				<g
   id="g60">&#10;					<path
   style="clip-rule:evenodd;fill:#ffb944;fill-rule:evenodd"
   d="m -16560.232,-22170.803 c -21.334,1.234 -16.961,-0.373 -30.119,1.744 -7.404,1.189 -3.396,2.779 -4.047,4.123 -6.063,12.533 -1.791,21.518 1.098,31.84 1.465,5.135 -0.51,10.635 8.623,16.969 2.096,1.449 6.609,2.734 10.27,4.248 -0.04,0.967 7.18,1.754 16.088,1.758 8.908,0 16.189,-0.777 16.209,-1.746 3.764,-1.512 8.359,-2.793 10.535,-4.24 9.52,-6.332 7.77,-11.836 9.416,-16.973 3.316,-10.307 7.934,-19.275 3.418,-31.799 -0.488,-1.346 3.701,-2.928 -3.52,-4.125 -12.893,-2.139 -8.725,-0.523 -29.896,-1.793 0.02,-0.242 -1.77,-0.439 -4.006,-0.441 -2.218,0 -4.048,0.193 -4.069,0.435 z"
   id="path59" />
&#10;				</g>
&#10;			</g>
&#10;			<g
   transform="matrix(0.00135485,0.226887,0.36416,-0.00217458,474.55,6669.55)"
   id="g63">&#10;				<g
   id="g62">&#10;					<path
   style="clip-rule:evenodd;fill:#ffb944;fill-rule:evenodd"
   d="m -33343.895,-4053.05 c 6.078,1.922 3.719,-1.171 7.543,2.361 1.527,1.411 0.609,3.347 0.672,5.048 0.449,12.959 -0.629,25.963 -1.648,38.945 -0.547,6.994 -0.426,14.031 -2.703,20.873 -0.633,1.879 -1.832,3.38 -2.828,5.196 -0.06,1.426 -1.953,2.559 -4.23,2.528 -2.297,-0.03 -4.105,-1.212 -4.066,-2.638 -0.875,-1.83 -1.992,-3.348 -2.5,-5.229 -1.914,-6.862 -1.59,-13.86 -1.934,-20.834 -0.633,-13.087 -1.344,-26.24 0.488,-39.246 0.242,-1.721 -0.449,-3.734 1.281,-5.083 4.27,-3.335 1.504,-0.392 7.852,-1.979 0.02,-0.356 0.508,-0.633 1.078,-0.616 0.566,0.015 1.015,0.318 0.995,0.674 z"
   id="path61" />
&#10;				</g>
&#10;			</g>
&#10;			<g
   transform="matrix(-0.264969,0.264969,-0.264969,-0.264969,8735.4,5779.85)"
   id="g65">&#10;				<g
   id="g64">&#10;					<path
   style="clip-rule:evenodd;fill:#ffb944;fill-rule:evenodd"
   d="m 5889.712,30978.693 c 0.02,1.012 -0.244,2.678 -0.346,4.076 -0.061,1.203 -0.549,6.398 -0.773,13.133 -0.325,9.611 -0.142,22.219 -0.203,30.857 -0.122,1.639 1.098,3.076 2.725,3.209 1.647,0.135 3.071,-1.086 3.213,-2.723 1.342,-8.533 3.58,-20.945 4.82,-30.48 0.895,-6.717 1.24,-11.951 1.362,-13.156 0.63,-7.561 -1.058,-11.49 -3.315,-13.641 -2.542,-2.439 -6.895,-3.236 -13.545,-2.738 -2.481,0.211 -16.087,1.342 -28.167,3.346 -8.277,1.373 -15.762,3.236 -18.935,4.336 -2.277,0.631 -3.641,3.004 -3.01,5.295 0.63,2.289 3.01,3.637 5.308,3.008 l 45.719,-4.619 c 2.178,-0.184 4.456,0.91 5.147,0.1 z m -0.041,-0.464 c -0.061,-0.373 -0.224,-0.549 -0.529,-0.418 -0.244,0.101 0.265,0.236 0.529,0.418 z"
   id="path63" />
&#10;				</g>
&#10;			</g>
&#10;		</g>
&#10;	</g>
  </g>
</svg>
