<?xml version="1.0" encoding="UTF-8" standalone="no"?>
<!-- Uploaded to: SVG Repo, www.svgrepo.com, Generator: SVG Repo Mixer Tools -->

<svg
   fill="#000000"
   version="1.1"
   id="earth"
   width="800px"
   height="800px"
   viewBox="0 0 256 252"
   enable-background="new 0 0 256 252"
   xml:space="preserve"
   sodipodi:docname="relationship-counseling-marriage-counseling-couples-therapy-marriage-therapy-svgrepo-com.svg"
   inkscape:version="1.3 (0e150ed6c4, 2023-07-21)"
   xmlns:inkscape="http://www.inkscape.org/namespaces/inkscape"
   xmlns:sodipodi="http://sodipodi.sourceforge.net/DTD/sodipodi-0.dtd"
   xmlns="http://www.w3.org/2000/svg"
   xmlns:svg="http://www.w3.org/2000/svg"><defs
   id="defs1" /><sodipodi:namedview
   id="namedview1"
   pagecolor="#ffffff"
   bordercolor="#000000"
   borderopacity="0.25"
   inkscape:showpageshadow="2"
   inkscape:pageopacity="0.0"
   inkscape:pagecheckerboard="0"
   inkscape:deskcolor="#d1d1d1"
   inkscape:zoom="0.63625"
   inkscape:cx="399.21415"
   inkscape:cy="400"
   inkscape:window-width="1366"
   inkscape:window-height="705"
   inkscape:window-x="-8"
   inkscape:window-y="-8"
   inkscape:window-maximized="1"
   inkscape:current-layer="earth" />&#10;<path
   d="M126.835,163.4L55.199,89.977c-20.59-18.103-23.154-49.959-4.973-70.626l0,0c18.103-20.59,50.036-23.076,70.626-4.973  L128,20.594l7.148-6.216c20.978-18.181,52.523-15.617,70.626,4.973l0,0c18.181,20.978,15.617,52.523-4.973,70.626L126.835,163.4z   M165.275,203.859c0-8.89,3.426-17.781,10.187-24.634l41.118-41.118c4.353-4.353,11.391-4.353,15.743,0  c4.353,4.353,4.353,11.391,0,15.743l-33.153,33.153c-1.482,1.296-1.482,3.612,0,5.093c1.482,1.482,3.797,1.482,5.279,0  l32.968-32.968c3.612-3.426,5.464-8.149,5.464-13.058s-2.037-9.631-5.464-13.058c-1.482-1.667-3.612-3.056-5.649-3.982V82.265  c0-6.205,4.908-11.205,11.02-11.205c6.205,0,11.206,5.093,11.206,11.205v76.123c0.185,9.076-3.241,18.892-10.187,25.93  l-28.616,28.616c-3.612,3.612-5.464,8.335-5.464,13.058v23.819h-44.359v-45.952H165.275z M90.632,203.859v45.952H46.273v-23.819  c0-4.723-1.852-9.446-5.464-13.058l-28.616-28.616c-6.946-7.038-10.372-16.855-10.187-25.93V82.265  c0-6.112,5.001-11.205,11.205-11.205c6.112,0,11.02,5.001,11.02,11.205v46.767c-2.037,0.926-4.167,2.315-5.649,3.982  c-3.426,3.426-5.464,8.149-5.464,13.058s1.852,9.631,5.464,13.058l32.968,32.968c1.482,1.482,3.797,1.482,5.279,0  s1.482-3.797,0-5.093l-33.153-33.153c-4.353-4.353-4.353-11.391,0-15.743c4.353-4.353,11.391-4.353,15.743,0l41.118,41.118  c6.76,6.853,10.187,15.743,10.187,24.634H90.632z"
   id="path1"
   style="fill:#101010;fill-opacity:1" />&#10;</svg>
