<?xml version="1.0" encoding="UTF-8" standalone="no"?>
<!-- Uploaded to: SVG Repo, www.svgrepo.com, Generator: SVG Repo Mixer Tools -->

<svg
   width="800px"
   height="800px"
   viewBox="-0.01 -0.008 100.016 100.016"
   version="1.1"
   id="svg7"
   sodipodi:docname="save.svg"
   inkscape:version="1.3 (0e150ed6c4, 2023-07-21)"
   xmlns:inkscape="http://www.inkscape.org/namespaces/inkscape"
   xmlns:sodipodi="http://sodipodi.sourceforge.net/DTD/sodipodi-0.dtd"
   xmlns="http://www.w3.org/2000/svg"
   xmlns:svg="http://www.w3.org/2000/svg">
  <defs
     id="defs7" />
  <sodipodi:namedview
     id="namedview7"
     pagecolor="#ffffff"
     bordercolor="#000000"
     borderopacity="0.25"
     inkscape:showpageshadow="2"
     inkscape:pageopacity="0.0"
     inkscape:pagecheckerboard="0"
     inkscape:deskcolor="#d1d1d1"
     inkscape:zoom="0.63625"
     inkscape:cx="399.21415"
     inkscape:cy="398.42829"
     inkscape:window-width="1366"
     inkscape:window-height="705"
     inkscape:window-x="-8"
     inkscape:window-y="-8"
     inkscape:window-maximized="1"
     inkscape:current-layer="svg7" />
  <path
     fill="#23475F"
     d="m 84.919172,4.7078821 h -5.031149 v 0.014491 A 1.8113949,1.8113949 0 0 1 78.076628,6.5337682 H 21.923387 A 1.8113949,1.8113949 0 0 1 20.111992,4.7223733 V 4.7078821 H 8.3379249 A 3.6227898,3.6227898 0 0 0 4.7151351,8.3306719 V 91.669328 a 3.6227898,3.6227898 0 0 0 3.6227898,3.62279 H 91.66209 a 3.6227898,3.6227898 0 0 0 3.62279,-3.62279 V 15.146045 C 95.329259,15.065438 84.927324,4.7721866 84.919172,4.7078821 Z"
     id="path1"
     style="fill:#7f7f7f;fill-opacity:1;stroke-width:0.905697" />
  <path
     fill="#1C3C50"
     d="M 78.112856,52.724338 H 21.887159 a 1.8113949,1.8113949 0 0 0 -1.811395,1.811395 V 95.292118 H 79.924251 V 54.535733 c 0,-1.001702 -0.810599,-1.811395 -1.811395,-1.811395 z M 21.998559,43.667363 H 78.001455 A 1.8113949,1.8113949 0 0 0 79.81285,41.855969 V 5.2105442 A 1.805055,1.805055 0 0 1 78.076628,6.5328625 H 21.923387 c -0.829619,0 -1.522478,-0.5615324 -1.736222,-1.3223183 V 41.855063 a 1.8113949,1.8113949 0 0 0 1.811394,1.8123 z"
     id="path2"
     style="fill:#101010;fill-opacity:1;stroke-width:0.905697" />
  <path
     fill="#EBF0F1"
     d="m 24.640479,55.413354 h 50.719057 a 1.8113949,1.8113949 0 0 1 1.811395,1.811395 v 33.538882 a 1.8113949,1.8113949 0 0 1 -1.811395,1.811395 H 24.640479 c -0.99989,0 -1.811395,-0.358657 -1.811395,-1.358547 v -33.99173 a 1.8113949,1.8113949 0 0 1 1.811395,-1.811395 z"
     id="path3"
     style="fill:#fafaf2;fill-opacity:1;stroke-width:0.905697" />
  <path
     fill="#BCC4C8"
     d="m 27.357571,74.461077 h 45.284873 v 0.905697 H 27.357571 Z m 0,9.056974 h 45.284873 v 0.905698 H 27.357571 Z"
     id="path4"
     style="fill:#7f7f7f;fill-opacity:1;stroke-width:0.905697" />
  <path
     fill="#1C3C50"
     d="m 11.055017,80.800959 h 2.717093 a 1.8113949,1.8113949 0 0 1 1.811394,1.811395 v 2.717092 A 1.8113949,1.8113949 0 0 1 13.77211,87.140841 H 11.055017 A 1.8113949,1.8113949 0 0 1 9.2436223,85.329446 v -2.717092 a 1.8113949,1.8113949 0 0 1 1.8113947,-1.811395 z m 75.172888,0 h 2.717093 a 1.8113949,1.8113949 0 0 1 1.811394,1.811395 v 2.717092 a 1.8113949,1.8113949 0 0 1 -1.811394,1.811395 H 86.227905 A 1.8113949,1.8113949 0 0 1 84.41651,85.329446 v -2.717092 a 1.8113949,1.8113949 0 0 1 1.811395,-1.811395 z"
     id="path5"
     style="fill:#101010;fill-opacity:1;stroke-width:0.905697" />
  <path
     fill="#BCC4C8"
     d="M 38.225941,6.5093143 V 39.137971 a 1.8113949,1.8113949 0 0 0 1.811394,1.811394 h 35.322201 a 1.8113949,1.8113949 0 0 0 1.811395,-1.811394 V 6.5093143 c 0,0.00634 -38.928688,0.00634 -38.94499,0 z M 71.736746,32.798994 a 1.8113949,1.8113949 0 0 1 -1.811395,1.811395 H 64.491167 A 1.8113949,1.8113949 0 0 1 62.679772,32.798994 V 14.660591 a 1.8113949,1.8113949 0 0 1 1.811395,-1.811395 h 5.434184 a 1.8113949,1.8113949 0 0 1 1.811395,1.811395 z"
     id="path6"
     style="fill:#fafaf2;fill-opacity:1;stroke-width:0.905697" />
  <path
     fill="#FF9D00"
     d="M 75.359536,55.413354 H 24.640479 a 1.8113949,1.8113949 0 0 0 -1.811395,1.811395 V 66.3098 h 54.341847 v -9.085051 a 1.8113949,1.8113949 0 0 0 -1.811395,-1.811395 z"
     id="path7"
     style="fill:#00bbbb;fill-opacity:1;stroke-width:0.905697" />
</svg>
