<?xml version="1.0" encoding="UTF-8" standalone="no"?>
<!-- Generator: Adobe Illustrator 27.5.0, SVG Export Plug-In . SVG Version: 6.00 Build 0)  -->

<svg
   version="1.1"
   x="0px"
   y="0px"
   viewBox="0 0 500 500"
   style="enable-background:new 0 0 500 500;"
   xml:space="preserve"
   id="svg148"
   sodipodi:docname="selfdev.svg"
   inkscape:version="1.3 (0e150ed6c4, 2023-07-21)"
   inkscape:export-filename="selfdev.png"
   inkscape:export-xdpi="96"
   inkscape:export-ydpi="96"
   xmlns:inkscape="http://www.inkscape.org/namespaces/inkscape"
   xmlns:sodipodi="http://sodipodi.sourceforge.net/DTD/sodipodi-0.dtd"
   xmlns="http://www.w3.org/2000/svg"
   xmlns:svg="http://www.w3.org/2000/svg"><defs
   id="defs148">&#10;	&#10;&#10;		&#10;		&#10;		&#10;		&#10;		&#10;		&#10;		&#10;		&#10;		&#10;		&#10;		&#10;		&#10;	&#10;			&#10;			&#10;		&#10;				&#10;				&#10;			&#10;	&#10;&#10;		&#10;			&#10;		&#10;			&#10;		&#10;			&#10;		&#10;			&#10;		&#10;			&#10;		&#10;		&#10;		&#10;		&#10;		&#10;			&#10;		&#10;			&#10;		&#10;			&#10;		&#10;			&#10;		&#10;		&#10;		&#10;		&#10;		&#10;	&#10;			&#10;			&#10;			&#10;			&#10;				&#10;			&#10;			&#10;		&#10;	&#10;	&#10;&#10;		&#10;			&#10;		&#10;			&#10;		&#10;			&#10;		&#10;			&#10;		&#10;			&#10;	&#10;	&#10;	&#10;&#10;		&#10;		&#10;	&#10;		&#10;		&#10;			&#10;	&#10;		&#10;		&#10;	&#10;	&#10;&#10;		&#10;		&#10;	</defs><sodipodi:namedview
   id="namedview148"
   pagecolor="#ffffff"
   bordercolor="#000000"
   borderopacity="0.25"
   inkscape:showpageshadow="2"
   inkscape:pageopacity="0.0"
   inkscape:pagecheckerboard="0"
   inkscape:deskcolor="#d1d1d1"
   inkscape:zoom="0.66609459"
   inkscape:cx="292.00057"
   inkscape:cy="258.97223"
   inkscape:window-width="1366"
   inkscape:window-height="705"
   inkscape:window-x="-8"
   inkscape:window-y="-8"
   inkscape:window-maximized="1"
   inkscape:current-layer="svg148" />&#10;<path
   style="fill:#13bfa1;fill-opacity:1"
   d="m 460.779,397.506 c 7.336,-15.772 10.58,-33.324 12.829,-50.371 6.207,-47.026 3.728,-95.362 -9.846,-141.094 C 432.809,101.762 373.286,39.495 297.889,32.743 222.492,25.991 150.27,66.502 122.492,143.023 94.714,219.544 16.143,283.312 29.635,345.579 c 13.492,62.267 72.222,105.028 188.095,119.282 50.476,6.209 103.914,9.008 153.619,-3.476 28.373,-7.126 56.264,-20.915 75.426,-42.35 5.88,-6.576 10.428,-13.841 14.004,-21.529 z"
   id="path1" /><path
   style="display:inline;opacity:0.7;fill:#ffffff"
   d="m 460.779,397.506 c 7.336,-15.772 10.58,-33.324 12.829,-50.371 6.207,-47.026 3.728,-95.362 -9.846,-141.094 C 432.809,101.762 373.286,39.495 297.889,32.743 222.492,25.991 150.27,66.502 122.492,143.023 94.714,219.544 16.143,283.312 29.635,345.579 c 13.492,62.267 72.222,105.028 188.095,119.282 50.476,6.209 103.914,9.008 153.619,-3.476 28.373,-7.126 56.264,-20.915 75.426,-42.35 5.88,-6.576 10.428,-13.841 14.004,-21.529 z"
   id="path2" />&#10;&#10;<rect
   x="250.10201"
   y="116.245"
   style="fill:#13bfa1;stroke:#263238;stroke-linecap:round;stroke-linejoin:round;stroke-miterlimit:10;fill-opacity:1"
   width="14.814"
   height="14.814"
   id="rect4" /><rect
   x="114.19038"
   y="295.57745"
   transform="rotate(-41.115858)"
   style="fill:#13bfa1;stroke:#263238;stroke-width:1.00002;stroke-linecap:round;stroke-linejoin:round;stroke-miterlimit:10;fill-opacity:1"
   width="14.814365"
   height="14.814365"
   id="rect5" /><rect
   x="94.799652"
   y="191.05959"
   transform="rotate(-41.111541)"
   style="fill:#263238;stroke:#263238;stroke-width:0.999959;stroke-linecap:round;stroke-linejoin:round;stroke-miterlimit:10"
   width="14.813392"
   height="14.813392"
   id="rect6" /><rect
   x="55.346226"
   y="236.26294"
   transform="rotate(-41.111541)"
   style="fill:#ffffff;stroke:#263238;stroke-width:0.999959;stroke-linecap:round;stroke-linejoin:round;stroke-miterlimit:10"
   width="14.813392"
   height="14.813392"
   id="rect7" /><rect
   x="144.96675"
   y="233.95375"
   transform="rotate(-41.115858)"
   style="fill:#13bfa1;stroke:#263238;stroke-width:1.00002;stroke-linecap:round;stroke-linejoin:round;stroke-miterlimit:10;fill-opacity:1"
   width="14.814365"
   height="14.814365"
   id="rect8" /><polygon
   style="fill:#263238;stroke:#263238;stroke-linecap:round;stroke-linejoin:round;stroke-miterlimit:10"
   points="269.675,160.451 263.395,157.15 257.116,160.451 258.315,153.459 253.235,148.507 260.255,147.487 263.395,141.125 266.535,147.487 273.556,148.507 268.475,153.459 "
   id="polygon8" /><polygon
   style="fill:#13bfa1;stroke:#263238;stroke-linecap:round;stroke-linejoin:round;stroke-miterlimit:10;fill-opacity:1"
   points="216.199,115.326 209.92,112.024 203.64,115.326 204.839,108.333 199.759,103.381 206.78,102.361 209.92,95.999 213.059,102.361 220.08,103.381 215,108.333 "
   id="polygon9" /><polygon
   style="fill:#ffffff;stroke:#263238;stroke-linecap:round;stroke-linejoin:round;stroke-miterlimit:10"
   points="293.721,78.975 291.499,72.238 284.689,70.248 290.41,66.053 290.198,58.962 295.956,63.107 302.634,60.713 300.472,67.47 304.812,73.082 297.717,73.113 "
   id="polygon10" /><polygon
   style="fill:#13bfa1;stroke:#263238;stroke-linecap:round;stroke-linejoin:round;stroke-miterlimit:10;fill-opacity:1"
   points="274.919,178.186 268.71,181.618 268.017,188.678 262.834,183.833 255.905,185.356 258.911,178.93 255.322,172.81 262.363,173.684 267.074,168.379 268.419,175.345 "
   id="polygon11" /><circle
   transform="rotate(-76.655808)"
   style="fill:#ffffff;stroke:#263238;stroke-width:0.999999;stroke-linecap:round;stroke-linejoin:round;stroke-miterlimit:10"
   cx="-52.416286"
   cy="305.08862"
   id="ellipse11"
   r="10.411987" /><circle
   transform="rotate(-45)"
   style="fill:#ffffff;stroke:#263238;stroke-width:0.99999;stroke-linecap:round;stroke-linejoin:round;stroke-miterlimit:10"
   cx="40.066734"
   cy="305.46863"
   id="ellipse12"
   r="10.4119" /><circle
   transform="rotate(-20.511786)"
   style="fill:#263238;stroke:#263238;stroke-linecap:round;stroke-linejoin:round;stroke-miterlimit:10"
   cx="265.63187"
   cy="194.65651"
   id="ellipse13"
   r="10.412" /><circle
   transform="rotate(-76.655808)"
   style="fill:#ffffff;stroke:#263238;stroke-width:0.999999;stroke-linecap:round;stroke-linejoin:round;stroke-miterlimit:10"
   cx="-44.716789"
   cy="256.67093"
   id="ellipse14"
   r="10.411987" /><polygon
   style="fill:#263238;stroke:#263238;stroke-linecap:round;stroke-linejoin:round;stroke-miterlimit:10"
   points="223.312,124.064 222.576,143.702 239.952,134.52 "
   id="polygon14" /><polygon
   style="fill:#263238;stroke:#263238;stroke-linecap:round;stroke-linejoin:round;stroke-miterlimit:10"
   points="314.687,108.088 299.486,120.545 317.874,127.481 "
   id="polygon15" /><polygon
   style="fill:#13bfa1;stroke:#263238;stroke-linecap:round;stroke-linejoin:round;stroke-miterlimit:10;fill-opacity:1"
   points="247.063,151.465 229.662,160.598 246.272,171.101 "
   id="polygon16" /><polygon
   style="fill:#13bfa1;stroke:#263238;stroke-linecap:round;stroke-linejoin:round;stroke-miterlimit:10;fill-opacity:1"
   points="297.825,85.433 280.424,94.566 297.034,105.07 "
   id="polygon17" /><polygon
   style="fill:#13bfa1;stroke:#263238;stroke-linecap:round;stroke-linejoin:round;stroke-miterlimit:10;fill-opacity:1"
   points="239.341,84.248 248.741,66.989 229.094,67.478 "
   id="polygon18" />&#10;<g
   id="Graphics">&#10;	<g
   style="opacity:0.3;"
   id="g27">&#10;		<g
   id="g23">&#10;			<g
   id="g19">&#10;				<path
   d="M392.561,153.104c-0.13,0-0.256-0.051-0.349-0.142c-0.097-0.094-0.151-0.223-0.151-0.358v-6.493      c0-3.322-0.314-15.02-0.317-15.138c-0.007-0.27,0.2-0.497,0.47-0.513c0.079-0.005,8.044-0.483,14.661-0.241      c6.573,0.236,10.079,0.003,10.115,0.001c0.131-0.004,0.267,0.036,0.367,0.126c0.101,0.09,0.16,0.216,0.167,0.351l0.953,21.645      c0.006,0.136-0.044,0.269-0.139,0.368c-0.095,0.099-0.225,0.154-0.361,0.154H406.54c-4.391,0-13.871,0.238-13.966,0.24      C392.57,153.104,392.565,153.104,392.561,153.104z M392.757,131.432c0.06,2.258,0.305,11.734,0.305,14.679v5.981      c2.043-0.05,9.668-0.228,13.479-0.228h10.915l-0.908-20.619c-1.205,0.056-4.518,0.162-9.707-0.026      C401.201,131.014,394.576,131.333,392.757,131.432z"
   id="path18" />&#10;			</g>&#10;			<g
   id="g20">&#10;				<path
   d="M408.753,132.534c0-0.918-0.745-1.663-1.663-1.663c-0.918,0-1.663,0.744-1.663,1.663c0,0.918,0.745,1.663,1.663,1.663      C408.008,134.196,408.753,133.452,408.753,132.534z"
   id="path19" />&#10;			</g>&#10;			<g
   id="g21">&#10;				<circle
   cx="409.03"
   cy="131.393"
   r="1.663"
   id="circle20" />&#10;			</g>&#10;			<g
   id="g22">&#10;				<path
   d="M405.039,134.615c-0.137,0-0.272-0.056-0.371-0.165c-0.186-0.205-0.169-0.521,0.036-0.706l1.141-1.027      c0.204-0.186,0.521-0.168,0.706,0.037c0.186,0.205,0.169,0.521-0.036,0.706l-1.141,1.027      C405.278,134.572,405.158,134.615,405.039,134.615z"
   id="path21" />&#10;			</g>&#10;		</g>&#10;		<g
   id="g24">&#10;			<path
   d="M410.754,139.129h-12.898c-0.276,0-0.5-0.224-0.5-0.5c0-0.276,0.224-0.5,0.5-0.5h12.898c0.276,0,0.5,0.224,0.5,0.5     C411.254,138.906,411.03,139.129,410.754,139.129z"
   id="path23" />&#10;		</g>&#10;		<g
   id="g25">&#10;			<path
   d="M411.513,143.429h-13.657c-0.276,0-0.5-0.224-0.5-0.5s0.224-0.5,0.5-0.5h13.657c0.276,0,0.5,0.224,0.5,0.5     S411.789,143.429,411.513,143.429z"
   id="path24" />&#10;		</g>&#10;		<g
   id="g26">&#10;			<path
   d="M411.766,147.476h-13.91c-0.276,0-0.5-0.224-0.5-0.5s0.224-0.5,0.5-0.5h13.91c0.276,0,0.5,0.224,0.5,0.5     S412.042,147.476,411.766,147.476z"
   id="path25" />&#10;		</g>&#10;	</g>&#10;	<g
   style="opacity:0.3;"
   id="g36">&#10;		<g
   id="g32">&#10;			<g
   id="g28">&#10;				<path
   d="M456.05,226.388c-0.13,0-0.256-0.051-0.349-0.142c-0.097-0.094-0.151-0.223-0.151-0.358v-6.493      c0-3.322-0.314-15.02-0.317-15.138c-0.007-0.27,0.2-0.497,0.47-0.513c0.079-0.005,8.044-0.483,14.661-0.241      c6.573,0.236,10.079,0.003,10.115,0c0.131-0.004,0.267,0.036,0.367,0.126c0.101,0.09,0.16,0.216,0.167,0.351l0.953,21.645      c0.006,0.136-0.044,0.269-0.139,0.368c-0.095,0.099-0.225,0.154-0.361,0.154h-11.438c-4.391,0-13.871,0.238-13.966,0.24      C456.059,226.388,456.054,226.388,456.05,226.388z M456.245,204.716c0.06,2.258,0.305,11.734,0.305,14.679v5.981      c2.043-0.05,9.668-0.228,13.479-0.228h10.915l-0.908-20.619c-1.205,0.056-4.518,0.162-9.707-0.026      C464.69,204.298,458.065,204.618,456.245,204.716z"
   id="path27" />&#10;			</g>&#10;			<g
   id="g29">&#10;				<path
   d="M472.241,205.818c0-0.918-0.744-1.663-1.663-1.663s-1.663,0.744-1.663,1.663s0.744,1.663,1.663,1.663      S472.241,206.736,472.241,205.818z"
   id="path28" />&#10;			</g>&#10;			<g
   id="g30">&#10;				<path
   d="M474.181,204.677c0-0.918-0.744-1.663-1.663-1.663s-1.663,0.745-1.663,1.663c0,0.918,0.744,1.663,1.663,1.663      S474.181,205.595,474.181,204.677z"
   id="path29" />&#10;			</g>&#10;			<g
   id="g31">&#10;				<path
   d="M468.528,207.899c-0.137,0-0.272-0.056-0.371-0.165c-0.186-0.205-0.169-0.521,0.036-0.706l1.141-1.027      c0.204-0.186,0.522-0.169,0.706,0.037c0.185,0.205,0.169,0.521-0.036,0.706l-1.141,1.027      C468.767,207.856,468.647,207.899,468.528,207.899z"
   id="path30" />&#10;			</g>&#10;		</g>&#10;		<g
   id="g33">&#10;			<path
   d="M474.242,212.414h-12.898c-0.276,0-0.5-0.224-0.5-0.5c0-0.276,0.224-0.5,0.5-0.5h12.898c0.276,0,0.5,0.224,0.5,0.5     C474.742,212.19,474.519,212.414,474.242,212.414z"
   id="path32" />&#10;		</g>&#10;		<g
   id="g34">&#10;			<path
   d="M475.001,216.713h-13.657c-0.276,0-0.5-0.224-0.5-0.5c0-0.276,0.224-0.5,0.5-0.5h13.657c0.276,0,0.5,0.224,0.5,0.5     C475.501,216.489,475.278,216.713,475.001,216.713z"
   id="path33" />&#10;		</g>&#10;		<g
   id="g35">&#10;			<path
   d="M475.254,220.76h-13.91c-0.276,0-0.5-0.224-0.5-0.5c0-0.276,0.224-0.5,0.5-0.5h13.91c0.276,0,0.5,0.224,0.5,0.5     C475.754,220.536,475.531,220.76,475.254,220.76z"
   id="path34" />&#10;		</g>&#10;	</g>&#10;	<g
   style="opacity:0.3;"
   id="g45">&#10;		<g
   id="g41">&#10;			<g
   id="g37">&#10;				<path
   d="M161.011,190.351c-0.13,0-0.256-0.051-0.349-0.142c-0.097-0.094-0.151-0.223-0.151-0.358v-6.493      c0-3.322-0.314-15.02-0.317-15.138c-0.007-0.27,0.2-0.497,0.47-0.513c0.079-0.005,8.044-0.483,14.661-0.241      c6.573,0.236,10.079,0.003,10.115,0.001c0.131-0.004,0.267,0.036,0.367,0.126c0.101,0.09,0.16,0.216,0.167,0.351l0.953,21.645      c0.006,0.136-0.044,0.269-0.139,0.368c-0.095,0.099-0.225,0.154-0.361,0.154h-11.438c-4.391,0-13.871,0.238-13.966,0.24      C161.02,190.351,161.015,190.351,161.011,190.351z M161.206,168.679c0.059,2.258,0.305,11.734,0.305,14.679v5.981      c2.043-0.05,9.668-0.228,13.479-0.228h10.915l-0.908-20.619c-1.205,0.056-4.518,0.162-9.707-0.026      C169.65,168.261,163.025,168.581,161.206,168.679z"
   id="path36" />&#10;			</g>&#10;			<g
   id="g38">&#10;				<path
   d="M177.202,169.781c0-0.918-0.744-1.663-1.663-1.663c-0.918,0-1.663,0.745-1.663,1.663c0,0.918,0.744,1.663,1.663,1.663      C176.457,171.443,177.202,170.699,177.202,169.781z"
   id="path37" />&#10;			</g>&#10;			<g
   id="g39">&#10;				<path
   d="M179.142,168.639c0-0.918-0.745-1.663-1.663-1.663c-0.918,0-1.663,0.744-1.663,1.663c0,0.918,0.744,1.663,1.663,1.663      C178.397,170.302,179.142,169.558,179.142,168.639z"
   id="path38" />&#10;			</g>&#10;			<g
   id="g40">&#10;				<path
   d="M173.488,171.862c-0.137,0-0.273-0.056-0.371-0.165c-0.186-0.205-0.169-0.521,0.036-0.706l1.141-1.027      c0.204-0.186,0.521-0.169,0.706,0.037c0.186,0.205,0.169,0.521-0.036,0.706l-1.141,1.027      C173.727,171.819,173.607,171.862,173.488,171.862z"
   id="path39" />&#10;			</g>&#10;		</g>&#10;		<g
   id="g42">&#10;			<path
   d="M179.203,176.376h-12.898c-0.276,0-0.5-0.224-0.5-0.5c0-0.276,0.224-0.5,0.5-0.5h12.898c0.276,0,0.5,0.224,0.5,0.5     C179.703,176.153,179.479,176.376,179.203,176.376z"
   id="path41" />&#10;		</g>&#10;		<g
   id="g43">&#10;			<path
   d="M179.962,180.676h-13.657c-0.276,0-0.5-0.224-0.5-0.5c0-0.276,0.224-0.5,0.5-0.5h13.657c0.276,0,0.5,0.224,0.5,0.5     C180.462,180.452,180.238,180.676,179.962,180.676z"
   id="path42" />&#10;		</g>&#10;		<g
   id="g44">&#10;			<path
   d="M180.215,184.723h-13.91c-0.276,0-0.5-0.224-0.5-0.5c0-0.276,0.224-0.5,0.5-0.5h13.91c0.276,0,0.5,0.224,0.5,0.5     C180.715,184.499,180.491,184.723,180.215,184.723z"
   id="path43" />&#10;		</g>&#10;	</g>&#10;	<g
   style="opacity:0.3;"
   id="g54">&#10;		<g
   id="g50">&#10;			<g
   id="g46">&#10;				<path
   d="M357.865,186.045c-0.13,0-0.256-0.051-0.349-0.142c-0.097-0.094-0.151-0.223-0.151-0.358v-6.493      c0-3.322-0.314-15.02-0.317-15.138c-0.007-0.27,0.2-0.497,0.47-0.513c0.079-0.005,8.044-0.483,14.661-0.241      c6.573,0.236,10.079,0.003,10.115,0.001c0.131-0.004,0.267,0.036,0.367,0.126c0.101,0.09,0.16,0.216,0.167,0.351l0.953,21.645      c0.006,0.136-0.044,0.269-0.139,0.368c-0.095,0.099-0.225,0.154-0.361,0.154h-11.438c-4.391,0-13.871,0.238-13.966,0.24      C357.874,186.045,357.869,186.045,357.865,186.045z M358.06,164.372c0.06,2.258,0.305,11.734,0.305,14.679v5.981      c2.043-0.05,9.668-0.228,13.479-0.228h10.915l-0.908-20.619c-1.205,0.056-4.518,0.162-9.707-0.026      C366.504,163.955,359.879,164.274,358.06,164.372z"
   id="path45" />&#10;			</g>&#10;			<g
   id="g47">&#10;				<path
   d="M374.056,165.475c0-0.918-0.744-1.663-1.663-1.663c-0.918,0-1.663,0.745-1.663,1.663c0,0.918,0.744,1.663,1.663,1.663      C373.312,167.137,374.056,166.393,374.056,165.475z"
   id="path46" />&#10;			</g>&#10;			<g
   id="g48">&#10;				<path
   d="M375.996,164.333c0-0.918-0.745-1.663-1.663-1.663c-0.918,0-1.663,0.744-1.663,1.663s0.744,1.663,1.663,1.663      C375.252,165.996,375.996,165.252,375.996,164.333z"
   id="path47" />&#10;			</g>&#10;			<g
   id="g49">&#10;				<path
   d="M370.342,167.556c-0.137,0-0.272-0.056-0.371-0.165c-0.186-0.205-0.169-0.521,0.036-0.706l1.141-1.027      c0.204-0.186,0.521-0.168,0.706,0.037c0.185,0.205,0.169,0.521-0.036,0.706l-1.141,1.027      C370.582,167.513,370.461,167.556,370.342,167.556z"
   id="path48" />&#10;			</g>&#10;		</g>&#10;		<g
   id="g51">&#10;			<path
   d="M376.057,172.07h-12.898c-0.276,0-0.5-0.224-0.5-0.5c0-0.276,0.224-0.5,0.5-0.5h12.898c0.276,0,0.5,0.224,0.5,0.5     C376.557,171.847,376.334,172.07,376.057,172.07z"
   id="path50" />&#10;		</g>&#10;		<g
   id="g52">&#10;			<path
   d="M376.816,176.37h-13.657c-0.276,0-0.5-0.224-0.5-0.5c0-0.276,0.224-0.5,0.5-0.5h13.657c0.276,0,0.5,0.224,0.5,0.5     C377.316,176.146,377.092,176.37,376.816,176.37z"
   id="path51" />&#10;		</g>&#10;		<g
   id="g53">&#10;			<path
   d="M377.069,180.416h-13.91c-0.276,0-0.5-0.224-0.5-0.5c0-0.276,0.224-0.5,0.5-0.5h13.91c0.276,0,0.5,0.224,0.5,0.5     C377.569,180.193,377.345,180.416,377.069,180.416z"
   id="path52" />&#10;		</g>&#10;	</g>&#10;	<g
   style="opacity:0.3;"
   id="g63">&#10;		<g
   id="g59">&#10;			<g
   id="g55">&#10;				<path
   d="M419.198,186.045c-0.13,0-0.256-0.051-0.349-0.142c-0.097-0.094-0.151-0.223-0.151-0.358v-6.493      c0-3.322-0.314-15.02-0.317-15.138c-0.007-0.27,0.2-0.497,0.47-0.513c0.079-0.005,8.044-0.483,14.661-0.241      c6.573,0.236,10.079,0.003,10.115,0.001c0.131-0.004,0.267,0.036,0.367,0.126c0.101,0.09,0.16,0.216,0.167,0.351l0.953,21.645      c0.006,0.136-0.044,0.269-0.139,0.368c-0.095,0.099-0.225,0.154-0.361,0.154h-11.438c-4.391,0-13.871,0.238-13.966,0.24      C419.207,186.045,419.202,186.045,419.198,186.045z M419.393,164.372c0.06,2.258,0.305,11.734,0.305,14.679v5.981      c2.043-0.05,9.668-0.228,13.479-0.228h10.915l-0.908-20.619c-1.205,0.056-4.518,0.162-9.707-0.026      C427.838,163.955,421.213,164.274,419.393,164.372z"
   id="path54" />&#10;			</g>&#10;			<g
   id="g56">&#10;				<path
   d="M435.389,165.475c0-0.918-0.744-1.663-1.663-1.663s-1.663,0.745-1.663,1.663c0,0.918,0.744,1.663,1.663,1.663      S435.389,166.393,435.389,165.475z"
   id="path55" />&#10;			</g>&#10;			<g
   id="g57">&#10;				<path
   d="M437.329,164.333c0-0.918-0.744-1.663-1.663-1.663s-1.663,0.744-1.663,1.663s0.745,1.663,1.663,1.663      S437.329,165.252,437.329,164.333z"
   id="path56" />&#10;			</g>&#10;			<g
   id="g58">&#10;				<path
   d="M431.676,167.556c-0.137,0-0.272-0.056-0.371-0.165c-0.186-0.205-0.169-0.521,0.036-0.706l1.141-1.027      c0.204-0.186,0.522-0.168,0.706,0.037c0.186,0.205,0.169,0.521-0.036,0.706l-1.141,1.027      C431.915,167.513,431.795,167.556,431.676,167.556z"
   id="path57" />&#10;			</g>&#10;		</g>&#10;		<g
   id="g60">&#10;			<path
   d="M437.391,172.07h-12.898c-0.276,0-0.5-0.224-0.5-0.5c0-0.276,0.224-0.5,0.5-0.5h12.898c0.276,0,0.5,0.224,0.5,0.5     C437.891,171.847,437.667,172.07,437.391,172.07z"
   id="path59" />&#10;		</g>&#10;		<g
   id="g61">&#10;			<path
   d="M438.149,176.37h-13.657c-0.276,0-0.5-0.224-0.5-0.5c0-0.276,0.224-0.5,0.5-0.5h13.657c0.276,0,0.5,0.224,0.5,0.5     C438.649,176.146,438.426,176.37,438.149,176.37z"
   id="path60" />&#10;		</g>&#10;		<g
   id="g62">&#10;			<path
   d="M438.402,180.416h-13.91c-0.276,0-0.5-0.224-0.5-0.5c0-0.276,0.224-0.5,0.5-0.5h13.91c0.276,0,0.5,0.224,0.5,0.5     C438.902,180.193,438.679,180.416,438.402,180.416z"
   id="path61" />&#10;		</g>&#10;	</g>&#10;	<g
   style="opacity:0.3;"
   id="g72">&#10;		<g
   id="g68">&#10;			<g
   id="g64">&#10;				<path
   d="M430.38,134.645c-0.13,0-0.256-0.051-0.349-0.142c-0.097-0.094-0.151-0.223-0.151-0.358v-6.493      c0-3.322-0.314-15.02-0.317-15.138c-0.007-0.27,0.2-0.497,0.47-0.513c0.079-0.005,8.044-0.483,14.661-0.241      c6.573,0.236,10.079,0.004,10.115,0.001c0.131-0.004,0.267,0.036,0.367,0.126c0.101,0.09,0.16,0.216,0.167,0.351l0.953,21.645      c0.006,0.136-0.044,0.269-0.139,0.368c-0.095,0.099-0.225,0.154-0.361,0.154h-11.438c-4.391,0-13.871,0.238-13.966,0.24      C430.389,134.645,430.384,134.645,430.38,134.645z M430.576,112.973c0.06,2.258,0.305,11.734,0.305,14.679v5.981      c2.043-0.05,9.668-0.228,13.479-0.228h10.915l-0.908-20.619c-1.205,0.056-4.518,0.162-9.707-0.026      C439.02,112.555,432.395,112.874,430.576,112.973z"
   id="path63" />&#10;			</g>&#10;			<g
   id="g65">&#10;				<path
   d="M446.571,114.075c0-0.918-0.745-1.663-1.663-1.663c-0.918,0-1.663,0.744-1.663,1.663s0.744,1.663,1.663,1.663      C445.827,115.737,446.571,114.993,446.571,114.075z"
   id="path64" />&#10;			</g>&#10;			<g
   id="g66">&#10;				<circle
   cx="446.849"
   cy="112.934"
   r="1.663"
   id="circle65" />&#10;			</g>&#10;			<g
   id="g67">&#10;				<path
   d="M442.858,116.156c-0.137,0-0.272-0.056-0.371-0.166c-0.186-0.205-0.169-0.521,0.036-0.706l1.141-1.027      c0.204-0.186,0.521-0.168,0.706,0.037c0.186,0.205,0.169,0.521-0.036,0.706l-1.141,1.027      C443.097,116.113,442.977,116.156,442.858,116.156z"
   id="path66" />&#10;			</g>&#10;		</g>&#10;		<g
   id="g69">&#10;			<path
   d="M448.573,120.67h-12.898c-0.276,0-0.5-0.224-0.5-0.5c0-0.276,0.224-0.5,0.5-0.5h12.898c0.276,0,0.5,0.224,0.5,0.5     C449.073,120.447,448.849,120.67,448.573,120.67z"
   id="path68" />&#10;		</g>&#10;		<g
   id="g70">&#10;			<path
   d="M449.331,124.97h-13.657c-0.276,0-0.5-0.224-0.5-0.5c0-0.276,0.224-0.5,0.5-0.5h13.657c0.276,0,0.5,0.224,0.5,0.5     C449.831,124.746,449.608,124.97,449.331,124.97z"
   id="path69" />&#10;		</g>&#10;		<g
   id="g71">&#10;			<path
   d="M449.584,129.017h-13.91c-0.276,0-0.5-0.224-0.5-0.5s0.224-0.5,0.5-0.5h13.91c0.276,0,0.5,0.224,0.5,0.5     S449.861,129.017,449.584,129.017z"
   id="path70" />&#10;		</g>&#10;	</g>&#10;	<g
   style="opacity:0.3;"
   id="g81">&#10;		<g
   id="g77">&#10;			<g
   id="g73">&#10;				<path
   d="M353.714,129.312c-0.13,0-0.256-0.051-0.349-0.142c-0.097-0.094-0.151-0.223-0.151-0.358v-6.493      c0-3.322-0.314-15.02-0.317-15.138c-0.007-0.27,0.2-0.497,0.47-0.513c0.079-0.005,8.044-0.483,14.661-0.241      c6.573,0.236,10.079,0.003,10.115,0.001c0.131-0.004,0.267,0.036,0.367,0.126c0.101,0.09,0.16,0.216,0.167,0.351l0.953,21.645      c0.006,0.136-0.044,0.269-0.139,0.368c-0.095,0.099-0.225,0.154-0.361,0.154h-11.438c-4.391,0-13.871,0.238-13.966,0.24      C353.722,129.312,353.717,129.312,353.714,129.312z M353.909,107.639c0.059,2.258,0.305,11.734,0.305,14.679v5.981      c2.043-0.05,9.668-0.228,13.479-0.228h10.915l-0.908-20.619c-1.205,0.056-4.518,0.162-9.707-0.026      C362.353,107.222,355.728,107.541,353.909,107.639z"
   id="path72" />&#10;			</g>&#10;			<g
   id="g74">&#10;				<circle
   cx="368.242"
   cy="108.741"
   r="1.663"
   id="circle73" />&#10;			</g>&#10;			<g
   id="g75">&#10;				<path
   d="M371.845,107.6c0-0.918-0.745-1.663-1.663-1.663c-0.918,0-1.663,0.744-1.663,1.663c0,0.918,0.744,1.663,1.663,1.663      C371.1,109.263,371.845,108.519,371.845,107.6z"
   id="path74" />&#10;			</g>&#10;			<g
   id="g76">&#10;				<path
   d="M366.191,110.822c-0.137,0-0.273-0.056-0.371-0.166c-0.186-0.205-0.169-0.521,0.036-0.706l1.141-1.027      c0.204-0.186,0.521-0.169,0.706,0.037c0.186,0.205,0.169,0.521-0.036,0.706l-1.141,1.027      C366.43,110.78,366.31,110.822,366.191,110.822z"
   id="path75" />&#10;			</g>&#10;		</g>&#10;		<g
   id="g78">&#10;			<path
   d="M371.906,115.337h-12.898c-0.276,0-0.5-0.224-0.5-0.5c0-0.276,0.224-0.5,0.5-0.5h12.898c0.276,0,0.5,0.224,0.5,0.5     C372.406,115.113,372.182,115.337,371.906,115.337z"
   id="path77" />&#10;		</g>&#10;		<g
   id="g79">&#10;			<path
   d="M372.665,119.636h-13.657c-0.276,0-0.5-0.224-0.5-0.5c0-0.276,0.224-0.5,0.5-0.5h13.657c0.276,0,0.5,0.224,0.5,0.5     C373.165,119.413,372.941,119.636,372.665,119.636z"
   id="path78" />&#10;		</g>&#10;		<g
   id="g80">&#10;			<path
   d="M372.918,123.683h-13.91c-0.276,0-0.5-0.224-0.5-0.5c0-0.276,0.224-0.5,0.5-0.5h13.91c0.276,0,0.5,0.224,0.5,0.5     C373.418,123.46,373.194,123.683,372.918,123.683z"
   id="path79" />&#10;		</g>&#10;	</g>&#10;	<g
   style="opacity:0.3;"
   id="g86">&#10;		<g
   id="g82">&#10;			&#10;				<rect
   x="60.333"
   y="129.333"
   style="fill:none;stroke:#000000;stroke-linecap:round;stroke-linejoin:round;stroke-miterlimit:10;"
   width="13.105"
   height="13.105"
   id="rect81" />&#10;			&#10;				<line
   style="fill:none;stroke:#000000;stroke-linecap:round;stroke-linejoin:round;stroke-miterlimit:10;"
   x1="79.444"
   y1="135.886"
   x2="117.667"
   y2="135.886"
   id="line81" />&#10;		</g>&#10;		<g
   id="g83">&#10;			&#10;				<rect
   x="60.333"
   y="149.333"
   style="fill:none;stroke:#000000;stroke-linecap:round;stroke-linejoin:round;stroke-miterlimit:10;"
   width="13.105"
   height="13.105"
   id="rect82" />&#10;			&#10;				<line
   style="fill:none;stroke:#000000;stroke-linecap:round;stroke-linejoin:round;stroke-miterlimit:10;"
   x1="79.444"
   y1="155.886"
   x2="117.667"
   y2="155.886"
   id="line82" />&#10;		</g>&#10;		<g
   id="g84">&#10;			&#10;				<rect
   x="60.333"
   y="169.333"
   style="fill:none;stroke:#000000;stroke-linecap:round;stroke-linejoin:round;stroke-miterlimit:10;"
   width="13.105"
   height="13.105"
   id="rect83" />&#10;			&#10;				<line
   style="fill:none;stroke:#000000;stroke-linecap:round;stroke-linejoin:round;stroke-miterlimit:10;"
   x1="79.444"
   y1="175.886"
   x2="117.667"
   y2="175.886"
   id="line83" />&#10;		</g>&#10;		<g
   id="g85">&#10;			&#10;				<rect
   x="60.333"
   y="189.333"
   style="fill:none;stroke:#000000;stroke-linecap:round;stroke-linejoin:round;stroke-miterlimit:10;"
   width="13.105"
   height="13.105"
   id="rect84" />&#10;			&#10;				<line
   style="fill:none;stroke:#000000;stroke-linecap:round;stroke-linejoin:round;stroke-miterlimit:10;"
   x1="79.444"
   y1="195.886"
   x2="117.667"
   y2="195.886"
   id="line84" />&#10;		</g>&#10;		<polyline
   style="fill:none;stroke:#000000;stroke-linecap:round;stroke-linejoin:round;stroke-miterlimit:10;"
   points="    63.667,173.333 65.667,178.667 79.667,169.333   "
   id="polyline85" />&#10;		<polyline
   style="fill:none;stroke:#000000;stroke-linecap:round;stroke-linejoin:round;stroke-miterlimit:10;"
   points="    63.667,132.667 65.667,138 79.667,128.667   "
   id="polyline86" />&#10;	</g>&#10;	<g
   style="opacity:0.3;"
   id="g91">&#10;		<g
   id="g87">&#10;			&#10;				<rect
   x="125.667"
   y="226.456"
   style="fill:none;stroke:#000000;stroke-linecap:round;stroke-linejoin:round;stroke-miterlimit:10;"
   width="8.96"
   height="8.96"
   id="rect86" />&#10;			&#10;				<line
   style="fill:none;stroke:#000000;stroke-linecap:round;stroke-linejoin:round;stroke-miterlimit:10;"
   x1="138.733"
   y1="230.936"
   x2="164.866"
   y2="230.936"
   id="line86" />&#10;		</g>&#10;		<g
   id="g88">&#10;			&#10;				<rect
   x="125.667"
   y="240.13"
   style="fill:none;stroke:#000000;stroke-linecap:round;stroke-linejoin:round;stroke-miterlimit:10;"
   width="8.96"
   height="8.96"
   id="rect87" />&#10;			&#10;				<line
   style="fill:none;stroke:#000000;stroke-linecap:round;stroke-linejoin:round;stroke-miterlimit:10;"
   x1="138.733"
   y1="244.61"
   x2="164.866"
   y2="244.61"
   id="line87" />&#10;		</g>&#10;		<g
   id="g89">&#10;			&#10;				<rect
   x="125.667"
   y="253.804"
   style="fill:none;stroke:#000000;stroke-linecap:round;stroke-linejoin:round;stroke-miterlimit:10;"
   width="8.96"
   height="8.96"
   id="rect88" />&#10;			&#10;				<line
   style="fill:none;stroke:#000000;stroke-linecap:round;stroke-linejoin:round;stroke-miterlimit:10;"
   x1="138.733"
   y1="258.284"
   x2="164.866"
   y2="258.284"
   id="line88" />&#10;		</g>&#10;		<g
   id="g90">&#10;			&#10;				<rect
   x="125.667"
   y="267.478"
   style="fill:none;stroke:#000000;stroke-linecap:round;stroke-linejoin:round;stroke-miterlimit:10;"
   width="8.96"
   height="8.96"
   id="rect89" />&#10;			&#10;				<line
   style="fill:none;stroke:#000000;stroke-linecap:round;stroke-linejoin:round;stroke-miterlimit:10;"
   x1="138.733"
   y1="271.958"
   x2="164.866"
   y2="271.958"
   id="line89" />&#10;		</g>&#10;		<polyline
   style="fill:none;stroke:#000000;stroke-linecap:round;stroke-linejoin:round;stroke-miterlimit:10;"
   points="    127.946,256.539 129.313,260.185 138.885,253.804   "
   id="polyline90" />&#10;		<polyline
   style="fill:none;stroke:#000000;stroke-linecap:round;stroke-linejoin:round;stroke-miterlimit:10;"
   points="    127.946,228.735 129.313,232.381 138.885,226   "
   id="polyline91" />&#10;	</g>&#10;	<g
   id="g92">&#10;		<path
   style="opacity:0.3;fill:none;stroke:#000000;stroke-linecap:round;stroke-linejoin:round;stroke-miterlimit:10;"
   d="    M174.111,94.726v-5.059l-5.612-0.873c-0.277-0.993-0.666-1.936-1.162-2.815l3.348-4.582l-3.578-3.578l-4.582,3.349    c-0.878-0.496-1.822-0.885-2.815-1.162l-0.873-5.612h-5.059l-0.873,5.612c-0.993,0.277-1.937,0.666-2.815,1.162l-4.582-3.349    l-3.578,3.578l3.348,4.582c-0.496,0.878-0.885,1.822-1.162,2.815l-5.612,0.873v5.059l5.612,0.873    c0.277,0.993,0.666,1.937,1.162,2.815l-3.348,4.582l3.578,3.578l4.582-3.349c0.878,0.496,1.822,0.886,2.815,1.162l0.873,5.612    h5.059l0.873-5.612c0.993-0.277,1.936-0.666,2.815-1.162l4.582,3.349l3.578-3.578l-3.348-4.582    c0.496-0.878,0.886-1.822,1.162-2.815L174.111,94.726z M156.309,100.197c-4.418,0-8-3.582-8-8c0-4.418,3.582-8,8-8s8,3.582,8,8    C164.309,96.615,160.727,100.197,156.309,100.197z"
   id="path91" />&#10;		<path
   style="opacity:0.3;fill:none;stroke:#000000;stroke-linecap:round;stroke-linejoin:round;stroke-miterlimit:10;"
   d="    M141,110.197v-3.386l-3.756-0.584c-0.185-0.664-0.445-1.296-0.778-1.884l2.241-3.066l-2.394-2.394l-3.066,2.241    c-0.588-0.332-1.219-0.593-1.884-0.778l-0.584-3.756h-3.386l-0.584,3.756c-0.664,0.185-1.296,0.446-1.884,0.778l-3.066-2.241    l-2.394,2.394l2.241,3.066c-0.332,0.588-0.592,1.219-0.778,1.884l-3.755,0.584v3.386l3.755,0.584    c0.185,0.664,0.446,1.296,0.778,1.884l-2.241,3.066l2.394,2.394l3.066-2.241c0.588,0.332,1.219,0.593,1.884,0.778l0.584,3.755    h3.386l0.584-3.755c0.664-0.185,1.296-0.446,1.884-0.778l3.066,2.241l2.394-2.394l-2.241-3.066    c0.332-0.588,0.593-1.219,0.778-1.884L141,110.197z M129.086,113.857c-2.957,0-5.354-2.397-5.354-5.354    c0-2.957,2.397-5.354,5.354-5.354s5.354,2.397,5.354,5.354C134.44,111.46,132.043,113.857,129.086,113.857z"
   id="path92" />&#10;	</g>&#10;	<g
   id="g94">&#10;		<path
   style="opacity:0.3;fill:none;stroke:#000000;stroke-linecap:round;stroke-linejoin:round;stroke-miterlimit:10;"
   d="    M319.321,321.551l-2.688,4.286l4.29,3.721c-0.293,0.988-0.465,1.994-0.511,3.002l-5.271,2.103l1.13,4.932l5.661-0.402    c0.48,0.887,1.073,1.718,1.767,2.48l-2.242,5.218l4.286,2.688l3.721-4.29c0.988,0.293,1.994,0.465,3.002,0.511l2.103,5.271    l4.932-1.13l-0.402-5.661c0.887-0.48,1.718-1.073,2.48-1.767l5.218,2.242l2.688-4.286l-4.29-3.721    c0.293-0.988,0.465-1.994,0.511-3.002l5.271-2.103l-1.13-4.932l-5.661,0.402c-0.48-0.887-1.073-1.718-1.767-2.48l2.242-5.218    l-4.286-2.688l-3.721,4.29c-0.988-0.293-1.994-0.465-3.002-0.511l-2.103-5.271l-4.932,1.13l0.402,5.661    c-0.887,0.48-1.718,1.073-2.48,1.767L319.321,321.551z M337.309,326.375c3.743,2.347,4.874,7.285,2.527,11.028    c-2.348,3.743-7.285,4.874-11.028,2.527c-3.743-2.347-4.875-7.285-2.527-11.028C328.629,325.159,333.566,324.027,337.309,326.375z    "
   id="path93" />&#10;		<path
   style="opacity:0.3;fill:none;stroke:#000000;stroke-linecap:round;stroke-linejoin:round;stroke-miterlimit:10;"
   d="    M355.592,326.037l-1.799,2.868l2.871,2.49c-0.196,0.661-0.311,1.335-0.342,2.009l-3.527,1.407l0.756,3.3l3.788-0.269    c0.321,0.594,0.718,1.15,1.182,1.66l-1.5,3.492l2.868,1.799l2.49-2.871c0.661,0.196,1.335,0.311,2.009,0.342l1.407,3.527    l3.3-0.756l-0.269-3.788c0.594-0.322,1.15-0.718,1.66-1.183l3.492,1.5l1.799-2.868l-2.871-2.49    c0.196-0.661,0.311-1.335,0.342-2.009l3.527-1.407l-0.756-3.3l-3.788,0.269c-0.322-0.594-0.718-1.15-1.182-1.66l1.5-3.492    l-2.868-1.799l-2.49,2.871c-0.661-0.196-1.335-0.311-2.009-0.342l-1.407-3.527l-3.3,0.756l0.269,3.788    c-0.594,0.322-1.15,0.718-1.66,1.183L355.592,326.037z M367.63,329.265c2.505,1.571,3.262,4.875,1.691,7.38    c-1.571,2.505-4.875,3.262-7.38,1.691c-2.505-1.571-3.262-4.875-1.691-7.38C361.821,328.451,365.125,327.694,367.63,329.265z"
   id="path94" />&#10;	</g>&#10;</g>&#10;<g
   id="g95">&#10;			&#10;				<rect
   x="25.229"
   y="257.871"
   transform="rotate(180,67.4205,281.24755)"
   style="fill:#ffffff;stroke:#263238;stroke-linecap:round;stroke-linejoin:round;stroke-miterlimit:10"
   width="84.383003"
   height="46.752998"
   id="rect94" />&#10;			&#10;				<rect
   x="27.795"
   y="257.871"
   transform="rotate(180,69.9862,281.24755)"
   style="fill:#ffffff;stroke:#263238;stroke-linecap:round;stroke-linejoin:round;stroke-miterlimit:10"
   width="84.383003"
   height="46.752998"
   id="rect95" />&#10;		</g><polygon
   style="fill:#13bfa1;stroke:#263238;stroke-linecap:round;stroke-linejoin:round;stroke-miterlimit:10;fill-opacity:1"
   points="56.329,289.347 84.333,289.347 70.331,265.095 "
   id="polygon95" /><g
   id="g97">&#10;			&#10;				<rect
   x="397.73999"
   y="341.871"
   style="fill:#ffffff;stroke:#263238;stroke-linecap:round;stroke-linejoin:round;stroke-miterlimit:10"
   width="84.383003"
   height="46.752998"
   id="rect96" />&#10;			&#10;				<rect
   x="395.17401"
   y="341.871"
   style="fill:#ffffff;stroke:#263238;stroke-linecap:round;stroke-linejoin:round;stroke-miterlimit:10"
   width="84.383003"
   height="46.752998"
   id="rect97" />&#10;		</g><polygon
   style="fill:#13bfa1;stroke:#263238;stroke-linecap:round;stroke-linejoin:round;stroke-miterlimit:10;fill-opacity:1"
   points="444.803,378.292 435.855,373.588 426.907,378.292 428.616,368.328 421.376,361.272 431.381,359.818 435.855,350.753 440.329,359.818 450.333,361.272 443.094,368.328 "
   id="polygon97" />&#10;<path
   style="fill:#13bfa1;stroke:#263238;stroke-linecap:round;stroke-linejoin:round;stroke-miterlimit:10;fill-opacity:1"
   d="m 236.64,258.767 c 0,0 -32.623,9.078 -34.042,12.198 -1.418,3.12 -19.858,36.595 -19.858,36.595 l 16.453,23.829 14.184,-18.439 5.106,43.687 c 0,0 -6.241,10.212 -3.971,14.751 2.27,4.539 6.241,6.241 6.241,6.241 h 74.324 c 0,0 4.539,-5.39 3.404,-12.482 -1.135,-7.092 -3.121,-15.886 -3.121,-15.886 l -0.284,-24.964 8.51,-26.098 41.701,-0.284 -7.092,-29.219 c 0,0 -28.935,-6.241 -30.921,-7.376 -1.986,-1.135 -11.914,-3.12 -16.737,-3.12 -4.822,0 -13.617,0 -13.617,0 l -37.729,-0.284 z"
   id="path98" /><g
   id="g105">&#10;					<polyline
   style="fill:none;stroke:#263238;stroke-linecap:round;stroke-linejoin:round;stroke-miterlimit:10"
   points="       207.317,289.539 213.379,312.95 202.031,292.525      "
   id="polyline98" />&#10;					&#10;						<line
   style="fill:none;stroke:#263238;stroke-linecap:round;stroke-linejoin:round;stroke-miterlimit:10"
   x1="205.15199"
   y1="281.17801"
   x2="206.145"
   y2="285.01501"
   id="line98" />&#10;					&#10;						<line
   style="fill:none;stroke:#263238;stroke-linecap:round;stroke-linejoin:round;stroke-miterlimit:10"
   x1="196.328"
   y1="303.42801"
   x2="191.535"
   y2="300.75201"
   id="line99" />&#10;					&#10;						<line
   style="fill:none;stroke:#263238;stroke-linecap:round;stroke-linejoin:round;stroke-miterlimit:10"
   x1="213.379"
   y1="312.95001"
   x2="198.89101"
   y2="304.85999"
   id="line100" />&#10;					<polyline
   style="fill:none;stroke:#263238;stroke-linecap:round;stroke-linejoin:round;stroke-miterlimit:10"
   points="       309.83,274.937 303.589,298.199 316.071,274.937      "
   id="polyline100" />&#10;					&#10;						<line
   style="fill:none;stroke:#263238;stroke-linecap:round;stroke-linejoin:round;stroke-miterlimit:10"
   x1="326.70599"
   y1="284.08499"
   x2="330.53799"
   y2="281.746"
   id="line101" />&#10;					&#10;						<line
   style="fill:none;stroke:#263238;stroke-linecap:round;stroke-linejoin:round;stroke-miterlimit:10"
   x1="303.58899"
   y1="298.19901"
   x2="322.547"
   y2="286.62399"
   id="line102" />&#10;					&#10;						<line
   style="fill:none;stroke:#263238;stroke-linecap:round;stroke-linejoin:round;stroke-miterlimit:10"
   x1="272.577"
   y1="334.68301"
   x2="276.07199"
   y2="331.957"
   id="line103" />&#10;					&#10;						<line
   style="fill:none;stroke:#263238;stroke-linecap:round;stroke-linejoin:round;stroke-miterlimit:10"
   x1="233.52"
   y1="365.147"
   x2="269.87299"
   y2="336.79199"
   id="line104" />&#10;					&#10;						<line
   style="fill:none;stroke:#263238;stroke-linecap:round;stroke-linejoin:round;stroke-miterlimit:10"
   x1="253.94501"
   y1="345.573"
   x2="233.52"
   y2="360.04099"
   id="line105" />&#10;				</g><g
   id="g117">&#10;				<g
   id="g108">&#10;					<polygon
   style="fill:#ffffff;stroke:#263238;stroke-linecap:round;stroke-linejoin:round;stroke-miterlimit:10"
   points="241.747,260.753 258.484,279.476 272.951,261.604 268.413,239.477 243.449,238.342 "
   id="polygon106" />&#10;					<path
   style="fill:#263238;stroke:#263238;stroke-linecap:round;stroke-linejoin:round;stroke-miterlimit:10"
   d="m 268.413,239.477 -24.964,-1.135 -0.429,5.649 c 3.731,4.325 11.197,13.802 14.22,14.557 2.534,0.633 9.045,-6.633 12.65,-11.87 z"
   id="path106" />&#10;					<polygon
   style="fill:#ffffff;stroke:#263238;stroke-linecap:round;stroke-linejoin:round;stroke-miterlimit:10"
   points="243.732,287.703 233.804,259.051 238.91,247.137 254.512,266.994 "
   id="polygon107" />&#10;					<polygon
   style="fill:#ffffff;stroke:#263238;stroke-linecap:round;stroke-linejoin:round;stroke-miterlimit:10"
   points="270.682,287.703 280.611,259.051 275.504,247.137 259.902,266.994 "
   id="polygon108" />&#10;				</g>&#10;				<g
   id="g116">&#10;					<path
   style="fill:#ffffff;stroke:#263238;stroke-linecap:round;stroke-linejoin:round;stroke-miterlimit:10"
   d="m 233.534,209.123 c 0,0 -3.12,-6.525 -5.957,-1.418 -2.837,5.106 6.241,15.319 7.376,15.319 1.134,0 -1.419,-13.901 -1.419,-13.901 z"
   id="path108" />&#10;					<path
   style="fill:#ffffff;stroke:#263238;stroke-linecap:round;stroke-linejoin:round;stroke-miterlimit:10"
   d="m 278.639,209.123 c 0,0 3.121,-6.525 5.957,-1.418 2.836,5.107 -6.241,15.319 -7.376,15.319 -1.134,0 1.419,-13.901 1.419,-13.901 z"
   id="path109" />&#10;					<g
   id="g115">&#10;						<path
   style="fill:#ffffff;stroke:#263238;stroke-linecap:round;stroke-linejoin:round;stroke-miterlimit:10"
   d="m 231.575,187.564 c 0.223,4.646 1.878,37.405 4.512,44.254 2.837,7.376 15.886,19.29 22.127,18.723 6.241,-0.567 17.305,-14.468 18.723,-19.574 1.275,-4.591 2.321,-36.923 2.519,-43.403 z"
   id="path110" />&#10;						<path
   style="fill:none;stroke:#263238;stroke-linecap:round;stroke-linejoin:round;stroke-miterlimit:10"
   d="m 238.924,213.662 c 0,0 3.972,4.255 11.347,-0.284"
   id="path111" />&#10;						<path
   style="fill:none;stroke:#263238;stroke-linecap:round;stroke-linejoin:round;stroke-miterlimit:10"
   d="m 274.1,213.662 c 0,0 -3.972,4.255 -11.347,-0.284"
   id="path112" />&#10;						<path
   style="fill:none;stroke:#263238;stroke-linecap:round;stroke-linejoin:round;stroke-miterlimit:10"
   d="m 253.108,224.726 c 0,0 2.837,5.39 9.078,0"
   id="path113" />&#10;						&#10;							<line
   style="fill:none;stroke:#263238;stroke-linecap:round;stroke-linejoin:round;stroke-miterlimit:10"
   x1="254.81"
   y1="234.371"
   x2="259.91599"
   y2="234.371"
   id="line113" />&#10;						<path
   style="fill:none;stroke:#263238;stroke-width:2;stroke-linecap:round;stroke-linejoin:round;stroke-miterlimit:10"
   d="m 237.222,206.003 c 0,0 1.986,-1.986 12.198,-0.284"
   id="path114" />&#10;						<path
   style="fill:none;stroke:#263238;stroke-width:2;stroke-linecap:round;stroke-linejoin:round;stroke-miterlimit:10"
   d="m 274.384,206.003 c 0,0 -1.986,-1.986 -12.198,-0.284"
   id="path115" />&#10;					</g>&#10;				</g>&#10;			</g><path
   style="fill:#ffffff;stroke:#263238;stroke-linecap:round;stroke-linejoin:round;stroke-miterlimit:10"
   d="m 345.006,267.845 c 0,0 30.637,-64.395 33.758,-64.679 3.12,-0.284 6.808,3.971 5.674,9.645 -1.134,5.674 -16.737,60.14 -20.141,71.487 -3.404,11.347 -7.943,15.886 -11.631,14.468 -3.688,-1.418 -7.66,-30.921 -7.66,-30.921 z"
   id="path118" /><path
   style="fill:#ffffff;stroke:#263238;stroke-linecap:round;stroke-linejoin:round;stroke-miterlimit:10"
   d="m 171.215,307.498 c 0,0 15.667,35.577 19.3,34.947 3.634,-0.63 14.43,-11.426 14.93,-13.528 0.499,-2.102 -6.712,-13.808 -13.975,-19.171 -7.263,-5.363 -9.608,-7.26 -10.726,-7.066 -1.118,0.193 -7.718,3.64 -9.529,4.818 z"
   id="path119" /><path
   style="fill:#ffffff;stroke:#263238;stroke-linecap:round;stroke-linejoin:round;stroke-miterlimit:10"
   d="m 335.645,265.859 c 0,0 -2.837,19.007 -0.284,26.666 2.553,7.659 5.106,8.794 9.361,9.078 4.255,0.284 10.496,-0.851 11.631,-3.688 1.135,-2.837 -9.078,-30.637 -10.213,-32.623 -1.134,-1.986 -6.808,-1.702 -10.495,0.567 z"
   id="path120" /><path
   style="fill:#ffffff;stroke:#263238;stroke-linecap:round;stroke-linejoin:round;stroke-miterlimit:10"
   d="m 117.62,298.936 c -3.28,-2.311 -7.07,-4.245 -7.07,-4.245 0,0 -4.532,-1.23 -5.538,-5.374 -1.006,-4.144 4.815,-5.441 4.815,-5.441 3.731,-0.071 67.194,27.222 67.194,27.222 10.759,12.243 12.67,26.595 13.01,28.552 0.339,1.957 -1.241,2.806 -2.359,3 -1.118,0.194 -20.177,-8.27 -25.864,-11.353 -12.075,-6.545 -40.629,-30.099 -40.629,-30.099 z"
   id="path121" /><g
   id="g126">&#10;			<path
   style="fill:#ffffff;stroke:#263238;stroke-linecap:round;stroke-linejoin:round;stroke-miterlimit:10"
   d="m 88.867,308.123 c 0,0 -2.712,4.168 -5.567,5.984 -2.855,1.816 -6.613,2.995 -5.41,3.843 1.204,0.848 2.619,1.395 5.563,0.092 2.944,-1.303 6.401,-2.694 6.401,-2.694 0,0 3.071,-8.192 -0.987,-7.225 z"
   id="path122" />&#10;			<path
   style="fill:#ffffff;stroke:#263238;stroke-linecap:round;stroke-linejoin:round;stroke-miterlimit:10"
   d="m 88.319,309.539 c 0,0 -2.558,8.104 -5.793,10.778 -3.235,2.674 -7.885,4.801 -4.887,5.338 2.999,0.537 4.873,-0.844 8.921,-3.395 4.049,-2.551 5.276,-4.613 4.688,-9.53 -0.586,-4.918 -1.232,-5.598 -2.929,-3.191 z"
   id="path123" />&#10;			<path
   style="fill:#ffffff;stroke:#263238;stroke-linecap:round;stroke-linejoin:round;stroke-miterlimit:10"
   d="m 88.6,306.585 c 0,0 -0.24,9.287 -0.855,13.356 -0.615,4.069 -8.269,11.735 -5.058,11.971 3.211,0.236 8.891,-8.145 10.197,-11.277 1.306,-3.132 2.243,-3.823 1.241,-6.555 -1.001,-2.732 -4.732,-10.539 -5.525,-7.495 z"
   id="path124" />&#10;			&#10;				<circle
   transform="matrix(0.6772,-0.7358,0.7358,0.6772,-209.6287,184.225)"
   style="fill:#263238;stroke:#263238;stroke-linecap:round;stroke-linejoin:round;stroke-miterlimit:10"
   cx="105.141"
   cy="331.01999"
   id="ellipse124"
   r="13.694" />&#10;			<path
   style="fill:#ffffff;stroke:#263238;stroke-linecap:round;stroke-linejoin:round;stroke-miterlimit:10"
   d="m 115.727,286.298 c 0,0 -8.46,-4.61 -12.419,-1.546 -3.96,3.064 -12.854,17.285 -15.788,20.171 -2.934,2.886 2.547,10.125 4.428,16.403 1.881,6.278 0.373,11.294 3.618,10.204 3.245,-1.091 1.898,-4.291 2.114,-10.668 0.216,-6.377 -2.345,-12.009 -2.222,-12.823 0.123,-0.814 6.514,-5.091 10.672,-3.963 4.158,1.129 6.23,3.939 5.994,7.15 -0.236,3.211 -2.616,12.341 -1.402,14.772 1.214,2.431 3.443,3.102 4.784,-1.357 1.341,-4.459 4.924,-12.741 5.673,-16.04 0.749,-3.3 -6.579,-18.144 -6.579,-18.144"
   id="path125" />&#10;			<path
   style="fill:#263238;stroke:#263238;stroke-linecap:round;stroke-linejoin:round;stroke-miterlimit:10"
   d="m 97.99,342.701 c -3.925,-2.408 -6.542,-6.739 -6.542,-11.681 0,-7.402 5.872,-13.432 13.212,-13.686"
   id="path126" />&#10;		</g><path
   style="fill:#ffffff;stroke:#263238;stroke-linecap:round;stroke-linejoin:round;stroke-miterlimit:10"
   d="m 409.585,213.385 c 0,0 4.358,2.395 7.732,2.648 3.374,0.253 7.244,-0.481 6.583,0.835 -0.661,1.316 -1.651,2.466 -4.861,2.707 -3.211,0.241 -6.915,0.646 -6.915,0.646 0,0 -6.574,-5.774 -2.539,-6.836 z"
   id="path127" /><path
   style="fill:#ffffff;stroke:#263238;stroke-linecap:round;stroke-linejoin:round;stroke-miterlimit:10"
   d="m 410.736,214.375 c 0,0 6.08,5.938 10.194,6.768 4.114,0.831 9.218,0.511 6.827,2.399 -2.39,1.889 -4.695,1.555 -9.468,1.217 -4.773,-0.338 -6.829,-1.576 -8.631,-6.189 -1.803,-4.612 -1.554,-5.517 1.078,-4.195 z"
   id="path128" /><path
   style="fill:#ffffff;stroke:#263238;stroke-linecap:round;stroke-linejoin:round;stroke-miterlimit:10"
   d="m 409.094,211.902 c 0,0 4.595,8.075 7.058,11.372 2.463,3.297 12.829,6.444 10.109,8.167 -2.719,1.724 -11.683,-2.984 -14.313,-5.129 -2.63,-2.145 -3.782,-2.312 -4.188,-5.193 -0.406,-2.882 -0.802,-11.525 1.334,-9.217 z"
   id="path129" /><rect
   x="392.92999"
   y="231.90401"
   style="fill:#13bfa1;stroke:#263238;stroke-linecap:round;stroke-linejoin:round;stroke-miterlimit:10;fill-opacity:1"
   width="21.108999"
   height="21.108999"
   id="rect129" /><path
   style="fill:#ffffff;stroke:#263238;stroke-linecap:round;stroke-linejoin:round;stroke-miterlimit:10"
   d="m 375.603,206.82 c 0,0 5.283,-8.057 10.22,-7.225 4.937,0.832 19.491,9.172 23.44,10.332 3.949,1.16 2.533,10.129 3.838,16.551 1.305,6.423 5.003,10.133 1.627,10.703 -3.376,0.57 -3.699,-2.888 -6.899,-8.408 -3.2,-5.521 -3.6,-11.695 -4.093,-12.354 -0.493,-0.659 -8.146,-1.414 -11.279,1.543 -3.133,2.958 -3.633,6.414 -1.91,9.133 1.723,2.719 8.131,9.645 8.209,12.362 0.077,2.716 -1.572,4.36 -4.858,1.061 -3.286,-3.299 -10.355,-8.909 -12.573,-11.464 -2.218,-2.556 -2.764,-19.101 -2.764,-19.101"
   id="path130" /><polyline
   style="fill:#13bfa1;stroke:#263238;stroke-linecap:round;stroke-linejoin:round;stroke-miterlimit:10;fill-opacity:1"
   points="     403.53,231.906 414.039,231.906 414.039,242.57    "
   id="polyline130" /><path
   style="fill:#263238;stroke:#263238;stroke-linecap:round;stroke-linejoin:round;stroke-miterlimit:10"
   d="m 220.754,377.629 -5.028,18.757 -53.658,-2.316 c 0,0 32.426,26.636 48.253,32.04 15.827,5.404 37.444,11.195 55.588,9.651 18.143,-1.544 35.9,-5.018 54.044,-13.897 18.144,-8.879 28.952,-26.25 28.952,-26.25 h -51.341 l -2.486,-17.985 z"
   id="path131" /><g
   id="g134">&#10;			<path
   style="fill:#ffffff;stroke:#263238;stroke-linecap:round;stroke-linejoin:round;stroke-miterlimit:10"
   d="m 297.228,420.813 c 0,0 12.344,0.908 21.228,-1.384 8.885,-2.292 15.299,2.091 16.113,10.385 0.814,8.293 -3.343,15.907 -14.366,16.738 -11.023,0.831 -26.789,-6.389 -26.789,-6.389 0,0 -4.325,-11.112 3.814,-19.35 z"
   id="path132" />&#10;			<path
   style="fill:#ffffff;stroke:#263238;stroke-linecap:round;stroke-linejoin:round;stroke-miterlimit:10"
   d="m 309.722,445.197 c 0,0 10.212,2.451 15.118,-2.574 4.906,-5.025 5.897,-12.273 4.355,-17.968 -1.074,-3.966 -4.234,-5.351 -6.057,-5.828 6.396,0.078 10.769,4.236 11.432,10.987 0.814,8.293 -3.343,15.907 -14.366,16.738 -3.907,0.295 -8.408,-0.424 -12.593,-1.472 z"
   id="path133" />&#10;			<path
   style="fill:#ffffff;stroke:#263238;stroke-linecap:round;stroke-linejoin:round;stroke-miterlimit:10"
   d="m 293.812,424.248 c 0,0 6.165,2.741 11.248,2.592 5.083,-0.149 7.209,4.361 4.036,7.513 -3.173,3.152 -16.379,-0.551 -17.536,-1.342 -1.158,-0.791 -0.808,-6.439 2.252,-8.763 z"
   id="path134" />&#10;		</g><path
   style="fill:#263238;stroke:#263238;stroke-linecap:round;stroke-linejoin:round;stroke-miterlimit:10"
   d="m 236.192,391.921 c -19.377,-8.619 -38.535,-18.569 -55.928,-30.032 -9.196,-6.061 -18.392,-8.36 -26.335,-1.881 -7.942,6.479 -7.524,20.691 -1.045,28.007 6.479,7.315 26.544,14.63 45.563,22.572 19.019,7.942 57.476,17.138 68.553,20.064 11.077,2.926 14.212,4.807 16.929,7.315 2.717,2.508 9.485,2.196 9.485,2.196 0,0 -0.079,-8.466 1.802,-12.437 1.881,-3.971 3.135,-6.688 3.135,-6.688 0,0 -3.344,-2.508 -6.479,-4.807 -3.135,-2.299 -3.971,-0.627 -10.451,-4.808 -7.161,-4.619 -15.939,-7.392 -23.813,-10.514 -7.117,-2.821 -14.281,-5.814 -21.416,-8.987 z"
   id="path135" /><g
   id="g138">&#10;			<path
   style="fill:#ffffff;stroke:#263238;stroke-linecap:round;stroke-linejoin:round;stroke-miterlimit:10"
   d="m 202.216,423.022 c 0,0 -12.353,-0.772 -20.845,-4.246 -8.493,-3.474 -15.441,0 -17.371,8.107 -1.93,8.107 1.158,16.213 11.967,18.529 10.809,2.316 27.408,-2.702 27.408,-2.702 0,0 5.789,-10.423 -1.159,-19.688 z"
   id="path136" />&#10;			<path
   style="fill:#ffffff;stroke:#263238;stroke-linecap:round;stroke-linejoin:round;stroke-miterlimit:10"
   d="m 186.534,445.49 c 0,0 -10.45,1.045 -14.63,-4.598 -4.18,-5.643 -4.18,-12.958 -1.881,-18.392 1.601,-3.784 4.92,-4.728 6.791,-4.954 -6.347,-0.789 -11.244,2.739 -12.815,9.337 -1.93,8.107 1.158,16.213 11.967,18.529 3.831,0.821 8.388,0.719 12.676,0.247 z"
   id="path137" />&#10;			<path
   style="fill:none;stroke:#263238;stroke-linecap:round;stroke-linejoin:round;stroke-miterlimit:10"
   d="m 205.135,426.889 c 0,0 -6.479,1.881 -11.495,1.045 -5.016,-0.836 -7.733,3.344 -5.016,6.897 2.717,3.553 16.302,1.672 17.556,1.045 1.255,-0.627 1.673,-6.27 -1.045,-8.987 z"
   id="path138" />&#10;		</g><path
   style="fill:#263238;stroke:#263238;stroke-linecap:round;stroke-linejoin:round;stroke-miterlimit:10"
   d="m 217.271,419.934 c 0,0 71.415,-29.338 96.892,-43.235 25.478,-13.897 44.007,-9.651 44.007,5.404 0,15.055 -20.845,25.092 -37.445,32.426 -16.599,7.335 -81.065,22.39 -88.4,23.548 -7.335,1.158 -8.493,1.544 -8.493,1.544 0,0 -3.86,4.246 -5.018,4.632 -1.158,0.386 -16.985,-2.316 -16.985,-2.316 0,0 3.86,-8.107 2.702,-11.581 -1.158,-3.474 -2.316,-7.335 -2.316,-7.335 0,0 8.879,-6.561 15.056,-3.087 z"
   id="path139" />&#10;<rect
   x="439.646"
   y="262.71701"
   style="fill:#263238;stroke:#263238;stroke-linecap:round;stroke-linejoin:round;stroke-miterlimit:10"
   width="42.477001"
   height="36.490002"
   id="rect139" /><rect
   x="439.646"
   y="270.06799"
   style="fill:#b0b0b0;stroke:#263238;stroke-linecap:round;stroke-linejoin:round;stroke-miterlimit:10"
   width="42.477001"
   height="29.139"
   id="rect140" /><rect
   x="363.53"
   y="257.871"
   style="fill:#ffffff;stroke:#263238;stroke-linecap:round;stroke-linejoin:round;stroke-miterlimit:10"
   width="84.383003"
   height="46.752998"
   id="rect141" /><rect
   x="360.96399"
   y="257.871"
   style="fill:#ffffff;stroke:#263238;stroke-linecap:round;stroke-linejoin:round;stroke-miterlimit:10"
   width="84.383003"
   height="46.752998"
   id="rect142" /><rect
   x="389.263"
   y="269.13199"
   style="fill:#13bfa1;stroke:#263238;stroke-linecap:round;stroke-linejoin:round;stroke-miterlimit:10;fill-opacity:1"
   width="21.108999"
   height="21.108999"
   id="rect143" /><g
   id="g147">&#10;			&#10;				<rect
   x="25.229"
   y="346.71701"
   transform="rotate(180,46.4672,364.96245)"
   style="fill:#263238;stroke:#263238;stroke-linecap:round;stroke-linejoin:round;stroke-miterlimit:10"
   width="42.477001"
   height="36.490002"
   id="rect144" />&#10;			&#10;				<rect
   x="25.229"
   y="354.06799"
   transform="rotate(180,46.4672,368.63775)"
   style="fill:#b0b0b0;stroke:#263238;stroke-linecap:round;stroke-linejoin:round;stroke-miterlimit:10"
   width="42.477001"
   height="29.139"
   id="rect145" />&#10;			&#10;				<rect
   x="59.438"
   y="341.871"
   transform="rotate(180,101.63,365.24755)"
   style="fill:#ffffff;stroke:#263238;stroke-linecap:round;stroke-linejoin:round;stroke-miterlimit:10"
   width="84.383003"
   height="46.752998"
   id="rect146" />&#10;			&#10;				<rect
   x="62.004002"
   y="341.871"
   transform="rotate(180,104.1957,365.24755)"
   style="fill:#ffffff;stroke:#263238;stroke-linecap:round;stroke-linejoin:round;stroke-miterlimit:10"
   width="84.383003"
   height="46.752998"
   id="rect147" />&#10;		</g><circle
   transform="rotate(-42.600901)"
   style="fill:#13bfa1;stroke:#263238;stroke-width:1.00002;stroke-linecap:round;stroke-linejoin:round;stroke-miterlimit:10;fill-opacity:1"
   cx="-169.27364"
   cy="341.108"
   id="ellipse147"
   r="13.488248" />&#10;</svg>
