<?xml version="1.0" encoding="UTF-8" standalone="no"?>
<!-- Created with Inkscape (http://www.inkscape.org/) -->

<svg
   width="1075.0601"
   height="518.39465"
   viewBox="0 0 1075.0601 518.39465"
   version="1.1"
   id="svg1"
   inkscape:version="1.3 (0e150ed6c4, 2023-07-21)"
   sodipodi:docname="stats.svg"
   xmlns:inkscape="http://www.inkscape.org/namespaces/inkscape"
   xmlns:sodipodi="http://sodipodi.sourceforge.net/DTD/sodipodi-0.dtd"
   xmlns="http://www.w3.org/2000/svg"
   xmlns:svg="http://www.w3.org/2000/svg">
  <sodipodi:namedview
     id="namedview1"
     pagecolor="#ffffff"
     bordercolor="#000000"
     borderopacity="0.25"
     inkscape:showpageshadow="2"
     inkscape:pageopacity="0.0"
     inkscape:pagecheckerboard="0"
     inkscape:deskcolor="#d1d1d1"
     inkscape:document-units="px"
     inkscape:zoom="0.28742581"
     inkscape:cx="554.92581"
     inkscape:cy="412.2803"
     inkscape:window-width="1366"
     inkscape:window-height="705"
     inkscape:window-x="-8"
     inkscape:window-y="-8"
     inkscape:window-maximized="1"
     inkscape:current-layer="layer1" />
  <defs
     id="defs1" />
  <g
     inkscape:label="Layer 1"
     inkscape:groupmode="layer"
     id="layer1">
    <rect
       style="fill:#13bfa1;fill-opacity:1;stroke:none;stroke-width:31.0748;stroke-dasharray:none;stroke-opacity:1"
       id="rect6"
       width="1075.0601"
       height="173.95793"
       x="0"
       y="0" />
    <rect
       style="fill:#ff7300;fill-opacity:1;stroke:none;stroke-width:28.3948;stroke-dasharray:none;stroke-opacity:1"
       id="rect6-4"
       width="897.62299"
       height="173.95793"
       x="0"
       y="172" />
    <rect
       style="fill:#db1c12;fill-opacity:1;stroke:none;stroke-width:20.6659;stroke-dasharray:none;stroke-opacity:1"
       id="rect6-4-5"
       width="475.46851"
       height="173.95793"
       x="0"
       y="344.43671" />
    <text
       xml:space="preserve"
       style="font-size:48px;font-family:'Segoe Print';-inkscape-font-specification:'Segoe Print';text-align:center;text-anchor:middle;fill:#fafaf2;fill-opacity:1;stroke:none;stroke-width:18.8976"
       x="870.32959"
       y="73.982872"
       id="text1"><tspan
         sodipodi:role="line"
         x="870.32959"
         y="73.982872"
         style="text-align:center;text-anchor:middle;fill:#fafaf2;fill-opacity:1;stroke:none"
         id="tspan5">Россиян </tspan><tspan
         sodipodi:role="line"
         x="870.32959"
         y="133.98288"
         style="text-align:center;text-anchor:middle;fill:#fafaf2;fill-opacity:1;stroke:none"
         id="tspan8">10 - 35 лет</tspan></text>
    <text
       xml:space="preserve"
       style="font-size:47.5914px;font-family:'Segoe Print';-inkscape-font-specification:'Segoe Print';text-align:center;text-anchor:middle;fill:#fafaf2;fill-opacity:1;stroke:none;stroke-width:18.7368"
       x="615.54126"
       y="238.79677"
       id="text2"><tspan
         sodipodi:role="line"
         id="tspan2"
         x="615.54126"
         y="238.79677"
         style="text-align:center;text-anchor:middle;fill:#fafaf2;fill-opacity:1;stroke-width:18.7368">Отмечают </tspan><tspan
         sodipodi:role="line"
         x="615.54126"
         y="298.28601"
         style="text-align:center;text-anchor:middle;fill:#fafaf2;fill-opacity:1;stroke-width:18.7368"
         id="tspan3">признаки депрессии</tspan></text>
    <text
       xml:space="preserve"
       style="font-size:47.5914px;font-family:'Segoe Print';-inkscape-font-specification:'Segoe Print';text-align:center;text-anchor:middle;fill:#010e0e;fill-opacity:1;stroke:none;stroke-width:18.7368"
       x="689.23029"
       y="417.57745"
       id="text2-0"><tspan
         sodipodi:role="line"
         x="689.23029"
         y="417.57745"
         style="text-align:center;text-anchor:middle;fill:#010e0e;fill-opacity:1;stroke-width:18.7368"
         id="tspan6">Не обращаются</tspan><tspan
         sodipodi:role="line"
         x="689.23029"
         y="477.06671"
         style="text-align:center;text-anchor:middle;fill:#010e0e;fill-opacity:1;stroke-width:18.7368"
         id="tspan4">за помощью</tspan></text>
    <text
       xml:space="preserve"
       style="font-size:89.5442px;font-family:'Segoe Print';-inkscape-font-specification:'Segoe Print';text-align:center;text-anchor:middle;fill:#fafaf2;fill-opacity:1;stroke:none;stroke-width:50.1223;stroke-dasharray:none;stroke-opacity:1"
       x="364.28534"
       y="110.61111"
       id="text7-1"><tspan
         sodipodi:role="line"
         id="tspan7-8"
         x="364.28537"
         y="110.61111"
         style="fill:#fafaf2;fill-opacity:1;stroke-width:50.1223">35,000,000</tspan></text>
    <text
       xml:space="preserve"
       style="font-size:89.5442px;font-family:'Segoe Print';-inkscape-font-specification:'Segoe Print';text-align:center;text-anchor:middle;fill:#fafaf2;fill-opacity:1;stroke:none;stroke-width:50.1223;stroke-dasharray:none;stroke-opacity:1"
       x="166.59291"
       y="289.01651"
       id="text7-1-4"><tspan
         sodipodi:role="line"
         id="tspan7-8-5"
         x="166.59291"
         y="289.01651"
         style="fill:#fafaf2;fill-opacity:1;stroke-width:50.1223">77%</tspan></text>
    <g
       id="g25"
       transform="translate(704.63035,191.96019)">
      <path
         d="m 296.991,64.061 c 0.085,0.576 0.192,1.161 0.316,1.712 0.038,0.018 0.053,0.07 0.067,0.123 0.141,0.784 0.36,1.49 0.602,1.99 0.02,-0.002 0.031,-0.004 0.059,-0.006 l 0.06,0.138 c -0.012,-0.003 -0.035,-0.01 -0.062,-0.018 0.226,0.43 0.472,0.676 0.725,0.642 0.024,0.027 0.051,0.054 0.077,0.081 -0.241,0.299 -0.056,0.149 0.086,0.09 0.032,0.031 0.067,0.057 0.102,0.087 -0.01,0.038 -0.021,0.078 -0.054,0.147 0.024,-0.051 0.048,-0.088 0.071,-0.131 0.171,0.146 0.35,0.27 0.537,0.366 -0.013,0.088 -0.026,0.163 -0.039,0.257 0,0 0.053,-0.091 0.124,-0.218 0.26,0.121 0.539,0.195 0.83,0.201 2.056,0.04 2.806,-1.346 2.855,-3.17 1.188,-1.385 0.395,-4.98 -1.626,-6.395 -0.151,-0.316 -0.308,-0.602 -0.458,-0.857 0.093,-0.019 -0.022,-0.196 -0.261,-0.408 -0.139,-0.203 -0.272,-0.376 -0.397,-0.501 -0.651,-0.662 -1.331,-0.575 -1.946,-0.139 0.036,-0.08 0.057,-0.134 0.057,-0.134 -0.093,0.087 -0.172,0.183 -0.253,0.277 -0.642,0.541 -1.204,1.44 -1.575,2.243 -0.265,0.574 -0.425,1.064 -0.465,1.364 -0.077,0.597 0.188,1.45 0.568,2.259 z m 3.32,1.962 c 0.208,-0.106 0.421,-0.28 0.614,-0.501 -0.073,0.342 -0.193,0.674 -0.37,0.997 -0.058,-0.155 -0.143,-0.32 -0.244,-0.496 z"
         id="path22" />
      <path
         d="m 311.354,42.543 c -3.423,-4.606 -7.958,-7.917 -13.243,-10.112 -1.442,-0.599 -14.354,-5.073 -14.869,-3.344 -0.033,0.111 0.667,0.423 1.732,0.831 -0.067,-0.003 -0.11,0.002 -0.116,0.019 -0.023,0.078 0.092,0.173 0.274,0.273 -0.611,-0.206 -1.196,-0.365 -1.434,-0.303 0.268,-0.073 7.549,4.643 8.211,3.264 2.249,0.518 2.845,2.205 6.057,2.007 0.452,-0.016 -0.406,-0.495 -1.006,-0.796 1.42,0.695 2.794,1.467 4.114,2.317 -0.874,0.8 0.989,1.32 2.49,1.741 0.426,0.332 0.837,0.683 1.247,1.036 -0.223,0.13 -0.475,0.232 -0.475,0.232 0.398,0.621 1.733,1.395 2.92,2.18 0.238,0.265 0.485,0.521 0.71,0.796 0.446,0.544 0.871,1.115 1.281,1.702 -0.182,0.946 0.996,2.042 1.622,2.592 0.081,0.144 0.17,0.282 0.248,0.428 0.332,1.269 1.595,6.459 3.104,7.457 0.25,0.817 0.477,1.644 0.684,2.476 -0.083,0.494 -0.122,1.038 0.06,1.715 0.126,-0.057 0.224,-0.097 0.308,-0.124 0.069,0.339 0.13,0.678 0.194,1.018 -0.191,0.776 0.484,2.021 0.377,2.877 0.024,-0.022 0.048,-0.044 0.071,-0.068 0.015,0.115 0.036,0.231 0.05,0.346 -0.035,-0.001 -0.063,-0.013 -0.097,-0.013 0.119,1.108 0.224,1.888 0.317,2.427 0.017,0.262 0.03,0.521 0.043,0.78 -0.028,-0.007 -0.054,-0.008 -0.083,-0.017 -0.606,1.906 -0.549,2.756 0.147,2.584 -0.002,0.161 -0.002,0.321 -0.006,0.481 -0.036,-0.019 -0.063,-0.038 -0.1,-0.058 -0.044,0.93 -0.059,1.751 -0.024,2.509 -0.03,0.385 -0.056,0.774 -0.099,1.15 -0.143,1.299 -0.363,2.572 -0.651,3.817 -0.594,0.247 -0.978,0.695 -0.508,1.749 0.024,-0.032 0.052,-0.054 0.081,-0.081 -0.305,1.061 -0.665,2.095 -1.064,3.109 -0.612,0.817 -1.1,1.807 -1.65,2.907 0.094,0.05 0.177,0.095 0.265,0.143 -0.892,1.731 -1.923,3.376 -3.081,4.924 -0.041,-0.079 -0.087,-0.158 -0.147,-0.245 -0.658,0.876 -1.262,1.85 -1.919,2.756 -1.225,1.358 -2.549,2.622 -3.962,3.782 -1.267,0.978 -2.525,1.905 -3.828,2.764 -3.075,1.931 -6.435,3.415 -9.959,4.372 -0.005,-0.021 -0.005,-0.042 -0.011,-0.064 -0.821,0.16 -2.519,0.498 -2.842,0.643 0.014,0.023 0.03,0.037 0.046,0.059 -0.825,0.154 -1.653,0.288 -2.485,0.385 -0.522,-0.119 -0.982,-0.202 -1.164,-0.192 0.233,0.06 0.376,0.147 0.453,0.256 -1.521,0.144 -3.054,0.196 -4.598,0.138 0.017,-0.044 0.02,-0.086 0.038,-0.131 -0.76,-0.052 -1.502,-0.199 -2.225,-0.44 0.089,0.089 0.156,0.251 0.202,0.442 -1.272,-0.122 -2.544,-0.314 -3.815,-0.584 -0.275,-0.058 -0.543,-0.128 -0.816,-0.193 -0.877,-0.378 -2.308,-0.786 -3.332,-0.961 -0.817,-0.28 -1.623,-0.587 -2.415,-0.924 -0.333,-0.687 -0.861,-1.146 -1.543,-0.7 -9.713,-4.67 -17.132,-13.512 -20.269,-23.811 -0.295,-2.46 -0.653,-4.908 -1.333,-6.19 -0.175,-1.371 -0.285,-2.755 -0.306,-4.15 -0.141,-9.741 3.758,-19.669 10.611,-26.636 0.352,-0.311 0.705,-0.618 1.083,-0.904 -0.04,-0.007 -0.069,-0.026 -0.107,-0.035 0.156,-0.147 0.306,-0.3 0.464,-0.443 0.087,-0.078 0.188,-0.157 0.276,-0.235 0.54,-0.141 1.105,-0.638 2.168,-1.441 1.277,-0.965 2.607,-1.141 2.354,-1.845 0.177,-0.111 0.351,-0.222 0.53,-0.332 0.023,0.048 0.044,0.092 0.068,0.141 1.21,-0.709 2.307,-1.187 2.995,-1.849 0.398,-0.206 0.805,-0.402 1.212,-0.6 -0.008,0.04 -0.004,0.071 -0.019,0.116 0.356,-0.153 0.714,-0.305 1.071,-0.457 -0.034,-0.037 -0.067,-0.073 -0.102,-0.109 0.129,-0.061 0.26,-0.118 0.389,-0.176 0.002,0.054 0.012,0.103 0.008,0.16 4.253,-1.977 8.736,-1.204 12.934,-2.719 0.658,-0.257 -0.112,-0.595 -1.247,-0.9 0.573,-0.049 1.129,-0.078 1.647,-0.065 -0.639,-0.017 -1.274,-0.016 -1.905,-0.003 -1.518,-0.386 -3.509,-0.706 -3.759,-0.708 -1.328,-0.008 -2.256,0.194 -3.018,0.503 0.451,0.016 0.902,0.032 1.353,0.048 -0.723,0.528 -1.223,0.613 -1.498,0.265 -0.046,-0.059 -0.083,-0.124 -0.114,-0.198 -0.917,0.42 -1.609,0.992 -2.517,1.521 -1.011,0.286 -2.003,0.612 -2.976,0.979 -0.093,-0.175 -0.639,-0.185 -0.389,-0.729 -0.919,0.364 -5.62,2.644 -5.426,2.789 0.627,-0.222 1.244,-0.479 1.845,-0.769 -1.748,0.831 -7.728,3.4 -8.174,5.281 0.214,0.148 0.403,0.277 0.581,0.396 -0.101,0.09 -0.203,0.182 -0.304,0.273 -0.112,-0.175 -0.217,-0.362 -0.302,-0.575 -1.281,2.618 -2.914,2.884 -4.474,5.777 -0.961,1.263 -1.843,2.59 -2.646,3.977 -0.604,0.772 -1.176,1.564 -1.563,2.445 -0.578,1.315 -3.111,7.493 -3.086,10.07 -0.095,0.493 -0.184,0.987 -0.261,1.488 -2.072,13.573 2.871,26.421 12.177,34.987 0.536,0.687 1.049,1.422 1.55,2.305 0.46,0.826 1.955,0.893 2.861,1.205 4.368,2.989 9.411,5.161 14.959,6.241 22.827,4.449 44.065,-10.391 46.775,-33.873 1.198,-10.321 -1.7,-21.011 -7.895,-29.349 z M 261.322,31.885 c 0.297,-0.013 0.594,-0.025 0.889,-0.039 -0.176,0.084 -0.349,0.173 -0.522,0.26 -0.125,-0.067 -0.25,-0.141 -0.367,-0.221 z m 25.559,-1.029 c 0.028,0.009 0.067,0.021 0.085,0.027 -0.02,-0.004 -0.05,-0.014 -0.085,-0.027 z m 25.441,19.319 c 0.038,-0.047 0.064,-0.08 0.096,-0.123 0.017,0.04 0.037,0.08 0.054,0.12 -0.05,0.002 -0.098,-0.003 -0.15,0.003 z"
         id="path23" />
      <path
         d="m 263.435,62.932 c -0.056,0.42 -0.177,0.822 -0.357,1.206 -0.292,-0.065 0.928,-3.008 -0.795,-3.518 -0.078,0.187 -0.119,0.39 -0.143,0.602 -0.109,-0.332 -0.24,-0.628 -0.389,-0.88 0.552,0.812 0.014,-0.343 -0.069,-0.423 0.243,-0.009 0.414,0.02 0.528,0.079 -0.014,-0.028 -0.028,-0.063 -0.049,-0.105 -0.285,-0.367 -0.691,-0.816 -0.778,-0.867 1.099,-0.047 -1.573,-0.843 -2.799,-0.537 -0.574,0.729 -1.912,2.694 -2.117,2.11 -0.085,0.351 -0.093,1.01 -0.045,1.801 -0.03,-0.09 -0.12,-0.196 -0.185,-0.142 -0.052,0.044 0.096,0.333 0.185,0.238 0.065,0.908 0.203,2.017 0.402,3.058 -0.261,2.606 0.397,4.915 3.583,3.734 0.423,-0.156 0.776,-0.449 1.068,-0.829 0.834,-0.249 1.736,-0.729 1.298,-1.048 -0.24,-0.013 -0.413,0.086 -0.518,0.297 0.18,-0.329 0.57,-1.467 0.871,-2.549 -0.031,-0.259 0.042,-0.377 0.095,-0.345 0.271,-1.016 0.431,-1.899 0.214,-1.882 z m -0.728,-1.922 c 0.038,-0.01 0.042,-0.003 -0.103,0.052 -0.654,-0.152 0.377,-0.219 0.103,-0.052 z m -5.76,2.678 c 0.099,0.042 -0.052,0.105 0,0 z m 0.081,-0.431 0.134,0.088 c 0.102,0.126 -0.179,0.01 -0.134,-0.088 z m 3.538,3.292 c -0.052,-0.156 -0.1,-0.313 -0.143,-0.471 0.113,-0.144 0.224,-0.314 0.329,-0.505 -0.019,0.362 -0.076,0.693 -0.186,0.976 z m 1.841,-4.645 c -0.223,-0.602 0.006,-0.438 0,0 z m -0.895,-2.069 -0.104,-0.1 c 0.141,-0.093 0.182,-0.054 0.104,0.1 z m -0.616,-0.457 c 0.004,-0.037 0.203,-0.414 0,0 z m -1.261,-0.607 c -0.065,0.003 -0.104,-0.067 -0.118,-0.211 0.043,0 0.209,0.225 0.118,0.211 z m -1.053,0.13 c 0.37,-0.47 -0.467,0.8 0,0 z m -0.005,0.943 c 0.018,-0.039 0.034,-0.071 0.048,-0.097 -0.012,0.024 -0.021,0.048 -0.033,0.071 0.235,-0.428 0.506,-0.884 0.506,-0.884 0.1,-0.013 0.745,0.232 1.374,0.537 -0.208,0.02 -0.43,0.113 -0.663,0.272 -0.503,-0.163 -1.012,0.009 -1.447,0.681 -0.026,0.042 -0.055,0.09 -0.082,0.138 0.105,-0.264 0.202,-0.506 0.276,-0.672 -0.104,0.213 -0.207,0.427 -0.309,0.642 0.004,-0.074 0.155,-0.371 0.33,-0.688 z m -0.661,0.562 c -0.071,0.005 -0.116,-0.029 -0.133,-0.106 0.117,-0.013 0.162,0.025 0.133,0.106 z m -0.02,0.269 c -0.064,0.15 -0.247,-0.209 0,0 z m -0.396,1.19 c 0.052,0.103 0.137,0.038 0.237,-0.12 -0.088,0.233 -0.174,0.482 -0.258,0.745 -0.048,-0.029 -0.059,-0.191 0.021,-0.625 z m -0.111,0.758 c -0.078,0.094 -0.143,0.085 -0.184,-0.036 0.046,-0.054 0.106,-0.04 0.184,0.036 z m -0.277,-0.048 c 0.146,0.067 0.123,0.096 -0.091,0.088 z m 0.097,0.436 C 257.124,63.1 257.013,63.1 256.875,63 c 0.111,-0.076 0.223,-0.069 0.334,0.011 z m 1.404,4.057 c 0.002,-0.083 0.002,-0.169 0.002,-0.254 0.328,0.262 0.687,0.479 1.021,0.627 -0.524,0.175 -0.846,0.008 -1.023,-0.373 z m 3.825,-0.636 c -0.011,0.011 -0.047,0.011 -0.088,0.008 0.166,-0.735 0.24,-1.537 0.23,-2.33 0.229,0.972 0.356,1.844 -0.142,2.322 z m 0.206,-5.067 c -0.134,0.028 0.059,-0.229 0.095,-0.251 0.268,0.108 0.237,0.2 -0.095,0.251 z m 0.38,0.773 c 0,0 0.173,-0.112 0,0 -0.226,-0.858 0.209,-0.135 0,0 z"
         id="path24" />
      <path
         d="m 279.964,80.279 c -0.182,0.094 -0.373,0.161 -0.569,0.219 -0.102,0.008 -0.206,0.016 -0.311,0.024 -0.83,-0.021 -1.984,-0.227 -2.297,-0.358 -0.042,0.541 -0.313,0.568 -0.064,-0.03 -0.869,0.358 -1.186,0.459 -1.576,0.535 0.023,-0.082 0.033,-0.166 -0.004,-0.226 -0.043,-0.064 -0.176,0.107 -0.207,0.266 -0.15,0.025 -0.332,0.058 -0.554,0.102 -1.229,0.048 -2.338,0.061 -3.193,0.02 -0.448,-0.292 -1.127,-0.253 -1.582,-0.268 -0.054,-0.033 -0.094,-0.069 -0.111,-0.109 0.017,0.039 0.037,0.069 0.054,0.106 -0.174,-0.008 -0.311,-0.027 -0.376,-0.086 -0.273,-0.236 -1.449,0.676 -1.578,1.264 0.046,-0.294 0.035,-0.585 -0.033,-0.874 -0.184,0.774 -0.267,0.843 -0.246,0.205 0,1.07 -0.202,1.121 -0.337,1.566 0.022,-0.078 0.759,1.084 0.589,0.946 -0.011,-0.008 6.006,0.117 7.813,0.056 0.115,0.011 0.231,0.021 0.347,0.03 -2.541,0.435 -4.406,0.831 -4.241,0.835 1.633,0.05 16.067,0.321 16.851,-1.073 0.122,-0.068 0.284,-0.288 0.321,-0.406 1.086,-0.126 2.092,-0.261 2.911,-0.401 0.123,0.278 0.354,0.614 0.26,-0.045 0.038,-0.008 0.075,-0.015 0.111,-0.022 0.169,0.324 0.408,0.934 0.256,0.999 0.249,-0.107 0.142,-1.085 0.232,-1.094 0.096,-0.01 0.261,-0.021 0.447,-0.03 0.151,-0.007 0.278,-0.012 0.401,-0.014 0.014,-0.057 0.035,-0.116 0.073,-0.183 0.033,0.059 0.042,0.12 0.052,0.181 0.288,-0.002 0.524,0.01 0.536,0.052 -0.086,1.222 2.275,-0.931 2.317,-0.983 -0.736,0.226 -1.176,0.329 -1.431,0.374 0.114,0.049 0.195,0.176 0.101,0.465 0.021,-0.062 -0.908,-0.5 -0.958,-0.616 0.177,-0.514 0.928,0.053 1.251,-0.078 0.892,-0.36 -1.567,-1.072 -2.274,-0.891 -0.093,-0.108 -0.188,-0.215 -0.292,-0.308 0.021,-0.042 0.053,-0.075 0.072,-0.12 -0.055,0.015 -0.1,0.039 -0.144,0.064 -1.851,-1.535 -5.334,-0.77 -7.459,-0.445 -0.344,0.053 -1.164,0.147 -2.252,0.257 -0.331,-0.016 -0.559,-0.01 -0.759,0.074 -0.717,0.069 -1.517,0.141 -2.356,0.21 0.137,-0.039 0.222,-0.098 0.209,-0.19 z m -12.039,1.964 c -0.163,0.177 -0.21,0.08 -0.128,-0.286 0.012,0.022 0.493,0.074 0.128,0.286 z m 1.04,-1.257 -0.149,-0.036 c 0.059,-0.073 0.41,-0.564 0.149,0.036 z m 25.434,1.489 -0.221,-0.383 c 0.077,-0.19 0.184,-0.197 0.221,0.383 z m -24.003,0.131 c 0.003,0.064 -0.141,0.654 0,0 0,0 -0.022,0.097 0,0 z m -0.043,-0.847 c -0.007,0.018 -0.014,0.032 -0.021,0.051 -0.37,0.57 -0.403,0.507 -0.104,-0.175 0.04,0.043 0.085,0.082 0.125,0.124 z m -0.261,0.769 c -0.066,0.054 -0.113,0.327 -0.136,0.006 z m -0.511,0.744 c 0.09,0.032 0.818,0.199 1.158,0.21 -0.365,0.096 -1.207,0.273 -1.158,-0.21 z m 1.327,0.164 c -0.126,0.025 0,0 0,0 z m 0.071,-0.263 c -0.079,0.077 0.039,-0.254 0.127,-0.176 z m 0.018,-0.715 c -0.012,-0.066 -0.016,-0.114 -0.016,-0.154 0.053,0.039 0.103,0.082 0.157,0.118 z"
         id="path25" />
    </g>
    <g
       id="g38"
       transform="translate(599.52738,364.39464)">
      <path
         d="m 403.432,66.684 c 0.02,0.034 0.073,0.095 0.144,0.168 0.398,1.416 0.941,2.321 1.606,1.744 -0.754,0.949 0.321,-0.191 -0.01,0.534 0.095,-0.209 0.162,-0.368 0.216,-0.507 0.592,0.407 1.234,0.462 1.836,0.279 0.009,0.272 0.022,0.569 0.05,0.92 0.008,-0.026 0.182,-0.622 0.276,-1.045 0.102,-0.048 0.2,-0.1 0.298,-0.16 -0.052,0.214 -0.083,0.434 -0.087,0.659 0.152,0.113 0.53,-0.603 0.794,-1.249 0.5,-0.55 0.842,-1.269 0.882,-2.009 0.027,-0.529 0.004,-1.066 -0.056,-1.6 0.004,0.028 0.02,0.056 0.06,0.062 0.475,0.087 0.178,-0.439 0.055,-0.301 0,0 -0.114,0.148 -0.114,0.239 -0.03,-0.276 -0.072,-0.558 -0.121,-0.833 0.135,-0.64 0.196,-1.099 0.071,-1.093 -0.034,0.223 -0.086,0.441 -0.155,0.655 -0.043,-0.193 -0.083,-0.385 -0.13,-0.578 0.035,-0.717 -0.013,-1.591 -0.398,-2.134 -0.01,0.017 -0.025,0.028 -0.15,0.076 -0.038,-0.011 -0.071,-0.022 -0.1,-0.032 -0.012,-0.04 -0.027,-0.08 -0.043,-0.12 0.069,-0.015 0.172,-0.016 0.239,-0.002 -0.095,-0.115 -0.208,-0.208 -0.341,-0.28 -0.104,-0.274 -0.208,-0.546 -0.314,-0.813 0.088,0.023 0.155,0.054 0.211,0.088 -0.031,-0.075 -0.065,-0.181 -0.074,-0.221 -0.272,-0.448 -0.618,-0.944 -0.569,-0.881 0.775,0.187 -1.825,-1.704 -3.015,-0.35 0.079,-0.116 0.149,-0.24 0.236,-0.351 -0.033,-0.045 -0.132,0.118 -0.261,0.376 -0.086,0.103 -0.165,0.22 -0.234,0.361 0.061,-0.108 0.141,-0.205 0.208,-0.309 -0.459,0.924 -1.307,2.945 -1.528,2.112 -0.095,0.389 -0.106,1.223 -0.045,2.225 -0.03,0.09 -0.054,0.174 -0.069,0.245 -0.28,1.395 -0.091,2.89 0.632,4.125 z m 0.75,1.245 0.071,0.141 c -0.055,-0.013 -0.415,-0.1 -0.071,-0.141 z m 2.446,-1.26 c -0.059,-0.111 -0.089,-0.247 -0.122,-0.378 0.112,0.179 0.236,0.329 0.371,0.439 -0.069,0.116 -0.15,0.121 -0.249,-0.061 z m 2.001,-6.102 c 0.269,0.116 0.24,0.209 -0.091,0.263 -0.023,-0.028 -0.029,-0.046 -0.035,-0.063 0.023,-0.074 0.101,-0.184 0.126,-0.2 z m -2.906,-2.845 c -0.067,0.021 -0.123,-0.036 -0.175,-0.171 0.052,-0.015 0.278,0.157 0.175,0.171 z m 0.372,0.532 c -0.376,0.175 -0.763,0.482 -1.138,0.861 0.161,-0.521 0.323,-1.056 0.292,-1.034 0.175,-0.125 0.493,-0.029 0.846,0.173 z m -1.337,-0.006 c 0.111,-0.473 -0.108,0.887 0,0 z m -0.544,1.59 c 0.05,-0.01 0.082,-0.004 0.105,0.007 -0.019,0.025 -0.038,0.05 -0.058,0.075 -0.022,-0.017 -0.038,-0.044 -0.047,-0.082 z"
         id="path32" />
      <path
         d="m 367.917,62.178 c -0.085,0.428 -0.243,0.829 -0.47,1.203 -0.071,-0.023 0.603,-2.215 -0.127,-3.25 -0.003,0.011 -0.018,0.025 -0.047,0.04 0.039,-0.008 0.041,0 -0.102,0.047 -0.51,-0.136 -0.002,-0.18 0.128,-0.123 -0.109,-0.146 -0.248,-0.267 -0.425,-0.354 -0.04,0.07 -0.066,0.145 -0.096,0.219 -0.109,-0.38 -0.231,-0.734 -0.367,-1.038 0.219,0.034 0.373,0.09 0.476,0.164 -0.037,-0.11 -0.077,-0.332 -0.045,-0.219 0.008,0.025 0.03,0.049 0.053,0.075 -0.235,-0.453 -0.582,-1.003 -0.557,-0.974 0.74,0.19 -1.727,-1.668 -2.883,-0.129 0.054,-0.092 0.107,-0.188 0.164,-0.279 -0.031,-0.033 -0.108,0.113 -0.215,0.345 -0.071,0.106 -0.139,0.222 -0.196,0.356 0.048,-0.088 0.101,-0.173 0.152,-0.261 -0.406,0.906 -1.154,2.828 -1.433,2.072 -0.04,0.193 -0.144,0.855 -0.225,1.638 -0.032,-0.043 -0.075,-0.073 -0.113,-0.049 -0.042,0.027 0.021,0.204 0.095,0.246 -0.132,1.379 -0.178,3.038 0.299,3.232 -0.715,0.281 -0.299,1.178 0.371,2.012 0.201,0.732 0.598,1.221 1.277,1.268 0.415,0.322 0.73,0.469 0.73,0.263 -0.002,-0.137 -0.008,-0.249 -0.02,-0.352 0.174,-0.049 0.357,-0.121 0.557,-0.211 -0.049,0.212 -0.099,0.445 -0.148,0.706 -2.758,3.189 0.276,-0.125 0.802,-1.062 0.023,-0.015 0.047,-0.028 0.071,-0.043 0.066,-0.041 0.11,-0.065 0.16,-0.098 0.041,-0.026 0.071,-0.058 0.11,-0.085 -0.214,0.292 -0.392,0.604 -0.51,0.95 0.199,0.299 1.752,-1.746 1.56,-1.872 -0.022,-10e-4 -0.035,0.014 -0.057,0.016 0.095,-0.083 0.172,-0.233 0.235,-0.43 0.006,0.184 0.028,0.368 0.086,0.546 0.115,-0.364 0.006,-0.502 -0.056,-0.65 0.052,-0.189 0.093,-0.416 0.123,-0.673 0.037,0.034 0.058,-0.283 0.037,-0.381 0.009,-0.16 0.017,-0.326 0.021,-0.5 0.016,-0.04 0.031,-0.08 0.047,-0.12 -0.006,-0.255 0.071,-0.363 0.123,-0.34 0.369,-1.015 0.643,-1.906 0.415,-1.905 z m -0.367,-0.843 c -0.196,-0.887 0.223,-0.139 0,0 z m -0.253,-1.057 c 0.261,0.121 0.226,0.205 -0.106,0.254 -0.133,0.019 0.07,-0.233 0.106,-0.254 z m -0.185,1.225 c -0.004,-0.024 -0.008,-0.05 -0.012,-0.075 0.088,-0.018 0.059,0.08 0.012,0.075 z m -4.861,2.982 c -0.004,0.034 -0.008,0.068 -0.01,0.101 -0.108,0.021 -0.172,-0.004 0.01,-0.101 z m 1.472,-0.046 c -0.05,-0.398 0.01,-0.792 0.127,-1.173 -0.07,0.475 -0.11,0.893 -0.127,1.173 z m -1.432,-0.327 c -0.025,-0.007 -0.048,-0.018 -0.083,-0.052 0.033,-0.03 0.063,-0.038 0.095,-0.033 -0.004,0.029 -0.008,0.058 -0.012,0.085 z m -0.042,-1.365 0.119,0.109 c 0.073,0.143 -0.173,-0.017 -0.119,-0.109 z m 3.597,-4.691 c -0.017,-0.016 -0.036,-0.033 -0.054,-0.047 0.06,-0.061 0.143,-0.075 0.054,0.047 z m -1.264,-0.452 c -0.056,0.04 -0.119,-0.002 -0.192,-0.125 0.044,-0.027 0.284,0.084 0.192,0.125 z m 0.083,0.347 c -0.188,0.123 -0.384,0.314 -0.588,0.577 0.084,-0.296 0.139,-0.511 0.114,-0.49 0.112,-0.097 0.279,-0.121 0.474,-0.087 z m -2.239,4.122 c 0.144,0.088 0.109,0.112 -0.098,0.078 z m 0.031,0.453 c -0.097,0.077 -0.204,0.059 -0.327,-0.06 0.121,-0.059 0.228,-0.038 0.327,0.06 z m -0.358,0.643 c 0.089,0.059 -0.069,0.1 0,0 z m -0.114,2.316 c 0.526,0.168 -0.363,0.354 0,0 z m 0.139,0.453 c 0.028,-0.008 0.044,-0.012 0.064,-0.018 0.002,0.026 0.004,0.051 0.006,0.078 -0.044,-0.007 -0.07,-0.025 -0.07,-0.06 z m 4.396,0.868 c 0.023,-0.039 0.042,-0.081 0.062,-0.121 0.023,0.011 0.046,0.008 0.069,0.013 -0.073,0.053 -0.127,0.132 -0.16,0.24 0.006,-0.035 0.019,-0.082 0.029,-0.132 z"
         id="path33" />
      <path
         d="m 396.572,84.523 c 0.023,0.048 0.068,0.088 0.126,0.121 0.847,0.722 1.697,0.115 1.287,-2.436 -0.935,-5.822 -6.466,-8.982 -12.087,-8.124 -2.846,0.435 -5.639,1.8 -7.662,3.858 -1.188,1.206 -2.111,2.692 -2.483,4.356 -0.228,0.358 -0.412,0.694 -0.539,0.999 0.032,0.009 0.09,0.04 0.192,0.115 l -0.063,0.188 c -0.026,-0.032 -0.118,-0.154 -0.154,-0.236 -0.341,0.861 -0.213,1.469 0.727,1.556 -0.272,0.001 -0.522,0.074 -0.748,0.218 0.667,0.027 0.728,0.101 0.182,0.222 1.123,-0.32 1.563,0.098 2.097,-0.539 -0.027,0.034 0.098,-0.68 0.366,-1.551 0.67,-1.22 1.476,-2.37 2.409,-3.374 0.602,-0.196 1.346,-0.359 1.366,-0.617 0.002,-0.112 -0.454,-0.052 -0.64,-0.11 0.17,-0.158 0.341,-0.315 0.521,-0.462 0.072,0.298 1.007,0.054 1.802,-0.226 -2.075,2.263 3.028,-1.631 2.115,-1.616 1.303,-0.021 2.098,1.113 3.875,0.504 1.468,0.114 -0.358,-0.486 -0.33,-0.418 0.384,-0.482 0.832,-0.296 1.055,-0.382 0.111,0.027 0.219,0.041 0.33,0.071 -0.167,0.489 -0.073,1.187 0.272,1.53 0.681,0.675 1.732,0.05 1.947,0.375 0.118,0.134 1.612,1.454 2.414,2.075 0.055,0.118 0.107,0.238 0.155,0.359 0.017,0.093 0.062,0.2 0.119,0.296 0.024,0.07 0.038,0.146 0.06,0.216 -0.257,0.153 -0.629,0.323 -0.599,0.354 0.083,0.083 0.43,-0.019 0.672,-0.088 0.044,0.15 0.094,0.295 0.127,0.45 0.075,0.356 0.174,0.676 0.284,0.97 -0.29,0.337 0.533,2.091 0.647,2.319 0,-0.428 0,-0.802 0,-1.152 0.052,0.065 0.104,0.124 0.158,0.179 z m -20.441,-0.018 c 0.022,0.066 0.048,0.126 0.073,0.185 -0.037,-0.002 -0.067,-0.003 -0.112,-0.01 0,0 0.013,-0.098 0.039,-0.175 z m 6.789,-6.448 c -0.187,0.083 -0.081,-0.525 0,0 z m 0.239,-0.263 c -0.068,-0.068 -0.081,-0.145 -0.063,-0.229 0.129,0.097 0.146,0.182 0.063,0.229 z m 2.861,-1.187 c -0.047,0.012 -0.082,-0.041 -0.117,-0.126 0.035,-0.006 0.063,-0.017 0.097,-0.024 0.044,0.077 0.07,0.151 0.02,0.15 z m 1.727,0.358 c -0.004,-0.011 -0.02,-0.849 0,0 z m 0.778,0.041 c 0.083,-0.269 0.146,-0.264 0.179,0.014 z m 2.177,-0.23 c 0.031,0.011 0.065,0.022 0.095,0.033 -0.023,0.064 -0.079,0.24 -0.042,0.199 0.026,-0.09 0.034,-0.15 0.042,-0.199 0,0.031 -0.01,0.086 -0.042,0.199 -0.401,0.452 -0.197,-0.035 -0.053,-0.232 z m 0.232,0.081 c 0.08,0.029 0.162,0.051 0.241,0.084 -0.023,0.074 -0.054,0.158 -0.101,0.27 -0.087,0.209 -0.17,-0.271 -0.14,-0.354 z m 0.373,1.044 c 0.013,0.002 0.039,0.014 0.086,0.058 -0.837,-0.191 -0.364,-0.211 -0.086,-0.058 z m 0.195,-0.808 c 0.105,0.051 0.21,0.106 0.313,0.163 -0.117,-0.029 -0.232,-0.083 -0.313,-0.163 z m 0.34,0.946 c 0.023,0.004 0.02,-0.07 0.007,-0.027 0.074,-0.299 0.225,0.077 -0.007,0.027 z m 4.145,5.962 c -0.006,-0.023 0.028,-0.088 0.081,-0.172 0.052,0.093 0.103,0.183 0.156,0.266 -0.058,0.413 -0.135,0.529 -0.237,-0.094 z"
         id="path34" />
      <path
         d="m 392.661,79.309 c -0.238,0.345 0.471,0.072 0.483,-0.024 10e-4,-0.046 -0.3,-0.259 -0.483,0.024 z"
         id="path35" />
      <path
         d="m 390.995,78.982 c -0.221,0.51 0.723,-0.139 0.707,-0.126 -0.057,-0.005 -0.573,-0.184 -0.707,0.126 z"
         id="path36" />
      <path
         d="m 388.014,77.99 c -0.065,1.001 0.874,-0.272 0.861,-0.248 -0.104,0.006 -0.851,-0.112 -0.861,0.248 z"
         id="path37" />
      <path
         d="m 422.291,57.067 c -2.027,-7.801 -6.128,-15.113 -11.989,-20.678 -3.179,-3.017 -6.878,-5.536 -10.972,-7.127 -2.065,-0.803 -4.225,-1.361 -6.423,-1.635 -1.505,-0.186 -3.015,-0.239 -4.53,-0.158 -0.985,0.497 -0.985,1.008 0,1.533 0.117,0.012 0.231,0.033 0.349,0.047 1.19,0.417 7.643,3.764 8.138,2.492 2.318,0.275 2.639,1.851 5.656,1.972 0.072,0.003 0.103,-0.015 0.118,-0.04 1.019,0.564 1.999,1.175 2.942,1.829 -1.406,0.925 1.262,1.643 2.836,2.193 0.305,0.262 0.602,0.532 0.897,0.804 -0.249,0.207 -0.723,0.375 -0.754,0.387 0.445,0.913 2.657,2.014 3.996,3.049 0.354,0.432 0.7,0.871 1.035,1.319 0.004,0.083 -0.006,0.166 -0.039,0.246 -0.432,1.112 1.233,2.377 1.861,2.864 0.391,-0.092 1.783,7.51 3.806,7.727 0.157,0.466 0.304,0.94 0.444,1.416 -0.152,0.729 -0.491,1.457 -0.228,2.578 0.611,-0.255 0.701,-0.075 0.929,0.083 0.023,0.094 0.044,0.189 0.065,0.284 -1.213,0.51 -0.012,2.273 -0.238,3.449 0.259,-0.221 0.518,-0.443 0.776,-0.665 0.064,0.396 0.117,0.798 0.169,1.2 -0.267,-0.164 -0.582,-0.26 -0.943,-0.262 0.119,0.944 0.206,1.891 0.255,2.842 0.404,-0.244 0.725,-0.255 0.965,-0.052 0.012,0.139 0.018,0.28 0.026,0.421 -0.309,0.116 -0.63,0.133 -0.961,0.042 -0.684,2.449 -0.396,3.223 0.861,2.32 0.075,0.013 0.143,0.002 0.21,-0.012 0.008,0.415 0.012,0.829 0.006,1.24 -0.244,-0.152 -0.542,-0.308 -0.914,-0.472 0.022,0.874 -0.601,3.383 0.8,2.988 -0.002,0.034 -0.002,0.068 -0.006,0.101 -0.794,0.931 -0.649,1.641 -0.242,2.188 -0.1,0.697 -0.224,1.386 -0.362,2.069 -0.82,0.264 -1.495,0.714 -0.79,1.935 0.123,-0.161 0.27,-0.28 0.436,-0.359 -0.256,1.018 -0.551,2.019 -0.891,2.997 -0.727,0.896 -1.226,2.022 -1.889,3.347 0.15,0.076 0.29,0.146 0.425,0.212 -0.073,0.155 -0.145,0.311 -0.222,0.463 -0.504,1.01 -1.044,1.995 -1.636,2.946 -0.118,0.075 -0.235,0.149 -0.366,0.216 0.069,0.022 0.138,0.03 0.205,0.044 -0.305,0.485 -0.626,0.961 -0.956,1.43 -0.063,-0.146 -0.153,-0.305 -0.285,-0.485 -1.061,1.656 -2.438,3.817 -4.023,5.005 0.037,0.074 0.07,0.229 0.105,0.415 -0.418,0.412 -0.852,0.812 -1.294,1.204 0.118,-0.257 0.22,-0.547 0.27,-0.879 -2.422,2.138 -5.035,3.837 -7.917,5.267 0.121,0.236 0.269,0.443 0.427,0.633 -0.312,0.167 -0.623,0.333 -0.938,0.492 0.018,-0.144 0.03,-0.289 0.03,-0.436 -0.014,0.205 -0.077,0.361 -0.163,0.5 -0.465,0.23 -0.934,0.453 -1.408,0.667 -1.251,0.192 -2.879,0.166 -3.488,1.37 -0.371,0.126 -0.738,0.253 -1.112,0.369 -0.052,-0.227 -0.107,-0.453 -0.176,-0.676 -0.733,0.2 -2.6,0.741 -2.784,0.852 0.145,0.233 0.314,0.388 0.506,0.495 -0.253,0.062 -0.5,0.125 -0.754,0.184 -0.822,-0.321 -2.869,-0.209 -3.317,-0.169 0.491,0.102 0.641,0.339 0.483,0.695 -1.611,0.242 -3.2,0.375 -4.762,0.392 -0.175,-0.562 -0.454,-0.821 -2.011,-0.847 0.148,0.139 0.26,0.461 0.306,0.823 -1.339,-0.055 -2.65,-0.195 -3.941,-0.406 -0.135,-0.701 -4.773,-1.738 -5.286,-1.327 -0.309,-0.104 -0.616,-0.211 -0.92,-0.325 -0.132,-0.27 -0.415,-0.537 -0.968,-0.768 -1.021,-0.43 -0.998,-0.142 -1.467,-0.263 -0.357,-0.168 -0.711,-0.344 -1.061,-0.524 -0.734,-0.472 -3.028,-1.952 -3.659,-2.169 -0.075,-0.051 -0.146,-0.105 -0.22,-0.157 -0.405,-1.351 -1.901,-2.043 -3.46,-2.734 -2.29,-2.048 -4.336,-4.4 -6.098,-6.991 0.232,-0.048 0.439,0.104 0.547,0.643 0.925,-0.473 0.247,-0.717 -0.67,-0.833 -0.317,-0.471 -0.623,-0.947 -0.919,-1.432 0.219,0.063 0.468,0.184 0.749,0.371 -0.33,-0.546 -0.781,-0.876 -1.264,-1.223 -2.037,-3.531 -3.576,-7.425 -4.507,-11.547 -0.528,-2.331 -0.848,-4.673 -0.969,-7.003 0.334,-0.296 0.5,-0.63 -0.03,-0.88 -0.047,-1.525 -0.036,-3.045 0.124,-4.547 0.13,-1.216 0.284,-2.391 0.395,-3.12 0.933,-6.151 3.553,-12.029 7.9,-16.902 0.989,-1.108 2.113,-2.088 3.302,-2.979 -0.111,-0.028 -0.205,-0.079 -0.308,-0.117 0.114,-0.104 0.227,-0.212 0.343,-0.315 0.396,0.025 0.889,-0.274 1.905,-1.039 1.671,-1.255 3.559,-1.601 3.098,-2.642 0.197,-0.122 0.392,-0.25 0.592,-0.368 0.042,0.084 0.083,0.168 0.126,0.251 1.196,-0.742 2.262,-1.209 2.921,-1.864 1.011,-0.485 2.034,-0.945 3.083,-1.355 0.737,-0.289 1.481,-0.559 2.229,-0.815 3.396,-0.901 6.85,-0.989 10.052,-2.369 0.45,-0.212 0.286,-0.419 -0.177,-0.616 0.774,-0.3 1.189,-0.542 0.552,-0.552 -0.821,-0.011 -1.627,0.009 -2.425,0.044 -1.445,-0.287 -3.073,-0.481 -3.311,-0.467 -1.297,0.076 -2.2,0.324 -2.933,0.66 0.435,0.003 0.865,0.007 1.297,0.011 -0.316,0.249 -0.59,0.405 -0.822,0.475 -0.052,0.01 -0.104,0.02 -0.155,0.029 -0.21,0.027 -0.38,-0.032 -0.51,-0.181 -0.046,-0.053 -0.084,-0.113 -0.117,-0.182 -0.451,0.237 -0.843,0.508 -1.231,0.793 -1.598,0.411 -3.136,0.925 -4.609,1.53 -0.024,-0.085 -0.031,-0.188 0.024,-0.336 -0.928,0.406 -5.548,2.776 -5.354,2.923 0.228,-0.078 0.446,-0.166 0.669,-0.253 -0.088,0.052 -0.176,0.105 -0.265,0.159 -2.465,1.175 -6.402,3.227 -6.725,4.621 0.154,0.114 0.293,0.223 0.422,0.329 -0.071,0.069 -0.143,0.138 -0.212,0.208 -0.082,-0.143 -0.169,-0.279 -0.236,-0.442 -1.898,3.487 -6.753,7.099 -8.909,12.105 -0.677,1.573 -3.88,9.729 -2.703,11.1 -0.058,-0.066 0.165,-0.526 0.397,-1.062 -0.12,1.765 -0.16,4.572 -0.15,7.242 0,0.299 0,0.599 0.006,0.9 0.023,2.946 0.103,5.541 0.193,6.086 0.114,-0.069 0.218,-0.146 0.31,-0.229 0.665,4.25 1.983,8.421 4.003,12.33 0.598,2.703 4.084,6.615 5.045,7.729 1.498,1.737 2.641,3.029 3.737,5.191 0.513,1.022 2.653,0.913 3.35,1.469 -0.692,-0.553 -1.138,-0.89 -1.422,-1.181 0.169,0.129 0.376,0.17 0.612,0.127 0.317,0.236 0.638,0.466 0.963,0.69 0.863,1.272 3.957,2.608 4.51,2.955 0.835,0.528 1.371,0.611 1.765,0.505 1.639,0.699 3.315,1.273 5.021,1.719 0.278,0.255 0.545,0.368 0.756,0.186 10.254,2.443 21.417,0.419 30.665,-5.467 14.604,-9.296 20.082,-26.602 15.8,-43.083 z M 391.728,29.546 c 0.026,0.005 0.065,0.013 0.079,0.017 -0.016,-0.003 -0.043,-0.008 -0.079,-0.017 z m 25.077,19.616 c 0.118,-0.157 0.213,-0.279 0.296,-0.388 0.06,0.119 0.119,0.236 0.177,0.356 -0.152,-0.005 -0.307,10e-4 -0.473,0.032 z m -3.367,41.944 c -0.063,0.075 -0.119,0.15 -0.183,0.224 -0.021,0.002 -0.036,0.002 -0.058,0.003 0.078,-0.08 0.159,-0.155 0.241,-0.227 z m -9.193,7.827 c 0.038,0.004 0.065,0.007 0.1,0.012 -0.02,0.012 -0.039,0.024 -0.058,0.035 -0.016,-0.016 -0.025,-0.031 -0.042,-0.047 z m -42.248,0.27 c -0.095,-0.129 -0.147,-0.265 -0.185,-0.411 0.074,0.18 0.123,0.307 0.185,0.411 z"
         id="path38" />
    </g>
    <text
       xml:space="preserve"
       style="font-size:89.5442px;font-family:'Segoe Print';-inkscape-font-specification:'Segoe Print';text-align:center;text-anchor:middle;fill:#fafaf2;fill-opacity:1;stroke:none;stroke-width:50.1223;stroke-dasharray:none;stroke-opacity:1"
       x="172.32059"
       y="461.58438"
       id="text7-1-4-5"><tspan
         sodipodi:role="line"
         id="tspan7-8-5-7"
         x="172.32059"
         y="461.58438"
         style="fill:#fafaf2;fill-opacity:1;stroke-width:50.1223">35%</tspan></text>
  </g>
</svg>
