<?xml version="1.0" encoding="UTF-8" standalone="no"?>
<!-- Created with Inkscape (http://www.inkscape.org/) -->

<svg
   width="100"
   height="100"
   viewBox="0 0 100 100"
   version="1.1"
   id="svg1"
   inkscape:version="1.3 (0e150ed6c4, 2023-07-21)"
   sodipodi:docname="third_gender.svg"
   xmlns:inkscape="http://www.inkscape.org/namespaces/inkscape"
   xmlns:sodipodi="http://sodipodi.sourceforge.net/DTD/sodipodi-0.dtd"
   xmlns="http://www.w3.org/2000/svg"
   xmlns:svg="http://www.w3.org/2000/svg">
  <sodipodi:namedview
     id="namedview1"
     pagecolor="#ffffff"
     bordercolor="#000000"
     borderopacity="0.25"
     inkscape:showpageshadow="2"
     inkscape:pageopacity="0.0"
     inkscape:pagecheckerboard="0"
     inkscape:deskcolor="#d1d1d1"
     inkscape:document-units="px"
     inkscape:zoom="5.09"
     inkscape:cx="49.901768"
     inkscape:cy="50"
     inkscape:window-width="1366"
     inkscape:window-height="705"
     inkscape:window-x="-8"
     inkscape:window-y="-8"
     inkscape:window-maximized="1"
     inkscape:current-layer="layer1" />
  <defs
     id="defs1" />
  <g
     inkscape:label="Layer 1"
     inkscape:groupmode="layer"
     id="layer1">
    <g
       transform="matrix(0,1.3494561,-1.3494561,0,18717.9,15830.313)"
       id="g39">&#10;		<g
   transform="matrix(0.374723,0,0,0.374723,-7901.28,11423.5)"
   id="g36">&#10;			<g
   id="g35">&#10;				<path
   style="fill:#fb5275"
   d="m -10059.677,6395.177 c 0,33.766 -27.491,61.257 -61.285,61.257 -33.794,0 -61.257,-27.491 -61.257,-61.257 0,-33.765 27.463,-61.256 61.257,-61.256 33.794,0 61.285,27.491 61.285,61.256 z m -112.275,0 c 0,28.119 22.872,50.991 50.99,50.991 28.119,0 51.02,-22.872 51.02,-50.991 0,-28.119 -22.9,-50.99 -51.02,-50.99 -28.118,0 -50.99,22.872 -50.99,50.99 z"
   id="path34" />
&#10;			</g>
&#10;		</g>
&#10;		<g
   transform="matrix(0.374723,0,0,0.374723,-7881.75,11415.2)"
   id="g38">&#10;			<g
   id="g37">&#10;				<path
   style="clip-rule:evenodd;fill:#fb5275;fill-rule:evenodd"
   d="m -10176.929,6504.74 c -0.936,1.196 -1.993,2.646 -3.132,4.31 -8.399,12.318 -20.988,35.062 -20.988,35.062 -0.896,1.623 -0.875,3.606 0.08,5.203 0.956,1.597 2.685,2.564 4.535,2.534 l 52.492,-0.195 c 2.115,-0.033 4.026,-1.196 5.023,-3.041 0.996,-1.847 0.936,-4.09 -0.184,-5.865 l -26.459,-42.333 c 0.04,-4.011 0.122,-13.743 0.203,-21.581 0,-0.395 0.122,-0.808 -0.02,-1.166 -1.18,-3.13 -2.542,-2.859 -4.332,-4.94 0.04,-0.344 -0.224,-0.645 -0.569,-0.669 -0.345,-0.024 -0.65,0.236 -0.671,0.582 -2.054,1.831 -3.376,1.454 -4.901,4.468 -0.184,0.352 -0.08,0.785 -0.122,1.188 -0.936,10.206 -1.566,23.645 -1.566,23.645 -0.02,0.972 0.185,1.932 0.611,2.798 z m 4.414,7.041 -0.509,1.204 c -3.804,8.461 -10.21,20.403 -14.501,28.225 l 33.11,-0.899 z"
   id="path36" />
&#10;			</g>
&#10;		</g>
&#10;	</g>
  </g>
</svg>
